<?xml version="1.0" encoding="UTF-8"?>
<!DOCTYPE svg PUBLIC "-//W3C//DTD SVG 1.1//EN" "http://www.w3.org/Graphics/SVG/1.1/DTD/svg11.dtd">
<!-- Creator: CorelDRAW -->
<svg xmlns="http://www.w3.org/2000/svg" xml:space="preserve" width="47.987mm" height="41.9498mm" version="1.1" style="shape-rendering:geometricPrecision; text-rendering:geometricPrecision; image-rendering:optimizeQuality; fill-rule:evenodd; clip-rule:evenodd"
viewBox="0 0 4798.7 4194.98"
 xmlns:xlink="http://www.w3.org/1999/xlink"
 xmlns:xodm="http://www.corel.com/coreldraw/odm/2003">
 <defs>
  <style type="text/css">
   <![CDATA[
    .str0 {stroke:white;stroke-width:16.32;stroke-linejoin:round;stroke-miterlimit:22.9256}
    .fil0 {fill:#B9C281;fill-rule:nonzero}
   ]]>
  </style>
 </defs>
 <g id="Camada_x0020_1">
  <metadata id="CorelCorpID_0Corel-Layer"/>
  <g id="_2021274946240">
   <polygon class="fil0 str0" points="4602.22,1388.14 4609.26,1400.46 4790.55,1516.63 4772.95,1590.56 4765.91,1650.4 4767.67,1733.13 4774.71,1803.54 4781.75,1859.86 4781.75,1910.9 4778.23,1926.75 4750.07,1997.16 4743.03,2009.48 4734.23,2016.52 4691.98,2035.87 4672.62,2051.72 4665.58,2057 4646.22,2106.28 4644.46,2113.32 4640.94,2120.37 4625.09,2125.65 4619.81,2130.93 4626.85,2130.93 4628.61,2136.21 4623.33,2155.57 4619.81,2157.33 4618.05,2157.33 4614.54,2159.09 4611.02,2162.62 4612.78,2167.9 4612.78,2171.42 4616.3,2178.45 4616.3,2181.97 4616.3,2185.49 4612.78,2194.29 4607.5,2218.94 4605.74,2220.7 4603.98,2224.22 4596.94,2241.83 4593.42,2247.1 4589.89,2250.62 4588.13,2250.62 4588.13,2248.86 4584.61,2245.34 4581.09,2245.34 4577.57,2247.1 4575.81,2250.62 4574.05,2252.38 4568.77,2248.86 4570.53,2238.3 4568.77,2234.78 4563.49,2233.02 4556.45,2233.02 4544.13,2234.78 4549.4,2238.3 4551.17,2243.59 4549.4,2247.1 4542.37,2247.1 4542.37,2250.62 4544.13,2250.62 4547.64,2252.38 4544.13,2259.42 4545.89,2268.22 4551.17,2269.98 4559.97,2268.22 4559.97,2273.5 4563.49,2273.5 4568.77,2266.46 4575.81,2264.7 4582.85,2268.22 4577.57,2271.74 4572.29,2278.78 4568.77,2285.83 4563.49,2303.43 4556.45,2319.26 4551.17,2335.11 4535.33,2361.51 4526.53,2379.12 4521.25,2384.39 4515.97,2379.12 4507.16,2387.91 4503.64,2391.43 4489.56,2417.84 4486.04,2421.36 4477.25,2428.4 4475.49,2431.92 4468.44,2449.53 4459.64,2451.29 4456.12,2461.84 4452.6,2463.6 4450.84,2460.08 4449.08,2456.56 4447.32,2451.29 4443.8,2451.29 4440.28,2453.04 4438.52,2454.8 4426.19,2461.84 4415.63,2465.36 4410.35,2468.88 4406.84,2474.16 4405.08,2479.44 4401.56,2482.96 4399.8,2488.25 4396.28,2493.53 4391,2498.81 4389.24,2511.13 4389.24,2523.44 4387.48,2532.25 4385.71,2539.29 4380.43,2542.81 4376.91,2551.61 4376.91,2555.13 4375.15,2560.41 4348.75,2597.37 4338.19,2614.98 4332.91,2629.06 4327.63,2625.54 4325.87,2620.26 4324.11,2618.5 4322.35,2616.74 4306.51,2611.46 4302.98,2611.46 4299.46,2607.93 4295.94,2606.17 4283.62,2606.17 4258.98,2611.46 4241.38,2611.46 4232.58,2613.22 4230.82,2613.22 4227.3,2613.22 4214.97,2607.93 4213.21,2606.17 4211.45,2604.41 4209.69,2602.65 4207.93,2600.89 4192.1,2597.37 4183.3,2595.61 4179.77,2597.37 4176.25,2597.37 4170.97,2600.89 4169.21,2602.65 4167.45,2602.65 4165.69,2600.89 4158.65,2599.13 4156.89,2597.37 4149.85,2592.09 4144.57,2590.34 4142.81,2590.34 4141.05,2590.34 4139.28,2590.34 4137.52,2592.09 4135.76,2592.09 4130.48,2590.34 4126.97,2590.34 4125.21,2588.58 4123.45,2588.58 4119.93,2588.58 4116.41,2586.82 4111.13,2581.54 4104.09,2579.78 4100.57,2578.02 4091.76,2574.5 4090,2574.5 4082.96,2567.45 4081.2,2567.45 4077.68,2565.69 4075.92,2565.69 4074.16,2565.69 4072.4,2565.69 4070.64,2567.45 4068.88,2567.45 4067.12,2565.69 4067.12,2563.93 4068.88,2562.17 4067.12,2560.41 4065.36,2558.65 4063.6,2556.89 4063.6,2553.37 4063.6,2549.85 4063.6,2548.09 4061.84,2541.05 4063.6,2539.29 4063.6,2537.53 4065.36,2535.77 4065.36,2534.01 4065.36,2530.49 4065.36,2528.73 4065.36,2525.2 4067.12,2519.93 4067.12,2518.17 4067.12,2516.41 4065.36,2509.37 4063.6,2502.33 4061.84,2498.81 4061.84,2495.29 4063.6,2491.77 4063.6,2488.25 4063.6,2482.96 4065.36,2481.2 4065.36,2477.68 4065.36,2475.92 4061.84,2474.16 4060.09,2472.4 4058.32,2470.64 4058.32,2467.12 4058.32,2461.84 4058.32,2458.32 4058.32,2456.56 4056.56,2456.56 4054.8,2454.8 4053.04,2453.04 4033.68,2447.77 4014.31,2440.72 4009.03,2437.2 4009.03,2435.44 4007.27,2431.92 4009.03,2430.16 4010.79,2430.16 4012.55,2426.64 4016.07,2423.12 4023.12,2405.52 4024.88,2401.99 4033.68,2391.43 4033.68,2387.91 4033.68,2386.15 4031.92,2384.39 4030.16,2382.63 4028.4,2382.63 4026.64,2384.39 4023.12,2386.15 4021.36,2386.15 4019.6,2386.15 4017.83,2386.15 4017.83,2384.39 4017.83,2382.63 4023.12,2375.6 4024.88,2372.08 4030.16,2356.23 4030.16,2354.47 4031.92,2352.71 4035.44,2350.95 4037.2,2349.19 4038.96,2347.43 4038.96,2345.67 4035.44,2336.87 4033.68,2335.11 4033.68,2324.55 4038.96,2306.95 4026.64,2301.67 4024.88,2299.91 4023.12,2298.15 4021.36,2292.87 4019.6,2287.59 4017.83,2285.83 4017.83,2282.3 4017.83,2278.78 4017.83,2277.02 4019.6,2275.26 4023.12,2271.74 4024.88,2268.22 4031.92,2264.7 4042.48,2257.66 4046,2255.9 4047.76,2252.38 4053.04,2234.78 4053.04,2233.02 4056.56,2229.5 4058.32,2227.74 4061.84,2225.98 4067.12,2224.22 4165.69,2225.98 4176.25,2225.98 4181.53,2222.46 4186.82,2220.7 4188.58,2218.94 4190.34,2217.18 4199.14,2196.05 4199.14,2194.29 4199.14,2190.77 4199.14,2187.25 4202.65,2174.93 4209.69,2150.29 4211.45,2145.01 4211.45,2136.21 4211.45,2130.93 4213.21,2129.17 4213.21,2127.41 4216.73,2123.89 4220.25,2118.61 4222.01,2116.84 4223.78,2115.08 4225.54,2115.08 4227.3,2115.08 4229.06,2115.08 4232.58,2115.08 4234.34,2115.08 4237.86,2113.32 4244.9,2104.52 4246.66,2102.77 4251.94,2099.25 4253.7,2097.49 4255.46,2095.73 4257.22,2074.6 4257.22,2069.32 4257.22,2065.8 4262.5,2028.84 4264.27,2018.28 4267.79,2014.76 4269.54,2014.76 4280.1,2007.72 4283.62,2005.96 4285.38,2000.68 4288.9,1997.16 4290.66,1995.4 4292.42,1995.4 4294.18,1995.4 4295.94,1995.4 4297.7,1993.63 4308.27,1981.31 4310.03,1977.79 4310.03,1976.03 4310.03,1974.27 4304.74,1963.72 4302.98,1961.96 4302.98,1960.2 4302.98,1958.44 4304.74,1954.92 4306.51,1953.15 4308.27,1953.15 4315.31,1958.44 4317.07,1958.44 4318.83,1958.44 4322.35,1960.2 4324.11,1958.44 4327.63,1956.68 4331.15,1953.15 4332.91,1949.63 4334.67,1947.87 4336.43,1946.11 4336.43,1942.59 4336.43,1940.83 4336.43,1939.07 4334.67,1935.55 4334.67,1932.03 4336.43,1926.75 4343.46,1907.38 4345.22,1905.62 4345.22,1902.1 4345.22,1891.55 4346.99,1880.99 4346.99,1877.47 4345.22,1875.71 4345.22,1873.95 4343.46,1873.95 4341.7,1870.42 4341.7,1866.9 4343.46,1858.1 4343.46,1847.54 4343.46,1835.22 4341.7,1824.66 4339.94,1822.9 4334.67,1815.86 4332.91,1812.34 4315.31,1794.74 4313.55,1792.98 4310.03,1792.98 4306.51,1791.22 4304.74,1791.22 4302.98,1787.69 4302.98,1785.93 4302.98,1782.41 4310.03,1770.09 4311.79,1763.05 4311.79,1761.29 4310.03,1759.53 4308.27,1757.77 4306.51,1757.77 4302.98,1756.02 4301.22,1756.02 4301.22,1752.5 4301.22,1748.97 4302.98,1745.45 4301.22,1743.69 4295.94,1741.93 4294.18,1740.17 4292.42,1740.17 4292.42,1738.41 4288.9,1731.37 4287.14,1731.37 4285.38,1729.61 4283.62,1727.85 4281.86,1727.85 4278.34,1727.85 4276.58,1727.85 4274.82,1727.85 4271.3,1729.61 4269.54,1731.37 4266.03,1734.89 4264.27,1734.89 4262.5,1734.89 4260.74,1734.89 4257.22,1733.13 4253.7,1731.37 4248.42,1729.61 4246.66,1727.85 4246.66,1726.09 4243.14,1719.05 4237.86,1715.53 4236.1,1713.77 4236.1,1712.01 4236.1,1710.25 4237.86,1708.49 4237.86,1706.72 4239.62,1703.2 4241.38,1701.44 4243.14,1701.44 4246.66,1699.68 4250.18,1697.92 4260.74,1697.92 4269.54,1697.92 4276.58,1697.92 4280.1,1697.92 4281.86,1697.92 4283.62,1699.68 4283.62,1701.44 4283.62,1703.2 4285.38,1704.96 4288.9,1706.72 4327.63,1704.96 4334.67,1703.2 4339.94,1701.44 4341.7,1701.44 4345.22,1697.92 4346.99,1696.16 4346.99,1694.4 4348.75,1690.88 4350.51,1687.37 4350.51,1685.61 4350.51,1680.33 4346.99,1655.68 4345.22,1653.92 4345.22,1652.16 4343.46,1650.4 4343.46,1648.64 4341.7,1646.88 4339.94,1646.88 4338.19,1646.88 4318.83,1645.12 4315.31,1645.12 4313.55,1643.36 4311.79,1643.36 4311.79,1641.6 4310.03,1639.84 4310.03,1636.32 4310.03,1634.56 4313.55,1616.96 4317.07,1597.6 4318.83,1581.75 4318.83,1571.19 4320.59,1565.91 4318.83,1558.87 4317.07,1555.35 4317.07,1553.59 4311.79,1546.56 4310.03,1544.8 4306.51,1541.27 4302.98,1539.51 4297.7,1535.99 4294.18,1534.23 4290.66,1532.47 4288.9,1528.95 4278.34,1539.51 4273.06,1543.03 4271.3,1543.03 4267.79,1541.27 4274.82,1527.19 4274.82,1521.91 4271.3,1516.63 4271.3,1513.11 4269.54,1507.83 4271.3,1504.31 4271.3,1502.54 4280.1,1495.5 4287.14,1486.7 4294.18,1472.63 4297.7,1467.35 4299.46,1463.83 4301.22,1462.07 4304.74,1462.07 4311.79,1462.07 4313.55,1462.07 4315.31,1462.07 4338.19,1440.94 4341.7,1437.42 4345.22,1435.66 4346.99,1435.66 4348.75,1435.66 4352.27,1435.66 4354.03,1435.66 4355.79,1435.66 4357.55,1437.42 4359.31,1437.42 4362.83,1442.7 4364.59,1444.46 4369.87,1446.22 4371.63,1447.98 4375.15,1451.5 4378.67,1453.26 4380.43,1453.26 4389.24,1453.26 4394.52,1453.26 4396.28,1453.26 4401.56,1453.26 4403.32,1451.5 4403.32,1447.98 4403.32,1440.94 4401.56,1437.42 4401.56,1435.66 4401.56,1432.14 4399.8,1432.14 4352.27,1386.38 4350.51,1384.62 4350.51,1382.86 4350.51,1379.33 4352.27,1377.57 4354.03,1377.57 4355.79,1377.57 4359.31,1381.1 4361.07,1382.86 4362.83,1382.86 4364.59,1384.62 4368.11,1384.62 4371.63,1382.86 4378.67,1381.1 4380.43,1381.1 4382.19,1381.1 4383.95,1381.1 4385.71,1382.86 4389.24,1384.62 4391,1386.38 4392.76,1386.38 4394.52,1386.38 4396.28,1386.38 4401.56,1382.86 4406.84,1381.1 4412.11,1377.57 4415.63,1375.81 4417.39,1375.81 4419.15,1375.81 4429.72,1379.33 4435,1379.33 4438.52,1381.1 4443.8,1379.33 4449.08,1375.81 4464.92,1367.01 4468.44,1363.49 4473.73,1363.49 4486.04,1359.97 4489.56,1359.97 4491.32,1359.97 4493.08,1359.97 4494.84,1359.97 4501.88,1367.01 4503.64,1368.77 4505.4,1370.53 4507.16,1370.53 4510.69,1370.53 4512.45,1370.53 4514.21,1368.77 4515.97,1367.01 4515.97,1365.25 4514.21,1358.21 4514.21,1356.45 4514.21,1352.93 4517.73,1351.17 4519.49,1349.41 4521.25,1349.41 4521.25,1351.17 4523.01,1354.69 4523.01,1356.45 4524.77,1358.21 4526.53,1358.21 4544.13,1363.49 4547.64,1367.01 4549.4,1367.01 4556.45,1367.01 4558.21,1367.01 4559.97,1368.77 4559.97,1370.53 4561.73,1372.29 4563.49,1374.05 4565.25,1375.81 4567.01,1375.81 4570.53,1375.81 4572.29,1375.81 4577.57,1375.81 4579.33,1375.81 4581.09,1375.81 4582.85,1377.57 4584.61,1377.57 4584.61,1379.33 4588.13,1381.1 4589.89,1382.86 4591.65,1382.86 4598.7,1386.38 "/>
   <path class="fil0 str0" d="M8.16 3174.71l10.56 -10.56 8.79 -10.56 21.13 -38.72 1.76 -1.76 3.52 -1.76 5.28 -1.76 3.52 -1.76 3.52 -3.52 5.28 -12.33 7.04 -10.56 1.76 -1.76 3.53 3.52 5.28 0 7.03 -3.52 26.41 -12.31 1.76 -1.76 3.52 -10.57 1.76 -1.76 1.76 -1.76 33.45 -19.36 10.55 -10.56 7.04 -3.53 19.36 -7.04 10.57 -10.55 7.04 -3.52 3.52 -1.76 7.04 0 3.52 -1.76 3.51 -1.76 8.81 -8.8 3.52 -1.76 8.8 -5.29 1.76 -1.76 7.04 -8.8 22.89 -21.12 1.76 -3.52 3.52 -10.56 0 -1.76 10.55 -22.88 1.76 -5.28 1.76 -12.33 1.76 -5.28 3.52 -5.28 17.61 -17.59 1.76 -1.76 7.04 -1.77 3.52 -3.52 3.52 -3.52 1.76 -3.52 3.52 -3.52 1.76 -5.28 0 -7.04 1.76 -5.28 10.56 -17.61 5.29 -3.52 12.31 -5.27 8.8 -7.04 7.04 -5.28 5.28 -7.04 1.76 -8.81 -1.76 -3.52 -1.76 -3.52 -5.28 -1.76 -15.84 -26.4 1.76 -10.56 1.76 -1.76 1.76 0 1.76 -1.76 1.76 -1.76 0 -1.76 0 -1.76 0 -1.76 1.76 -3.52 3.52 -1.76 1.76 -1.76 5.28 0 7.05 0 5.28 1.76 5.28 1.76 7.04 -3.52 5.28 -3.52 10.55 -17.61 1.76 -7.04 21.13 -22.87 7.04 -17.61 -1.76 -15.84 -7.04 -31.68 1.76 -10.56 3.52 -5.28 7.04 -3.52 8.8 -7.05 5.29 -3.52 1.76 -1.76 1.76 -1.76 7.04 -10.56 8.8 -22.89 3.51 -3.51 1.76 -1.76 7.04 -5.28 24.65 -28.17 3.52 -7.04 3.52 -40.48 0 -17.6 0 -8.8 8.8 -14.09 3.52 -17.59 1.76 -7.04 7.05 -5.28 17.59 -3.53 17.6 -19.36 8.81 -12.32 14.08 -17.61 5.28 -10.55 14.07 -14.08 5.29 -5.28 21.12 -10.57 47.52 -14.08 7.04 -5.28 10.57 -8.8 10.56 -12.32 8.8 -15.84 12.32 -31.69 15.84 -19.35 21.12 -17.61 7.05 -3.52 61.6 -22.88 8.8 -3.52 7.04 -3.53 26.41 -26.39 7.03 -14.09 12.33 -7.04 12.32 -3.52 12.32 0 10.56 3.52 8.81 8.8 12.31 15.85 8.8 5.28 114.42 15.83 47.52 7.05 119.69 0 17.6 3.52 31.69 10.56 7.03 5.28 24.65 -5.28 8.8 -1.76 7.04 1.76 7.05 3.52 3.52 3.52 -1.76 7.04 -12.33 5.28 -1.76 0 -1.76 1.76 -1.76 5.29 0 3.52 -3.52 10.55 0 8.8 3.52 17.61 1.76 7.04 8.8 17.6 8.81 12.32 5.28 14.08 3.52 5.28 12.31 5.28 12.32 -5.28 10.57 -10.56 7.04 -10.56 10.56 -26.4 10.56 -8.8 12.33 1.76 8.79 12.32 3.52 17.6 -1.76 35.2 1.76 29.93 3.52 3.52 15.84 7.04 5.29 3.52 10.56 -8.8 1.76 -3.52 -1.76 -5.28 -1.76 -10.56 -1.76 -5.29 0 -19.36 -1.76 -7.04 -1.76 -3.52 0 -3.52 5.28 -7.04 3.52 -10.56 3.52 -10.56 3.52 -8.8 8.8 -5.28 17.6 0 14.08 -1.76 5.28 0 21.13 3.52 7.04 1.76 5.28 -1.76 12.31 -8.81 7.04 -3.52 28.17 3.52 3.52 -1.76 3.52 -1.76 8.81 -1.76 15.83 -3.52 29.93 0 7.04 3.52 12.32 7.04 5.28 0 8.8 -8.8 -8.8 -26.39 7.04 -10.57 8.8 7.04 3.52 7.05 3.52 10.55 3.52 8.8 7.04 5.28 14.08 5.28 10.57 7.05 3.52 0 3.52 0 5.28 -3.53 1.76 -1.76 1.76 -3.52 1.76 -1.76 1.76 0 5.27 -1.76 1.76 -1.76 3.52 -7.04 1.76 -7.04 0 -17.6 5.29 1.76 3.52 1.77 3.52 3.52 3.52 5.28 0 3.52 0 5.27 1.76 3.52 1.76 5.28 3.52 1.76 3.52 0 3.52 0 3.52 -1.76 5.28 -3.52 3.52 -8.8 1.77 -8.79 0 -7.05 -3.53 -7.04 0 -3.52 3.53 -1.76 1.76 -3.52 3.52 -3.52 3.52 -1.76 45.76 -1.76 5.28 1.76 7.04 7.04 8.8 12.32 7.05 3.53 7.03 -1.77 5.28 -5.28 3.52 -5.28 3.52 -5.28 8.8 -1.76 8.8 -1.76 7.05 -1.76 8.8 -3.52 5.28 -3.52 3.52 3.52 7.04 5.28 1.76 1.76 1.76 3.52 0 3.52 -1.76 1.76 0 3.52 0 3.52 -1.76 1.76 0 1.77 8.79 8.8 5.29 3.52 3.52 1.75 5.28 0 24.64 17.6 3.52 5.28 14.09 10.57 3.52 8.8 3.52 7.04 0 7.04 0 1.76 0 3.52 -1.76 5.29 -1.76 3.51 0 1.76 -1.76 1.76 -5.28 5.28 -1.76 0 0 1.76 -1.76 3.52 0 7.04 -1.76 22.89 -1.76 8.8 0 5.28 -1.76 3.52 0 1.76 0 3.52 1.76 1.75 8.8 10.57 3.52 3.52 35.2 15.84 1.76 1.76 0 1.76 1.76 1.76 1.76 1.76 1.76 3.52 8.8 31.68 0 1.76 0 7.04 -1.76 3.52 0 3.52 -3.52 3.53 -1.76 1.76 -3.52 1.76 -3.52 0 -1.76 1.76 -1.76 1.76 -1.76 8.8 0 3.52 -1.76 5.28 -3.53 7.04 -1.76 1.76 -1.76 1.76 -5.28 3.52 -3.52 7.05 -1.76 28.15 -3.52 7.04 1.76 3.53 0 1.76 3.52 3.52 1.76 1.76 3.52 0 1.76 0 1.76 1.76 3.52 3.52 3.53 7.04 3.52 3.52 3.52 3.52 1.76 1.76 -1.76 1.76 -1.76 3.51 0 1.76 0 1.76 0 3.53 7.04 24.64 0 3.52 0 10.56 1.76 1.77 1.76 3.52 15.84 21.11 3.52 1.76 1.76 1.76 3.53 0 0 3.52 3.52 10.57 5.27 15.84 1.76 3.52 1.76 8.8 1.76 3.52 7.04 10.57 0 1.76 0 1.76 1.76 3.51 -1.76 1.76 -1.76 8.8 0 1.76 0 1.76 0 1.76 3.52 1.76 5.28 1.76 28.17 -3.52 1.76 0 1.76 0 1.76 -1.76 3.52 -1.76 1.76 -1.76 1.76 0 3.52 0 1.76 -1.76 1.76 0 1.75 -1.76 1.76 -1.76 1.77 -3.52 0 -1.76 1.76 0 1.76 -1.76 10.56 1.76 3.52 -1.76 1.76 0 1.76 1.76 8.8 1.76 8.8 5.28 7.05 5.28 1.76 0 1.76 1.76 1.76 -1.76 1.76 0 3.52 -5.28 3.52 -3.52 1.76 0 1.76 0 1.76 0 0 7.04 1.75 3.52 1.76 1.76 5.28 1.76 1.76 0 1.76 3.52 0 1.76 1.76 3.52 1.77 0 1.76 0 1.76 0 3.52 0 1.76 -1.76 1.76 0 3.52 0 3.52 1.76 5.28 1.76 1.76 0 1.76 1.76 1.76 1.77 1.76 1.76 1.76 1.76 0 1.76 1.76 17.6 1.76 1.76 0 3.52 1.76 0 0 1.76 -1.76 1.76 -3.52 3.52 -1.76 0 0 1.75 -1.76 3.53 -1.76 5.28 0 10.56 1.76 1.76 0 1.76 -1.76 1.76 -3.52 3.52 -1.76 0 0 1.76 -1.76 1.76 -7.04 19.37 -1.76 1.76 -1.76 1.76 -1.76 0 -8.81 -1.76 -1.76 0 -1.76 3.52 -7.04 29.92 0 5.28 -1.76 1.76 -7.03 3.52 -1.76 3.52 -1.76 1.76 -1.76 1.76 0 1.76 0 3.52 1.76 5.28 1.76 1.76 1.76 1.76 1.76 0 0 1.76 1.76 1.76 0 1.76 0 1.76 -1.76 3.53 -3.52 3.52 0 1.76 0 3.52 8.79 21.11 7.04 10.57 0 1.76 -1.76 1.76 -1.76 3.52 -3.52 1.76 -1.75 0 -1.76 0 -1.76 0 -1.76 0 -1.76 1.76 -1.76 3.52 -1.76 1.76 0 1.76 1.76 3.52 1.76 1.76 0 1.76 -1.76 1.76 -1.76 1.76 -7.04 0 -1.76 1.76 -1.76 1.76 1.76 1.76 1.76 3.52 1.76 1.76 1.76 1.76 3.52 0 10.56 0 1.75 1.76 1.76 0 1.76 1.76 8.8 12.32 0 1.76 -1.76 3.52 -8.8 8.8 -5.27 3.52 -7.04 10.57 -12.32 29.91 -1.76 8.81 1.76 3.52 1.76 1.76 12.32 14.08 0 3.52 1.76 1.76 -1.76 7.04 0 3.52 3.52 1.76 3.52 3.53 17.6 7.04 12.32 1.76 1.76 0 1.76 1.76 0 3.51 0 5.28 0 3.52 1.76 1.76 1.76 1.76 7.04 0 7.04 3.52 15.85 10.57 3.51 1.76 7.04 1.76 5.28 0 5.28 0 1.76 0 0 1.76 -1.76 3.52 0 1.76 -1.76 1.76 -3.52 1.76 -1.76 0 -1.76 3.52 0 1.76 0 5.28 1.76 3.52 1.76 1.76 5.28 7.04 0 1.76 -1.76 3.53 -1.76 1.75 -1.76 1.76 -17.59 5.28 -3.52 3.52 -1.76 0 0 1.76 -1.76 1.76 1.76 3.52 0 1.76 10.55 7.04 5.28 5.28 21.12 12.33 3.53 3.52 1.76 3.52 -3.52 5.28 0 1.76 0 1.76 0 8.79 0 3.52 0 5.29 1.76 3.52 1.76 5.28 1.76 1.76 1.76 1.76 1.76 0 3.52 1.76 7.04 0 3.52 1.76 3.52 1.76 3.52 0 3.52 0 1.76 -1.76 1.76 -1.76 1.76 -1.76 1.77 0 1.75 1.76 3.52 1.76 1.76 0 3.52 -1.76 3.52 -1.76 1.76 -1.76 1.76 -1.76 1.76 0 1.76 -1.76 12.32 -1.76 1.76 0 1.76 1.76 1.76 1.76 0 1.76 0 1.76 -1.76 1.76 -1.76 1.76 0 1.76 0 1.76 1.76 1.76 7.05 1.76 28.15 -5.28 8.8 -1.76 3.53 -1.76 3.52 -1.76 3.52 -1.76 3.52 -3.52 0 -1.76 3.52 -3.52 0 -1.76 3.52 0 3.52 0 3.52 1.76 1.76 0 1.76 -1.76 3.52 -3.53 0 -1.76 1.76 -1.76 3.52 1.76 0 1.76 1.77 3.53 1.76 1.76 0 1.76 3.52 1.76 3.52 1.76 3.52 3.52 3.52 0 1.75 -3.52 1.76 -1.76 3.52 -5.28 3.52 -1.77 1.76 -1.76 3.52 0 1.76 1.76 0 1.77 1.76 1.76 0 1.76 1.76 1.76 1.76 0 1.77 0 1.76 0 3.52 -3.52 0 -1.76 1.76 -3.53 0 -1.76 -1.76 -1.76 0 -1.76 0 -1.75 -1.76 -3.52 1.76 -1.76 0 -1.76 1.76 0 3.52 0 3.52 1.76 1.76 1.76 1.76 -1.76 1.76 -3.52 1.76 -1.76 0 -7.04 0 -3.52 0 -3.52 0 -1.76 0 -1.76 -1.76 -1.76 -1.76 -1.77 -1.76 0 -1.76 0 -5.28 0 -8.8 0 -1.77 0 -1.76 0 -1.76 -1.76 -1.76 0 0 -1.76 0 -3.52 0 -1.76 1.76 0 29.93 -19.36 1.76 -1.76 1.76 -3.52 -1.76 -1.76 0 -1.75 0 -1.76 -5.28 -5.29 -1.76 -1.76 0 -1.76 -1.76 -1.76 3.52 -3.52 7.04 0 14.09 -1.76 5.27 0 1.76 1.76 -1.76 1.76 -1.76 3.52 -1.75 3.52 -3.53 3.52 -1.76 1.77 -1.76 1.76 0 1.75 0 3.52 1.76 1.76 1.76 0 1.77 1.76 1.76 0 1.75 0 3.52 0 3.52 -1.76 8.8 -5.28 7.04 -5.28 1.76 0 1.76 0 1.76 0 1.76 1.77 0 1.76 0 1.75 1.76 1.76 0 1.76 1.76 1.76 12.33 1.76 3.52 0 3.52 -1.76 7.04 -5.28 3.52 -1.75 1.76 -1.76 5.27 -8.81 1.76 -1.76 1.76 0 3.53 0 1.76 1.76 1.76 0 3.52 3.52 0 1.76 1.76 1.76 0 1.77 0 5.27 0 1.76 1.76 1.76 1.76 1.76 1.76 0 3.52 -1.76 15.84 -8.79 26.41 -7.05 1.75 -1.76 3.52 -1.76 1.76 -3.52 0 -1.76 0 -5.28 0 -1.76 1.76 0 3.52 0 3.52 0 1.76 -1.76 5.29 -5.28 7.04 -5.28 1.76 -1.76 19.36 -10.57 3.52 -3.52 21.12 -8.8 3.52 -1.76 7.04 1.76 3.52 0 3.52 -1.76 5.28 -3.52 3.52 -1.76 3.53 0 10.56 0 5.28 0 1.76 0 8.8 -3.51 22.88 -12.32 5.28 0 5.28 0 10.56 5.28 5.28 3.52 3.52 3.52 1.77 3.51 8.8 17.6 1.76 3.52 3.52 3.52 5.28 3.53 5.27 7.04 1.76 1.76 0 1.76 1.76 1.76 1.76 0 3.52 0 0 1.76 3.52 12.32 0 1.76 1.76 1.76 1.77 1.76 8.8 3.52 1.76 0 3.52 0 5.28 0 1.76 -1.76 3.52 0 1.76 0 5.28 3.52 3.52 1.77 1.76 0 5.29 0 3.52 -1.77 1.76 0 0 -1.76 1.76 0 1.76 0 15.83 -1.76 1.76 0 1.76 -1.76 1.76 -1.76 3.52 0 7.05 0 3.52 -1.76 1.76 0 1.76 -3.52 1.76 -1.76 1.76 1.76 3.52 3.52 1.76 1.76 5.28 0 3.52 -1.76 5.28 -1.76 8.8 0 12.32 1.76 5.28 0 1.76 0 1.76 -1.76 1.76 0 1.76 -1.76 0 1.76 5.28 7.04 5.28 8.8 7.04 12.32 1.77 3.52 0 3.52 0 1.76 0 1.76 -1.77 1.76 -1.76 1.76 -3.52 1.76 -1.76 0 -5.28 1.76 -3.52 1.76 -3.52 1.76 -8.8 10.57 -1.76 3.52 1.76 3.52 0 1.76 0 1.76 0 3.52 -5.28 10.55 -1.76 1.76 -1.76 1.76 -12.32 3.52 -17.6 10.57 -5.28 1.76 -1.76 0 -3.52 -1.76 -1.76 -1.76 -1.76 0 -10.57 5.28 -3.52 0 -3.52 1.76 -1.76 -1.76 -1.76 0 0 -1.76 -1.76 -1.76 0 -1.76 -1.76 -1.76 -1.76 0 -19.36 12.32 -5.28 1.76 -1.76 0 -5.28 -3.52 -1.76 0 -3.52 0 -1.76 0 -1.76 0 -8.8 5.28 -12.33 8.8 -7.04 3.52 -3.52 1.76 -12.31 1.76 -1.76 0 -1.76 1.76 -1.76 0 -3.52 3.53 -1.76 1.76 -3.53 8.8 -1.76 1.76 -3.52 0 -1.76 1.76 -7.04 0 -1.76 1.76 0 1.76 0 3.51 0 1.76 0 5.28 0 1.76 -3.52 21.13 0 7.04 0 5.28 0 3.52 0 3.52 0 3.52 -3.52 7.05 -3.52 3.52 -1.76 1.76 -1.76 0 -3.52 3.51 -7.05 10.56 0 3.52 0 1.76 0 1.76 0 1.76 1.77 3.52 8.8 14.09 5.28 8.8 1.76 1.76 3.52 0 1.76 -1.76 0 -1.76 1.76 0 3.52 1.76 1.76 3.52 3.52 7.04 3.52 3.52 10.57 7.03 -1.76 5.28 -5.29 1.77 -5.28 1.76 -7.04 1.76 -5.28 -1.76 -5.28 1.76 -5.28 3.52 -5.28 0 -1.76 -3.52 -1.76 -3.52 -1.76 -3.53 -3.53 0 -3.51 0 -1.76 0 -5.28 1.76 1.76 -8.79 -8.8 3.51 -12.32 7.05 -3.52 3.52 -1.76 1.76 -3.52 5.28 -1.77 1.76 -1.76 0 -5.28 1.76 -1.76 0 -7.04 3.52 -3.52 0 -1.76 -3.52 -3.52 8.8 5.28 3.52 5.28 3.52 5.28 5.28 -8.8 0 -7.04 5.29 -7.03 15.84 -3.52 -7.04 -3.52 -1.76 -1.77 1.76 1.77 7.04 -3.53 0 -3.52 -1.76 -5.28 -3.52 -3.52 -3.52 -3.52 -1.76 -1.76 5.28 0 5.28 1.76 5.28 -7.04 1.75 -5.28 -1.75 -7.04 -1.76 -5.29 7.03 5.29 7.04 0 5.28 -3.53 1.76 -3.52 0 -10.56 5.29 -5.28 -1.76 -5.27 -5.29 -3.52 -1.76 -3.52 1.76 -3.52 3.53 -3.52 3.52 -1.77 1.76 -8.8 3.52 -7.04 3.52 -7.04 3.52 -8.8 -1.76 0 3.52 -5.28 5.28 -1.76 3.52 0 5.28 1.76 8.81 1.76 3.52 0 5.27 3.52 1.76 3.52 0 1.76 1.76 0 5.28 -1.76 8.8 0 3.52 3.52 7.04 0 7.05 -3.52 7.04 -7.04 5.28 -5.28 0 -3.53 -1.76 -1.76 -1.76 -3.51 0 -5.28 1.76 -7.04 3.52 -3.52 0 -7.04 -3.52 -8.8 -10.56 -7.05 -1.76 -12.32 1.76 -3.52 0 -1.76 0 -1.76 -3.52 -1.76 0 -7.04 -1.77 0 1.77 -22.88 -8.81 -22.88 0 -3.53 -1.76 -8.8 -3.52 -1.76 0 -15.83 0 -31.69 8.8 -12.32 5.29 -5.28 3.52 -5.29 3.52 -1.76 7.04 -3.52 0 -8.79 -1.76 -7.04 1.76 -7.04 3.52 -12.32 5.28 -1.77 0 0 -1.76 -1.76 0 -5.28 8.8 -7.04 8.79 -8.8 5.29 -10.56 3.52 0 1.76 7.04 0 5.28 -1.76 5.28 -3.52 14.08 -14.08 5.29 -1.76 7.04 0 -14.09 15.84 -3.52 5.28 -1.76 7.04 -1.76 7.04 0 7.04 1.76 3.52 -3.52 3.52 -3.52 1.76 -5.28 -1.76 0 -1.76 -3.52 -3.52 -3.52 1.76 -5.28 1.76 -7.04 3.52 -5.28 5.29 -7.04 5.28 -10.56 -3.52 3.52 -5.29 8.8 -3.52 1.76 -3.52 0 -5.28 -1.76 -5.28 -3.52 -3.52 -1.76 -3.52 0 -5.28 -3.52 -3.52 -3.52 -1.76 -10.56 -1.76 -3.52 -1.76 -1.76 -1.76 1.76 -3.52 0 -3.52 -10.57 -1.76 0 5.28 0 7.04 -3.52 3.52 -3.52 0 -1.76 3.52 1.76 3.52 -8.8 0 -7.03 -1.76 1.76 3.52 1.75 3.52 3.52 0 1.76 1.76 0 1.76 3.52 8.8 1.76 1.76 3.52 0 5.28 0 3.52 1.76 1.76 1.76 0 8.81 -1.76 3.52 -3.52 1.76 0 -1.76 -1.76 -3.52 -1.76 0 -3.52 -1.76 -21.11 12.32 -44.01 19.35 -54.57 33.45 -38.72 19.37 -29.92 17.59 -10.57 10.56 -7.04 12.33 -3.52 14.08 -3.52 1.76 0 1.76 3.52 8.8 0 3.52 -5.28 5.28 -7.03 3.52 -5.28 -1.76 -1.76 -7.04 -7.05 15.84 -3.52 1.76 -5.28 1.76 -8.8 10.56 -5.28 1.76 -15.85 17.61 -91.52 56.32 -5.28 -1.76 -5.28 1.76 -8.8 5.28 -8.8 -1.76 -3.53 0 -3.52 5.28 -7.04 3.52 -8.8 8.8 -17.59 8.81 -68.65 54.56 -5.28 5.28 -8.8 12.32 -1.77 1.76 -1.76 1.77 -3.52 1.76 -1.76 3.51 -14.08 28.16 -10.56 5.28 -17.61 -1.76 3.52 -7.04 5.28 0 5.29 0 3.52 -1.76 0 -3.52 -3.52 -1.76 -15.84 1.76 -1.76 0 -1.76 3.52 1.76 5.28 -1.76 3.52 -3.52 1.76 -3.52 -1.76 -1.76 -3.52 0 7.04 7.04 3.53 8.79 3.52 7.04 0 8.81 3.52 3.52 0 5.28 -1.76 3.52 -3.52 3.52 -3.52 5.28 0 5.28 0 -12.32 38.71 -10.56 17.61 -17.61 5.28 -7.03 3.52 -15.84 21.13 -3.52 5.28 -1.76 7.04 0 -5.28 1.76 -3.52 3.52 -5.28 8.8 -12.33 3.52 -5.28 -1.76 -3.52 -1.76 0 -1.76 0 -3.52 0 0 1.76 -1.76 0 -1.76 1.76 -1.76 1.76 0 1.76 -3.52 0 -1.76 0 -1.76 0 -21.13 -5.28 -1.76 -1.76 -3.52 -1.76 -5.28 -3.52 -1.76 -3.52 0 -3.52 0 -1.76 1.76 -3.52 -1.76 -5.28 0 -5.29 -7.04 -19.35 0 -1.76 -1.75 -8.8 -7.05 -22.89 -12.32 8.8 -1.76 0 -1.76 0 -1.76 -3.52 0 -1.76 0 -1.76 -3.52 -1.76 -3.52 0 -7.04 1.76 -3.52 -1.76 -1.77 0 -1.76 -1.76 0 -1.76 0 -1.76 0 -1.76 -1.76 -1.76 -1.76 -1.76 -1.76 -1.76 -1.76 -1.76 -3.52 0 -7.04 -1.76 -3.52 0 -5.27 -5.27 -1.76 0 -1.76 0 0 3.51 -1.76 1.76 -7.04 3.52 -3.53 1.76 0 1.76 -1.76 1.76 0 1.76 0 3.52 1.76 5.28 0 3.52 -1.76 1.76 0 1.76 -1.76 1.76 -3.52 1.76 -1.76 1.76 0 1.77 -1.76 1.76 -1.76 3.52 0 1.76 -1.76 3.52 -1.76 0 -3.52 0 -10.56 -5.28 -8.81 -5.28 -1.76 -1.77 0 -1.76 -5.28 -12.32 -1.76 -3.52 0 -1.76 0 -1.76 1.76 -1.76 7.04 -3.52 0 -1.76 1.77 -1.76 1.76 -3.52 0 -8.8 -1.76 -12.32 1.76 -5.28 0 -1.76 3.52 -3.52 3.52 -3.52 -1.76 -3.52 0 -3.52 -1.76 -10.57 0 -5.28 1.76 -3.52 3.52 -1.76 7.04 -3.52 1.76 -3.52 1.76 -3.51 5.28 -8.8 0 -3.52 0 -3.53 -1.76 0 -19.36 -7.04 -1.76 -1.76 -1.76 0 -1.76 -1.76 -1.77 -3.52 0 -1.76 -1.76 -1.76 -1.76 -1.76 -1.76 -1.76 -1.76 -1.76 -1.76 0 -3.52 0 -1.75 0 -1.76 0 -7.04 3.52 -3.52 3.52 -1.76 1.76 -1.76 1.76 -3.52 0 -1.76 -1.76 0 -3.52 -3.52 -7.04 -3.53 0 -1.76 3.52 -5.28 1.76 -12.32 1.76 -1.76 0 -5.28 -1.76 -1.76 0 -1.76 1.76 -1.76 1.76 -1.76 0 -5.28 -5.28 -5.28 -5.28 -7.04 -3.52 -7.04 0 0 1.76 1.76 1.76 -8.8 0 -28.17 1.76 -10.56 -1.76 -8.79 -12.32 -8.81 -1.77 1.77 12.33 -10.57 7.04 -12.32 1.76 -19.37 -3.52 -8.8 0 -5.28 5.28 -5.27 0 -7.04 -1.76 -22.89 -7.04 -5.28 -1.76 0 -1.76 -1.76 -1.76 0 -1.76 0 -5.28 0 -1.77 1.76 -12.31 0 -1.76 -1.76 -1.76 -5.28 -10.56 0 -1.76 0 -3.52 0 -1.76 0 -1.76 0 -1.76 1.76 -3.52 10.56 0 1.76 -3.53 0 -1.76 0 -1.76 0 -5.28 1.76 -10.56 -7.04 -5.28 0 -1.76 0 -1.76 0 -1.76 1.76 -1.76 1.76 0 10.57 -3.52 1.76 -1.76 3.52 -3.52 0 -1.76 0 -1.76 -3.52 -3.52 0 -3.52 0 -1.76 1.76 -1.76 1.76 0 1.76 -3.52 3.52 -3.52 0 -5.28 0 -1.76 -1.76 -1.76 -1.76 -1.76 -1.76 -1.76 -1.76 0 -1.76 -1.76 -1.76 0 -3.53 -3.53 -1.76 0 -1.76 -1.76 -3.52 -1.76 -1.76 -5.28 -5.28 -15.84 -1.76 -3.51 0 -1.76 -3.52 -1.76 -1.76 0 -1.76 -1.76 -3.52 -3.52 0 -1.76 0 -1.76 1.76 -5.29 0 -5.28 0 -14.08 0 -3.52 -1.76 -3.52 -1.76 -1.76 -3.52 -5.28 -1.76 -1.76 -1.76 -1.77 -3.52 -1.76 -1.77 0 -7.03 -3.52 -3.52 0 -1.76 -1.76 -1.76 -3.52 -1.76 -3.52 -1.76 -1.75 -1.76 -1.76 -3.52 -1.76 -1.76 -1.76 -1.76 0 -3.52 -7.04 -5.28 -7.04 -7.05 -8.81 -1.76 -5.28 -1.76 -3.52 0 -3.52 -1.76 -1.76 -1.76 -1.76 1.76 -5.28 -1.76 -1.76 -1.76 0 -1.76 1.76 -1.76 0 -1.76 0 -5.28 -3.52 -5.28 -10.56 -1.76 -1.76 -3.52 0 -1.75 -1.77 -1.76 -1.75 -1.76 -1.76 -1.76 -7.04 0 -1.76 0 -3.52 1.76 0 5.27 -1.76 1.76 0 0 -1.76 1.76 -3.52 1.76 -3.52 0 -5.28 1.76 -17.61 3.52 -21.12 -1.76 -3.51 0 -1.76 -3.52 -1.76 -3.52 -5.29 -3.51 -3.52 -7.04 -10.56 -5.29 -10.56 -1.76 -7.04 0 -15.85 -1.76 -5.28 0 -3.52 -1.76 -1.75 -5.28 -3.52 -1.76 -1.76 0 -3.52 1.76 -1.76 0 -1.76 0 -1.76 1.76 -1.76 1.76 -5.28 8.8 -24.65 0 -7.04 -1.76 -17.6 -7.04 -33.45 -10.56 -24.64 -8.8 -14.07 -8.8 -7.05 -1.77 -1.76 0 -3.52 0 -3.52 -1.76 -5.28 -1.76 -1.76 -1.76 -1.76 -1.76 0 -5.28 0 -1.76 1.76 -1.76 -1.76 -8.79 -3.52 -1.76 -1.76 -10.56 -5.28 -3.53 -1.76 -10.56 -1.76 -3.52 0 -5.28 -3.52 -5.28 -5.29 -1.76 -3.52 1.76 -10.56 -1.76 -5.27 -5.28 -3.52 -10.57 -5.28 -3.52 -3.52 0 -10.57 0 -5.28 -3.51 -3.52 -3.52 -1.76 -3.52 1.76 0 7.04 -7.04 -3.52 -3.52 0 -24.65 7.04 -3.52 1.76 -7.04 1.76 -28.16 3.53 -10.56 -1.76 -3.52 -1.77 -5.28 -1.76 -5.28 0 -3.52 3.53 -1.76 3.52 -5.29 0 -5.28 -3.52 -5.28 -1.77 -7.04 -7.04 -3.52 -1.76 -7.03 -1.76 -5.28 1.76 -3.52 3.52 -7.05 8.81 -3.52 -1.76 -21.12 1.76 -3.52 -1.76 -1.76 0 -1.76 -1.77 -1.76 0 -7.05 -3.52 -29.91 -3.52 -8.81 0 -7.04 1.76 -8.8 5.28 -3.52 1.77 -5.28 3.52 -8.8 0 -5.27 0 -5.29 -1.76 -3.52 -1.76 -1.76 -3.53 -1.76 -3.52 -3.52 -10.56 -3.52 -5.28 -14.08 -19.36 -3.52 -1.77 -5.29 -3.52 -42.24 -10.55 -38.72 -10.56 -24.64 -10.56 -29.93 -19.37 -8.8 -3.52 -8.8 -5.28 -7.04 -3.52 -5.29 -1.76 -1.75 0 -3.52 0 -1.76 0 -3.52 1.76 -3.52 0 -3.52 0 -7.04 0 -3.52 0 -3.52 0 -1.76 1.76 -7.05 5.28 -1.76 0 -1.76 1.76 -5.28 1.76 -7.04 1.76 -14.07 -1.76 -7.04 0 -7.05 -3.52 -12.32 -5.28 -7.04 -3.52 -7.04 0 -7.04 3.52 -5.29 1.76 -7.04 -7.04 -10.55 -10.56 -7.04 -3.52 -22.89 3.52 -8.8 -1.76 -7.04 -1.76 -38.72 -22.88 -14.08 -7.04 -15.85 -3.52 -7.04 0 -10.56 1.76 -7.03 5.28 -3.52 7.04 -1.77 7.04 -3.52 10.56 -3.52 7.05 -7.04 5.27 -8.8 1.76 -3.52 -3.52 -1.76 -5.28 -3.52 -3.52 -1.76 0 -1.76 -1.76 -3.52 -1.76 -5.29 -1.76 -3.52 1.76 -8.8 7.04 -8.79 0 -15.84 -5.28 -8.81 0 -14.08 -1.76 -5.28 1.76 -7.04 1.76 -14.09 1.76 -10.55 -7.04 -10.56 -8.8 -12.33 -1.76 -19.36 12.32 -8.8 1.76 -35.2 -7.04 -15.84 1.76 -5.29 -1.76 -8.8 -5.28 -5.28 -1.76 -19.35 0 -7.05 3.52 -8.8 5.28 -5.28 3.52 -17.6 12.32 -17.61 17.6 -3.52 3.52 -12.31 3.52 -5.28 1.76zm2003.08 774.48l3.52 0 7.04 0 3.52 -1.76 5.28 -3.52 3.52 0 0 1.76 -15.84 12.32 -12.33 3.52 -7.04 3.53 -82.73 70.4 -14.07 7.04 -5.28 7.05 -7.04 12.31 -7.05 14.08 -3.52 5.28 -5.28 -1.76 1.76 -7.04 5.28 -14.08 1.76 -7.04 1.76 -1.75 14.09 -17.61 40.48 -33.45 15.84 -7.04 21.12 -21.11 19.36 -7.05 8.8 -10.56 7.05 -3.52zm420.68 -300.99l3.52 0 0 1.76 0 1.76 0 1.76 5.28 7.04 3.52 7.04 0 5.28 -17.6 -8.8 -3.52 0 -5.29 5.28 -1.76 -1.76 -7.04 0 -1.76 -1.76 -1.76 -1.76 -7.04 -8.8 5.28 -1.76 1.76 0 3.52 1.76 1.76 -1.76 0 -1.76 0 -3.52 -1.76 -3.52 3.52 0 12.33 3.52 7.04 0zm394.27 -8.8l-3.52 1.76 0 1.76 1.76 5.28 0 5.28 1.76 1.76 0 1.76 -3.52 3.52 -1.76 0 -3.52 3.52 -1.76 -1.76 -1.76 -1.76 -1.76 0 -1.76 0 -3.51 -5.28 -3.52 -8.8 -3.52 -5.28 -5.28 3.52 -1.76 -1.76 -12.33 5.28 -14.08 3.52 -12.32 0 -10.57 -8.8 -1.76 -8.81 1.76 -5.27 5.29 -3.52 5.28 -3.52 22.88 -22.88 3.52 -7.05 1.76 -12.32 1.76 -1.76 1.76 -3.52 1.76 -1.76 0 -3.52 3.53 -1.76 1.76 0 5.28 1.76 3.52 1.76 17.59 12.32 3.52 5.28 -3.52 28.17 -10.56 -3.52 -1.75 12.32 5.27 10.56 12.32 -1.77 1.76 3.53 0 1.76z"/>
   <polygon class="fil0 str0" points="777.35,2185.49 773.83,2157.33 773.83,2109.8 766.79,2053.48 766.79,2042.92 768.55,2032.36 777.35,2021.8 779.12,2013 779.12,1991.87 779.12,1988.35 780.88,1986.59 784.4,1984.83 791.43,1984.83 793.19,1983.07 798.47,1976.03 796.71,1970.75 791.43,1963.72 787.92,1956.68 789.68,1947.87 793.19,1942.59 798.47,1940.83 805.51,1942.59 809.03,1944.35 814.31,1949.63 817.83,1951.39 819.6,1953.15 821.36,1953.15 823.12,1951.39 826.64,1947.87 828.4,1947.87 833.68,1944.35 828.4,1937.31 817.83,1924.99 817.83,1917.95 826.64,1905.62 828.4,1896.82 828.4,1888.03 831.92,1880.99 835.44,1873.95 842.48,1868.66 854.8,1859.86 861.84,1854.58 863.6,1849.3 865.36,1838.74 870.64,1833.46 875.92,1831.7 882.96,1826.41 891.76,1815.86 898.8,1812.34 912.89,1817.62 921.69,1817.62 930.48,1814.1 937.52,1810.58 941.04,1805.3 949.85,1791.22 953.37,1787.69 955.13,1787.69 955.13,1784.17 956.89,1780.65 956.89,1777.13 958.65,1775.37 956.89,1771.85 956.89,1764.81 955.13,1759.53 951.61,1754.26 951.61,1752.5 951.61,1750.74 951.61,1748.97 951.61,1747.21 951.61,1743.69 953.37,1743.69 962.17,1736.65 970.97,1726.09 1014.97,1662.72 1025.54,1657.44 1036.1,1653.92 1090.66,1643.36 1099.46,1641.6 1110.03,1634.56 1117.07,1631.04 1124.11,1627.52 1132.91,1625.75 1166.35,1627.52 1189.24,1631.04 1201.56,1629.28 1275.49,1599.36 1282.52,1597.6 1287.8,1594.08 1293.08,1590.56 1298.36,1583.51 1300.12,1583.51 1303.64,1581.75 1307.16,1581.75 1308.92,1581.75 1310.68,1581.75 1312.45,1583.51 1312.45,1585.28 1314.21,1587.04 1319.49,1601.12 1323.01,1608.16 1335.33,1622.23 1340.61,1629.28 1345.89,1632.8 1351.16,1632.8 1356.45,1629.28 1414.54,1571.19 1425.09,1558.87 1430.37,1553.59 1437.42,1548.32 1477.91,1532.47 1502.54,1518.39 1514.86,1520.15 1535.99,1525.43 1550.07,1527.19 1622.24,1523.67 1710.24,1527.19 1733.13,1525.43 1747.21,1527.19 1763.06,1530.71 1778.89,1537.75 1787.69,1544.8 1792.97,1546.56 1792.97,1548.32 1796.49,1550.07 1800.01,1550.07 1808.82,1550.07 1812.34,1550.07 1817.62,1548.32 1819.38,1548.32 1821.14,1550.07 1821.14,1551.83 1822.9,1553.59 1824.66,1555.35 1828.18,1557.11 1831.7,1558.87 1836.97,1558.87 1849.3,1560.63 1859.86,1564.15 1861.62,1565.91 1865.14,1565.91 1868.66,1565.91 1875.7,1564.15 1963.71,1516.63 1969,1511.35 1974.27,1504.31 1979.55,1491.98 1983.07,1486.7 1990.11,1479.66 1998.91,1474.39 2041.16,1458.54 2042.91,1456.78 2044.67,1453.26 2046.43,1451.5 2048.19,1449.74 2049.96,1449.74 2051.72,1449.74 2053.48,1447.98 2055.24,1446.22 2057,1442.7 2058.76,1440.94 2064.04,1439.18 2067.56,1437.42 2069.32,1435.66 2072.84,1430.38 2074.6,1428.62 2079.88,1425.1 2085.16,1423.34 2086.92,1419.81 2088.68,1419.81 2095.73,1418.05 2086.92,1400.46 2085.16,1391.66 2085.16,1384.62 2085.16,1382.86 2083.4,1381.1 2079.88,1375.81 2078.12,1374.05 2076.36,1368.77 2076.36,1363.49 2074.6,1359.97 2072.84,1354.69 2071.08,1351.17 2069.32,1342.37 2067.56,1338.85 2067.56,1333.57 2067.56,1330.05 2071.08,1326.53 2071.08,1324.77 2071.08,1323.01 2071.08,1319.49 2072.84,1315.97 2072.84,1314.21 2076.36,1310.69 2076.36,1308.93 2078.12,1301.89 2078.12,1298.37 2079.88,1296.6 2081.64,1293.08 2085.16,1287.8 2088.68,1280.76 2090.45,1279 2093.97,1277.24 2095.73,1275.48 2097.49,1273.72 2099.25,1271.96 2099.25,1270.21 2099.25,1254.36 2099.25,1245.56 2097.49,1240.28 2093.97,1231.48 2092.21,1227.96 2088.68,1226.2 2085.16,1224.44 2072.84,1217.4 2071.08,1215.63 2067.56,1215.63 2064.04,1215.63 2060.52,1215.63 2058.76,1213.87 2053.48,1210.35 2051.72,1210.35 2049.96,1210.35 2048.19,1210.35 2046.43,1210.35 2041.16,1212.11 2039.4,1213.87 2037.64,1213.87 2035.88,1215.63 2032.36,1219.16 2032.36,1220.92 2030.6,1220.92 2027.08,1220.92 2025.32,1220.92 2023.56,1219.16 2021.8,1217.4 2007.71,1201.55 2007.71,1198.04 2005.95,1194.52 2005.95,1183.96 2005.95,1178.68 2007.71,1175.16 2007.71,1173.39 2007.71,1169.87 2009.48,1166.35 2013,1159.31 2013,1155.79 2016.52,1146.99 2018.28,1146.99 2020.04,1146.99 2025.32,1150.51 2028.84,1150.51 2030.6,1152.27 2032.36,1154.03 2034.12,1152.27 2035.88,1152.27 2037.64,1152.27 2039.4,1150.51 2039.4,1148.75 2037.64,1146.99 2037.64,1145.23 2039.4,1143.47 2041.16,1141.71 2042.91,1139.95 2044.67,1139.95 2046.43,1134.67 2046.43,1132.9 2044.67,1129.39 2044.67,1127.63 2044.67,1125.87 2046.43,1122.35 2048.19,1118.83 2049.96,1117.07 2051.72,1115.31 2053.48,1113.55 2055.24,1113.55 2057,1113.55 2058.76,1113.55 2060.52,1111.79 2064.04,1106.51 2069.32,1102.99 2071.08,1099.47 2071.08,1097.71 2072.84,1095.95 2071.08,1092.42 2071.08,1090.66 2074.6,1090.66 2074.6,1088.9 2074.6,1087.14 2074.6,1085.38 2076.36,1083.62 2079.88,1081.86 2079.88,1080.1 2081.64,1078.34 2083.4,1078.34 2085.16,1076.58 2086.92,1076.58 2086.92,1078.34 2088.68,1078.34 2090.45,1078.34 2092.21,1078.34 2093.97,1076.58 2095.73,1074.82 2097.49,1073.06 2099.25,1066.02 2101.01,1064.26 2102.77,1062.51 2108.05,1057.23 2109.81,1055.47 2111.57,1053.71 2115.08,1053.71 2118.6,1053.71 2120.36,1051.95 2118.6,1048.42 2113.32,1041.38 2111.57,1039.62 2111.57,1037.86 2111.57,1034.34 2113.32,1032.58 2113.32,1030.82 2115.08,1029.06 2116.84,1027.3 2118.6,1025.54 2122.12,1022.02 2123.88,1020.26 2125.64,1020.26 2127.4,1020.26 2129.16,1020.26 2130.92,1022.02 2132.69,1022.02 2134.45,1022.02 2136.21,1020.26 2137.97,1020.26 2139.73,1018.5 2139.73,1016.74 2139.73,1013.22 2139.73,1006.17 2136.21,995.61 2132.69,986.82 2130.92,983.3 2129.16,979.78 2127.4,965.69 2125.64,963.93 2123.88,960.41 2120.36,955.13 2118.6,951.61 2111.57,926.96 2106.29,914.65 2104.53,911.13 2099.25,898.81 2097.49,897.05 2093.97,895.29 2092.21,895.29 2092.21,893.53 2088.68,888.25 2086.92,886.48 2085.16,884.72 2079.88,882.96 2078.12,882.96 2076.36,881.2 2074.6,877.68 2072.84,875.92 2071.08,874.16 2067.56,872.4 2060.52,870.64 2053.48,867.12 2049.96,865.36 2039.4,851.29 2037.64,847.77 2034.12,840.72 2034.12,838.96 2032.36,838.96 2032.36,837.2 2039.4,809.04 2039.4,807.28 2053.48,794.95 2055.24,793.19 2058.76,784.4 2060.52,782.64 2062.28,780.88 2062.28,779.12 2064.04,777.36 2069.32,766.8 2078.12,745.67 2078.12,743.91 2079.88,738.63 2074.6,708.71 2074.6,705.19 2076.36,701.67 2085.16,682.3 2086.92,669.98 2097.49,664.7 2099.25,664.7 2108.05,666.46 2109.81,666.46 2111.57,666.46 2115.08,666.46 2116.84,666.46 2116.84,664.7 2120.36,662.94 2122.12,659.42 2125.64,655.9 2127.4,654.14 2127.4,652.38 2132.69,648.86 2134.45,648.86 2136.21,647.1 2143.25,631.26 2145.01,627.74 2146.77,627.74 2148.53,625.98 2150.29,625.98 2152.05,627.74 2152.05,629.5 2153.81,629.5 2153.81,631.26 2157.33,631.26 2159.09,633.02 2162.61,633.02 2164.37,633.02 2166.13,633.02 2171.41,629.5 2174.94,627.74 2178.46,625.98 2180.22,624.22 2181.98,624.22 2183.73,622.46 2187.25,622.46 2203.09,624.22 2204.85,624.22 2206.61,622.46 2211.89,620.7 2213.66,618.94 2215.42,618.94 2222.46,618.94 2224.22,618.94 2227.74,617.18 2234.78,613.66 2236.54,611.9 2241.82,611.9 2250.62,606.62 2252.37,604.86 2252.37,601.34 2254.13,597.81 2250.62,581.97 2252.37,573.18 2252.37,569.66 2250.62,566.14 2247.1,555.57 2245.34,552.05 2240.06,504.53 2240.06,501.01 2238.3,501.01 2236.54,499.25 2227.74,497.49 2225.98,497.49 2222.46,493.97 2220.7,492.21 2220.7,490.45 2218.94,490.45 2218.94,488.69 2215.42,446.44 2217.18,442.92 2218.94,439.4 2220.7,437.64 2222.46,435.88 2227.74,430.6 2231.26,427.08 2233.02,423.56 2238.3,416.52 2241.82,413 2245.34,405.96 2245.34,404.2 2245.34,400.68 2243.58,395.39 2238.3,384.83 2236.54,377.79 2234.78,376.03 2233.02,374.27 2231.26,374.27 2227.74,374.27 2220.7,376.03 2218.94,376.03 2218.94,370.75 2231.26,310.9 2231.26,309.14 2233.02,305.62 2233.02,303.86 2234.78,302.1 2236.54,300.34 2240.06,296.83 2241.82,295.07 2248.86,293.31 2252.37,291.55 2266.46,289.79 2275.26,291.55 2284.06,293.31 2287.58,295.07 2322.78,312.66 2329.82,316.19 2331.58,316.19 2335.1,314.43 2338.63,314.43 2347.43,307.38 2354.47,302.1 2354.47,300.34 2354.47,298.58 2352.71,289.79 2350.95,279.23 2350.95,270.42 2350.95,268.66 2350.95,266.9 2349.19,265.14 2345.67,261.62 2343.91,258.1 2343.91,256.34 2343.91,254.58 2343.91,252.82 2343.91,251.06 2349.19,242.26 2350.95,240.5 2350.95,238.74 2350.95,236.98 2350.95,235.22 2349.19,233.46 2343.91,226.42 2343.91,224.66 2342.15,222.9 2342.15,215.86 2342.15,214.1 2342.15,212.34 2343.91,210.58 2347.43,203.54 2365.03,182.41 2366.79,180.65 2370.31,182.41 2375.59,184.17 2382.64,189.45 2410.79,203.54 2416.07,208.82 2423.12,214.1 2433.68,226.42 2433.68,228.18 2435.44,231.7 2442.48,252.82 2442.48,254.58 2446,254.58 2451.28,256.34 2461.84,256.34 2470.64,256.34 2472.4,256.34 2472.4,258.1 2479.44,263.38 2482.96,263.38 2498.8,259.86 2504.09,259.86 2507.61,259.86 2512.89,261.62 2514.65,263.38 2516.41,261.62 2521.69,258.1 2523.45,254.58 2526.97,247.54 2530.48,244.02 2539.28,238.74 2541.04,242.26 2541.04,245.78 2546.33,254.58 2546.33,256.34 2546.33,265.14 2546.33,266.9 2548.09,268.66 2556.89,280.99 2556.89,282.75 2556.89,284.51 2556.89,286.27 2556.89,288.03 2556.89,289.79 2551.61,295.07 2549.85,296.83 2544.57,312.66 2541.04,324.99 2534,340.83 2526.97,354.92 2523.45,360.2 2521.69,361.96 2519.93,368.99 2518.17,370.75 2518.17,372.51 2518.17,374.27 2519.93,376.03 2521.69,377.79 2525.21,377.79 2528.73,376.03 2532.24,370.75 2534,368.99 2537.52,367.24 2555.13,358.44 2556.89,358.44 2558.65,356.68 2560.41,354.92 2563.93,349.63 2565.69,347.87 2567.45,344.35 2570.97,337.31 2572.73,335.55 2574.49,333.79 2578.01,333.79 2581.53,333.79 2600.89,335.55 2606.17,337.31 2632.58,340.83 2636.1,340.83 2637.86,340.83 2650.18,333.79 2662.5,321.47 2666.03,316.19 2667.79,309.14 2669.54,303.86 2669.54,302.1 2676.58,298.58 2681.86,295.07 2687.14,289.79 2688.9,288.03 2690.66,284.51 2692.42,282.75 2695.94,277.47 2699.46,273.95 2702.98,270.42 2702.98,268.66 2702.98,266.9 2704.74,265.14 2706.51,263.38 2715.31,263.38 2717.07,263.38 2718.83,263.38 2720.59,265.14 2725.87,266.9 2729.39,266.9 2738.19,265.14 2745.22,261.62 2759.31,254.58 2768.11,245.78 2773.39,240.5 2775.15,238.74 2778.67,238.74 2783.95,236.98 2787.47,235.22 2789.24,235.22 2792.76,228.18 2794.52,226.42 2796.28,224.66 2799.8,221.14 2801.56,219.38 2803.32,214.1 2805.08,212.34 2817.39,201.78 2819.15,200.02 2819.15,198.26 2820.91,194.74 2822.67,192.98 2822.67,191.22 2824.43,191.22 2827.95,189.45 2833.24,189.45 2840.28,189.45 2842.04,187.69 2847.32,185.93 2850.84,185.93 2854.36,185.93 2856.12,185.93 2857.88,187.69 2859.64,185.93 2866.68,184.17 2944.13,140.17 2952.93,133.13 2952.93,131.37 2952.93,127.85 2954.69,126.09 2959.97,117.29 2959.97,113.77 2959.97,112.01 2959.97,110.25 2963.49,110.25 2967.01,108.48 2970.53,106.72 3007.5,83.85 3012.78,76.81 3019.81,71.53 3021.57,69.77 3023.33,68.01 3025.09,66.24 3030.37,64.48 3039.18,57.44 3049.74,52.16 3053.26,50.4 3058.54,46.88 3091.98,36.32 3113.1,23.99 3125.43,22.23 3128.95,20.47 3132.47,18.72 3139.51,13.44 3141.27,11.68 3143.03,11.68 3146.55,11.68 3151.83,13.44 3155.35,13.44 3158.87,11.68 3160.63,11.68 3162.39,13.44 3169.43,15.2 3171.19,15.2 3172.95,15.2 3174.71,13.44 3174.71,11.68 3176.47,9.92 3178.23,8.16 3179.99,8.16 3181.75,8.16 3185.27,11.68 3188.79,15.2 3194.07,18.72 3197.59,20.47 3201.12,20.47 3204.64,18.72 3206.4,20.47 3208.16,20.47 3209.92,22.23 3213.44,22.23 3215.2,22.23 3218.72,20.47 3220.48,20.47 3222.24,20.47 3225.75,20.47 3229.27,22.23 3232.79,22.23 3236.31,22.23 3241.6,25.75 3245.12,25.75 3246.88,25.75 3248.64,25.75 3253.92,22.23 3255.68,22.23 3255.68,20.47 3257.44,22.23 3260.96,22.23 3266.24,25.75 3273.28,31.04 3275.04,32.8 3283.85,32.8 3287.37,32.8 3290.89,31.04 3292.65,31.04 3294.41,31.04 3297.92,32.8 3299.68,32.8 3304.96,36.32 3308.48,38.08 3310.24,38.08 3312,36.32 3315.52,36.32 3317.28,38.08 3320.81,39.84 3324.33,43.36 3329.61,45.12 3331.37,46.88 3326.09,55.68 3319.04,64.48 3315.52,76.81 3310.24,92.64 3304.96,103.2 3303.2,110.25 3301.44,113.77 3297.92,126.09 3299.68,131.37 3301.44,133.13 3303.2,138.41 3304.96,140.17 3304.96,141.93 3304.96,147.21 3304.96,148.97 3304.96,150.74 3304.96,152.5 3303.2,154.26 3303.2,156.02 3303.2,157.78 3304.96,163.05 3304.96,164.81 3306.72,166.57 3310.24,170.09 3312,171.85 3315.52,173.61 3319.04,175.37 3350.73,180.65 3352.49,182.41 3357.77,185.93 3359.53,189.45 3361.29,191.22 3436.97,210.58 3452.82,205.3 3454.58,205.3 3456.34,203.54 3458.1,200.02 3459.86,198.26 3461.62,194.74 3466.9,191.22 3468.66,189.45 3468.66,187.69 3470.42,182.41 3470.42,180.65 3472.18,180.65 3473.94,178.89 3475.7,177.13 3512.66,159.53 3523.22,157.78 3530.27,154.26 3532.03,154.26 3537.31,152.5 3549.63,152.5 3554.91,154.26 3565.47,156.02 3572.52,159.53 3588.35,163.05 3591.87,163.05 3595.39,163.05 3598.91,163.05 3614.76,170.09 3618.28,170.09 3623.56,168.33 3628.84,170.09 3630.6,171.85 3634.12,173.61 3639.4,177.13 3641.16,180.65 3642.91,182.41 3646.43,191.22 3648.19,192.98 3649.96,194.74 3678.12,215.86 3685.16,221.14 3701.01,235.22 3704.53,238.74 3722.12,249.3 3723.88,252.82 3727.4,256.34 3729.16,258.1 3736.21,261.62 3739.73,263.38 3743.25,265.14 3746.77,265.14 3760.85,261.62 3762.61,261.62 3764.37,263.38 3769.65,268.66 3781.98,272.18 3790.77,279.23 3794.29,282.75 3797.81,288.03 3803.09,289.79 3813.66,298.58 3857.66,319.71 3864.7,323.23 3873.5,326.75 3891.1,330.27 3896.39,330.27 3898.15,330.27 3903.43,326.75 3905.19,326.75 3906.95,326.75 3910.47,330.27 3912.23,333.79 3913.99,335.55 3915.75,337.31 3924.54,340.83 3926.3,342.59 3929.82,347.87 3931.58,349.63 3931.58,351.39 3933.34,353.15 3935.1,353.15 3938.63,354.92 3940.39,353.15 3949.19,351.39 3950.95,349.63 3954.47,349.63 3957.99,349.63 3966.79,347.87 3972.07,347.87 3982.64,351.39 3986.16,351.39 3987.92,349.63 3989.68,349.63 3993.19,347.87 3994.95,346.11 4007.27,340.83 4012.55,337.31 4014.31,333.79 4016.07,333.79 4017.83,332.03 4019.6,332.03 4028.4,332.03 4030.16,330.27 4031.92,330.27 4037.2,326.75 4142.81,423.56 4192.1,469.32 4202.65,550.29 4206.17,560.86 4216.73,559.09 4232.58,562.62 4250.18,566.14 4251.94,566.14 4253.7,567.9 4264.27,574.94 4271.3,573.18 4287.14,564.38 4301.22,560.86 4310.03,557.33 4322.35,546.77 4325.87,541.49 4327.63,539.73 4331.15,539.73 4332.91,537.97 4336.43,536.21 4338.19,534.45 4339.94,534.45 4343.46,534.45 4346.99,536.21 4355.79,541.49 4359.31,543.25 4362.83,543.25 4366.35,543.25 4369.87,541.49 4376.91,537.97 4378.67,537.97 4380.43,537.97 4383.95,537.97 4387.48,539.73 4392.76,543.25 4394.52,545.01 4396.28,546.77 4405.08,559.09 4406.84,559.09 4408.59,560.86 4413.87,559.09 4417.39,559.09 4424.43,555.57 4427.95,553.81 4438.52,550.29 4440.28,550.29 4443.8,552.05 4450.84,553.81 4468.44,562.62 4471.97,566.14 4479,578.45 4480.76,580.21 4482.52,580.21 4486.04,580.21 4487.8,580.21 4489.56,578.45 4489.56,576.69 4493.08,576.69 4498.36,576.69 4498.36,574.94 4505.4,573.18 4507.16,571.42 4510.69,573.18 4538.85,585.49 4549.4,589.01 4558.21,590.77 4565.25,590.77 4570.53,589.01 4572.29,589.01 4591.65,587.25 4595.18,589.01 4596.94,590.77 4600.46,590.77 4602.22,596.05 4602.22,597.81 4600.46,599.57 4600.46,601.34 4602.22,603.1 4602.22,604.86 4605.74,604.86 4611.02,606.62 4612.78,608.38 4612.78,610.14 4612.78,613.66 4612.78,615.42 4614.54,617.18 4618.05,617.18 4619.81,617.18 4623.33,615.42 4626.85,615.42 4628.61,615.42 4633.9,617.18 4639.18,620.7 4649.74,627.74 4653.26,633.02 4656.78,634.78 4658.54,641.83 4660.3,643.59 4662.06,645.35 4663.82,647.1 4672.62,652.38 4676.15,654.14 4677.91,654.14 4679.67,654.14 4684.95,654.14 4690.22,652.38 4699.02,655.9 4700.78,659.42 4700.78,661.18 4702.54,664.7 4706.06,669.98 4707.82,673.5 4713.1,677.02 4714.86,678.78 4716.63,680.54 4716.63,682.3 4718.39,687.59 4718.39,689.35 4723.67,696.39 4723.67,699.91 4723.67,701.67 4723.67,705.19 4723.67,708.71 4720.15,710.47 4716.63,712.23 4714.86,713.99 4713.1,717.5 4707.82,729.83 4706.06,735.11 4704.3,745.67 4704.3,750.95 4704.3,754.47 4700.78,765.04 4695.5,770.32 4693.74,773.84 4684.95,780.88 4679.67,786.15 4655.02,800.23 4628.61,840.72 4625.09,846 4626.85,849.53 4626.85,851.29 4626.85,854.8 4626.85,856.56 4625.09,858.32 4621.57,858.32 4619.81,858.32 4618.05,858.32 4614.54,856.56 4609.26,856.56 4605.74,856.56 4586.37,863.6 4584.61,865.36 4582.85,867.12 4581.09,868.88 4579.33,875.92 4579.33,879.44 4577.57,881.2 4579.33,893.53 4579.33,907.61 4574.05,930.49 4574.05,932.25 4575.81,934.01 4575.81,935.77 4575.81,937.53 4582.85,944.57 4584.61,948.09 4588.13,955.13 4588.13,958.65 4588.13,960.41 4588.13,962.17 4588.13,965.69 4584.61,967.45 4579.33,970.98 4577.57,972.74 4574.05,974.5 4574.05,976.26 4572.29,979.78 4570.53,979.78 4565.25,981.54 4558.21,981.54 4530.05,981.54 4517.73,979.78 4508.92,976.26 4507.16,976.26 4505.4,976.26 4503.64,978.02 4501.88,983.3 4500.12,985.06 4493.08,992.1 4491.32,993.85 4491.32,995.61 4489.56,999.13 4479,1046.66 4473.73,1062.51 4471.97,1069.54 4471.97,1074.82 4475.49,1090.66 4477.25,1094.19 4475.49,1097.71 4475.49,1101.23 4475.49,1104.75 4475.49,1108.27 4475.49,1117.07 4475.49,1118.83 4475.49,1122.35 4475.49,1124.11 4473.73,1125.87 4471.97,1125.87 4466.68,1129.39 4464.92,1129.39 4464.92,1131.15 4461.4,1136.43 4461.4,1141.71 4459.64,1159.31 4459.64,1168.11 4459.64,1169.87 4459.64,1173.39 4461.4,1175.16 4466.68,1176.92 4468.44,1176.92 4470.21,1176.92 4471.97,1175.16 4471.97,1173.39 4475.49,1166.35 4477.25,1164.59 4477.25,1162.83 4479,1162.83 4482.52,1161.07 4486.04,1161.07 4487.8,1159.31 4489.56,1159.31 4491.32,1159.31 4493.08,1162.83 4493.08,1164.59 4491.32,1168.11 4486.04,1175.16 4486.04,1176.92 4484.28,1178.68 4484.28,1180.44 4484.28,1182.2 4486.04,1183.96 4487.8,1185.72 4489.56,1183.96 4491.32,1183.96 4494.84,1182.2 4496.6,1180.44 4498.36,1180.44 4500.12,1182.2 4501.88,1183.96 4503.64,1189.24 4505.4,1192.76 4505.4,1196.28 4505.4,1198.04 4500.12,1210.35 4500.12,1213.87 4500.12,1217.4 4500.12,1219.16 4501.88,1227.96 4501.88,1229.72 4503.64,1231.48 4508.92,1233.24 4510.69,1233.24 4514.21,1233.24 4515.97,1231.48 4519.49,1231.48 4524.77,1231.48 4528.29,1231.48 4531.81,1233.24 4533.57,1236.76 4535.33,1240.28 4538.85,1252.6 4540.61,1256.12 4542.37,1259.65 4544.13,1261.41 4559.97,1270.21 4561.73,1271.96 4563.49,1273.72 4567.01,1279 4567.01,1282.52 4568.77,1286.04 4570.53,1287.8 4574.05,1291.32 4588.13,1298.37 4593.42,1300.13 4602.22,1308.93 4605.74,1319.49 4609.26,1326.53 4609.26,1328.29 4609.26,1331.81 4609.26,1335.33 4607.5,1344.13 4605.74,1347.65 4603.98,1349.41 4598.7,1356.45 4596.94,1359.97 4595.18,1363.49 4593.42,1365.25 4595.18,1372.29 4602.22,1388.14 4598.7,1386.38 4591.65,1382.86 4589.89,1382.86 4588.13,1381.1 4584.61,1379.33 4584.61,1377.57 4582.85,1377.57 4581.09,1375.81 4579.33,1375.81 4577.57,1375.81 4572.29,1375.81 4570.53,1375.81 4567.01,1375.81 4565.25,1375.81 4563.49,1374.05 4561.73,1372.29 4559.97,1370.53 4559.97,1368.77 4558.21,1367.01 4556.45,1367.01 4549.4,1367.01 4547.64,1367.01 4544.13,1363.49 4526.53,1358.21 4524.77,1358.21 4523.01,1356.45 4523.01,1354.69 4521.25,1351.17 4521.25,1349.41 4519.49,1349.41 4517.73,1351.17 4514.21,1352.93 4514.21,1356.45 4514.21,1358.21 4515.97,1365.25 4515.97,1367.01 4514.21,1368.77 4512.45,1370.53 4510.69,1370.53 4507.16,1370.53 4505.4,1370.53 4503.64,1368.77 4501.88,1367.01 4494.84,1359.97 4493.08,1359.97 4491.32,1359.97 4489.56,1359.97 4486.04,1359.97 4473.73,1363.49 4468.44,1363.49 4464.92,1367.01 4449.08,1375.81 4443.8,1379.33 4438.52,1381.1 4435,1379.33 4429.72,1379.33 4419.15,1375.81 4417.39,1375.81 4415.63,1375.81 4412.11,1377.57 4406.84,1381.1 4401.56,1382.86 4396.28,1386.38 4394.52,1386.38 4392.76,1386.38 4391,1386.38 4389.24,1384.62 4385.71,1382.86 4383.95,1381.1 4382.19,1381.1 4380.43,1381.1 4378.67,1381.1 4371.63,1382.86 4368.11,1384.62 4364.59,1384.62 4362.83,1382.86 4361.07,1382.86 4359.31,1381.1 4355.79,1377.57 4354.03,1377.57 4352.27,1377.57 4350.51,1379.33 4350.51,1382.86 4350.51,1384.62 4352.27,1386.38 4399.8,1432.14 4401.56,1432.14 4401.56,1435.66 4401.56,1437.42 4403.32,1440.94 4403.32,1447.98 4403.32,1451.5 4401.56,1453.26 4396.28,1453.26 4394.52,1453.26 4389.24,1453.26 4380.43,1453.26 4378.67,1453.26 4375.15,1451.5 4371.63,1447.98 4369.87,1446.22 4364.59,1444.46 4362.83,1442.7 4359.31,1437.42 4357.55,1437.42 4355.79,1435.66 4354.03,1435.66 4352.27,1435.66 4348.75,1435.66 4346.99,1435.66 4345.22,1435.66 4341.7,1437.42 4338.19,1440.94 4315.31,1462.07 4313.55,1462.07 4311.79,1462.07 4304.74,1462.07 4301.22,1462.07 4299.46,1463.83 4297.7,1467.35 4294.18,1472.63 4287.14,1486.7 4280.1,1495.5 4271.3,1502.54 4271.3,1504.31 4269.54,1507.83 4271.3,1513.11 4271.3,1516.63 4274.82,1521.91 4274.82,1527.19 4267.79,1541.27 4271.3,1543.03 4273.06,1543.03 4278.34,1539.51 4288.9,1528.95 4290.66,1532.47 4294.18,1534.23 4297.7,1535.99 4302.98,1539.51 4306.51,1541.27 4310.03,1544.8 4311.79,1546.56 4317.07,1553.59 4317.07,1555.35 4318.83,1558.87 4320.59,1565.91 4318.83,1571.19 4318.83,1581.75 4317.07,1597.6 4313.55,1616.96 4310.03,1634.56 4310.03,1636.32 4310.03,1639.84 4311.79,1641.6 4311.79,1643.36 4313.55,1643.36 4315.31,1645.12 4318.83,1645.12 4338.19,1646.88 4339.94,1646.88 4341.7,1646.88 4343.46,1648.64 4343.46,1650.4 4345.22,1652.16 4345.22,1653.92 4346.99,1655.68 4350.51,1680.33 4350.51,1685.61 4350.51,1687.37 4348.75,1690.88 4346.99,1694.4 4346.99,1696.16 4345.22,1697.92 4341.7,1701.44 4339.94,1701.44 4334.67,1703.2 4327.63,1704.96 4288.9,1706.72 4285.38,1704.96 4283.62,1703.2 4283.62,1701.44 4283.62,1699.68 4281.86,1697.92 4280.1,1697.92 4276.58,1697.92 4269.54,1697.92 4260.74,1697.92 4250.18,1697.92 4246.66,1699.68 4243.14,1701.44 4241.38,1701.44 4239.62,1703.2 4237.86,1706.72 4237.86,1708.49 4236.1,1710.25 4236.1,1712.01 4236.1,1713.77 4237.86,1715.53 4243.14,1719.05 4246.66,1726.09 4246.66,1727.85 4248.42,1729.61 4253.7,1731.37 4257.22,1733.13 4260.74,1734.89 4262.5,1734.89 4264.27,1734.89 4266.03,1734.89 4269.54,1731.37 4271.3,1729.61 4274.82,1727.85 4276.58,1727.85 4278.34,1727.85 4281.86,1727.85 4283.62,1727.85 4285.38,1729.61 4287.14,1731.37 4288.9,1731.37 4292.42,1738.41 4292.42,1740.17 4294.18,1740.17 4295.94,1741.93 4301.22,1743.69 4302.98,1745.45 4301.22,1748.97 4301.22,1752.5 4301.22,1756.02 4302.98,1756.02 4306.51,1757.77 4308.27,1757.77 4310.03,1759.53 4311.79,1761.29 4311.79,1763.05 4310.03,1770.09 4302.98,1782.41 4302.98,1785.93 4302.98,1787.69 4304.74,1791.22 4306.51,1791.22 4310.03,1792.98 4313.55,1792.98 4315.31,1794.74 4332.91,1812.34 4334.67,1815.86 4339.94,1822.9 4341.7,1824.66 4343.46,1835.22 4343.46,1847.54 4343.46,1858.1 4341.7,1866.9 4341.7,1870.42 4343.46,1873.95 4345.22,1873.95 4345.22,1875.71 4346.99,1877.47 4346.99,1880.99 4345.22,1891.55 4345.22,1902.1 4345.22,1905.62 4343.46,1907.38 4336.43,1926.75 4334.67,1932.03 4334.67,1935.55 4336.43,1939.07 4336.43,1940.83 4336.43,1942.59 4336.43,1946.11 4334.67,1947.87 4332.91,1949.63 4331.15,1953.15 4327.63,1956.68 4324.11,1958.44 4322.35,1960.2 4318.83,1958.44 4317.07,1958.44 4315.31,1958.44 4308.27,1953.15 4306.51,1953.15 4304.74,1954.92 4302.98,1958.44 4302.98,1960.2 4302.98,1961.96 4304.74,1963.72 4310.03,1974.27 4310.03,1976.03 4310.03,1977.79 4308.27,1981.31 4297.7,1993.63 4295.94,1995.4 4294.18,1995.4 4292.42,1995.4 4290.66,1995.4 4288.9,1997.16 4285.38,2000.68 4283.62,2005.96 4280.1,2007.72 4269.54,2014.76 4267.79,2014.76 4264.27,2018.28 4262.5,2028.84 4257.22,2065.8 4257.22,2069.32 4257.22,2074.6 4255.46,2095.73 4253.7,2097.49 4251.94,2099.25 4246.66,2102.77 4244.9,2104.52 4237.86,2113.32 4234.34,2115.08 4232.58,2115.08 4229.06,2115.08 4227.3,2115.08 4225.54,2115.08 4223.78,2115.08 4222.01,2116.84 4220.25,2118.61 4216.73,2123.89 4213.21,2127.41 4213.21,2129.17 4211.45,2130.93 4211.45,2136.21 4211.45,2145.01 4209.69,2150.29 4202.65,2174.93 4199.14,2187.25 4199.14,2190.77 4199.14,2194.29 4199.14,2196.05 4190.34,2217.18 4188.58,2218.94 4186.82,2220.7 4181.53,2222.46 4176.25,2225.98 4165.69,2225.98 4067.12,2224.22 4061.84,2225.98 4058.32,2227.74 4056.56,2229.5 4053.04,2233.02 4053.04,2234.78 4047.76,2252.38 4046,2255.9 4042.48,2257.66 4031.92,2264.7 4024.88,2268.22 4023.12,2271.74 4019.6,2275.26 4017.83,2277.02 4017.83,2278.78 4017.83,2282.3 4017.83,2285.83 4019.6,2287.59 4021.36,2292.87 4023.12,2298.15 4024.88,2299.91 4026.64,2301.67 4038.96,2306.95 4033.68,2324.55 4033.68,2335.11 4035.44,2336.87 4038.96,2345.67 4038.96,2347.43 4037.2,2349.19 4035.44,2350.95 4031.92,2352.71 4030.16,2354.47 4030.16,2356.23 4024.88,2372.08 4023.12,2375.6 4017.83,2382.63 4017.83,2384.39 4017.83,2386.15 4019.6,2386.15 4021.36,2386.15 4023.12,2386.15 4026.64,2384.39 4028.4,2382.63 4030.16,2382.63 4031.92,2384.39 4033.68,2386.15 4033.68,2387.91 4033.68,2391.43 4024.88,2401.99 4023.12,2405.52 4016.07,2423.12 4012.55,2426.64 4010.79,2430.16 4009.03,2430.16 4007.27,2431.92 4009.03,2435.44 4009.03,2437.2 4014.31,2440.72 4010.79,2444.24 4009.03,2446 4007.27,2447.77 4001.99,2449.53 3998.47,2449.53 3994.95,2451.29 3991.43,2460.08 3993.19,2463.6 3991.43,2465.36 3986.16,2475.92 3979.12,2490.01 3977.36,2491.77 3975.59,2495.29 3972.07,2497.05 3970.31,2498.81 3968.55,2498.81 3966.79,2498.81 3963.27,2498.81 3961.51,2498.81 3959.75,2497.05 3959.75,2495.29 3957.99,2495.29 3956.23,2495.29 3949.19,2497.05 3945.67,2497.05 3943.91,2497.05 3942.15,2497.05 3938.63,2497.05 3936.87,2493.53 3935.1,2493.53 3931.58,2495.29 3929.82,2498.81 3926.3,2502.33 3922.78,2504.09 3919.27,2505.85 3917.51,2507.61 3915.75,2511.13 3917.51,2516.41 3917.51,2519.93 3919.27,2521.68 3921.03,2521.68 3922.78,2523.44 3924.54,2523.44 3929.82,2523.44 3931.58,2525.2 3931.58,2528.73 3929.82,2535.77 3922.78,2549.85 3919.27,2555.13 3913.99,2562.17 3912.23,2565.69 3910.47,2572.74 3908.71,2576.26 3906.95,2578.02 3903.43,2581.54 3903.43,2583.3 3901.67,2586.82 3901.67,2592.09 3901.67,2595.61 3903.43,2599.13 3903.43,2602.65 3901.67,2606.17 3892.86,2625.54 3891.1,2632.58 3887.58,2653.71 3868.22,2667.78 3866.46,2669.54 3861.18,2680.1 3861.18,2681.86 3861.18,2685.38 3861.18,2697.71 3861.18,2704.75 3859.42,2708.27 3859.42,2710.03 3843.58,2736.43 3836.54,2750.51 3834.78,2761.07 3834.78,2764.59 3834.78,2766.35 3838.3,2766.35 3840.06,2766.35 3841.82,2766.35 3845.34,2768.11 3848.86,2769.87 3850.62,2769.87 3854.14,2769.87 3855.9,2768.11 3857.66,2768.11 3859.42,2768.11 3861.18,2768.11 3862.94,2768.11 3866.46,2769.87 3866.46,2771.63 3868.22,2771.63 3869.98,2775.16 3871.74,2778.68 3873.5,2780.44 3871.74,2785.72 3866.46,2796.28 3862.94,2798.04 3855.9,2805.07 3852.37,2806.83 3847.1,2806.83 3841.82,2803.31 3836.54,2803.31 3833.02,2806.83 3829.5,2810.35 3822.46,2815.64 3803.09,2820.92 3769.65,2840.28 3725.64,2856.12 3699.25,2871.96 3651.72,2891.32 3646.43,2894.84 3634.12,2905.41 3628.84,2908.93 3605.95,2910.69 3598.91,2915.97 3595.39,2921.25 3593.63,2926.53 3590.11,2933.57 3588.35,2935.33 3579.55,2931.81 3574.27,2931.81 3570.76,2935.33 3567.24,2940.61 3561.95,2942.37 3561.95,2938.85 3560.19,2937.09 3560.19,2935.33 3560.19,2933.57 3560.19,2931.81 3561.95,2930.05 3561.95,2928.29 3563.71,2926.53 3565.47,2924.77 3565.47,2923.01 3565.47,2921.25 3565.47,2917.73 3565.47,2915.97 3563.71,2915.97 3561.95,2914.21 3553.15,2914.21 3544.35,2914.21 3539.07,2915.97 3533.79,2914.21 3530.27,2914.21 3528.51,2912.45 3524.98,2910.69 3523.22,2908.93 3521.46,2908.93 3517.94,2908.93 3507.38,2908.93 3502.11,2908.93 3500.35,2908.93 3498.59,2907.17 3496.83,2907.17 3495.07,2907.17 3489.79,2907.17 3480.98,2908.93 3452.82,2924.77 3447.54,2926.53 3445.78,2928.29 3440.49,2928.29 3433.46,2928.29 3429.94,2928.29 3424.66,2930.05 3419.38,2931.81 3414.1,2931.81 3412.34,2930.05 3410.58,2930.05 3408.82,2928.29 3405.3,2924.77 3403.54,2923.01 3401.77,2924.77 3398.25,2926.53 3396.49,2928.29 3394.73,2928.29 3391.21,2928.29 3387.69,2926.53 3384.17,2926.53 3382.41,2926.53 3378.89,2930.05 3375.37,2933.57 3373.61,2933.57 3371.85,2931.81 3368.33,2930.05 3366.57,2930.05 3363.06,2930.05 3356.01,2933.57 3352.49,2933.57 3347.21,2935.33 3345.45,2933.57 3343.69,2933.57 3341.93,2931.81 3340.17,2930.05 3340.17,2928.29 3338.41,2928.29 3336.65,2926.53 3333.13,2926.53 3322.57,2930.05 3303.2,2938.85 3297.92,2942.37 3294.41,2945.89 3289.13,2947.65 3276.8,2951.17 3234.55,2968.77 3232.79,2968.77 3229.27,2970.53 3227.51,2970.53 3224,2972.29 3216.96,2981.1 3213.44,2982.86 3179.99,3002.22 3171.19,3003.98 3165.91,3003.98 3164.15,3002.22 3162.39,3000.46 3160.63,2998.7 3158.87,2998.7 3155.35,2998.7 3153.59,2998.7 3137.75,3000.46 3132.47,3000.46 3114.86,3003.98 3111.34,3002.22 3107.82,3002.22 3104.3,3002.22 3100.78,3003.98 3072.62,3019.81 3070.86,3021.58 3069.1,3021.58 3063.82,3023.34 3055.02,3025.1 3044.46,3026.86 3040.94,3026.86 3039.18,3028.62 3033.9,3033.9 3028.61,3042.7 3026.85,3044.46 3026.85,3046.22 3021.57,3046.22 3014.54,3044.46 3005.74,3042.7 3002.22,3042.7 2998.7,3042.7 2982.85,3047.98 2975.81,3051.5 2961.73,3062.07 2938.85,3074.39 2930.05,3077.9 2928.29,3077.9 2923.01,3077.9 2912.45,3077.9 2908.92,3077.9 2905.4,3079.66 2900.12,3083.18 2896.6,3084.94 2893.08,3084.94 2886.04,3083.18 2882.52,3084.94 2861.4,3093.74 2857.88,3097.26 2838.52,3107.83 2836.76,3109.59 2829.72,3114.87 2824.43,3120.15 2822.67,3121.91 2819.15,3121.91 2815.63,3121.91 2813.87,3121.91 2813.87,3123.67 2813.87,3128.95 2813.87,3130.71 2812.11,3134.23 2808.59,3135.99 2806.84,3137.75 2780.43,3144.8 2764.59,3153.59 2761.07,3155.35 2759.31,3155.35 2757.55,3153.59 2755.79,3151.83 2755.79,3150.07 2755.79,3144.8 2755.79,3143.03 2754.03,3141.27 2754.03,3139.51 2750.51,3135.99 2748.75,3135.99 2746.99,3134.23 2743.46,3134.23 2741.7,3134.23 2739.94,3135.99 2734.67,3144.8 2732.91,3146.56 2729.39,3148.31 2722.35,3153.59 2718.83,3155.35 2715.31,3155.35 2702.98,3153.59 2701.22,3151.83 2701.22,3150.07 2699.46,3148.31 2699.46,3146.56 2699.46,3144.8 2697.7,3143.03 2695.94,3143.03 2694.18,3143.03 2692.42,3143.03 2685.38,3148.31 2676.58,3153.59 2673.06,3155.35 2669.54,3155.35 2667.79,3155.35 2666.03,3155.35 2664.26,3153.59 2662.5,3153.59 2660.74,3151.83 2660.74,3148.31 2660.74,3146.56 2662.5,3144.8 2664.26,3143.03 2667.79,3139.51 2669.54,3135.99 2671.3,3132.47 2673.06,3130.71 2671.3,3128.95 2666.03,3128.95 2651.94,3130.71 2644.9,3130.71 2641.38,3134.23 2643.14,3135.99 2643.14,3137.75 2644.9,3139.51 2650.18,3144.8 2650.18,3146.56 2650.18,3148.31 2651.94,3150.07 2650.18,3153.59 2648.42,3155.35 2618.49,3174.71 2616.73,3174.71 2616.73,3176.47 2616.73,3179.99 2616.73,3181.75 2618.49,3181.75 2620.25,3183.51 2622.01,3183.51 2623.78,3183.51 2632.58,3183.51 2637.86,3183.51 2639.62,3183.51 2641.38,3183.51 2643.14,3185.28 2644.9,3187.04 2644.9,3188.8 2644.9,3190.56 2644.9,3194.08 2644.9,3197.6 2644.9,3204.64 2643.14,3206.4 2641.38,3209.92 2639.62,3211.68 2637.86,3209.92 2634.34,3208.16 2630.82,3208.16 2629.06,3208.16 2629.06,3209.92 2627.3,3211.68 2629.06,3215.2 2629.06,3216.95 2629.06,3218.71 2630.82,3220.47 2630.82,3222.23 2629.06,3225.76 2629.06,3227.52 2625.54,3231.04 2623.78,3231.04 2622.01,3231.04 2620.25,3231.04 2618.49,3229.28 2618.49,3227.52 2616.73,3225.76 2616.73,3223.99 2614.97,3222.23 2611.45,3222.23 2609.69,3223.99 2606.17,3225.76 2602.65,3231.04 2600.89,3232.8 2599.14,3236.32 2595.62,3236.32 2592.1,3232.8 2588.58,3231.04 2585.06,3229.28 2585.06,3227.52 2583.3,3225.76 2581.53,3222.23 2581.53,3220.47 2578.01,3218.71 2576.25,3220.47 2576.25,3222.23 2572.73,3225.76 2570.97,3227.52 2569.21,3227.52 2565.69,3225.76 2562.17,3225.76 2558.65,3225.76 2558.65,3227.52 2555.13,3231.04 2555.13,3232.8 2551.61,3236.32 2548.09,3238.08 2544.57,3239.84 2541.04,3241.6 2532.24,3243.36 2504.09,3248.64 2497.04,3246.88 2495.28,3245.12 2495.28,3243.36 2495.28,3241.6 2497.04,3239.84 2498.8,3238.08 2498.8,3236.32 2498.8,3234.56 2497.04,3232.8 2495.28,3231.04 2493.52,3231.04 2481.2,3232.8 2479.44,3234.56 2477.68,3234.56 2475.92,3236.32 2474.16,3238.08 2470.64,3239.84 2467.12,3241.6 2465.36,3241.6 2461.84,3239.84 2460.09,3238.08 2458.32,3238.08 2456.56,3239.84 2454.8,3241.6 2453.04,3243.36 2449.52,3243.36 2446,3243.36 2442.48,3241.6 2438.96,3239.84 2431.92,3239.84 2428.4,3238.08 2426.64,3238.08 2424.88,3236.32 2423.12,3234.56 2421.36,3229.28 2419.6,3225.76 2419.6,3220.47 2419.6,3216.95 2419.6,3208.16 2419.6,3206.4 2419.6,3204.64 2423.12,3199.36 2421.36,3195.84 2417.83,3192.32 2396.71,3179.99 2391.43,3174.71 2380.88,3167.67 2380.88,3165.91 2379.12,3162.39 2380.88,3160.63 2380.88,3158.87 2382.64,3158.87 2386.16,3155.35 2403.75,3150.07 2405.51,3148.31 2407.27,3146.56 2409.03,3143.03 2409.03,3141.27 2403.75,3134.23 2401.99,3132.47 2400.23,3128.95 2400.23,3123.67 2400.23,3121.91 2401.99,3118.39 2403.75,3118.39 2407.27,3116.63 2409.03,3114.87 2409.03,3113.11 2410.79,3109.59 2410.79,3107.83 2409.03,3107.83 2403.75,3107.83 2398.47,3107.83 2391.43,3106.07 2387.92,3104.31 2372.07,3093.74 2365.03,3090.22 2357.99,3090.22 2356.23,3088.46 2354.47,3086.7 2354.47,3083.18 2354.47,3077.9 2354.47,3074.39 2352.71,3072.63 2350.95,3072.63 2338.63,3070.87 2321.03,3063.83 2317.51,3060.3 2313.99,3058.54 2313.99,3055.02 2315.75,3047.98 2313.99,3046.22 2313.99,3042.7 2301.67,3028.62 2299.91,3026.86 2298.15,3023.34 2299.91,3014.53 2312.23,2984.62 2319.27,2974.05 2324.54,2970.53 2333.34,2961.73 2335.1,2958.21 2335.1,2956.45 2326.3,2944.13 2324.54,2942.37 2322.78,2942.37 2321.03,2940.61 2310.47,2940.61 2306.95,2940.61 2305.19,2938.85 2303.43,2937.09 2301.67,2933.57 2299.91,2931.81 2301.67,2930.05 2303.43,2928.29 2310.47,2928.29 2312.23,2926.53 2313.99,2924.77 2313.99,2923.01 2312.23,2921.25 2310.47,2917.73 2310.47,2915.97 2312.23,2914.21 2313.99,2910.69 2315.75,2908.93 2317.51,2908.93 2319.27,2908.93 2321.03,2908.93 2322.78,2908.93 2326.3,2907.17 2328.06,2903.65 2329.82,2901.89 2329.82,2900.13 2322.78,2889.56 2313.99,2868.45 2313.99,2864.93 2313.99,2863.17 2317.51,2859.65 2319.27,2856.12 2319.27,2854.36 2319.27,2852.6 2317.51,2850.84 2317.51,2849.08 2315.75,2849.08 2313.99,2847.32 2312.23,2845.56 2310.47,2840.28 2310.47,2836.76 2310.47,2835 2312.23,2833.24 2313.99,2831.48 2315.75,2827.96 2322.78,2824.44 2324.54,2822.68 2324.54,2817.4 2331.58,2787.48 2333.34,2783.96 2335.1,2783.96 2343.91,2785.72 2345.67,2785.72 2347.43,2783.96 2349.19,2782.2 2356.23,2762.83 2357.99,2761.07 2357.99,2759.31 2359.75,2759.31 2363.27,2755.79 2365.03,2754.03 2365.03,2752.27 2363.27,2750.51 2363.27,2739.95 2365.03,2734.67 2366.79,2731.14 2366.79,2729.39 2368.55,2729.39 2372.07,2725.87 2373.83,2724.11 2373.83,2722.35 2372.07,2722.35 2372.07,2718.83 2370.31,2717.07 2368.55,2699.47 2368.55,2697.71 2366.79,2695.95 2365.03,2694.19 2363.27,2692.42 2361.51,2690.66 2359.75,2690.66 2354.47,2688.9 2350.95,2687.14 2347.43,2687.14 2345.67,2687.14 2343.91,2688.9 2340.39,2688.9 2338.63,2688.9 2336.87,2688.9 2335.1,2688.9 2333.34,2685.38 2333.34,2683.62 2331.58,2680.1 2329.82,2680.1 2324.54,2678.34 2322.78,2676.58 2321.03,2673.06 2321.03,2666.02 2319.27,2666.02 2317.51,2666.02 2315.75,2666.02 2312.23,2669.54 2308.71,2674.82 2306.95,2674.82 2305.19,2676.58 2303.43,2674.82 2301.67,2674.82 2294.62,2669.54 2285.82,2664.26 2277.02,2662.5 2275.26,2660.74 2273.5,2660.74 2269.98,2662.5 2259.42,2660.74 2257.66,2662.5 2255.9,2662.5 2255.9,2664.26 2254.13,2667.78 2252.37,2669.54 2250.62,2671.3 2248.86,2671.3 2247.1,2673.06 2243.58,2673.06 2241.82,2673.06 2240.06,2674.82 2236.54,2676.58 2234.78,2678.34 2233.02,2678.34 2231.26,2678.34 2203.09,2681.86 2197.81,2680.1 2194.29,2678.34 2194.29,2676.58 2194.29,2674.82 2194.29,2673.06 2196.05,2664.26 2197.81,2662.5 2196.05,2658.99 2196.05,2657.23 2196.05,2655.47 2189.01,2644.9 2187.25,2641.38 2185.49,2632.58 2183.73,2629.06 2178.46,2613.22 2174.94,2602.65 2174.94,2599.13 2171.41,2599.13 2169.65,2597.37 2166.13,2595.61 2150.29,2574.5 2148.53,2570.98 2146.77,2569.21 2146.77,2558.65 2146.77,2555.13 2139.73,2530.49 2139.73,2526.96 2139.73,2525.2 2139.73,2523.44 2141.49,2519.93 2143.25,2518.17 2141.49,2516.41 2137.97,2512.89 2134.45,2509.37 2130.92,2502.33 2127.4,2498.81 2125.64,2497.05 2123.88,2497.05 2120.36,2497.05 2118.6,2495.29 2115.08,2491.77 2115.08,2490.01 2113.32,2486.48 2116.84,2479.44 2118.6,2451.29 2122.12,2444.24 2127.4,2440.72 2129.16,2438.96 2130.92,2437.2 2134.45,2430.16 2136.21,2424.88 2136.21,2421.36 2137.97,2412.56 2139.73,2410.8 2141.49,2409.04 2145.01,2409.04 2148.53,2407.28 2150.29,2405.52 2153.81,2401.99 2153.81,2398.47 2155.57,2394.95 2155.57,2387.91 2155.57,2386.15 2146.77,2354.47 2145.01,2350.95 2143.25,2349.19 2141.49,2347.43 2141.49,2345.67 2139.73,2343.91 2104.53,2328.07 2101.01,2324.55 2092.21,2313.98 2090.45,2312.23 2090.45,2308.71 2090.45,2306.95 2092.21,2303.43 2092.21,2298.15 2093.97,2289.35 2095.73,2266.46 2095.73,2259.42 2097.49,2255.9 2097.49,2254.14 2099.25,2254.14 2104.53,2248.86 2106.29,2247.1 2106.29,2245.34 2108.05,2241.83 2109.81,2236.54 2109.81,2233.02 2109.81,2231.26 2109.81,2224.22 2106.29,2217.18 2102.77,2208.38 2088.68,2197.81 2085.16,2192.53 2060.52,2174.93 2055.24,2174.93 2051.72,2173.18 2046.43,2169.66 2037.64,2160.86 2037.64,2159.09 2039.4,2157.33 2039.4,2153.81 2039.4,2150.29 2041.16,2148.53 2041.16,2145.01 2039.4,2141.49 2037.64,2139.73 2030.6,2134.45 2027.08,2130.93 2021.8,2134.45 2013,2137.97 2005.95,2139.73 1997.15,2141.49 1988.35,2143.25 1984.83,2148.53 1981.31,2153.81 1976.03,2159.09 1969,2160.86 1961.95,2157.33 1953.15,2145.01 1946.11,2137.97 1940.83,2136.21 1895.07,2137.97 1891.55,2139.73 1888.03,2143.25 1886.27,2146.77 1882.74,2148.53 1882.74,2152.05 1886.27,2159.09 1886.27,2166.14 1884.5,2174.93 1880.98,2183.73 1875.7,2187.25 1872.18,2189.01 1868.66,2189.01 1865.14,2189.01 1861.62,2187.25 1859.86,2181.97 1858.1,2178.45 1858.1,2173.18 1858.1,2169.66 1854.58,2164.38 1851.06,2160.86 1847.54,2159.09 1842.25,2157.33 1842.25,2174.93 1840.49,2181.97 1836.97,2189.01 1835.21,2190.77 1829.94,2192.53 1828.18,2192.53 1826.42,2194.29 1824.66,2197.81 1822.9,2199.57 1817.62,2203.1 1814.1,2203.1 1810.58,2203.1 1800.01,2196.05 1785.93,2190.77 1778.89,2185.49 1775.37,2176.69 1771.85,2166.14 1768.33,2159.09 1759.53,2152.05 1752.49,2162.62 1761.29,2189.01 1752.49,2197.81 1747.21,2197.81 1734.89,2190.77 1727.85,2187.25 1697.92,2187.25 1682.09,2190.77 1673.28,2192.53 1669.76,2194.29 1666.24,2196.05 1638.07,2192.53 1631.03,2196.05 1618.72,2204.86 1613.44,2206.62 1606.4,2204.86 1585.27,2201.34 1579.99,2201.34 1565.91,2203.1 1548.31,2203.1 1539.51,2208.38 1535.99,2217.18 1532.47,2227.74 1528.95,2238.3 1523.67,2245.34 1523.67,2248.86 1525.43,2252.38 1527.19,2259.42 1527.19,2278.78 1528.95,2284.07 1530.71,2294.63 1532.47,2299.91 1530.71,2303.43 1520.15,2312.23 1514.86,2308.71 1499.02,2301.67 1495.5,2298.15 1493.74,2268.22 1495.5,2233.02 1491.98,2215.42 1483.19,2203.1 1470.86,2201.34 1460.3,2210.14 1449.74,2236.54 1442.7,2247.1 1432.13,2257.66 1419.81,2262.94 1407.5,2257.66 1403.98,2252.38 1398.7,2238.3 1389.89,2225.98 1381.09,2208.38 1379.33,2201.34 1375.81,2183.73 1375.81,2174.93 1379.33,2164.38 1379.33,2160.86 1381.09,2155.57 1382.85,2153.81 1384.61,2153.81 1396.94,2148.53 1398.7,2141.49 1395.18,2137.97 1388.13,2134.45 1381.09,2132.69 1372.29,2134.45 1347.64,2139.73 1340.61,2134.45 1308.92,2123.89 1291.32,2120.37 1171.63,2120.37 1124.11,2113.32 1009.69,2097.49 1000.89,2092.21 988.58,2076.36 979.77,2067.56 969.21,2064.04 956.89,2064.04 944.57,2067.56 932.24,2074.6 925.21,2088.69 898.8,2115.08 891.76,2118.61 882.96,2122.13 821.36,2145.01 814.31,2148.53 793.19,2166.14 "/>
   <path class="fil0 str0" d="M4014.31 2440.72l19.37 7.05 19.36 5.27 1.76 1.76 1.76 1.76 1.76 0 0 1.76 0 3.52 0 5.28 0 3.52 1.77 1.76 1.75 1.76 3.52 1.76 0 1.76 0 3.52 -1.76 1.76 0 5.29 0 3.52 -1.76 3.52 0 3.52 1.76 3.52 1.76 7.04 1.76 7.04 0 1.76 0 1.76 -1.76 5.27 0 3.53 0 1.76 0 3.52 0 1.76 -1.76 1.76 0 1.76 -1.76 1.76 1.76 7.04 0 1.76 0 3.52 0 3.52 1.76 1.76 1.76 1.76 1.76 1.76 -1.76 1.76 0 1.76 1.76 1.76 1.76 0 1.76 -1.76 1.76 0 1.76 0 1.76 0 3.52 1.76 1.76 0 7.04 7.05 1.76 0 8.81 3.52 3.52 1.76 7.04 1.76 5.28 5.28 3.52 1.76 3.52 0 1.76 0 1.76 1.76 3.51 0 5.28 1.75 1.76 0 1.76 -1.75 1.77 0 1.76 0 1.76 0 5.28 1.75 7.04 5.28 1.76 1.76 7.04 1.76 1.76 1.76 1.76 0 1.76 -1.76 5.28 -3.52 3.52 0 3.53 -1.76 8.8 1.76 15.83 3.52 1.76 1.76 1.76 1.76 1.76 1.76 1.76 1.76 12.33 5.29 3.52 0 1.76 0 8.8 -1.76 17.6 0 24.64 -5.29 12.32 0 3.52 1.76 3.52 3.53 3.53 0 15.84 5.28 1.76 1.76 1.76 1.76 1.76 5.28 5.28 3.52 1.76 5.28 0 5.28 0 7.04 -1.76 5.29 0 12.31 -7.04 8.8 -12.32 19.36 -10.57 10.57 -1.76 5.28 -5.28 15.84 3.52 14.08 14.09 17.6 1.76 17.6 -3.52 24.65 7.04 40.48 14.08 47.52 -1.76 14.09 -8.8 10.56 -51.05 31.68 -36.96 19.36 -36.96 10.56 -42.25 10.57 -31.68 12.32 -38.73 19.35 -26.4 17.61 -10.56 8.8 -1.76 3.52 -1.76 7.04 -1.76 3.52 -7.04 5.28 -10.56 7.05 -5.28 3.52 -7.05 14.07 -1.76 1.76 -3.52 1.76 -3.52 1.76 -1.76 1.76 -1.76 1.76 -3.52 7.04 -5.28 3.53 -14.07 7.04 -7.05 10.56 -3.52 17.6 0 17.6 1.76 17.6 3.52 5.28 12.33 14.09 3.52 5.28 1.76 1.76 3.51 -3.52 5.28 -5.28 1.76 -1.76 8.8 -1.76 3.52 -1.76 0 7.04 -1.76 3.52 -3.52 3.52 -1.76 5.28 -7.04 -3.52 -5.28 3.52 -7.03 10.55 -10.57 3.52 -3.52 1.76 -1.76 0 -1.76 3.53 0 3.52 0 7.04 0 1.76 -1.76 3.52 -1.76 1.76 -3.52 0 -1.76 0 -1.76 1.76 -1.76 3.52 -1.76 7.04 1.76 8.8 1.76 3.53 3.52 -3.53 1.76 0 1.76 5.29 0 3.52 -3.52 8.8 -5.28 -1.76 -7.04 -7.04 -3.52 -1.76 -40.48 -1.76 -72.17 -3.53 -54.56 -1.76 -33.45 1.76 -10.56 1.77 -5.29 1.76 -1.76 0 -5.28 5.28 -1.76 1.76 -26.39 0 -33.45 3.52 -24.64 -1.76 -35.21 1.76 -8.8 -8.8 -7.04 -3.52 -5.28 3.52 -3.52 -3.52 -7.03 -5.29 -3.53 -3.52 5.29 0 1.76 0 1.75 1.76 5.28 -3.52 0 -3.52 -3.52 -1.76 -5.27 -1.76 -5.29 -1.76 1.77 -3.52 5.28 -8.8 3.51 -10.56 7.04 -7.05 15.84 -15.83 -5.28 1.76 -3.52 -1.76 0 -3.52 1.76 -3.52 7.04 -3.52 3.52 -1.76 0 -3.52 1.76 -7.05 0 -3.52 -1.76 -10.56 0 -1.76 -5.28 -1.76 -8.8 0 -3.52 -1.76 -3.52 3.52 -3.52 5.28 -3.52 1.76 -3.51 1.76 -1.76 0 -3.53 0 -3.52 -1.76 -3.52 1.76 -8.8 3.52 -14.08 10.57 -7.04 0 -7.05 1.76 -5.28 3.52 -1.76 8.8 1.76 7.04 10.57 21.12 1.76 0 1.76 -1.76 1.76 -1.76 1.76 -1.77 0 3.53 1.76 3.52 1.76 1.76 3.52 1.76 -1.76 0 -1.76 1.76 -1.76 1.76 14.08 8.8 5.28 1.76 0 5.28 -1.76 7.04 1.76 5.28 3.52 -1.76 0 7.05 -7.04 7.04 -8.8 5.28 -8.8 3.51 -80.97 8.8 -17.61 5.28 -15.83 7.05 -1.76 1.76 -1.76 3.52 -3.52 1.76 -1.76 0 -3.52 -7.04 -1.76 0 -14.09 -1.77 -88.01 8.81 -15.83 0 -7.04 1.76 -5.29 3.52 -7.04 5.28 -7.04 1.76 -5.28 -3.52 -1.76 -8.8 3.52 -7.04 3.52 -3.53 14.08 1.76 3.52 0 8.81 5.29 3.52 -1.76 1.76 -1.76 3.51 -10.57 7.04 7.04 14.08 3.53 28.17 0 28.16 -5.29 15.84 -5.28 8.8 -5.28 -7.04 -1.76 -8.8 -1.76 -7.04 -3.51 -1.76 -5.28 -1.76 1.76 -3.52 0 -5.27 -1.76 -1.77 0 -3.52 -3.52 -5.28 -8.8 -1.76 -1.77 -5.28 -1.76 -15.84 -1.76 -1.76 0 -3.52 -8.8 -5.29 0 -7.04 1.76 -7.04 -1.76 5.28 -3.52 0 -1.76 -5.28 1.76 -10.55 3.52 -1.76 1.76 -19.37 3.52 -3.52 0 -10.56 5.28 -3.52 1.76 -3.52 1.77 -1.76 5.28 -3.52 5.28 -7.04 1.76 1.76 -7.04 1.76 -5.28 -1.76 -3.53 -3.53 1.76 -3.52 3.53 -5.28 14.08 -3.52 3.51 -8.79 10.56 -5.28 3.52 -8.8 0 -1.76 0 -5.29 5.28 -1.76 0 -3.52 1.77 -1.76 0 0 -3.53 -1.76 -1.76 -3.52 1.76 -3.52 3.53 -7.04 0 -1.76 -1.77 0 -14.08 0 -3.52 -3.52 -1.76 -7.04 0 -5.28 7.04 -3.52 0 -1.76 -7.04 -5.28 3.52 -1.76 1.76 -3.52 3.52 -7.04 -7.04 -1.76 -5.27 5.28 -3.52 7.04 0 3.52 -1.76 0 -3.52 -1.76 -5.28 -1.76 -1.76 -1.76 -1.77 0 -1.76 3.52 -3.52 -3.52 -1.76 -3.52 0 -3.52 -1.76 -3.52 1.76 1.76 5.28 -1.76 3.53 -1.76 3.52 -3.52 3.52 -1.76 -3.52 -1.76 -3.52 -1.76 -1.77 -1.76 1.77 -1.76 0 0 1.76 -5.29 -3.53 -3.52 3.53 -7.04 12.32 1.76 7.03 -7.04 3.52 -10.55 3.52 -17.61 3.52 -24.64 10.57 1.76 -1.76 0 -3.53 0 -1.76 -10.56 0 -8.81 3.52 -7.04 5.29 -8.79 19.36 0 1.76 1.76 3.52 0 1.76 -3.52 7.04 -3.52 12.32 0 3.52 1.76 10.56 7.04 -1.76 8.79 -5.28 7.04 -3.52 7.05 3.52 -17.61 14.08 -1.75 7.04 3.51 -5.28 5.28 -1.76 5.28 -1.76 5.29 3.52 -5.29 5.28 -3.52 5.29 -1.76 3.52 1.76 5.28 1.76 -1.76 5.29 -8.81 5.28 -5.28 5.28 -3.52 5.28 -3.52 10.56 0 -3.52 5.28 -1.76 1.76 -1.76 1.76 5.28 5.29 10.56 1.76 7.05 1.76 3.52 8.8 -8.81 -1.76 -5.28 5.28 -8.8 12.32 -7.04 7.03 -5.28 -1.76 -5.28 -3.51 -5.28 1.76 -5.29 -3.52 -10.56 0 -10.55 1.76 -8.8 3.51 -10.57 -7.03 -3.52 -3.52 -3.52 -7.04 -1.76 -3.52 -3.52 -1.76 -1.76 0 0 1.76 -1.76 1.76 -3.52 0 -1.76 -1.76 -5.28 -8.8 -8.8 -14.09 -1.77 -3.52 0 -1.76 0 -1.76 0 -1.76 0 -3.52 7.05 -10.56 3.52 -3.51 1.76 0 1.76 -1.76 3.52 -3.52 3.52 -7.05 0 -3.52 0 -3.52 0 -3.52 0 -5.28 0 -7.04 3.52 -21.13 0 -1.76 0 -5.28 0 -1.76 0 -3.51 0 -1.76 1.76 -1.76 7.04 0 1.76 -1.76 3.52 0 1.76 -1.76 3.53 -8.8 1.76 -1.76 3.52 -3.53 1.76 0 1.76 -1.76 1.76 0 12.31 -1.76 3.52 -1.76 7.04 -3.52 12.33 -8.8 8.8 -5.28 1.76 0 1.76 0 3.52 0 1.76 0 5.28 3.52 1.76 0 5.28 -1.76 19.36 -12.32 1.76 0 1.76 1.76 0 1.76 1.76 1.76 0 1.76 1.76 0 1.76 1.76 3.52 -1.76 3.52 0 10.57 -5.28 1.76 0 1.76 1.76 3.52 1.76 1.76 0 5.28 -1.76 17.6 -10.57 12.32 -3.52 1.76 -1.76 1.76 -1.76 5.28 -10.55 0 -3.52 0 -1.76 0 -1.76 -1.76 -3.52 1.76 -3.52 8.8 -10.57 3.52 -1.76 3.52 -1.76 5.28 -1.76 1.76 0 3.52 -1.76 1.76 -1.76 1.77 -1.76 0 -1.76 0 -1.76 0 -3.52 -1.77 -3.52 -7.04 -12.32 -5.28 -8.8 -5.28 -7.04 0 -1.76 -1.76 1.76 -1.76 0 -1.76 1.76 -1.76 0 -5.28 0 -12.32 -1.76 -8.8 0 -5.28 1.76 -3.52 1.76 -5.28 0 -1.76 -1.76 -3.52 -3.52 -1.76 -1.76 -1.76 1.76 -1.76 3.52 -1.76 0 -3.52 1.76 -7.05 0 -3.52 0 -1.76 1.76 -1.76 1.76 -1.76 0 -15.83 1.76 -1.76 0 -1.76 0 0 1.76 -1.76 0 -3.52 1.77 -5.29 0 -1.76 0 -3.52 -1.77 -5.28 -3.52 -1.76 0 -3.52 0 -1.76 1.76 -5.28 0 -3.52 0 -1.76 0 -8.8 -3.52 -1.77 -1.76 -1.76 -1.76 0 -1.76 -3.52 -12.32 0 -1.76 -3.52 0 -1.76 0 -1.76 -1.76 0 -1.76 -1.76 -1.76 -5.27 -7.04 -5.28 -3.53 -3.52 -3.52 -1.76 -3.52 -8.8 -17.6 -1.77 -3.51 -3.52 -3.52 -5.28 -3.52 -10.56 -5.28 -5.28 0 -5.28 0 14.08 -10.57 7.04 -3.52 15.85 -5.28 3.52 0 3.52 0 8.8 1.76 7.03 1.76 5.28 0 0 -1.76 1.76 -1.76 5.29 -8.8 5.28 -5.28 1.76 -1.76 3.52 0 10.56 -1.76 8.8 -1.76 5.28 -1.76 1.76 0 1.76 -1.77 28.16 -15.83 3.52 -1.76 3.52 0 3.52 0 3.52 1.76 17.61 -3.52 5.28 0 15.84 -1.76 1.76 0 3.52 0 1.76 0 1.76 1.76 1.76 1.76 1.76 1.76 5.28 0 8.8 -1.76 33.45 -19.36 3.52 -1.76 7.04 -8.81 3.51 -1.76 1.76 0 3.52 -1.76 1.76 0 42.25 -17.6 12.33 -3.52 5.28 -1.76 3.51 -3.52 5.28 -3.52 19.37 -8.8 10.56 -3.52 3.52 0 1.76 1.76 1.76 0 0 1.76 1.76 1.76 1.76 1.76 1.76 0 1.76 1.76 5.28 -1.76 3.52 0 7.05 -3.52 3.51 0 1.76 0 3.52 1.76 1.76 1.76 1.76 0 3.52 -3.52 3.52 -3.52 1.76 0 3.52 0 3.52 1.76 3.52 0 1.76 0 1.76 -1.76 3.52 -1.76 1.77 -1.76 1.76 1.76 3.52 3.52 1.76 1.76 1.76 0 1.76 1.76 5.28 0 5.28 -1.76 5.28 -1.76 3.52 0 7.03 0 5.29 0 1.76 -1.76 5.28 -1.76 28.16 -15.84 8.81 -1.76 5.28 0 1.76 0 1.76 0 1.76 1.76 1.76 0 5.27 0 10.56 0 3.52 0 1.76 0 1.76 1.76 3.53 1.76 1.76 1.76 3.52 0 5.28 1.76 5.28 -1.76 8.8 0 8.8 0 1.76 1.76 1.76 0 0 1.76 0 3.52 0 1.76 0 1.76 -1.76 1.76 -1.76 1.76 0 1.76 -1.76 1.76 0 1.76 0 1.76 0 1.76 1.76 1.76 0 3.52 5.29 -1.76 3.52 -5.28 3.51 -3.52 5.28 0 8.8 3.52 1.76 -1.76 3.52 -7.04 1.76 -5.28 3.52 -5.28 7.04 -5.28 22.89 -1.76 5.28 -3.52 12.31 -10.57 5.29 -3.52 47.53 -19.36 26.39 -15.84 44.01 -15.84 33.44 -19.36 19.37 -5.28 7.04 -5.29 3.52 -3.52 3.52 -3.52 5.28 0 5.28 3.52 5.27 0 3.53 -1.76 7.04 -7.03 3.52 -1.76 5.28 -10.56 1.76 -5.28 -1.76 -1.76 -1.76 -3.52 -1.76 -3.53 -1.76 0 0 -1.76 -3.52 -1.76 -1.76 0 -1.76 0 -1.76 0 -1.76 0 -1.76 1.76 -3.52 0 -1.76 0 -3.52 -1.76 -3.52 -1.76 -1.76 0 -1.76 0 -3.52 0 0 -1.76 0 -3.52 1.76 -10.56 7.04 -14.08 15.84 -26.4 0 -1.76 1.76 -3.52 0 -7.04 0 -12.33 0 -3.52 0 -1.76 5.28 -10.56 1.76 -1.76 19.36 -14.07 3.52 -21.13 1.76 -7.04 8.81 -19.37 1.76 -3.52 0 -3.52 -1.76 -3.52 0 -3.52 0 -5.27 1.76 -3.52 0 -1.76 3.52 -3.52 1.76 -1.76 1.76 -3.52 1.76 -7.05 1.76 -3.52 5.28 -7.04 3.51 -5.28 7.04 -14.08 1.76 -7.04 0 -3.53 -1.76 -1.76 -5.28 0 -1.76 0 -1.75 -1.76 -1.76 0 -1.76 -1.75 0 -3.52 -1.76 -5.28 1.76 -3.52 1.76 -1.76 3.51 -1.76 3.52 -1.76 3.52 -3.52 1.76 -3.52 3.52 -1.76 1.77 0 1.76 3.52 3.52 0 1.76 0 1.76 0 3.52 0 7.04 -1.76 1.76 0 1.76 0 0 1.76 1.76 1.76 1.76 0 3.52 0 1.76 0 1.76 0 1.76 -1.76 3.52 -1.76 1.77 -3.52 1.76 -1.76 7.04 -14.09 5.27 -10.56 1.76 -1.76 -1.76 -3.52 3.52 -8.79 3.52 -1.76 3.52 0 5.28 -1.76 1.76 -1.77 1.76 -1.76 3.52 -3.52zm-792.07 906.49l5.27 5.29 0 1.76 -5.27 1.75 -1.76 1.76 -1.76 1.76 -1.76 -1.76 -1.76 -1.76 0 -1.75 0 -1.76 -3.52 0 -1.76 0 -3.52 1.76 0 1.75 -5.28 -1.75 -3.53 1.75 -3.52 3.52 -3.52 1.76 -15.84 3.52 -3.52 0 -5.28 -3.52 -3.52 -1.76 -3.52 -1.76 -5.28 -1.76 -3.52 1.76 -3.52 5.28 -1.76 7.04 -1.76 5.28 -1.76 0 0 -1.76 -1.76 -1.76 -1.76 -3.52 -1.76 -1.76 0 -3.52 1.76 -3.52 -7.04 0 -1.76 -1.76 -1.76 -1.76 0 -3.51 1.76 0 14.08 -7.05 8.8 -10.56 5.28 1.76 3.52 -3.52 8.8 -8.8 1.76 -1.76 0 -7.04 3.52 0 0 1.76 1.76 1.76 3.52 0 3.52 1.76 3.52 1.76 3.52 1.76 0 1.76 -1.76 1.76 -1.76 0 -1.76 1.76 -1.76 0 7.04 5.28 5.28 -3.52 3.53 3.52 3.52 3.52 3.52 1.76 3.52 -1.76 1.76 -1.76 0 -3.52 1.76 -1.76 3.52 1.76 0 3.52 -1.76 1.76 0 1.76 3.52 3.52 3.52 3.52z"/>
  </g>
 </g>
</svg>
