<?xml version="1.0" encoding="UTF-8"?>
<!DOCTYPE svg PUBLIC "-//W3C//DTD SVG 1.1//EN" "http://www.w3.org/Graphics/SVG/1.1/DTD/svg11.dtd">
<!-- Creator: CorelDRAW -->
<svg xmlns="http://www.w3.org/2000/svg" xml:space="preserve" width="355.6mm" height="215.9mm" version="1.1" style="shape-rendering:geometricPrecision; text-rendering:geometricPrecision; image-rendering:optimizeQuality; fill-rule:evenodd; clip-rule:evenodd"
viewBox="0 0 35560 21590"
 xmlns:xlink="http://www.w3.org/1999/xlink"
 xmlns:xodm="http://www.corel.com/coreldraw/odm/2003">
 <defs>
  <style type="text/css">
   <![CDATA[
    .str0 {stroke:white;stroke-width:16.32;stroke-linejoin:round;stroke-miterlimit:22.9256}
    .fil0 {fill:#D6D277;fill-rule:nonzero}
   ]]>
  </style>
 </defs>
 <g id="Camada_x0020_1">
  <metadata id="CorelCorpID_0Corel-Layer"/>
  <g id="_2020839059632">
   <path class="fil0 str0" d="M17865.28 11592.12l-13.05 -19.15 -8.7 -10.44 -2.61 -1.74 -2.62 -1.74 -1.74 -1.74 -2.61 0 -1.74 0 -4.35 0 -1.74 0 -6.09 -2.61 -1.74 -0.87 -6.96 0 -2.61 -0.87 -1.74 -0.87 -2.61 -0.87 -1.74 -1.74 -4.36 -3.48 -11.31 -10.45 -1.74 -0.87 -1.74 -0.87 -6.96 -0.87 -11.31 -3.48 -1.74 0 -6.97 0.87 -8.7 -1.74 -1.74 0 -34.81 -15.66 -2.61 -0.87 -4.35 -5.22 -6.09 -4.36 -6.09 -2.61 -9.57 -1.74 -6.1 -2.61 -3.48 -1.74 -1.74 -1.74 -0.87 -0.87 -0.87 -1.74 -0.87 -1.74 -2.61 -2.61 -13.05 -8.7 -10.44 -5.22 -4.35 -0.87 -2.62 -0.87 -8.7 0.87 -3.48 0 -2.61 -0.87 -1.74 -1.74 -13.05 -13.06 -5.22 -3.48 -1.74 -0.87 -2.62 -0.87 -20.88 3.48 -5.22 0 -7.83 -2.61 -12.19 0 -19.14 -5.22 -5.22 -2.61 0 -0.87 0 -0.87 0.87 -3.48 6.09 -14.8 2.61 -4.35 9.57 -13.05 1.74 -2.61 0.87 -2.61 0.87 -4.35 -0.87 -1.74 -1.74 -1.74 -15.66 -6.96 -3.48 -1.74 -1.74 0 -0.87 0 -1.74 0 -1.74 0.87 -6.97 5.22 -1.74 0.87 -1.74 0.87 -2.61 0 -1.74 -1.74 -3.48 -3.48 -1.74 -3.48 -1.74 -2.62 -0.87 -2.61 0 -3.48 2.61 -36.55 0 -5.22 -1.74 -4.35 0 -5.22 -3.48 -6.96 -6.96 -14.8 -3.48 -13.05 -1.74 -5.22 -0.87 -1.74 -0.87 -1.74 -4.35 -6.96 -9.58 -16.54 -1.74 -5.22 -0.87 -5.22 0 -6.09 2.61 -8.7 1.74 -2.61 -0.87 -1.74 0.87 -6.97 1.74 -7.83 0.87 -3.48 0.87 -1.74 0.87 -1.74 0.87 -1.74 0 -1.74 -0.87 -1.74 -0.87 -2.61 -0.87 -8.7 0.87 -2.61 1.74 -1.74 4.36 -4.36 0.87 -1.74 1.74 -4.35 1.74 -2.61 0.87 -4.35 0.87 -0.87 2.61 -2.61 6.96 -10.44 0.87 -0.87 2.61 -1.74 1.74 -2.61 1.74 -3.48 0.87 -3.48 0 -1.75 -0.87 -3.48 -0.87 -1.74 0.87 -1.74 1.74 -4.35 2.61 -12.18 -1.74 -2.61 5.22 -5.22 5.22 -3.48 11.32 -6.1 7.83 -2.61 1.74 -0.87 2.61 -2.61 3.48 -1.74 6.09 -7.83 7.83 -6.09 2.62 -3.48 1.74 -3.48 0 -4.35 1.74 -3.48 1.74 -2.62 2.61 -2.61 4.35 -3.48 1.74 -1.74 0.87 -4.35 0.87 -7.83 1.74 -6.96 -2.61 -1.74 -0.87 0 0 -0.87 -3.48 -1.74 -1.74 -0.87 -0.87 -0.87 -0.87 -0.87 0 -0.87 -0.87 -2.61 -0.87 -1.74 0 -3.49 0.87 -5.22 0.87 -1.74 0.87 -1.74 0.87 -0.87 3.48 -2.61 4.35 -1.74 8.7 -2.61 2.61 -0.87 1.74 -0.87 0.87 -1.74 0.87 -0.87 0 -0.87 0 -1.74 -0.87 -7.83 0.87 -1.74 0.87 -1.74 0.87 -0.87 1.74 -0.87 9.58 -4.36 1.74 -0.87 0.87 -3.48 2.61 -1.74 6.96 -2.61 5.22 -3.48 1.74 0 1.74 0 0.87 -0.87 1.74 -0.87 3.48 -9.57 7.83 -8.7 1.75 -3.48 0 -1.74 1.74 -0.88 1.74 -1.74 4.35 -1.74 8.7 -0.87 18.27 -1.74 4.35 -0.87 3.49 -2.61 6.09 -6.09 0.87 -1.74 0 -0.87 0 -0.87 2.61 -0.87 2.61 0.87 2.61 1.74 1.74 0 2.61 0 2.61 -0.87 2.61 -2.61 0.87 -6.09 6.96 -7.83 5.23 -11.32 2.61 -4.35 0.87 -3.48 0 -4.35 -0.87 -5.22 -2.61 -3.48 1.74 -2.61 4.35 2.61 1.74 -1.74 4.35 -6.09 2.61 -3.48 0.87 -3.49 1.74 -8.7 0.87 -1.74 1.74 -3.48 0.87 -2.61 0 -1.74 -0.87 -4.35 0 -1.74 0 -1.74 0.87 -2.61 0 -1.74 0.87 -1.74 2.61 -1.74 0.87 -0.87 0 -4.35 -0.87 -2.62 0 -3.48 0.87 -3.48 1.74 -1.74 2.61 -2.61 3.48 -1.74 2.61 -0.87 2.61 -1.74 7.84 -11.31 3.48 -2.61 6.96 -2.61 3.48 -2.61 4.35 -5.23 2.61 -1.74 3.48 -0.87 4.35 -0.87 3.48 -0.87 5.23 -5.22 1.74 3.48 0.87 3.48 0.87 3.48 4.35 0.88 3.48 0 2.61 -1.75 5.22 -2.61 6.09 -2.61 2.61 -2.61 1.74 -1.74 0 -0.87 0 -0.87 1.74 -4.35 0 -1.74 1.74 -0.87 4.35 -2.61 0.88 -0.87 1.74 -11.31 0.87 -2.61 2.61 -0.87 0.87 -3.49 0 -7.83 0.87 -3.48 3.48 -6.96 0 -5.22 0.87 -1.74 4.35 -3.48 0.87 -1.74 0.87 -1.74 0.87 -3.48 0.87 -2.61 0.87 -0.87 0 -0.88 0 -1.74 0.87 -1.74 0.87 -2.61 0.87 -2.61 0 -2.61 0 -2.61 -1.74 -6.96 -0.87 -0.87 0 -1.74 -0.87 -2.61 -0.87 -1.74 0 -0.87 0 -0.87 0.87 -3.48 0 -0.87 0.87 -3.48 1.74 -4.36 0.87 -1.74 0 -1.74 0 -2.61 -0.87 -1.74 0.87 -0.87 1.74 -8.7 6.09 -13.05 0.87 -1.74 0.87 -1.74 -0.87 -0.87 0 -1.74 -0.87 -0.87 0 -0.87 0.87 -0.88 0.87 0 0.87 0 1.74 0 6.1 -1.74 1.74 -0.87 0.87 -0.87 0 -0.87 0.87 -0.87 0 -0.87 0 -1.74 0 -0.87 0 -1.74 -1.74 -1.74 0 -0.87 0 -0.87 -0.87 -2.61 0.87 -4.35 -0.87 -3.48 -0.87 -0.87 0 -2.61 0.87 -1.74 1.74 -6.09 0.87 -6.97 0 -2.61 0 -1.74 -0.87 -3.48 -0.87 -2.61 0 -1.74 0 -9.57 0 -1.74 -0.87 -0.87 -0.87 -2.61 0 -1.74 0 -0.87 0.87 -0.87 0.87 -0.87 2.61 -0.87 1.74 0 0.87 0 0.87 -0.87 2.61 -2.61 1.74 -0.87 0 -0.87 0.87 -0.88 0.87 -0.87 3.48 -11.31 1.74 -11.31 0 -0.87 2.61 -3.48 0.87 -0.87 0.87 -0.87 2.61 -0.87 0.87 -0.87 1.74 -2.61 0 -0.87 0.87 -0.87 1.74 -1.74 1.74 -2.61 1.74 -1.75 0.87 -1.74 0 -0.87 0.87 -5.22 0 -1.74 0.87 -0.87 1.74 -2.61 2.62 -2.61 2.61 -3.48 2.61 -5.22 4.35 -10.44 0.87 -1.74 0 -0.87 0 -1.75 0 -0.87 -1.74 -2.61 0 -0.87 0 -3.48 0 -2.61 0.87 -6.96 0 -2.61 -0.87 -1.74 -0.87 -2.61 -0.87 -0.87 0 -0.87 0.87 -0.87 0.87 -0.87 0.87 0 2.61 -1.74 0.87 0 0.87 -0.87 0 -0.87 0 -0.87 0 -0.87 -0.87 -0.87 -1.74 -0.87 0 -1.74 0 -0.87 0.87 0 0.87 -1.74 6.09 -3.49 0.87 -0.87 1.74 -1.74 0.87 -1.74 0.87 -1.74 2.61 -13.05 0 -2.61 0 -1.74 -0.87 -1.74 3.48 -6.96 0.87 -4.35 0 -1.74 0 -1.75 0.87 -3.48 0.87 -1.74 -0.87 -1.74 1.74 -3.48 0.87 -1.74 1.74 -0.87 1.74 -1.74 0.87 -2.61 0.87 -1.74 0 -1.74 0.88 -2.61 0.87 -2.61 5.22 -6.09 1.74 -1.74 0.87 -1.74 0 -1.74 0.87 -1.75 1.74 -1.74 1.74 0 0.87 -0.87 0 -1.74 0.87 -0.87 0.87 -0.87 1.74 0 0.87 -1.74 0.87 -0.87 2.61 -2.61 4.35 -1.74 3.48 -3.48 14.8 -8.7 2.61 1.74 0.87 0.87 0.87 1.74 0 2.61 0 2.61 -0.87 2.61 -0.87 1.74 -8.71 9.57 -1.74 1.74 -0.87 1.75 0 1.74 0 1.74 0.87 8.7 0 2.61 -0.87 3.48 -0.87 2.61 -9.57 13.05 -0.87 3.48 -0.87 2.62 -0.87 2.61 0.87 18.27 0.87 3.48 1.74 1.74 2.61 2.61 33.07 15.67 8.7 0 1.74 -0.87 1.74 0.87 2.61 0.87 9.58 7.83 40.03 19.14 20.88 1.74 8.7 2.61 17.41 7.84 3.48 0.87 2.61 0 0.87 -1.74 0.87 -1.74 0 -0.87 0.87 -1.75 -0.87 -5.22 0.87 -3.48 1.74 -6.09 10.44 -23.49 27.85 -47.87 13.92 -10.44 6.97 -4.35 1.74 0 0.87 0 0 0.87 -1.74 8.7 0 1.74 0 1.74 0.87 0.87 0 1.74 0.87 0.87 1.74 0.87 12.18 6.1 11.31 8.7 3.48 3.48 2.61 3.48 2.61 5.22 2.61 5.22 0 2.61 0 1.74 -0.87 7.84 0 0.87 0 1.74 0 1.74 0.87 2.61 3.49 6.96 1.74 4.35 0.87 20.01 -2.61 13.93 -0.87 2.61 0 2.61 0.87 1.74 0.87 4.35 0.87 2.61 0.87 1.74 0.87 0.87 0.87 0.87 0.87 0 0.87 0 6.09 -4.35 2.61 -1.74 0.87 -1.74 0 -0.87 0.87 -0.87 0.87 -2.61 1.74 -8.7 0 -10.45 0.87 -4.35 0.87 -1.74 0.87 -1.74 1.74 -0.87 1.74 -0.87 1.74 -0.87 3.48 0 2.61 0.87 2.61 0.87 10.45 4.35 5.22 1.74 13.92 0 3.48 -0.87 2.61 -0.87 3.48 -0.87 4.36 -1.74 17.4 -13.92 4.35 -2.61 6.09 -2.61 2.61 0 0.87 0.87 0.87 0.87 0 0.87 0 0.87 -0.87 1.74 -3.48 9.57 -1.74 4.35 0.87 0.87 0 0.87 4.35 -0.87 3.48 0.87 4.35 0.87 4.36 1.74 6.09 4.35 6.96 5.23 3.48 1.74 1.74 0 1.74 -0.87 1.74 -1.74 0.87 -0.87 1.74 0.87 2.61 0.87 4.35 3.48 6.97 4.35 31.32 11.31 1.74 0 1.74 -0.87 0.87 -0.87 0 -2.61 -0.87 -1.74 -10.44 -22.63 -0.87 -3.48 0 -1.74 0 -0.87 0.87 -1.74 0 -0.87 1.74 -0.87 6.96 -6.09 0.87 -0.87 1.74 0 0.87 0 0.87 0 0 0.87 0.87 0.87 0.87 3.48 1.75 2.61 5.22 4.35 0 0.87 0.87 0.87 0 0.87 0 2.61 0 0.87 0.87 0.87 5.22 6.1 0 0.87 0.87 0 0 0.87 0 0.87 0 0.87 1.74 5.22 0 0.87 0.87 0 0.87 0 0.87 -2.61 0.87 -0.87 0.87 -0.87 0 -0.87 0.87 -0.87 0 -0.87 12.18 -1.74 4.35 -1.74 2.61 -2.61 12.19 -4.36 2.61 -0.87 0.87 0 3.48 0 0.87 0 0.87 -0.87 1.74 -0.87 31.33 -16.53 7.83 -1.74 13.05 -2.61 1.74 0 2.61 0 4.36 0.87 7.83 0 8.7 -0.87 5.22 -1.74 3.48 -0.87 2.61 -1.74 2.61 -1.74 18.28 -20.02 1.74 -1.74 3.48 -1.74 4.35 -1.74 11.31 -2.61 6.96 -1.74 5.23 -3.48 1.74 -0.87 2.61 0 14.79 -0.87 8.7 -1.74 11.32 -6.96 2.61 4.35 1.74 2.61 21.75 14.79 2.61 3.48 0.87 1.74 0 0.87 0.87 0.87 0 0.87 -0.87 1.74 -0.87 0.87 -1.74 0.87 -0.87 0.87 -1.74 0.87 -9.57 6.97 -0.87 0.87 0 0.87 -0.87 1.74 -3.48 20.01 0 6.09 0 3.48 0.87 0.87 3.48 2.62 12.18 3.48 0.87 0.87 0.87 0.87 0 0.87 0 0.87 0 4.35 0 2.61 -0.87 3.48 -0.87 1.74 -0.87 0.87 -1.74 1.74 -5.22 4.35 -3.48 2.61 -6.09 2.61 -1.74 2.61 -3.48 8.71 -3.48 13.05 -3.49 9.57 -1.74 7.83 -0.87 2.61 -0.87 0.87 0 17.41 2.61 20.88 6.1 23.5 8.7 12.18 0.87 1.74 6.96 20.02 0.87 0.87 0.87 0.87 9.57 5.22 0.87 0.87 3.48 4.35 5.23 8.7 0.87 0.87 7.83 4.35 4.35 1.74 0.87 0 0.87 0.87 0.87 0.88 0 1.74 0 2.61 -2.61 7.83 -4.35 9.57 -0.87 1.74 0 1.74 0 4.35 0 4.35 1.74 3.48 0 0.87 1.74 3.49 3.48 6.96 0.87 4.35 0.87 3.48 0.87 5.22 -0.87 3.48 -0.87 2.61 -0.87 2.61 -0.87 1.74 -4.35 4.35 -2.61 3.48 -9.58 13.93 -4.35 2.61 -1.74 1.74 -1.74 3.48 -0.87 1.74 -2.61 1.74 -0.87 0.87 -0.87 -0.87 -2.61 -0.87 -1.74 0 -2.61 0 -7.83 1.74 -1.74 0 -3.48 -2.61 0 -0.87 -0.87 0 -4.36 0 -5.22 0 -2.61 -0.87 -1.74 0 0 -0.87 -3.48 -10.44 -0.87 -1.74 0 -0.87 -5.22 -6.09 -3.48 -2.62 -2.61 -2.61 -13.92 -6.96 -3.49 -2.61 -2.61 -0.87 -1.74 -0.87 -0.87 0.87 -8.7 10.44 -1.74 3.48 -0.87 0.88 0 0.87 0 0.87 0 3.48 0.87 0.87 0 0.87 2.61 3.48 0.87 0.87 0 0.87 0 0.87 0 0.87 -0.87 0.87 -2.61 4.35 0 0.87 0 0.87 0 0.87 0 0.87 0.87 1.74 1.74 1.74 0.87 0.87 0 0.87 0 0.87 0 4.35 0.87 5.22 0.87 4.36 0 0.87 0 0.87 -3.48 2.61 -4.35 3.48 -1.74 0 -1.74 0.87 -0.87 0 -3.48 -1.74 -17.41 -8.7 -1.74 -0.87 -4.35 -0.88 -4.35 -0.87 -6.96 0.87 -1.74 0.88 -3.48 0.87 -0.87 0.87 -1.74 1.74 -0.87 0.87 -0.87 0.87 0 0.87 -0.87 1.74 0 0.87 -6.09 29.58 0 2.62 0.87 0 3.48 -0.88 1.74 0 0.87 0 0.87 0.88 0.87 0.87 0.87 3.48 2.61 5.22 0.87 2.61 0 1.74 0 0.87 -1.74 3.48 -1.74 1.74 -2.61 3.48 -0.87 1.74 -1.74 1.74 -2.61 2.61 -0.87 0.87 -0.87 0.87 -0.87 1.74 -0.88 1.74 1.75 20.89 0 0.87 0.87 0 0 0.87 0.87 0.87 1.74 1.74 0.87 0 4.35 0.87 0.87 0.87 0.87 0 0 1.74 2.61 23.5 0.87 1.74 1.74 5.22 0.87 1.74 0 1.74 -0.87 4.35 1.74 7.83 -0.87 1.74 0 1.74 -0.87 0.87 -4.35 2.61 -2.61 0 -0.87 0.87 -3.48 1.74 -1.74 0.87 -0.87 0 -3.49 0 -0.87 0 -0.87 0.87 -2.61 0.88 -0.87 0.87 -0.87 0 -7.83 -0.87 -1.74 0 -0.87 0.87 -0.87 0 -0.87 0.87 -1.74 0.87 -1.74 0.87 -2.61 1.74 -0.87 0 -0.87 0 -1.74 0 -0.87 -0.87 -1.74 0 0 -0.87 -0.87 0 0 -0.87 -0.87 -0.87 -0.87 0 -0.87 0.87 -0.87 0 -0.87 1.74 -3.48 7.83 -0.87 0.87 -0.88 0 -2.61 1.74 0 0.87 -0.87 0.87 -1.74 1.74 -0.87 1.74 -1.74 0.87 0 0.87 -0.87 0 -1.74 0 -0.87 0 -0.87 0 -4.35 -0.87 -0.87 0 -5.22 2.61 -0.87 6.09 -4.35 9.57 -0.87 1.75 0 1.74 2.61 14.79 -0.87 2.61 0 0.87 -4.35 10.44 -2.61 5.22 -0.87 0.87 0 0.87 -0.87 0.87 -0.87 0.87 -1.74 4.36 -0.87 0.87 -6.97 6.09 0 0.87 -3.48 13.92 0 0.87 0.87 0 0 0.87 1.74 3.48 0.87 1.74 5.22 6.96 1.75 0.87 3.48 1.75 3.48 0.87 1.74 0.87 0.87 0.87 0.87 0.87 0.87 1.74 0.87 0.87 0.87 0 2.61 0.87 0.87 0.87 0.87 0.87 1.74 2.61 0 0.87 0.87 0 1.74 0.87 0.87 0.87 2.61 6.09 0.87 1.74 2.61 6.09 3.48 12.19 0.87 1.74 1.74 2.61 0.87 1.74 0.87 0.87 0.87 6.96 0.87 1.74 0.87 1.74 1.75 4.35 1.74 5.22 0 3.48 0 1.74 0 0.87 -0.87 0.87 -0.87 0 -0.87 0.87 -0.88 0 -0.87 0 -0.87 -0.87 -0.87 0 -0.87 0 -0.87 0 -0.87 0.87 -1.74 1.74 -0.87 0.87 -0.87 0.87 -0.87 0.87 0 0.88 -0.87 0.87 0 1.74 0 0.87 0.87 0.87 2.61 3.48 0.87 1.74 -0.87 0.87 -1.74 0 -1.74 0 -0.87 0.87 -0.87 0.87 -2.61 2.61 -0.87 0.87 -0.87 0.87 -0.87 3.48 -0.87 0.87 -0.87 0.87 -0.87 0.87 -0.87 0 -0.87 0 -0.87 0 0 -0.87 -0.87 0 -0.87 0.87 -0.87 0 -0.87 0.87 0 0.87 -1.74 0.87 -0.87 0.87 0 0.87 0 0.87 0 0.87 -1.74 0 0 0.87 0.87 1.74 -0.87 0.87 0 0.87 -0.87 1.74 -2.61 1.74 -1.74 2.61 -0.87 0.88 -0.87 0 -0.87 0 -0.87 0 -0.88 0.87 -0.87 0.87 -0.87 0.87 -0.87 1.74 -0.87 1.74 0 0.87 0 0.87 0.87 1.74 0 0.87 -0.87 2.61 -0.87 0 -0.87 0.87 -0.87 0.87 -0.87 0.87 0 0.87 0.87 0.87 0 0.87 -0.87 0.87 -0.87 0 -0.87 0 -0.87 0.87 -0.87 -0.87 -0.87 -0.87 -1.74 0 -2.61 -1.74 -0.87 0 -0.87 0 -1.74 4.35 0 1.74 -1.74 3.48 -0.87 1.74 0 1.74 0 0.87 -0.87 1.74 0 2.61 0 5.22 0.87 1.75 0 1.74 6.96 7.83 0.87 0.87 0.87 0.87 0.87 0 1.74 0 0.87 0 0 -0.87 1.74 -1.74 0.87 -0.87 0.87 0 0.87 -0.87 2.61 -0.87 0.87 0 0.87 0 0.87 0 0.88 0 2.61 1.74 0.87 0.87 1.74 0 1.74 0 1.74 0 0.87 0.87 6.09 3.48 1.74 0.87 1.74 0.87 0.87 1.74 1.74 4.35 0.87 2.61 0 4.35 0 7.83 0 0.87 -0.87 0.87 -0.87 0.87 -0.87 0.87 -1.74 0.88 -0.87 0.87 -1.74 3.48 -1.74 2.61 -0.87 1.74 -0.87 0.87 0 1.74 -0.87 3.48 0 0.87 -1.74 1.74 0 0.87 -0.87 1.74 0 1.74 0 0.87 0 0.87 -1.74 1.74 0 1.74 0 2.61 0.87 1.74 0.87 4.35 0.87 1.74 0.87 2.62 0.87 1.74 0 2.61 0.87 2.61 0.87 0.87 1.74 2.61 0.87 0.87 0 0.87 0 3.48 0.87 4.35 4.35 8.7 -3.48 0.87 -0.87 0 -0.87 1.74 -2.61 0.87 -2.61 1.74 -0.87 0.87 -1.74 2.61 -0.87 0.87 -1.74 0.87 -2.61 0.87 -0.87 0.88 -0.87 1.74 -0.87 0.87 -0.88 0.87 -0.87 0 -0.87 0 -0.87 0.87 -0.87 0.87 -0.87 1.74 -0.87 0.87 -20.88 7.83 -4.35 2.61 -3.48 3.48 -1.74 2.61 -2.61 6.09 -2.62 3.48 -2.61 2.61 -43.51 23.5 -3.48 0.87 -1.74 0 -1.74 0 -0.87 -0.87 -5.22 -1.74 -6.09 -0.87 -2.61 0 -1.74 -0.87 -1.74 -0.87 -0.87 -0.87 -0.87 -0.87 0 -0.87 -0.87 -0.87 -0.87 0 -2.61 0.87 -1.74 0 -4.36 0 -1.74 0 -1.74 -0.87 0 -0.87 -2.61 -0.87 -4.35 -3.48 -7.83 -3.48 -7.83 -1.74 -6.96 -0.87 -11.32 0.87 -43.51 -1.74 -35.68 1.74 -6.96 -0.87 -10.44 -2.62 -6.09 -0.87 -12.18 6.97 -20.02 7.83 -3.48 2.61 -2.61 2.61 -5.22 6.09 -28.72 28.72 -2.61 1.74 -2.61 0 -2.61 -1.74 -2.61 -3.48 -6.09 -6.96 -1.74 -3.49 -2.61 -6.96 -0.88 -0.87 0 -0.87 -0.87 -0.87 -0.87 0 -0.87 0 -1.74 0 -1.74 0.87 -0.87 0 -2.61 3.48 -2.61 1.74 -2.61 1.74 -3.48 0.87 -36.55 14.8 -6.09 0.87 -11.31 -1.74 -16.54 -0.87 -4.35 0.87 -3.48 1.74 -3.48 1.74 -5.22 3.48 -4.35 0.87 -26.98 5.22 -5.22 1.74 -5.22 2.61 -21.76 31.33 -4.35 5.22 -4.35 3.48 -0.87 0 0 1.74 0 0.87 0 0.87 0 0.87 0 0.87 1.74 2.61 0.87 2.61 0 3.49 0.87 1.74 -0.87 0.87 0 1.74 -0.87 1.74 0 1.74 -0.87 0 -1.74 1.74 -4.35 6.96 -1.74 2.61 -3.48 1.74 -4.35 1.74 -4.35 0 -6.97 -2.61 -3.48 1.74 -4.35 5.22 -3.48 2.61 -2.61 0.87 -2.61 2.61 -0.87 5.22 -0.87 2.62 -3.48 2.61 -6.09 4.35 -3.48 2.61 -1.74 3.48 -1.74 3.48 0 4.35 -0.87 4.35 -4.36 6.09 0 3.48 5.23 6.1 2.61 3.48 -2.61 1.74 -0.87 0 -1.74 1.74 -0.88 0.87 -0.87 0 -0.87 -0.87 -1.74 -0.87 -2.61 -2.61 -1.74 -0.87 -3.48 -0.87 -2.61 0.87 -1.74 2.61zm641.35 -631.78l-0.87 -2.61 -1.74 -0.87 -4.35 -2.61 -1.74 -0.87 0 -0.87 -0.87 -1.74 -0.87 -0.87 0 -1.74 0.87 -1.74 0.87 -5.22 0 -3.48 0 -1.75 -0.87 -2.61 0 -0.87 0 -6.09 0.87 -4.35 3.48 -4.35 0.87 -2.61 1.74 -6.09 1.74 -8.7 0 -1.74 -1.74 -2.61 0 -0.88 0 -2.61 0 -7.83 0.87 -1.74 0.87 -2.61 0 -0.87 0 -0.87 -1.74 -0.87 -2.61 -1.74 -5.22 -1.74 -4.35 -2.61 -0.87 -0.87 -2.62 -0.87 -0.87 -0.87 -0.87 -1.74 -0.87 -1.74 0 -2.61 0 -0.87 -60.91 -1.74 -46.12 0 -26.11 0 -1.74 2.61 -1.74 4.35 -1.74 16.53 -0.87 2.61 -1.74 0.87 -0.87 0 0 0.87 -0.87 0.87 0 1.74 -0.87 6.1 0.87 1.74 0.87 1.74 2.61 1.74 2.61 2.61 -2.61 6.09 -1.74 3.48 -0.87 1.74 -1.74 0.87 -0.87 1.74 -1.74 0.87 -2.61 0.87 -0.87 0.87 0 0.87 -0.87 1.74 2.61 11.31 0.87 5.23 0 0.87 0.87 0.87 2.61 0.87 0.87 2.61 0 1.74 -0.87 3.48 -1.74 2.61 0 2.61 -0.87 0.87 0 0.87 0.87 0.87 12.18 1.74 56.57 0 44.38 0 53.08 0z"/>
   <polygon class="fil0 str0" points="16680.05,11271.01 16681.79,11270.14 16687.01,11271.88 16688.75,11271.88 16693.97,11271.01 16694.84,11271.88 16695.71,11271.88 16700.06,11276.23 16700.06,11278.84 16700.93,11278.84 16700.93,11279.71 16700.93,11283.19 16700.93,11284.06 16700.93,11284.93 16700.93,11285.8 16701.8,11285.8 16701.8,11286.67 16702.67,11286.67 16706.16,11287.54 16707.03,11288.41 16709.64,11290.15 16711.38,11291.02 16713.99,11293.63 16714.86,11293.63 16715.73,11294.5 16719.21,11294.5 16720.08,11295.37 16720.95,11295.37 16720.95,11296.24 16721.82,11297.98 16723.56,11299.72 16724.43,11300.59 16724.43,11301.47 16724.43,11302.34 16724.43,11303.21 16723.56,11305.82 16723.56,11306.69 16723.56,11308.43 16723.56,11309.3 16724.43,11310.17 16724.43,11309.3 16725.3,11307.56 16727.04,11304.95 16729.65,11298.85 16730.52,11297.11 16730.52,11296.24 16731.39,11295.37 16732.26,11295.37 16734,11294.5 16762.72,11286.67 16767.94,11283.19 16771.42,11282.32 16783.6,11280.58 16785.34,11279.71 16789.7,11277.97 16792.31,11276.23 16810.58,11256.21 16811.45,11255.34 16811.45,11254.47 16811.45,11253.6 16811.45,11252.73 16810.58,11245.77 16810.58,11244.9 16810.58,11244.03 16811.45,11243.16 16811.45,11242.29 16812.32,11241.42 16816.67,11239.68 16819.28,11237.94 16821.02,11236.2 16821.89,11236.2 16824.5,11234.46 16825.37,11233.59 16826.24,11232.72 16828.86,11229.24 16831.47,11226.63 16831.47,11225.76 16833.21,11224.89 16833.21,11224.02 16834.08,11223.15 16834.95,11217.92 16834.95,11217.05 16834.08,11211.83 16834.08,11210.96 16834.08,11210.09 16834.95,11209.22 16834.95,11208.35 16835.82,11208.35 16837.56,11207.48 16841.04,11205.74 16842.78,11204.87 16843.65,11204 16843.65,11203.13 16843.65,11202.26 16844.52,11199.65 16844.52,11198.78 16845.39,11197.91 16849.74,11194.43 16851.48,11193.56 16865.4,11195.3 16889.77,11192.69 16892.38,11192.69 16894.12,11191.82 16894.99,11191.82 16896.73,11191.82 16902.82,11193.56 16905.43,11194.43 16908.92,11193.56 16911.53,11192.69 16915.01,11190.95 16918.49,11187.47 16920.23,11187.47 16922.84,11188.34 16924.58,11188.34 16927.19,11187.47 16928.93,11186.6 16929.8,11184.86 16935.89,11177.89 16936.76,11177.02 16938.5,11176.15 16940.24,11175.28 16941.98,11174.41 16946.33,11173.54 16955.04,11171.8 16958.52,11170.93 16961.13,11170.06 16964.61,11170.06 16971.57,11170.93 16974.18,11171.8 16977.66,11174.41 16979.4,11177.02 16980.27,11178.76 16981.14,11180.51 16981.14,11181.38 16982.01,11182.25 16982.88,11183.12 16985.49,11184.86 16998.55,11187.47 17003.77,11190.08 17008.99,11191.82 17011.6,11193.56 17012.47,11194.43 17015.08,11197.91 17016.82,11198.78 17019.43,11200.52 17029.88,11202.26 17033.36,11201.39 17038.58,11204 17043.8,11204.87 17046.41,11205.74 17050.76,11208.35 17053.37,11210.96 17054.24,11212.7 17055.11,11216.18 17055.98,11217.05 17056.85,11218.79 17062.07,11224.89 17063.81,11227.5 17068.16,11230.98 17079.48,11236.2 17086.44,11237.94 17089.05,11239.68 17091.66,11241.42 17096.01,11242.29 17097.75,11243.16 17101.23,11245.77 17102.97,11247.51 17106.45,11250.99 17125.6,11261.44 17136.91,11260.56 17139.52,11260.56 17143.87,11260.56 17162.15,11256.21 17164.76,11256.21 17169.98,11256.21 17172.59,11256.21 17175.2,11255.34 17190.86,11246.64 17192.61,11244.9 17193.48,11243.16 17195.22,11239.68 17196.09,11237.94 17197.83,11236.2 17201.31,11234.46 17210.88,11230.98 17226.54,11228.37 17228.28,11228.37 17230.02,11229.24 17236.99,11229.24 17238.73,11229.24 17240.47,11230.11 17243.95,11231.85 17248.3,11235.33 17257.87,11241.42 17258.74,11242.29 17259.61,11244.03 17260.48,11245.77 17260.48,11247.51 17260.48,11250.99 17261.35,11252.73 17262.22,11256.21 17262.22,11257.95 17263.96,11258.82 17265.7,11259.69 17270.92,11260.56 17273.54,11260.56 17277.02,11259.69 17291.81,11252.73 17299.64,11250.99 17303.99,11250.12 17307.47,11250.99 17310.08,11250.12 17313.57,11248.38 17317.92,11243.16 17319.66,11240.55 17321.4,11237.07 17321.4,11235.33 17322.27,11233.59 17324.01,11230.98 17325.75,11229.24 17336.19,11224.02 17341.41,11219.66 17357.08,11202.26 17359.69,11197.91 17360.56,11196.17 17362.3,11194.43 17364.04,11191.82 17372.74,11184.86 17375.35,11183.12 17377.96,11182.25 17387.53,11181.38 17388.4,11183.12 17388.4,11184.86 17388.4,11188.34 17388.4,11190.08 17388.4,11192.69 17382.31,11215.31 17382.31,11227.5 17381.44,11229.24 17379.7,11235.33 17376.22,11253.6 17376.22,11255.34 17374.48,11257.08 17373.61,11257.08 17365.78,11258.82 17359.69,11261.44 17357.08,11262.31 17356.21,11264.05 17354.47,11264.92 17353.59,11267.53 17352.72,11272.75 17351.85,11274.49 17347.5,11279.71 17345.76,11284.93 17344.89,11286.67 17338.8,11292.76 17336.19,11296.24 17335.32,11299.72 17334.45,11301.47 17334.45,11303.21 17335.32,11304.95 17337.06,11307.56 17343.15,11306.69 17355.34,11310.17 17373.61,11319.74 17380.57,11320.61 17402.33,11318 17406.68,11318 17421.47,11321.48 17426.69,11322.35 17431.91,11321.48 17433.65,11319.74 17437.14,11319.74 17453.67,11318.87 17457.15,11319.74 17471.07,11322.35 17475.42,11324.09 17482.39,11324.96 17496.31,11323.22 17498.92,11322.35 17498.92,11327.57 17500.66,11331.92 17500.66,11337.14 17498.05,11373.69 17498.05,11377.17 17498.92,11379.78 17500.66,11382.4 17502.4,11385.88 17505.88,11389.36 17507.62,11391.1 17510.23,11391.1 17511.97,11390.23 17513.71,11389.36 17520.68,11384.14 17522.42,11383.27 17524.16,11383.27 17525.03,11383.27 17526.77,11383.27 17530.25,11385.01 17545.91,11391.97 17547.65,11393.71 17548.52,11395.45 17547.65,11399.8 17546.78,11402.41 17545.04,11405.02 17535.47,11418.07 17532.86,11422.42 17526.77,11437.22 17525.9,11440.7 17525.9,11441.57 17525.9,11442.44 17531.12,11445.05 17550.26,11450.27 17562.45,11450.27 17570.28,11452.88 17575.5,11452.88 17596.38,11449.4 17599,11450.27 17600.74,11451.14 17605.96,11454.62 17619.01,11467.68 17620.75,11469.42 17623.36,11470.29 17626.84,11470.29 17635.54,11469.42 17638.16,11470.29 17642.51,11471.16 17652.95,11476.38 17666,11485.08 17668.61,11487.69 17669.48,11489.43 17670.35,11491.17 17671.22,11492.04 17672.96,11493.78 17676.44,11495.52 17682.54,11498.13 17692.11,11499.87 17698.2,11502.48 17704.29,11506.84 17708.64,11512.06 17711.25,11512.93 17746.06,11528.59 17747.8,11528.59 17756.5,11530.33 17763.47,11529.46 17765.21,11529.46 17776.52,11532.94 17783.48,11533.81 17785.22,11534.68 17786.96,11535.55 17798.27,11546 17802.63,11549.48 17804.37,11551.22 17806.98,11552.09 17808.72,11552.96 17811.33,11553.83 17818.29,11553.83 17820.03,11554.7 17826.12,11557.31 17827.86,11557.31 17832.21,11557.31 17833.95,11557.31 17836.56,11557.31 17838.3,11559.05 17840.92,11560.79 17843.53,11562.53 17852.23,11572.97 17865.28,11592.12 17864.41,11596.47 17866.15,11599.95 17868.76,11603.43 17869.63,11606.04 17867.02,11609.52 17866.15,11610.39 17862.67,11610.39 17860.93,11611.26 17860.06,11612.13 17860.06,11613.87 17860.06,11624.31 17859.19,11628.67 17854.84,11633.89 17853.97,11639.11 17853.97,11644.33 17857.45,11672.18 17857.45,11695.67 17859.19,11709.6 17853.1,11725.26 17848.75,11733.09 17843.53,11739.18 17838.3,11743.53 17834.82,11746.14 17811.33,11753.11 17800.89,11758.33 17798.27,11760.94 17791.31,11767.9 17788.7,11773.12 17781.74,11781.82 17777.39,11787.92 17768.69,11797.49 17759.99,11799.23 17756.5,11801.84 17755.63,11805.32 17753.89,11814.02 17749.54,11820.98 17749.54,11825.33 17749.54,11834.04 17747.8,11854.05 17746.06,11857.53 17733.88,11871.46 17730.4,11874.07 17729.53,11874.94 17727.79,11876.68 17723.44,11887.99 17719.96,11893.21 17719.09,11894.08 17718.21,11894.95 17715.6,11896.69 17711.25,11900.17 17707.77,11901.91 17706.03,11904.52 17705.16,11909.75 17708.64,11925.41 17709.51,11933.24 17706.03,11941.94 17695.59,11953.26 17694.72,11956.74 17689.5,11965.44 17686.89,11967.18 17683.41,11968.92 17680.8,11968.05 17678.18,11967.18 17674.7,11967.18 17672.09,11967.18 17671.22,11968.05 17669.48,11968.92 17668.61,11970.66 17668.61,11971.53 17668.61,11972.4 17668.61,11973.27 17667.74,11974.14 17666.87,11975.01 17666,11975.01 17665.13,11975.88 17664.26,11981.1 17672.09,11994.16 17674.7,11995.03 17675.57,11996.77 17676.44,11998.51 17675.57,12002.86 17672.96,12006.34 17669.48,12008.95 17665.13,12012.43 17659.04,12015.04 17656.43,12016.78 17651.21,12025.48 17650.34,12028.09 17650.34,12031.58 17649.47,12034.19 17647.73,12035.93 17646.86,12037.67 17645.12,12039.41 17643.38,12041.15 17639.9,12042.02 17639.03,12042.89 17630.32,12051.59 17628.58,12054.2 17627.71,12056.81 17626.84,12062.9 17625.97,12065.51 17620.75,12076.83 17620.75,12077.7 17619.01,12082.92 17618.14,12084.66 17606.83,12095.1 17603.35,12099.45 17602.48,12100.32 17598.13,12102.93 17596.38,12103.8 17592.03,12108.15 17590.29,12109.02 17588.55,12109.89 17585.07,12109.89 17583.33,12110.76 17579.85,12112.51 17574.63,12117.73 17565.06,12121.21 17561.58,12122.95 17556.35,12128.17 17539.82,12137.74 17538.95,12138.61 17538.08,12139.48 17536.34,12144.7 17535.47,12145.57 17522.42,12151.66 17518.94,12153.41 17516.33,12153.41 17514.58,12151.66 17513.71,12152.53 17510.23,12157.76 17507.62,12163.85 17505.88,12165.59 17504.14,12166.46 17501.53,12167.33 17499.79,12168.2 17498.92,12169.07 17488.48,12188.21 17484.13,12193.44 17478.91,12198.66 17424.08,12223.02 17411.03,12230.85 17405.81,12236.95 17403.2,12240.43 17398.85,12251.74 17397.11,12258.7 17395.37,12275.24 17392.75,12283.07 17389.27,12290.03 17384.05,12304.82 17380.57,12311.78 17376.22,12317.88 17357.08,12330.06 17342.28,12336.15 17337.93,12339.63 17337.93,12341.37 17337.93,12348.33 17329.23,12377.05 17328.36,12388.36 17322.27,12403.16 17320.53,12410.99 17320.53,12428.39 17318.79,12437.1 17315.31,12440.58 17301.38,12447.54 17300.51,12450.15 17297.03,12452.76 17290.07,12456.24 17284.85,12453.63 17268.31,12443.19 17258.74,12430.13 17255.26,12427.52 17225.67,12410.12 17220.45,12409.25 17217.84,12410.12 17213.49,12415.34 17210.88,12417.08 17187.38,12424.91 17176.07,12431 17174.33,12433.61 17169.98,12438.84 17167.37,12440.58 17163.89,12441.45 17158.67,12441.45 17155.19,12443.19 17149.96,12444.06 17138.65,12444.06 17134.3,12446.67 17128.21,12450.15 17122.12,12450.15 17116.03,12449.28 17109.93,12446.67 17103.84,12445.8 17093.4,12444.93 17087.31,12442.32 17083.83,12437.97 17082.09,12432.74 17079.48,12396.2 17076,12384.01 17068.16,12375.31 17064.68,12370.96 17063.81,12364 17063.81,12357.04 17062.94,12350.94 17062.07,12343.98 17067.29,12333.54 17067.29,12327.45 17065.55,12323.97 17060.33,12318.75 17058.59,12314.39 17059.46,12310.91 17063.81,12302.21 17063.81,12298.73 17059.46,12284.81 17059.46,12283.07 17054.24,12280.46 17052.5,12277.85 17052.5,12274.36 17053.37,12267.4 17052.5,12263.92 17049.89,12261.31 17045.54,12255.22 17045.54,12252.61 17046.41,12245.65 17046.41,12243.04 17042.06,12228.24 17042.06,12221.28 17044.67,12215.19 17047.28,12209.97 17049.02,12203.01 17049.02,12201.27 17048.15,12198.66 17047.28,12196.92 17047.28,12195.18 17048.15,12191.69 17049.02,12190.82 17048.15,12186.47 17047.28,12184.73 17044.67,12182.99 17041.19,12182.12 17035.1,12178.64 17030.75,12173.42 17027.26,12167.33 17026.39,12160.37 17025.52,12144.7 17024.65,12139.48 17022.91,12137.74 17015.08,12132.52 17006.38,12120.34 17004.64,12124.69 17004.64,12125.56 17001.16,12123.82 16989.85,12122.95 16987.23,12121.21 16984.62,12119.47 16982.88,12118.6 16980.27,12119.47 16977.66,12120.34 16948.07,12118.6 16944.59,12117.73 16941.98,12115.99 16936.76,12110.76 16926.32,12104.67 16921.1,12099.45 16917.62,12093.36 16912.4,12082.05 16910.66,12080.31 16908.05,12079.44 16895.86,12082.05 16892.38,12082.92 16890.64,12084.66 16888.9,12086.4 16886.29,12090.75 16886.29,12091.62 16885.42,12094.23 16884.55,12095.1 16882.81,12095.97 16882.81,12096.84 16879.33,12102.06 16877.59,12103.8 16872.37,12108.15 16870.63,12109.02 16868.89,12109.89 16867.14,12110.76 16869.76,12114.25 16868.89,12115.99 16865.4,12115.12 16860.18,12108.15 16856.7,12106.41 16855.83,12107.28 16854.96,12110.76 16854.09,12111.63 16851.48,12113.38 16851.48,12112.51 16851.48,12111.63 16849.74,12111.63 16844.52,12113.38 16842.78,12113.38 16840.17,12112.51 16840.17,12113.38 16839.3,12114.25 16838.43,12115.99 16834.08,12120.34 16832.34,12121.21 16827.99,12120.34 16827.99,12118.6 16826.24,12113.38 16823.63,12110.76 16821.89,12115.12 16820.15,12115.12 16816.67,12113.38 16814.93,12113.38 16814.06,12114.25 16813.19,12113.38 16813.19,12109.89 16811.45,12111.63 16809.71,12111.63 16805.36,12109.89 16801.88,12109.89 16796.66,12109.89 16794.05,12109.89 16793.18,12110.76 16792.31,12110.76 16791.44,12110.76 16787.96,12109.89 16787.09,12109.02 16787.09,12108.15 16785.34,12107.28 16780.12,12104.67 16777.51,12104.67 16775.77,12104.67 16774.9,12105.54 16774.03,12106.41 16772.29,12106.41 16770.55,12104.67 16770.55,12102.06 16769.68,12101.19 16767.07,12102.06 16762.72,12105.54 16759.24,12106.41 16751.41,12104.67 16748.8,12103.8 16748.8,12104.67 16747.93,12105.54 16747.06,12106.41 16745.31,12106.41 16742.7,12105.54 16740.96,12104.67 16740.96,12106.41 16739.22,12106.41 16734,12102.06 16731.39,12101.19 16729.65,12101.19 16725.3,12099.45 16724.43,12099.45 16717.47,12101.19 16713.12,12098.58 16712.25,12098.58 16709.64,12097.71 16708.77,12098.58 16707.9,12098.58 16707.03,12099.45 16702.67,12100.32 16699.19,12099.45 16697.45,12096.84 16694.84,12093.36 16692.23,12085.53 16690.49,12084.66 16689.62,12084.66 16687.88,12085.53 16686.14,12086.4 16682.66,12086.4 16680.05,12085.53 16678.31,12085.53 16674.83,12086.4 16673.96,12086.4 16672.22,12086.4 16671.35,12086.4 16670.48,12088.14 16670.48,12089.01 16671.35,12089.01 16668.74,12089.88 16667.87,12090.75 16666.13,12089.88 16664.38,12089.88 16660.9,12092.49 16659.16,12092.49 16658.29,12092.49 16655.68,12089.88 16653.94,12089.01 16653.07,12089.01 16650.46,12089.88 16647.85,12089.88 16642.63,12088.14 16640.02,12085.53 16638.28,12082.92 16636.54,12081.18 16633.93,12079.44 16633.93,12077.7 16633.93,12075.09 16633.93,12072.48 16638.28,12061.16 16638.28,12059.42 16640.02,12057.68 16644.37,12049.85 16644.37,12048.11 16643.5,12043.76 16640.89,12040.28 16639.15,12037.67 16640.89,12034.19 16642.63,12029.83 16643.5,12026.35 16642.63,12022.87 16642.63,12019.39 16649.59,12007.21 16648.72,12005.47 16646.98,12003.73 16645.24,12001.12 16643.5,11997.64 16642.63,11995.03 16643.5,11991.55 16646.11,11987.19 16646.98,11983.71 16645.24,11981.97 16642.63,11980.23 16640.89,11976.75 16640.89,11973.27 16640.89,11968.92 16644.37,11962.83 16655.68,11944.55 16657.42,11939.33 16654.81,11937.59 16652.2,11936.72 16650.46,11934.98 16650.46,11934.11 16649.59,11933.24 16648.72,11931.5 16648.72,11928.89 16649.59,11927.15 16654.81,11923.67 16658.29,11917.58 16660.9,11909.75 16661.77,11901.04 16660.03,11893.21 16657.42,11887.12 16657.42,11884.51 16662.64,11876.68 16664.38,11872.33 16663.51,11868.84 16660.03,11866.23 16660.03,11868.84 16658.29,11868.84 16654.81,11864.49 16650.46,11861.01 16649.59,11861.01 16648.72,11861.01 16647.85,11860.14 16646.98,11859.27 16646.11,11857.53 16647.85,11854.92 16654.81,11851.44 16656.55,11848.83 16656.55,11845.35 16654.81,11842.74 16651.33,11841 16647.85,11840.13 16643.5,11840.13 16641.76,11838.39 16643.5,11836.65 16646.11,11834.91 16647.85,11833.17 16649.59,11831.43 16653.07,11830.56 16655.68,11829.69 16656.55,11828.82 16656.55,11827.07 16654.81,11825.33 16652.2,11823.59 16650.46,11822.72 16650.46,11820.98 16649.59,11818.37 16648.72,11817.5 16646.11,11815.76 16643.5,11814.89 16640.89,11816.63 16639.15,11822.72 16638.28,11823.59 16636.54,11821.85 16634.8,11820.11 16634.8,11817.5 16636.54,11814.02 16636.54,11812.28 16635.67,11809.67 16633.06,11806.19 16633.06,11803.58 16633.06,11799.23 16633.06,11797.49 16631.32,11793.14 16630.45,11788.79 16629.58,11783.56 16630.45,11780.08 16633.06,11774.86 16633.93,11771.38 16631.32,11769.64 16627.84,11768.77 16623.48,11767.03 16620,11763.55 16617.39,11760.94 16615.65,11757.46 16614.78,11753.11 16613.91,11747.89 16615.65,11742.66 16614.78,11740.92 16613.91,11740.05 16612.17,11739.18 16610.43,11739.18 16609.56,11740.05 16608.69,11740.92 16607.82,11741.79 16604.34,11739.18 16603.47,11735.7 16604.34,11732.22 16611.3,11730.48 16610.43,11728.74 16608.69,11726.13 16607.82,11725.26 16606.08,11724.39 16605.21,11724.39 16604.34,11724.39 16603.47,11720.91 16611.3,11718.3 16613.91,11717.43 16614.78,11715.69 16616.52,11713.08 16617.39,11712.21 16622.61,11710.47 16627.84,11702.63 16632.19,11700.89 16633.93,11700.02 16635.67,11699.15 16637.41,11697.41 16637.41,11695.67 16639.15,11694.8 16641.76,11695.67 16646.11,11696.54 16649.59,11694.8 16652.2,11692.19 16654.81,11688.71 16656.55,11686.97 16638.28,11670.44 16624.36,11657.38 16611.3,11645.2 16609.56,11639.98 16615.65,11626.93 16618.26,11622.57 16622.61,11612.13 16627.84,11601.69 16629.58,11597.34 16634.8,11586.03 16646.98,11560.79 16659.16,11535.55 16664.38,11524.24 16668.74,11515.54 16671.35,11513.8 16681.79,11512.93 16680.05,11504.23 16679.18,11493.78 16678.31,11490.3 16676.57,11488.56 16669.61,11487.69 16672.22,11481.6 16680.05,11454.62 16688.75,11428.52 16696.58,11402.41 16704.41,11376.3 16707.9,11366.73 16709.64,11364.99 16713.12,11364.12 16725.3,11364.12 16725.3,11359.77 16723.56,11358.03 16720.95,11357.16 16717.47,11357.16 16710.51,11353.68 16704.41,11342.37 16695.71,11319.74 16679.18,11291.02 16684.4,11291.02 16685.27,11287.54 16682.66,11283.19 16679.18,11278.84 16678.31,11277.1 "/>
   <polygon class="fil0 str0" points="16607.82,9401.79 16621.74,9413.97 16635.67,9435.72 16639.15,9442.69 16640.89,9451.39 16641.76,9453.13 16643.5,9455.74 16646.98,9459.22 16648.72,9461.83 16650.46,9464.44 16653.07,9477.5 16655.68,9486.2 16660.03,9494.9 16660.9,9496.64 16660.9,9502.73 16661.77,9506.21 16663.51,9510.56 16666.13,9515.78 16667,9521.01 16667.87,9522.75 16668.74,9524.49 16670.48,9526.23 16678.31,9534.93 16680.05,9536.67 16680.92,9539.28 16681.79,9542.76 16682.66,9544.5 16684.4,9546.24 16692.23,9554.07 16693.97,9556.68 16694.84,9559.3 16692.23,9564.52 16692.23,9569.74 16691.36,9571.48 16690.49,9574.96 16689.62,9576.7 16689.62,9580.18 16689.62,9588.01 16689.62,9589.75 16688.75,9592.36 16687.88,9594.1 16687.88,9595.84 16687.88,9597.58 16688.75,9599.33 16692.23,9604.55 16692.23,9605.42 16693.1,9606.29 16693.1,9608.9 16692.23,9609.77 16693.1,9611.51 16694.84,9617.6 16694.84,9619.34 16693.97,9622.82 16693.97,9625.43 16694.84,9627.17 16696.58,9628.91 16697.45,9630.65 16699.19,9632.39 16700.06,9634.13 16701.8,9637.61 16702.67,9641.97 16702.67,9643.71 16702.67,9648.06 16703.54,9650.67 16705.29,9652.41 16717.47,9655.89 16719.21,9656.76 16722.69,9658.5 16728.78,9664.59 16732.26,9667.2 16739.22,9671.55 16740.96,9673.29 16742.7,9675.03 16743.57,9678.51 16744.44,9680.26 16753.15,9687.22 16754.89,9688.09 16767.07,9693.31 16772.29,9695.92 16774.03,9697.66 16775.77,9699.4 16788.83,9704.62 16790.57,9705.49 16791.44,9707.23 16792.31,9708.97 16794.05,9717.67 16794.05,9728.99 16794.05,9730.73 16794.92,9732.47 16796.66,9734.21 16799.27,9736.82 16804.49,9738.56 16807.1,9739.43 16809.71,9738.56 16810.58,9738.56 16813.19,9737.69 16815.8,9738.56 16820.15,9739.43 16832.34,9742.04 16835.82,9743.78 16837.56,9745.52 16838.43,9747.26 16839.3,9749 16840.17,9751.61 16841.04,9756.83 16842.78,9762.06 16843.65,9763.8 16845.39,9765.54 16847.13,9766.41 16850.61,9766.41 16853.22,9765.54 16857.57,9762.93 16859.31,9762.93 16861.05,9762.06 16863.66,9762.93 16865.4,9763.8 16867.14,9764.67 16869.76,9766.41 16877.59,9768.15 16880.2,9769.02 16886.29,9774.24 16896.73,9778.59 16900.21,9780.33 16901.08,9778.59 17141.26,9795.99 17806.11,9836.02 17828.73,9836.89 17992.33,9845.6 17987.98,9851.69 17984.5,9858.65 17981.89,9870.83 17981.02,9874.31 17980.15,9876.92 17978.41,9879.53 17968.84,9889.98 17967.1,9891.72 17966.23,9896.07 17965.36,9897.81 17963.62,9900.42 17964.49,9904.77 17965.36,9911.73 17964.49,9918.69 17962.75,9926.53 17959.26,9934.36 17954.91,9939.58 17949.69,9944.8 17947.08,9947.41 17946.21,9950.89 17947.08,9956.98 17946.21,9958.72 17945.34,9961.33 17942.73,9964.82 17941.86,9966.56 17942.73,9970.04 17942.73,9972.65 17940.99,9973.52 17940.12,9974.39 17937.51,9980.48 17936.64,9981.35 17934.9,9981.35 17933.16,9982.22 17932.29,9983.09 17931.42,9985.7 17930.55,9987.44 17928.81,9990.05 17928.81,9990.92 17928.81,9993.53 17930.55,9998.75 17930.55,10000.49 17930.55,10007.46 17930.55,10010.94 17928.81,10013.55 17928.81,10014.42 17927.07,10015.29 17926.2,10016.16 17925.33,10017.9 17923.59,10019.64 17923.59,10020.51 17923.59,10022.25 17924.46,10024.86 17926.2,10028.34 17926.2,10029.21 17926.2,10030.95 17926.2,10032.69 17925.33,10033.56 17924.46,10034.43 17922.72,10037.91 17922.72,10038.78 17922.72,10040.52 17923.59,10044.88 17925.33,10053.58 17926.2,10056.19 17926.2,10057.06 17926.2,10062.28 17926.2,10064.89 17925.33,10066.63 17924.46,10067.5 17923.59,10068.37 17921.85,10069.24 17920.97,10070.11 17918.36,10075.33 17917.49,10077.07 17916.62,10091.87 17915.75,10097.96 17915.75,10098.83 17914.01,10102.31 17913.14,10104.05 17913.14,10104.92 17912.27,10105.79 17906.18,10123.19 17906.18,10127.55 17905.31,10130.16 17904.44,10132.77 17903.57,10135.38 17903.57,10141.47 17904.44,10143.21 17905.31,10146.69 17907.05,10148.43 17907.92,10149.3 17908.79,10151.04 17909.66,10151.04 17910.53,10151.91 17917.49,10155.39 17918.36,10156.26 17919.23,10157.13 17919.23,10158 17920.1,10158.87 17920.1,10160.61 17919.23,10168.45 17918.36,10169.32 17918.36,10170.19 17917.49,10171.06 17915.75,10172.8 17914.01,10174.54 17913.14,10175.41 17911.4,10177.15 17909.66,10178.89 17909.66,10179.76 17908.79,10180.63 17908.79,10183.24 17908.79,10184.98 17908.79,10185.85 17909.66,10186.72 17911.4,10188.46 17911.4,10190.2 17912.27,10191.07 17912.27,10193.68 17914.01,10197.16 17914.01,10198.9 17914.01,10199.77 17914.88,10204.12 17914.88,10205.86 17915.75,10207.61 17917.49,10207.61 17919.23,10208.48 17920.1,10208.48 17920.1,10209.35 17920.97,10210.22 17920.97,10212.83 17920.1,10214.57 17920.1,10215.44 17919.23,10215.44 17918.36,10216.31 17917.49,10216.31 17917.49,10217.18 17917.49,10218.92 17917.49,10219.79 17918.36,10221.53 17918.36,10223.27 17918.36,10225.01 17918.36,10226.75 17917.49,10227.62 17914.88,10229.36 17914.01,10230.23 17914.01,10233.71 17914.01,10238.06 17915.75,10265.04 17916.62,10266.78 17918.36,10269.39 17920.97,10272 17921.85,10272.87 17924.46,10278.96 17924.46,10280.7 17924.46,10282.44 17923.59,10285.05 17923.59,10285.92 17926.2,10307.68 17926.2,10308.55 17926.2,10309.42 17925.33,10310.29 17925.33,10311.16 17923.59,10311.16 17922.72,10311.16 17922.72,10312.03 17922.72,10313.77 17922.72,10317.25 17922.72,10319.86 17921.85,10322.47 17921.85,10325.08 17921.85,10325.95 17920.1,10329.44 17920.1,10330.31 17919.23,10331.18 17919.23,10332.92 17920.1,10336.4 17920.1,10338.14 17919.23,10339.01 17918.36,10339.01 17918.36,10338.14 17917.49,10338.14 17916.62,10338.14 17915.75,10338.14 17915.75,10339.01 17915.75,10340.75 17915.75,10342.49 17917.49,10343.36 17920.1,10345.97 17922.72,10346.84 17923.59,10347.71 17923.59,10348.58 17924.46,10352.93 17924.46,10353.8 17926.2,10356.41 17926.2,10357.28 17927.07,10359.89 17927.07,10362.5 17927.07,10365.11 17927.07,10367.72 17927.07,10368.6 17927.07,10369.47 17927.94,10371.21 17928.81,10373.82 17928.81,10374.69 17929.68,10375.56 17930.55,10374.69 17932.29,10374.69 17933.16,10374.69 17934.03,10374.69 17934.9,10374.69 17934.9,10375.56 17934.03,10376.43 17934.03,10377.3 17934.03,10378.17 17934.9,10378.17 17934.9,10379.04 17936.64,10379.91 17939.25,10380.78 17940.99,10381.65 17946.21,10380.78 17948.82,10381.65 17949.69,10383.39 17949.69,10385.13 17949.69,10387.74 17947.08,10400.79 17946.21,10402.53 17945.34,10404.27 17943.6,10406.01 17942.73,10406.88 17936.64,10410.37 17935.77,10412.11 17934.9,10412.11 17934.9,10412.98 17934.9,10414.72 17936.64,10415.59 17937.51,10416.46 17937.51,10417.33 17937.51,10418.2 17937.51,10419.07 17936.64,10419.94 17935.77,10419.94 17933.16,10421.68 17932.29,10421.68 17931.42,10422.55 17930.55,10423.42 17930.55,10424.29 17931.42,10425.16 17932.29,10427.77 17933.16,10429.51 17933.16,10432.12 17932.29,10439.08 17932.29,10441.69 17932.29,10445.17 17932.29,10446.04 17934.03,10448.65 17934.03,10449.52 17934.03,10451.27 17934.03,10452.14 17933.16,10453.88 17928.81,10464.32 17926.2,10469.54 17923.59,10473.02 17920.97,10475.63 17919.23,10478.24 17918.36,10479.11 17918.36,10480.85 17917.49,10486.07 17917.49,10486.94 17916.62,10488.68 17914.88,10490.43 17913.14,10493.04 17911.4,10494.78 17910.53,10495.65 17910.53,10496.52 17908.79,10499.13 17907.92,10500 17905.31,10500.87 17904.44,10501.74 17903.57,10502.61 17900.96,10506.09 17900.96,10506.96 17899.22,10518.27 17895.74,10529.58 17894.87,10530.45 17894,10531.33 17894,10532.2 17892.26,10533.07 17889.65,10535.68 17888.78,10536.55 17887.91,10536.55 17886.17,10536.55 17883.56,10537.42 17882.69,10538.29 17881.82,10539.16 17881.82,10540.03 17881.82,10541.77 17882.69,10544.38 17883.56,10545.25 17883.56,10546.99 17883.56,10556.56 17883.56,10558.3 17884.43,10560.91 17885.3,10564.39 17885.3,10566.13 17885.3,10568.74 17884.43,10575.71 17882.69,10581.8 17881.82,10583.54 17881.82,10586.15 17882.69,10587.02 17883.56,10590.5 17882.69,10594.85 17883.56,10597.46 17883.56,10598.33 17883.56,10599.2 17885.3,10600.94 17885.3,10602.68 17885.3,10603.55 17885.3,10605.29 17885.3,10606.16 17884.43,10607.03 17884.43,10607.9 17883.56,10608.77 17881.82,10609.64 17875.72,10611.38 17873.98,10611.38 17873.11,10611.38 17872.24,10611.38 17871.37,10612.26 17871.37,10613.13 17872.24,10614 17872.24,10615.74 17873.11,10616.61 17872.24,10618.35 17871.37,10620.09 17865.28,10633.14 17863.54,10641.84 17862.67,10642.71 17863.54,10644.45 17863.54,10647.06 17863.54,10648.8 17862.67,10650.54 17860.93,10654.9 17860.06,10658.38 17860.06,10659.25 17859.19,10662.73 17859.19,10663.6 17859.19,10664.47 17860.06,10666.21 17860.93,10668.82 17860.93,10670.56 17861.8,10671.43 17863.54,10678.39 17863.54,10681 17863.54,10683.61 17862.67,10686.22 17861.8,10688.83 17860.93,10690.57 17860.93,10692.31 17860.93,10693.19 17860.06,10694.06 17859.19,10696.67 17858.32,10700.15 17857.45,10701.89 17856.58,10703.63 17852.23,10707.11 17851.36,10708.85 17851.36,10714.07 17847.88,10721.03 17847.01,10724.51 17847.01,10732.34 17846.14,10735.83 17843.53,10736.7 17842.66,10739.31 17840.92,10750.62 17840.04,10751.49 17835.69,10754.1 17833.95,10754.97 17833.95,10756.71 17832.21,10761.06 17832.21,10761.93 17832.21,10762.8 17830.47,10764.54 17827.86,10767.15 17821.77,10769.76 17816.55,10772.37 17813.94,10774.12 17810.46,10774.12 17806.11,10773.24 17805.24,10769.76 17804.37,10766.28 17802.63,10762.8 17797.4,10768.02 17793.92,10768.89 17789.57,10769.76 17786.09,10770.63 17783.48,10772.37 17779.13,10777.6 17775.65,10780.21 17768.69,10782.82 17765.21,10785.43 17757.37,10796.74 17754.76,10798.48 17752.15,10799.35 17748.67,10801.09 17746.06,10803.7 17744.32,10805.44 17743.45,10808.92 17743.45,10812.4 17744.32,10815.02 17744.32,10819.37 17743.45,10820.24 17740.84,10821.98 17739.97,10823.72 17739.97,10825.46 17739.1,10828.07 17739.1,10829.81 17739.1,10831.55 17739.97,10835.9 17739.97,10837.64 17739.1,10840.25 17737.36,10843.73 17736.49,10845.47 17734.75,10854.17 17733.88,10857.66 17731.27,10861.14 17726.92,10867.23 17725.18,10868.97 17720.83,10866.36 17719.09,10868.97 17721.7,10872.45 17722.57,10877.67 17722.57,10882.02 17721.7,10885.5 17719.09,10889.85 17713.86,10901.17 17706.9,10909 17706.03,10915.09 17703.42,10917.7 17700.81,10918.57 17698.2,10918.57 17696.46,10918.57 17693.85,10916.83 17691.24,10915.96 17688.63,10916.83 17688.63,10917.7 17688.63,10918.57 17687.76,10920.31 17681.67,10926.4 17678.18,10929.01 17673.83,10929.88 17655.56,10931.62 17646.86,10932.49 17642.51,10934.23 17640.77,10935.97 17639.03,10936.85 17639.03,10938.59 17637.28,10942.07 17629.45,10950.77 17625.97,10960.34 17624.23,10961.21 17623.36,10962.08 17621.62,10962.08 17619.88,10962.08 17614.66,10965.56 17607.7,10968.17 17605.09,10969.91 17604.22,10973.39 17602.48,10974.26 17592.9,10978.62 17591.16,10979.49 17590.29,10980.36 17589.42,10982.1 17588.55,10983.84 17589.42,10991.67 17589.42,10993.41 17589.42,10994.28 17588.55,10995.15 17587.68,10996.89 17585.94,10997.76 17583.33,10998.63 17574.63,11001.24 17570.28,11002.98 17566.8,11005.59 17565.93,11006.46 17565.06,11008.2 17564.19,11009.94 17563.32,11015.16 17563.32,11018.65 17564.19,11020.39 17565.06,11023 17565.06,11023.87 17565.93,11024.74 17566.8,11025.61 17568.54,11026.48 17572.02,11028.22 17572.02,11029.09 17572.89,11029.09 17575.5,11030.83 17573.76,11037.79 17572.89,11045.62 17572.02,11049.97 17570.28,11051.71 17565.93,11055.19 17563.32,11057.8 17561.58,11060.42 17559.84,11063.9 17559.84,11068.25 17558.1,11071.73 17555.48,11075.21 17547.65,11081.3 17541.56,11089.13 17538.08,11090.87 17535.47,11093.48 17533.73,11094.35 17525.9,11096.96 17514.58,11103.06 17509.36,11106.54 17504.14,11111.76 17505.88,11114.37 17503.27,11126.55 17501.53,11130.9 17500.66,11132.64 17501.53,11134.38 17502.4,11137.86 17502.4,11139.61 17501.53,11143.09 17499.79,11146.57 17498.05,11149.18 17495.44,11150.92 17494.57,11151.79 17487.61,11162.23 17485,11164.84 17484.13,11165.71 17483.26,11170.06 17481.52,11172.67 17479.78,11177.02 17478.91,11178.76 17474.55,11183.12 17472.81,11184.86 17471.94,11187.47 17472.81,11196.17 17473.68,11198.78 17474.55,11200.52 17474.55,11202.26 17473.68,11204 17472.81,11205.74 17471.94,11207.48 17471.07,11210.96 17469.33,11218.79 17468.46,11225.76 17469.33,11227.5 17467.59,11230.11 17464.98,11238.81 17464.98,11244.9 17465.85,11250.12 17467.59,11255.34 17477.17,11271.88 17481.52,11278.84 17482.39,11280.58 17483.26,11282.32 17485,11287.54 17488.48,11300.59 17495.44,11315.39 17498.92,11322.35 17496.31,11323.22 17482.39,11324.96 17475.42,11324.09 17471.07,11322.35 17457.15,11319.74 17453.67,11318.87 17437.14,11319.74 17433.65,11319.74 17431.91,11321.48 17426.69,11322.35 17421.47,11321.48 17406.68,11318 17402.33,11318 17380.57,11320.61 17373.61,11319.74 17355.34,11310.17 17343.15,11306.69 17337.06,11307.56 17335.32,11304.95 17334.45,11303.21 17334.45,11301.47 17335.32,11299.72 17336.19,11296.24 17338.8,11292.76 17344.89,11286.67 17345.76,11284.93 17347.5,11279.71 17351.85,11274.49 17352.72,11272.75 17353.59,11267.53 17354.47,11264.92 17356.21,11264.05 17357.08,11262.31 17359.69,11261.44 17365.78,11258.82 17373.61,11257.08 17374.48,11257.08 17376.22,11255.34 17376.22,11253.6 17379.7,11235.33 17381.44,11229.24 17382.31,11227.5 17382.31,11215.31 17388.4,11192.69 17388.4,11190.08 17388.4,11188.34 17388.4,11184.86 17388.4,11183.12 17387.53,11181.38 17377.96,11182.25 17375.35,11183.12 17372.74,11184.86 17364.04,11191.82 17362.3,11194.43 17360.56,11196.17 17359.69,11197.91 17357.08,11202.26 17341.41,11219.66 17336.19,11224.02 17325.75,11229.24 17324.01,11230.98 17322.27,11233.59 17321.4,11235.33 17321.4,11237.07 17319.66,11240.55 17317.92,11243.16 17313.57,11248.38 17310.08,11250.12 17307.47,11250.99 17303.99,11250.12 17299.64,11250.99 17291.81,11252.73 17277.02,11259.69 17273.54,11260.56 17270.92,11260.56 17265.7,11259.69 17263.96,11258.82 17262.22,11257.95 17262.22,11256.21 17261.35,11252.73 17260.48,11250.99 17260.48,11247.51 17260.48,11245.77 17259.61,11244.03 17258.74,11242.29 17257.87,11241.42 17248.3,11235.33 17243.95,11231.85 17240.47,11230.11 17238.73,11229.24 17236.99,11229.24 17230.02,11229.24 17228.28,11228.37 17226.54,11228.37 17210.88,11230.98 17201.31,11234.46 17197.83,11236.2 17196.09,11237.94 17195.22,11239.68 17193.48,11243.16 17192.61,11244.9 17190.86,11246.64 17175.2,11255.34 17172.59,11256.21 17169.98,11256.21 17164.76,11256.21 17162.15,11256.21 17143.87,11260.56 17139.52,11260.56 17136.91,11260.56 17125.6,11261.44 17106.45,11250.99 17102.97,11247.51 17101.23,11245.77 17097.75,11243.16 17096.01,11242.29 17091.66,11241.42 17089.05,11239.68 17086.44,11237.94 17079.48,11236.2 17068.16,11230.98 17063.81,11227.5 17062.07,11224.89 17056.85,11218.79 17055.98,11217.05 17055.11,11216.18 17054.24,11212.7 17053.37,11210.96 17050.76,11208.35 17046.41,11205.74 17043.8,11204.87 17038.58,11204 17033.36,11201.39 17029.88,11202.26 17019.43,11200.52 17016.82,11198.78 17015.08,11197.91 17012.47,11194.43 17011.6,11193.56 17008.99,11191.82 17003.77,11190.08 16998.55,11187.47 16985.49,11184.86 16982.88,11183.12 16982.01,11182.25 16981.14,11181.38 16981.14,11180.51 16980.27,11178.76 16979.4,11177.02 16977.66,11174.41 16974.18,11171.8 16971.57,11170.93 16964.61,11170.06 16961.13,11170.06 16958.52,11170.93 16955.04,11171.8 16946.33,11173.54 16941.98,11174.41 16940.24,11175.28 16938.5,11176.15 16936.76,11177.02 16935.89,11177.89 16929.8,11184.86 16928.93,11186.6 16927.19,11187.47 16924.58,11188.34 16922.84,11188.34 16920.23,11187.47 16918.49,11187.47 16915.01,11190.95 16911.53,11192.69 16908.92,11193.56 16905.43,11194.43 16902.82,11193.56 16896.73,11191.82 16894.99,11191.82 16894.12,11191.82 16892.38,11192.69 16889.77,11192.69 16865.4,11195.3 16851.48,11193.56 16849.74,11194.43 16845.39,11197.91 16844.52,11198.78 16844.52,11199.65 16843.65,11202.26 16843.65,11203.13 16843.65,11204 16842.78,11204.87 16841.04,11205.74 16837.56,11207.48 16835.82,11208.35 16834.95,11208.35 16834.95,11209.22 16834.08,11210.09 16834.08,11210.96 16834.08,11211.83 16834.95,11217.05 16834.95,11217.92 16834.08,11223.15 16833.21,11224.02 16833.21,11224.89 16831.47,11225.76 16831.47,11226.63 16828.86,11229.24 16826.24,11232.72 16825.37,11233.59 16824.5,11234.46 16821.89,11236.2 16821.02,11236.2 16819.28,11237.94 16816.67,11239.68 16812.32,11241.42 16811.45,11242.29 16811.45,11243.16 16810.58,11244.03 16810.58,11244.9 16810.58,11245.77 16811.45,11252.73 16811.45,11253.6 16811.45,11254.47 16811.45,11255.34 16810.58,11256.21 16792.31,11276.23 16789.7,11277.97 16785.34,11279.71 16783.6,11280.58 16771.42,11282.32 16767.94,11283.19 16762.72,11286.67 16734,11294.5 16732.26,11295.37 16731.39,11295.37 16730.52,11296.24 16730.52,11297.11 16729.65,11298.85 16727.04,11304.95 16725.3,11307.56 16724.43,11309.3 16724.43,11310.17 16723.56,11309.3 16723.56,11308.43 16723.56,11306.69 16723.56,11305.82 16724.43,11303.21 16724.43,11302.34 16724.43,11301.47 16724.43,11300.59 16723.56,11299.72 16721.82,11297.98 16720.95,11296.24 16720.95,11295.37 16720.08,11295.37 16719.21,11294.5 16715.73,11294.5 16714.86,11293.63 16713.99,11293.63 16711.38,11291.02 16709.64,11290.15 16707.03,11288.41 16706.16,11287.54 16702.67,11286.67 16701.8,11286.67 16701.8,11285.8 16700.93,11285.8 16700.93,11284.93 16700.93,11284.06 16700.93,11283.19 16700.93,11279.71 16700.93,11278.84 16700.06,11278.84 16700.06,11276.23 16695.71,11271.88 16694.84,11271.88 16693.97,11271.01 16688.75,11271.88 16687.01,11271.88 16681.79,11270.14 16680.05,11271.01 16677.44,11270.14 16674.83,11268.4 16672.22,11265.79 16670.48,11263.18 16669.61,11260.56 16668.74,11257.08 16668.74,11249.25 16668.74,11246.64 16668.74,11242.29 16668.74,11237.94 16667,11233.59 16664.38,11230.98 16660.03,11229.24 16657.42,11229.24 16653.07,11230.11 16647.85,11230.98 16641.76,11230.98 16634.8,11229.24 16629.58,11226.63 16622.61,11220.54 16620,11219.66 16613.91,11217.05 16612.17,11215.31 16606.95,11210.09 16605.21,11208.35 16603.47,11208.35 16600.86,11207.48 16599.12,11207.48 16595.64,11204.87 16593.03,11198.78 16591.29,11196.17 16589.55,11195.3 16586.94,11195.3 16585.2,11194.43 16583.46,11193.56 16580.84,11190.95 16579.1,11190.08 16577.36,11189.21 16571.27,11188.34 16565.18,11184.86 16561.7,11179.64 16560.83,11172.67 16560.83,11156.14 16559.96,11151.79 16558.22,11148.31 16557.35,11145.7 16555.61,11133.51 16554.74,11130.03 16552.13,11123.94 16550.39,11115.24 16549.52,11112.63 16550.39,11110.89 16552.13,11108.28 16552.13,11106.54 16552.13,11099.58 16547.78,11085.65 16547.78,11077.82 16548.65,11071.73 16552.13,11065.64 16569.53,11045.62 16571.27,11039.53 16567.79,11032.57 16568.66,11029.96 16572.14,11026.48 16573.01,11023.87 16572.14,11005.59 16570.4,11003.85 16562.57,11003.85 16561.7,11004.72 16559.09,11009.07 16558.22,11010.81 16553.87,11012.55 16550.39,11013.42 16537.33,11013.42 16504.27,11011.68 16471.2,11010.81 16437.26,11009.07 16404.19,11008.2 16371.12,11007.33 16337.18,11005.59 16304.12,11004.72 16271.05,11002.98 16258.86,11002.98 16252.77,11001.24 16249.29,10993.41 16248.42,10972.52 16247.55,10953.38 16244.94,10926.4 16241.46,10889.85 16239.72,10862.88 16237.98,10857.66 16235.37,10854.17 16219.71,10835.03 16200.56,10811.53 16188.38,10797.61 16178.81,10788.91 16212.74,10788.91 16232.76,10788.04 16233.63,10786.3 16233.63,10774.12 16232.76,10759.32 16231.89,10744.53 16231.02,10729.73 16231.02,10714.94 16230.15,10704.5 16227.54,10700.15 16219.71,10694.06 16216.22,10687.96 16222.32,10686.22 16220.58,10679.26 16215.35,10666.21 16212.74,10654.9 16211,10651.41 16201.43,10643.58 16199.69,10640.1 16199.69,10635.75 16200.56,10630.53 16200.56,10626.18 16197.95,10621.83 16197.08,10619.22 16197.08,10615.74 16197.95,10611.38 16198.82,10608.77 16200.56,10607.9 16204.91,10607.03 16207.52,10604.42 16209.26,10600.07 16211.87,10591.37 16213.61,10587.89 16213.61,10587.02 16212.74,10585.28 16211.87,10585.28 16210.13,10584.41 16209.26,10582.67 16210.13,10580.93 16209.26,10580.06 16205.78,10576.58 16204.04,10575.71 16202.3,10571.36 16201.43,10567 16199.69,10561.78 16199.69,10557.43 16198.82,10553.95 16195.34,10552.21 16182.29,10548.73 16180.55,10547.86 16179.68,10546.99 16178.81,10545.25 16177.94,10544.38 16177.06,10543.51 16172.71,10542.64 16166.62,10539.16 16154.44,10529.58 16158.79,10523.49 16165.75,10518.27 16196.21,10497.39 16210.13,10489.55 16211.87,10487.81 16213.61,10485.2 16215.35,10481.72 16216.22,10479.11 16216.22,10473.89 16217.96,10468.67 16218.84,10462.58 16219.71,10459.1 16221.45,10454.75 16232.76,10434.73 16234.5,10431.25 16234.5,10429.51 16233.63,10424.29 16233.63,10422.55 16234.5,10419.94 16236.24,10417.33 16243.2,10410.37 16244.94,10406.88 16246.68,10405.14 16250.16,10402.53 16252.77,10401.66 16254.51,10400.79 16262.35,10399.05 16264.96,10398.18 16266.7,10397.31 16268.44,10394.7 16273.66,10387.74 16274.53,10385.13 16276.27,10381.65 16277.14,10377.3 16278.88,10368.6 16280.62,10361.63 16281.49,10359.02 16283.23,10357.28 16297.15,10341.62 16308.47,10310.29 16311.95,10303.33 16311.95,10301.59 16311.95,10299.85 16309.34,10295.5 16305.86,10288.54 16301.51,10279.83 16300.64,10277.22 16300.64,10273.74 16300.64,10253.73 16300.64,10251.12 16299.77,10248.51 16292.8,10239.8 16291.06,10232.84 16287.58,10225.01 16284.1,10215.44 16282.36,10213.7 16281.49,10212.83 16279.75,10212.83 16278.01,10212.83 16274.53,10214.57 16272.79,10214.57 16271.05,10213.7 16269.31,10211.09 16267.57,10208.48 16266.7,10204.12 16265.83,10201.51 16265.83,10193.68 16265.83,10191.07 16264.09,10186.72 16263.22,10184.98 16262.35,10169.32 16263.22,10160.61 16263.22,10158.87 16264.09,10157.13 16265.83,10155.39 16277.14,10147.56 16278.88,10144.95 16281.49,10141.47 16284.1,10138.86 16284.97,10137.12 16285.84,10132.77 16286.71,10131.03 16288.45,10129.29 16290.19,10128.42 16291.93,10127.55 16293.67,10125.81 16295.41,10124.06 16296.28,10122.32 16297.15,10120.58 16296.28,10116.23 16288.45,10100.57 16286.71,10096.22 16285.84,10092.74 16285.84,10090.13 16284.97,10086.65 16282.36,10079.68 16280.62,10077.07 16278.88,10076.2 16274.53,10075.33 16271.05,10072.72 16269.31,10071.85 16267.57,10071.85 16264.96,10072.72 16263.22,10071.85 16257.12,10070.11 16255.38,10070.11 16253.64,10070.98 16251.9,10071.85 16250.16,10072.72 16247.55,10072.72 16240.59,10070.11 16237.98,10070.11 16232.76,10065.76 16230.15,10064.89 16228.41,10064.89 16226.67,10065.76 16224.93,10066.63 16219.71,10070.11 16217.96,10070.98 16216.22,10070.98 16214.48,10070.11 16204.91,10061.41 16204.04,10058.8 16204.04,10056.19 16204.91,10054.45 16204.91,10052.71 16204.04,10051.84 16023.91,10050.97 16016.95,10049.23 16014.33,10045.75 16014.33,10043.13 16016.95,10030.08 16016.95,10027.47 16016.95,10023.99 16015.2,10017.03 16015.2,10014.42 16015.2,10011.81 16016.95,10010.94 16017.82,10011.81 16018.69,10011.81 16020.43,10011.81 16022.17,10010.94 16023.04,10008.33 16023.91,10003.98 16024.78,10001.36 16023.91,9999.62 16022.17,9998.75 16020.43,9997.88 16019.56,9997.88 16018.69,9997.01 16017.82,9995.27 16018.69,9990.05 16019.56,9983.09 16021.3,9974.39 16021.3,9962.2 16023.04,9954.37 16023.04,9950.89 16023.04,9948.28 16022.17,9945.67 16021.3,9943.93 16019.56,9942.19 16016.08,9938.71 16015.2,9936.97 16007.37,9919.56 16006.5,9917.82 16007.37,9915.21 16008.24,9909.12 16009.11,9906.51 16007.37,9903.9 16006.5,9902.16 16004.76,9899.55 16004.76,9896.94 16004.76,9890.85 16005.63,9887.37 16005.63,9883.89 16008.24,9879.53 16012.59,9872.57 16012.59,9870.83 16012.59,9868.22 16012.59,9864.74 16012.59,9862.13 16012.59,9858.65 16014.33,9852.56 16015.2,9850.82 16015.2,9849.08 16012.59,9841.24 16011.72,9839.5 16011.72,9832.54 16010.85,9829.93 16009.11,9828.19 16008.24,9826.45 16007.37,9824.71 16008.24,9823.84 16009.11,9822.97 16012.59,9822.1 16014.33,9821.23 16016.08,9819.49 16017.82,9814.27 16018.69,9812.53 16019.56,9811.66 16020.43,9810.79 16021.3,9809.05 16021.3,9807.31 16020.43,9805.57 16019.56,9804.7 16017.82,9802.09 16016.95,9799.47 16015.2,9797.73 16014.33,9795.99 16009.11,9777.72 16009.98,9770.76 16009.98,9768.15 16009.11,9764.67 16007.37,9762.06 16005.63,9760.32 16001.28,9758.57 15999.54,9756.83 15998.67,9755.09 15998.67,9752.48 15999.54,9749.87 16002.15,9745.52 16001.28,9742.04 16001.28,9740.3 16002.15,9738.56 16003.89,9737.69 16005.63,9736.82 16009.98,9736.82 16011.72,9736.82 16012.59,9735.08 16013.46,9733.34 16013.46,9730.73 16008.24,9718.54 16008.24,9715.93 16008.24,9712.45 16008.24,9710.71 16013.46,9695.05 16020.43,9680.26 16021.3,9678.51 16020.43,9676.77 16020.43,9675.03 16018.69,9671.55 16016.95,9668.07 16010.85,9662.85 16004.76,9659.37 15998.67,9654.15 16536.46,9650.67 16544.3,9645.45 16547.78,9642.84 16548.65,9640.23 16552.13,9628.91 16553.87,9623.69 16557.35,9617.6 16558.22,9615.86 16558.22,9614.12 16558.22,9612.38 16556.48,9608.9 16556.48,9607.16 16554.74,9594.97 16554.74,9593.23 16554.74,9591.49 16556.48,9589.75 16560.83,9586.27 16562.57,9584.53 16563.44,9582.79 16564.31,9579.31 16566.92,9572.35 16566.92,9570.61 16569.53,9567.13 16572.14,9563.65 16573.01,9561.91 16573.01,9560.17 16572.14,9558.43 16572.14,9556.68 16572.14,9554.94 16577.36,9539.28 16578.23,9536.67 16578.23,9534.93 16578.23,9533.19 16574.75,9519.27 16571.27,9510.56 16566.92,9501.86 16566.92,9500.12 16565.18,9496.64 16565.18,9493.16 16565.18,9489.68 16565.18,9487.94 16565.18,9486.2 16566.05,9484.46 16566.92,9482.72 16569.53,9479.24 16573.01,9476.63 16578.23,9473.14 16579.97,9471.4 16584.33,9461.83 16585.2,9460.09 16590.42,9454.87 16591.29,9453.13 16592.16,9451.39 16594.77,9446.17 16595.64,9444.43 16595.64,9442.69 16595.64,9440.08 16594.77,9438.34 16593.03,9434.85 16592.16,9431.37 16592.16,9430.5 16592.16,9429.63 16592.16,9426.15 16592.16,9422.67 16593.03,9420.93 16593.9,9418.32 16593.9,9416.58 16594.77,9415.71 16599.99,9411.36 16601.73,9409.62 16605.21,9404.4 "/>
   <polygon class="fil0 str0" points="18506.63,10960.34 18453.55,10960.34 18409.17,10960.34 18352.6,10960.34 18340.42,10958.6 18339.55,10957.73 18339.55,10956.86 18340.42,10955.99 18340.42,10953.38 18342.16,10950.77 18343.03,10947.29 18343.03,10945.55 18342.16,10942.94 18339.55,10942.07 18338.68,10941.2 18338.68,10940.33 18337.81,10935.1 18335.2,10923.79 18336.07,10922.05 18336.07,10921.18 18336.94,10920.31 18339.55,10919.44 18341.29,10918.57 18342.16,10916.83 18343.9,10915.96 18344.77,10914.22 18346.51,10910.74 18349.12,10904.65 18346.51,10902.04 18343.9,10900.3 18343.03,10898.56 18342.16,10896.82 18343.03,10890.72 18343.03,10888.98 18343.9,10888.11 18343.9,10887.24 18344.77,10887.24 18346.51,10886.37 18347.38,10883.76 18349.12,10867.23 18350.86,10862.88 18352.6,10860.27 18378.71,10860.27 18424.83,10860.27 18485.74,10862.01 18485.74,10862.88 18485.74,10865.49 18486.61,10867.23 18487.48,10868.97 18488.35,10869.84 18490.97,10870.71 18491.84,10871.58 18496.19,10874.19 18501.41,10875.93 18504.02,10877.67 18505.76,10878.54 18505.76,10879.41 18505.76,10880.28 18504.89,10882.89 18504.02,10884.63 18504.02,10892.46 18504.02,10895.07 18504.02,10895.95 18505.76,10898.56 18505.76,10900.3 18504.02,10909 18502.28,10915.09 18501.41,10917.7 18497.93,10922.05 18497.06,10926.4 18497.06,10932.49 18497.06,10933.36 18497.93,10935.97 18497.93,10937.72 18497.93,10941.2 18497.06,10946.42 18496.19,10948.16 18496.19,10949.9 18497.06,10950.77 18497.93,10952.51 18497.93,10953.38 18499.67,10954.25 18504.02,10956.86 18505.76,10957.73 "/>
  </g>
 </g>
</svg>
