<?xml version="1.0" encoding="UTF-8"?>
<!DOCTYPE svg PUBLIC "-//W3C//DTD SVG 1.1//EN" "http://www.w3.org/Graphics/SVG/1.1/DTD/svg11.dtd">
<!-- Creator: CorelDRAW -->
<svg xmlns="http://www.w3.org/2000/svg" xml:space="preserve" width="55.82mm" height="61.9452mm" version="1.1" style="shape-rendering:geometricPrecision; text-rendering:geometricPrecision; image-rendering:optimizeQuality; fill-rule:evenodd; clip-rule:evenodd"
viewBox="0 0 5582 6194.52"
 xmlns:xlink="http://www.w3.org/1999/xlink"
 xmlns:xodm="http://www.corel.com/coreldraw/odm/2003">
 <defs>
  <style type="text/css">
   <![CDATA[
    .str0 {stroke:white;stroke-width:16.32;stroke-linejoin:round;stroke-miterlimit:22.9256}
    .fil0 {fill:#D6D277;fill-rule:nonzero}
   ]]>
  </style>
 </defs>
 <g id="Camada_x0020_1">
  <metadata id="CorelCorpID_0Corel-Layer"/>
  <g id="_2021329492752">
   <path class="fil0 str0" d="M3783.73 4438.52l-26.39 -38.74 -17.6 -21.12 -5.28 -3.52 -5.3 -3.52 -3.52 -3.51 -5.28 0 -3.52 0 -8.79 0 -3.52 0 -12.32 -5.28 -3.52 -1.76 -14.08 0 -5.28 -1.76 -3.52 -1.76 -5.28 -1.76 -3.52 -3.52 -8.82 -7.04 -22.87 -21.14 -3.52 -1.76 -3.52 -1.76 -14.08 -1.76 -22.88 -7.04 -3.52 0 -14.09 1.76 -17.6 -3.52 -3.52 0 -70.41 -31.67 -5.28 -1.76 -8.8 -10.56 -12.32 -8.82 -12.31 -5.28 -19.36 -3.52 -12.34 -5.28 -7.04 -3.52 -3.52 -3.52 -1.76 -1.76 -1.76 -3.51 -1.76 -3.52 -5.28 -5.28 -26.39 -17.6 -21.12 -10.56 -8.8 -1.76 -5.3 -1.76 -17.6 1.76 -7.03 0 -5.28 -1.76 -3.52 -3.52 -26.4 -26.41 -10.56 -7.04 -3.52 -1.76 -5.3 -1.76 -42.23 7.04 -10.56 0 -15.84 -5.28 -24.65 0 -38.72 -10.56 -10.56 -5.28 0 -1.76 0 -1.76 1.76 -7.04 12.32 -29.94 5.28 -8.79 19.36 -26.4 3.52 -5.28 1.76 -5.28 1.76 -8.8 -1.76 -3.52 -3.52 -3.52 -31.68 -14.07 -7.04 -3.52 -3.52 0 -1.75 0 -3.52 0 -3.52 1.76 -14.1 10.55 -3.52 1.76 -3.52 1.76 -5.28 0 -3.52 -3.52 -7.04 -7.03 -3.52 -7.04 -3.52 -5.3 -1.76 -5.28 0 -7.04 5.28 -73.93 0 -10.56 -3.52 -8.8 0 -10.56 -7.04 -14.07 -14.07 -29.94 -7.04 -26.4 -3.52 -10.55 -1.76 -3.52 -1.76 -3.52 -8.8 -14.08 -19.38 -33.46 -3.52 -10.55 -1.76 -10.56 0 -12.32 5.28 -17.6 3.52 -5.28 -1.76 -3.52 1.76 -14.1 3.52 -15.83 1.76 -7.04 1.76 -3.52 1.76 -3.52 1.76 -3.52 0 -3.52 -1.76 -3.52 -1.76 -5.28 -1.76 -17.6 1.76 -5.27 3.52 -3.52 8.82 -8.82 1.76 -3.52 3.52 -8.8 3.52 -5.28 1.76 -8.8 1.76 -1.76 5.28 -5.28 14.07 -21.12 1.76 -1.76 5.28 -3.51 3.52 -5.28 3.52 -7.04 1.76 -7.04 0 -3.54 -1.76 -7.04 -1.76 -3.52 1.76 -3.52 3.52 -8.8 5.28 -24.63 -3.52 -5.28 10.56 -10.56 10.56 -7.04 22.89 -12.34 15.84 -5.28 3.52 -1.76 5.28 -5.28 7.04 -3.52 12.32 -15.83 15.84 -12.32 5.3 -7.04 3.51 -7.04 0 -8.8 3.52 -7.04 3.52 -5.3 5.28 -5.28 8.8 -7.04 3.52 -3.52 1.76 -8.79 1.76 -15.84 3.52 -14.08 -5.28 -3.52 -1.76 0 0 -1.76 -7.04 -3.52 -3.52 -1.76 -1.76 -1.76 -1.76 -1.76 0 -1.76 -1.76 -5.28 -1.76 -3.52 0 -7.06 1.76 -10.55 1.76 -3.52 1.76 -3.52 1.76 -1.76 7.04 -5.28 8.8 -3.52 17.6 -5.28 5.28 -1.76 3.52 -1.76 1.76 -3.52 1.76 -1.76 0 -1.76 0 -3.52 -1.76 -15.84 1.76 -3.52 1.76 -3.51 1.76 -1.76 3.51 -1.76 19.38 -8.82 3.52 -1.76 1.76 -7.04 5.28 -3.52 14.08 -5.28 10.56 -7.04 3.52 0 3.52 0 1.76 -1.76 3.52 -1.76 7.03 -19.36 15.84 -17.59 3.54 -7.04 0 -3.52 3.52 -1.78 3.52 -3.52 8.8 -3.52 17.6 -1.76 36.95 -3.52 8.8 -1.76 7.06 -5.28 12.32 -12.32 1.76 -3.52 0 -1.76 0 -1.76 5.28 -1.76 5.28 1.76 5.27 3.52 3.52 0 5.28 0 5.28 -1.76 5.28 -5.28 1.76 -12.31 14.08 -15.84 10.58 -22.9 5.28 -8.8 1.76 -7.04 0 -8.79 -1.76 -10.56 -5.28 -7.04 3.52 -5.28 8.8 5.28 3.52 -3.52 8.79 -12.32 5.28 -7.04 1.76 -7.06 3.52 -17.6 1.76 -3.51 3.52 -7.04 1.76 -5.28 0 -3.52 -1.76 -8.8 0 -3.52 0 -3.52 1.76 -5.28 0 -3.52 1.76 -3.52 5.28 -3.52 1.76 -1.76 0 -8.8 -1.76 -5.3 0 -7.03 1.76 -7.04 3.52 -3.52 5.28 -5.28 7.04 -3.52 5.28 -1.76 5.28 -3.52 15.85 -22.88 7.04 -5.28 14.08 -5.28 7.04 -5.28 8.8 -10.57 5.28 -3.52 7.04 -1.76 8.8 -1.76 7.03 -1.76 10.58 -10.56 3.52 7.04 1.76 7.04 1.76 7.04 8.8 1.78 7.04 0 5.28 -3.54 10.56 -5.28 12.32 -5.28 5.28 -5.28 3.51 -3.52 0 -1.76 0 -1.76 3.52 -8.8 0 -3.52 3.52 -1.76 8.8 -5.28 1.78 -1.76 3.52 -22.87 1.76 -5.28 5.28 -1.76 1.76 -7.06 0 -15.84 1.76 -7.04 7.04 -14.08 0 -10.56 1.76 -3.51 8.8 -7.04 1.76 -3.52 1.76 -3.52 1.76 -7.04 1.76 -5.28 1.76 -1.76 0 -1.78 0 -3.52 1.76 -3.52 1.76 -5.28 1.76 -5.28 0 -5.28 0 -5.28 -3.52 -14.07 -1.76 -1.76 0 -3.52 -1.76 -5.28 -1.76 -3.52 0 -1.76 0 -1.76 1.76 -7.04 0 -1.76 1.76 -7.04 3.52 -8.82 1.76 -3.52 0 -3.52 0 -5.28 -1.76 -3.52 1.76 -1.76 3.51 -17.59 12.32 -26.4 1.76 -3.52 1.76 -3.52 -1.76 -1.76 0 -3.52 -1.76 -1.76 0 -1.76 1.76 -1.78 1.76 0 1.76 0 3.52 0 12.34 -3.52 3.52 -1.76 1.76 -1.76 0 -1.76 1.76 -1.76 0 -1.75 0 -3.52 0 -1.76 0 -3.52 -3.52 -3.52 0 -1.76 0 -1.76 -1.76 -5.28 1.76 -8.8 -1.76 -7.04 -1.76 -1.76 0 -5.28 1.76 -3.52 3.52 -12.32 1.76 -14.09 0 -5.28 0 -3.52 -1.76 -7.04 -1.76 -5.28 0 -3.52 0 -19.36 0 -3.52 -1.76 -1.76 -1.76 -5.28 0 -3.52 0 -1.76 1.76 -1.75 1.76 -1.76 5.28 -1.76 3.52 0 1.76 0 1.76 -1.76 5.28 -5.28 3.52 -1.76 0 -1.76 1.76 -1.78 1.76 -1.76 7.04 -22.88 3.51 -22.88 0 -1.76 5.28 -7.03 1.76 -1.76 1.76 -1.76 5.28 -1.76 1.76 -1.76 3.52 -5.28 0 -1.76 1.76 -1.76 3.52 -3.52 3.52 -5.28 3.52 -3.54 1.76 -3.52 0 -1.76 1.76 -10.56 0 -3.52 1.76 -1.76 3.52 -5.28 5.3 -5.28 5.28 -7.03 5.28 -10.56 8.8 -21.12 1.75 -3.52 0 -1.76 0 -3.54 0 -1.76 -3.51 -5.28 0 -1.76 0 -7.04 0 -5.28 1.76 -14.07 0 -5.28 -1.76 -3.52 -1.76 -5.28 -1.76 -1.76 0 -1.76 1.76 -1.76 1.76 -1.76 1.76 0 5.27 -3.52 1.76 0 1.76 -1.76 0 -1.76 0 -1.76 0 -1.76 -1.76 -1.76 -3.52 -1.76 0 -3.52 0 -1.76 1.76 0 1.76 -3.52 12.32 -7.06 1.76 -1.76 3.52 -3.52 1.76 -3.52 1.76 -3.51 5.28 -26.4 0 -5.28 0 -3.52 -1.76 -3.52 7.04 -14.08 1.76 -8.8 0 -3.52 0 -3.53 1.76 -7.04 1.76 -3.52 -1.76 -3.52 3.52 -7.04 1.76 -3.52 3.52 -1.76 3.52 -3.52 1.76 -5.28 1.76 -3.52 0 -3.52 1.78 -5.28 1.76 -5.28 10.55 -12.32 3.52 -3.51 1.76 -3.52 0 -3.52 1.76 -3.54 3.52 -3.52 3.52 0 1.76 -1.76 0 -3.52 1.76 -1.76 1.76 -1.76 3.52 0 1.76 -3.52 1.76 -1.76 5.28 -5.28 8.8 -3.52 7.04 -7.04 29.93 -17.6 5.28 3.52 1.76 1.76 1.76 3.52 0 5.28 0 5.28 -1.76 5.28 -1.76 3.52 -17.61 19.36 -3.52 3.52 -1.76 3.54 0 3.52 0 3.52 1.76 17.59 0 5.28 -1.76 7.04 -1.76 5.28 -19.36 26.4 -1.76 7.04 -1.76 5.29 -1.76 5.28 1.76 36.96 1.76 7.04 3.52 3.52 5.28 5.28 66.89 31.69 17.6 0 3.52 -1.76 3.51 1.76 5.28 1.76 19.38 15.84 80.97 38.71 42.23 3.52 17.6 5.28 35.22 15.86 7.03 1.76 5.28 0 1.76 -3.52 1.76 -3.52 0 -1.76 1.76 -3.54 -1.76 -10.56 1.76 -7.04 3.52 -12.31 21.12 -47.52 56.33 -96.82 28.16 -21.12 14.1 -8.8 3.51 0 1.76 0 0 1.76 -3.51 17.6 0 3.52 0 3.52 1.75 1.76 0 3.52 1.76 1.76 3.52 1.76 24.64 12.33 22.88 17.6 7.04 7.04 5.28 7.04 5.27 10.56 5.28 10.56 0 5.28 0 3.52 -1.76 15.85 0 1.76 0 3.52 0 3.52 1.76 5.28 7.06 14.08 3.52 8.8 1.76 40.47 -5.28 28.18 -1.76 5.28 0 5.28 1.76 3.52 1.76 8.79 1.76 5.28 1.76 3.52 1.76 1.76 1.76 1.76 1.76 0 1.76 0 12.32 -8.8 5.28 -3.52 1.76 -3.52 0 -1.76 1.76 -1.75 1.76 -5.28 3.52 -17.6 0 -21.14 1.76 -8.8 1.76 -3.52 1.76 -3.52 3.52 -1.76 3.52 -1.76 3.51 -1.76 7.04 0 5.28 1.76 5.28 1.76 21.14 8.8 10.56 3.52 28.15 0 7.04 -1.76 5.28 -1.76 7.04 -1.76 8.82 -3.52 35.19 -28.15 8.8 -5.28 12.32 -5.28 5.28 0 1.76 1.76 1.76 1.76 0 1.76 0 1.76 -1.76 3.52 -7.04 19.35 -3.52 8.8 1.76 1.76 0 1.76 8.8 -1.76 7.04 1.76 8.8 1.76 8.82 3.52 12.31 8.8 14.08 10.58 7.04 3.52 3.52 0 3.52 -1.76 3.52 -3.52 1.76 -1.76 3.52 1.76 5.28 1.76 8.8 7.04 14.1 8.8 63.35 22.87 3.52 0 3.52 -1.76 1.75 -1.76 0 -5.27 -1.75 -3.52 -21.12 -45.78 -1.76 -7.04 0 -3.52 0 -1.76 1.76 -3.52 0 -1.76 3.52 -1.75 14.08 -12.32 1.76 -1.76 3.51 0 1.76 0 1.76 0 0 1.76 1.76 1.76 1.76 7.04 3.54 5.27 10.56 8.8 0 1.76 1.76 1.76 0 1.76 0 5.28 0 1.76 1.76 1.76 10.56 12.34 0 1.76 1.76 0 0 1.76 0 1.76 0 1.76 3.52 10.56 0 1.76 1.76 0 1.76 0 1.76 -5.28 1.76 -1.76 1.76 -1.76 0 -1.76 1.76 -1.76 0 -1.76 24.63 -3.52 8.8 -3.52 5.28 -5.28 24.66 -8.82 5.28 -1.76 1.76 0 7.04 0 1.76 0 1.76 -1.76 3.52 -1.76 63.37 -33.43 15.83 -3.52 26.4 -5.28 3.52 0 5.28 0 8.82 1.76 15.84 0 17.59 -1.76 10.56 -3.52 7.04 -1.76 5.28 -3.52 5.28 -3.52 36.97 -40.49 3.52 -3.52 7.04 -3.52 8.8 -3.52 22.88 -5.28 14.07 -3.52 10.58 -7.04 3.52 -1.76 5.28 0 29.92 -1.76 17.6 -3.52 22.89 -14.08 5.28 8.8 3.52 5.28 43.99 29.92 5.28 7.04 1.76 3.52 0 1.76 1.76 1.76 0 1.75 -1.76 3.52 -1.76 1.76 -3.52 1.76 -1.76 1.76 -3.52 1.76 -19.35 14.1 -1.76 1.76 0 1.76 -1.76 3.52 -7.04 40.47 0 12.32 0 7.04 1.76 1.76 7.04 5.3 24.63 7.04 1.76 1.76 1.76 1.76 0 1.76 0 1.76 0 8.8 0 5.28 -1.76 7.04 -1.76 3.51 -1.76 1.76 -3.51 3.52 -10.56 8.8 -7.04 5.28 -12.32 5.28 -3.52 5.28 -7.04 17.62 -7.04 26.39 -7.06 19.36 -3.52 15.84 -1.76 5.28 -1.76 1.76 0 35.21 5.28 42.24 12.34 47.53 17.6 24.64 1.76 3.52 14.08 40.49 1.76 1.76 1.76 1.76 19.35 10.56 1.76 1.76 7.04 8.8 10.58 17.59 1.76 1.76 15.84 8.8 8.8 3.52 1.76 0 1.76 1.76 1.76 1.78 0 3.52 0 5.28 -5.28 15.84 -8.8 19.35 -1.76 3.52 0 3.52 0 8.8 0 8.8 3.52 7.04 0 1.76 3.52 7.06 7.04 14.08 1.76 8.8 1.76 7.03 1.76 10.56 -1.76 7.04 -1.76 5.28 -1.76 5.28 -1.76 3.52 -8.8 8.8 -5.28 7.04 -19.38 28.17 -8.8 5.28 -3.52 3.52 -3.52 7.04 -1.76 3.52 -5.28 3.52 -1.76 1.76 -1.75 -1.76 -5.28 -1.76 -3.52 0 -5.28 0 -15.84 3.52 -3.52 0 -7.04 -5.28 0 -1.76 -1.76 0 -8.82 0 -10.56 0 -5.28 -1.76 -3.51 0 0 -1.76 -7.04 -21.12 -1.76 -3.51 0 -1.76 -10.56 -12.32 -7.04 -5.3 -5.28 -5.28 -28.16 -14.08 -7.06 -5.28 -5.27 -1.76 -3.52 -1.76 -1.76 1.76 -17.6 21.12 -3.52 7.04 -1.76 1.78 0 1.76 0 1.76 0 7.04 1.76 1.76 0 1.76 5.28 7.03 1.76 1.76 0 1.76 0 1.76 0 1.76 -1.76 1.76 -5.28 8.8 0 1.76 0 1.76 0 1.76 0 1.76 1.76 3.52 3.52 3.52 1.76 1.76 0 1.76 0 1.76 0 8.8 1.76 10.56 1.76 8.81 0 1.76 0 1.76 -7.04 5.28 -8.8 7.04 -3.52 0 -3.52 1.76 -1.76 0 -7.04 -3.52 -35.21 -17.59 -3.52 -1.76 -8.8 -1.78 -8.8 -1.76 -14.08 1.76 -3.52 1.78 -7.04 1.76 -1.76 1.76 -3.51 3.51 -1.76 1.76 -1.76 1.76 0 1.76 -1.76 3.52 0 1.76 -12.32 59.83 0 5.3 1.76 0 7.04 -1.78 3.52 0 1.76 0 1.76 1.78 1.76 1.76 1.75 7.04 5.28 10.56 1.76 5.28 0 3.52 0 1.76 -3.52 7.04 -3.52 3.52 -5.27 7.04 -1.76 3.52 -3.52 3.52 -5.28 5.27 -1.76 1.76 -1.76 1.76 -1.76 3.52 -1.78 3.52 3.54 42.26 0 1.76 1.76 0 0 1.76 1.76 1.76 3.52 3.52 1.76 0 8.8 1.76 1.75 1.76 1.76 0 0 3.51 5.28 47.54 1.76 3.52 3.52 10.56 1.76 3.52 0 3.51 -1.76 8.8 3.52 15.84 -1.76 3.52 0 3.52 -1.76 1.76 -8.8 5.28 -5.27 0 -1.76 1.76 -7.04 3.52 -3.52 1.76 -1.76 0 -7.06 0 -1.76 0 -1.76 1.76 -5.28 1.78 -1.76 1.76 -1.76 0 -15.84 -1.76 -3.52 0 -1.76 1.76 -1.76 0 -1.76 1.76 -3.52 1.76 -3.52 1.76 -5.27 3.52 -1.76 0 -1.76 0 -3.52 0 -1.76 -1.76 -3.52 0 0 -1.76 -1.76 0 0 -1.76 -1.76 -1.76 -1.76 0 -1.76 1.76 -1.76 0 -1.76 3.52 -7.04 15.83 -1.76 1.76 -1.78 0 -5.28 3.52 0 1.76 -1.76 1.76 -3.52 3.52 -1.76 3.52 -3.52 1.76 0 1.76 -1.76 0 -3.52 0 -1.76 0 -1.76 0 -8.79 -1.76 -1.76 0 -10.56 5.28 -1.76 12.32 -8.8 19.36 -1.76 3.54 0 3.52 5.28 29.91 -1.76 5.28 0 1.76 -8.8 21.12 -5.28 10.56 -1.76 1.75 0 1.76 -1.76 1.76 -1.76 1.76 -3.52 8.82 -1.76 1.76 -14.1 12.32 0 1.76 -7.04 28.16 0 1.76 1.76 0 0 1.76 3.52 7.04 1.76 3.51 10.56 14.08 3.54 1.76 7.04 3.54 7.04 1.76 3.52 1.76 1.76 1.76 1.76 1.76 1.76 3.52 1.76 1.76 1.76 0 5.28 1.76 1.76 1.76 1.76 1.76 3.52 5.28 0 1.76 1.76 0 3.52 1.76 1.76 1.76 5.27 12.32 1.76 3.52 5.28 12.31 7.04 24.66 1.76 3.52 3.52 5.28 1.76 3.52 1.76 1.76 1.76 14.08 1.76 3.52 1.76 3.51 3.54 8.8 3.52 10.56 0 7.04 0 3.52 0 1.76 -1.76 1.76 -1.76 0 -1.76 1.76 -1.78 0 -1.76 0 -1.76 -1.76 -1.76 0 -1.76 0 -1.76 0 -1.76 1.76 -3.52 3.52 -1.76 1.76 -1.76 1.76 -1.76 1.76 0 1.78 -1.76 1.76 0 3.52 0 1.76 1.76 1.76 5.28 7.04 1.76 3.52 -1.76 1.76 -3.52 0 -3.52 0 -1.76 1.75 -1.76 1.76 -5.28 5.28 -1.76 1.76 -1.75 1.76 -1.76 7.04 -1.76 1.76 -1.76 1.76 -1.76 1.76 -1.76 0 -1.76 0 -1.76 0 0 -1.76 -1.76 0 -1.76 1.76 -1.76 0 -1.76 1.76 0 1.76 -3.52 1.76 -1.76 1.76 0 1.76 0 1.76 0 1.76 -3.52 0 0 1.76 1.76 3.52 -1.76 1.76 0 1.76 -1.76 3.52 -5.28 3.52 -3.52 5.28 -1.76 1.78 -1.76 0 -1.76 0 -1.76 0 -1.78 1.76 -1.76 1.76 -1.76 1.76 -1.76 3.52 -1.76 3.51 0 1.76 0 1.76 1.76 3.52 0 1.76 -1.76 5.28 -1.76 0 -1.76 1.76 -1.76 1.76 -1.76 1.76 0 1.76 1.76 1.76 0 1.76 -1.76 1.76 -1.76 0 -1.76 0 -1.76 1.76 -1.76 -1.76 -1.75 -1.76 -3.52 0 -5.28 -3.52 -1.76 0 -1.76 0 -3.52 8.8 0 3.52 -3.52 7.04 -1.76 3.52 0 3.52 0 1.76 -1.76 3.52 0 5.28 0 10.55 1.76 3.54 0 3.52 14.08 15.84 1.76 1.76 1.76 1.76 1.76 0 3.51 0 1.76 0 0 -1.76 3.52 -3.52 1.76 -1.76 1.76 0 1.76 -1.76 5.28 -1.76 1.76 0 1.76 0 1.76 0 1.78 0 5.28 3.52 1.76 1.76 3.52 0 3.52 0 3.52 0 1.76 1.76 12.32 7.04 3.52 1.76 3.52 1.76 1.76 3.52 3.52 8.8 1.76 5.28 0 8.8 0 15.83 0 1.76 -1.76 1.76 -1.76 1.76 -1.76 1.76 -3.52 1.78 -1.76 1.76 -3.52 7.04 -3.52 5.28 -1.76 3.52 -1.76 1.76 0 3.52 -1.76 7.04 0 1.76 -3.52 3.52 0 1.76 -1.76 3.52 0 3.52 0 1.76 0 1.76 -3.52 3.51 0 3.52 0 5.28 1.76 3.52 1.76 8.8 1.76 3.52 1.76 5.3 1.76 3.52 0 5.28 1.76 5.28 1.76 1.76 3.52 5.28 1.76 1.76 0 1.76 0 7.04 1.76 8.79 8.8 17.6 -7.04 1.76 -1.76 0 -1.76 3.52 -5.28 1.76 -5.28 3.52 -1.76 1.76 -3.52 5.28 -1.76 1.76 -3.52 1.76 -5.28 1.76 -1.76 1.78 -1.76 3.52 -1.76 1.76 -1.78 1.76 -1.76 0 -1.76 0 -1.76 1.76 -1.76 1.76 -1.76 3.52 -1.76 1.76 -42.23 15.83 -8.8 5.28 -7.04 7.04 -3.52 5.28 -5.28 12.32 -5.3 7.04 -5.28 5.28 -88 47.53 -7.04 1.76 -3.52 0 -3.52 0 -1.76 -1.76 -10.56 -3.52 -12.32 -1.76 -5.28 0 -3.52 -1.76 -3.52 -1.76 -1.75 -1.76 -1.76 -1.76 0 -1.76 -1.76 -1.76 -1.76 0 -5.28 1.76 -3.52 0 -8.82 0 -3.52 0 -3.52 -1.76 0 -1.76 -5.28 -1.76 -8.8 -7.04 -15.84 -7.03 -15.83 -3.52 -14.08 -1.76 -22.9 1.76 -88.01 -3.52 -72.17 3.52 -14.07 -1.76 -21.12 -5.3 -12.32 -1.76 -24.63 14.1 -40.5 15.83 -7.04 5.28 -5.28 5.28 -10.56 12.32 -58.09 58.09 -5.28 3.52 -5.28 0 -5.27 -3.52 -5.28 -7.04 -12.32 -14.08 -3.52 -7.05 -5.28 -14.08 -1.78 -1.76 0 -1.76 -1.76 -1.76 -1.76 0 -1.76 0 -3.52 0 -3.52 1.76 -1.76 0 -5.28 7.04 -5.28 3.52 -5.28 3.52 -7.04 1.76 -73.92 29.93 -12.32 1.76 -22.88 -3.52 -33.45 -1.76 -8.8 1.76 -7.04 3.52 -7.04 3.52 -10.56 7.04 -8.8 1.76 -54.57 10.56 -10.56 3.52 -10.56 5.28 -44.01 63.37 -8.8 10.56 -8.8 7.03 -1.76 0 0 3.52 0 1.76 0 1.76 0 1.76 0 1.76 3.52 5.28 1.76 5.28 0 7.06 1.76 3.52 -1.76 1.76 0 3.52 -1.76 3.52 0 3.52 -1.76 0 -3.52 3.52 -8.8 14.08 -3.52 5.28 -7.04 3.51 -8.79 3.52 -8.8 0 -14.1 -5.28 -7.04 3.52 -8.8 10.56 -7.04 5.28 -5.28 1.76 -5.28 5.28 -1.76 10.56 -1.76 5.3 -7.03 5.28 -12.32 8.8 -7.04 5.28 -3.52 7.03 -3.52 7.04 0 8.8 -1.76 8.8 -8.82 12.32 0 7.04 10.58 12.34 5.28 7.04 -5.28 3.52 -1.76 0 -3.52 3.51 -1.78 1.76 -1.76 0 -1.76 -1.76 -3.52 -1.75 -5.28 -5.28 -3.52 -1.76 -7.04 -1.76 -5.28 1.76 -3.52 5.28zm1297.26 -1277.9l-1.76 -5.28 -3.52 -1.76 -8.8 -5.28 -3.52 -1.76 0 -1.76 -1.76 -3.52 -1.76 -1.76 0 -3.52 1.76 -3.51 1.76 -10.56 0 -7.04 0 -3.54 -1.76 -5.28 0 -1.76 0 -12.32 1.76 -8.8 7.04 -8.8 1.76 -5.28 3.52 -12.31 3.52 -17.6 0 -3.52 -3.52 -5.28 0 -1.78 0 -5.28 0 -15.84 1.76 -3.52 1.76 -5.28 0 -1.76 0 -1.76 -3.52 -1.75 -5.28 -3.52 -10.56 -3.52 -8.8 -5.28 -1.76 -1.76 -5.3 -1.76 -1.76 -1.76 -1.76 -3.52 -1.76 -3.52 0 -5.28 0 -1.76 -123.2 -3.52 -93.29 0 -52.81 0 -3.52 5.28 -3.52 8.8 -3.52 33.43 -1.76 5.28 -3.52 1.76 -1.76 0 0 1.76 -1.76 1.76 0 3.52 -1.75 12.34 1.75 3.52 1.76 3.52 5.28 3.52 5.28 5.28 -5.28 12.32 -3.52 7.03 -1.76 3.52 -3.51 1.76 -1.76 3.52 -3.52 1.76 -5.28 1.76 -1.76 1.76 0 1.76 -1.76 3.52 5.28 22.88 1.76 10.58 0 1.76 1.76 1.76 5.28 1.76 1.75 5.28 0 3.51 -1.75 7.04 -3.52 5.28 0 5.28 -1.76 1.76 0 1.76 1.76 1.76 24.63 3.52 114.43 0 89.76 0 107.37 0z"/>
   <polygon class="fil0 str0" points="1386.38,3789.01 1389.9,3787.25 1400.46,3790.77 1403.98,3790.77 1414.54,3789.01 1416.3,3790.77 1418.06,3790.77 1426.86,3799.57 1426.86,3804.85 1428.62,3804.85 1428.62,3806.61 1428.62,3813.65 1428.62,3815.41 1428.62,3817.17 1428.62,3818.93 1430.38,3818.93 1430.38,3820.68 1432.14,3820.68 1439.2,3822.44 1440.95,3824.2 1446.23,3827.72 1449.75,3829.48 1455.03,3834.76 1456.79,3834.76 1458.55,3836.52 1465.59,3836.52 1467.35,3838.28 1469.11,3838.28 1469.11,3840.04 1470.87,3843.56 1474.39,3847.08 1476.15,3848.84 1476.15,3850.62 1476.15,3852.38 1476.15,3854.14 1474.39,3859.42 1474.39,3861.18 1474.39,3864.7 1474.39,3866.46 1476.15,3868.22 1476.15,3866.46 1477.91,3862.94 1481.43,3857.66 1486.71,3845.32 1488.47,3841.8 1488.47,3840.04 1490.23,3838.28 1491.99,3838.28 1495.51,3836.52 1553.6,3820.68 1564.16,3813.65 1571.2,3811.89 1595.83,3808.37 1599.35,3806.61 1608.17,3803.09 1613.45,3799.57 1650.4,3759.07 1652.16,3757.31 1652.16,3755.55 1652.16,3753.79 1652.16,3752.03 1650.4,3737.96 1650.4,3736.2 1650.4,3734.44 1652.16,3732.68 1652.16,3730.92 1653.92,3729.16 1662.72,3725.64 1668,3722.12 1671.52,3718.6 1673.28,3718.6 1678.56,3715.08 1680.32,3713.32 1682.08,3711.56 1687.38,3704.52 1692.66,3699.24 1692.66,3697.48 1696.18,3695.72 1696.18,3693.96 1697.94,3692.2 1699.7,3681.63 1699.7,3679.87 1697.94,3669.31 1697.94,3667.55 1697.94,3665.79 1699.7,3664.03 1699.7,3662.27 1701.46,3662.27 1704.98,3660.51 1712.02,3656.99 1715.53,3655.23 1717.29,3653.47 1717.29,3651.71 1717.29,3649.95 1719.05,3644.67 1719.05,3642.91 1720.81,3641.15 1729.61,3634.11 1733.13,3632.35 1761.29,3635.87 1810.58,3630.59 1815.86,3630.59 1819.38,3628.83 1821.14,3628.83 1824.66,3628.83 1836.98,3632.35 1842.26,3634.11 1849.32,3632.35 1854.59,3630.59 1861.63,3627.07 1868.67,3620.03 1872.19,3620.03 1877.47,3621.79 1880.99,3621.79 1886.27,3620.03 1889.79,3618.27 1891.55,3614.76 1903.87,3600.66 1905.63,3598.9 1909.15,3597.14 1912.67,3595.38 1916.19,3593.62 1924.98,3591.86 1942.6,3588.34 1949.64,3586.58 1954.92,3584.82 1961.96,3584.82 1976.04,3586.58 1981.32,3588.34 1988.36,3593.62 1991.87,3598.9 1993.63,3602.42 1995.39,3605.96 1995.39,3607.72 1997.15,3609.48 1998.91,3611.24 2004.19,3614.76 2030.61,3620.03 2041.17,3625.31 2051.73,3628.83 2057.01,3632.35 2058.77,3634.11 2064.04,3641.15 2067.56,3642.91 2072.84,3646.43 2093.98,3649.95 2101.02,3648.19 2111.58,3653.47 2122.14,3655.23 2127.42,3656.99 2136.21,3662.27 2141.49,3667.55 2143.25,3671.07 2145.01,3678.11 2146.77,3679.87 2148.53,3683.38 2159.09,3695.72 2162.61,3701 2171.41,3708.04 2194.31,3718.6 2208.38,3722.12 2213.66,3725.64 2218.94,3729.16 2227.74,3730.92 2231.26,3732.68 2238.3,3737.96 2241.82,3741.48 2248.86,3748.52 2287.59,3769.65 2310.47,3767.87 2315.75,3767.87 2324.55,3767.87 2361.52,3759.07 2366.8,3759.07 2377.36,3759.07 2382.64,3759.07 2387.92,3757.31 2419.59,3739.72 2423.13,3736.2 2424.89,3732.68 2428.41,3725.64 2430.17,3722.12 2433.69,3718.6 2440.73,3715.08 2460.09,3708.04 2491.76,3702.76 2495.28,3702.76 2498.8,3704.52 2512.9,3704.52 2516.42,3704.52 2519.94,3706.28 2526.98,3709.8 2535.78,3716.84 2555.13,3729.16 2556.89,3730.92 2558.65,3734.44 2560.41,3737.96 2560.41,3741.48 2560.41,3748.52 2562.17,3752.03 2563.93,3759.07 2563.93,3762.59 2567.45,3764.35 2570.97,3766.11 2581.53,3767.87 2586.83,3767.87 2593.87,3766.11 2623.78,3752.03 2639.62,3748.52 2648.42,3746.76 2655.46,3748.52 2660.74,3746.76 2667.8,3743.24 2676.6,3732.68 2680.12,3727.4 2683.63,3720.36 2683.63,3716.84 2685.39,3713.32 2688.91,3708.04 2692.43,3704.52 2713.55,3693.96 2724.11,3685.14 2755.8,3649.95 2761.08,3641.15 2762.84,3637.63 2766.36,3634.11 2769.88,3628.83 2787.48,3614.76 2792.76,3611.24 2798.04,3609.48 2817.4,3607.72 2819.15,3611.24 2819.15,3614.76 2819.15,3621.79 2819.15,3625.31 2819.15,3630.59 2806.84,3676.35 2806.84,3701 2805.08,3704.52 2801.56,3716.84 2794.52,3753.79 2794.52,3757.31 2791,3760.83 2789.24,3760.83 2773.4,3764.35 2761.08,3769.65 2755.8,3771.41 2754.04,3774.93 2750.52,3776.69 2748.74,3781.97 2746.99,3792.53 2745.23,3796.05 2736.43,3806.61 2732.91,3817.17 2731.15,3820.68 2718.83,3833 2713.55,3840.04 2711.79,3847.08 2710.03,3850.62 2710.03,3854.14 2711.79,3857.66 2715.31,3862.94 2727.63,3861.18 2752.28,3868.22 2789.24,3887.58 2803.32,3889.34 2847.33,3884.06 2856.13,3884.06 2886.05,3891.09 2896.6,3892.85 2907.16,3891.09 2910.68,3887.58 2917.74,3887.58 2951.18,3885.82 2958.21,3887.58 2986.37,3892.85 2995.17,3896.37 3009.27,3898.13 3037.42,3894.61 3042.7,3892.85 3042.7,3903.41 3046.22,3912.21 3046.22,3922.77 3040.94,3996.7 3040.94,4003.74 3042.7,4009.02 3046.22,4014.32 3049.74,4021.36 3056.78,4028.39 3060.3,4031.91 3065.58,4031.91 3069.1,4030.15 3072.62,4028.39 3086.72,4017.84 3090.24,4016.08 3093.76,4016.08 3095.51,4016.08 3099.03,4016.08 3106.07,4019.6 3137.75,4033.67 3141.27,4037.19 3143.03,4040.71 3141.27,4049.51 3139.51,4054.79 3135.99,4060.07 3116.63,4086.47 3111.35,4095.26 3099.03,4125.2 3097.27,4132.24 3097.27,4134 3097.27,4135.76 3107.83,4141.04 3146.55,4151.6 3171.2,4151.6 3187.04,4156.88 3197.6,4156.88 3239.83,4149.84 3245.13,4151.6 3248.65,4153.36 3259.21,4160.4 3285.61,4186.81 3289.13,4190.33 3294.41,4192.09 3301.44,4192.09 3319.04,4190.33 3324.34,4192.09 3333.14,4193.85 3354.26,4204.41 3380.65,4222.01 3385.93,4227.29 3387.69,4230.81 3389.45,4234.32 3391.21,4236.08 3394.73,4239.6 3401.77,4243.12 3414.11,4248.4 3433.47,4251.92 3445.78,4257.2 3458.1,4266.02 3466.9,4276.58 3472.18,4278.34 3542.59,4310.01 3546.11,4310.01 3563.71,4313.53 3577.8,4311.77 3581.32,4311.77 3604.2,4318.81 3618.28,4320.57 3621.8,4322.33 3625.32,4324.09 3648.19,4345.23 3657.01,4352.27 3660.53,4355.79 3665.81,4357.55 3669.33,4359.31 3674.61,4361.07 3688.69,4361.07 3692.21,4362.83 3704.53,4368.11 3708.05,4368.11 3716.84,4368.11 3720.36,4368.11 3725.64,4368.11 3729.16,4371.62 3734.46,4375.14 3739.74,4378.66 3757.34,4399.78 3783.73,4438.52 3781.98,4447.31 3785.49,4454.35 3790.77,4461.39 3792.53,4466.67 3787.25,4473.71 3785.49,4475.47 3778.46,4475.47 3774.94,4477.23 3773.18,4478.99 3773.18,4482.51 3773.18,4503.63 3771.42,4512.44 3762.62,4523 3760.86,4533.56 3760.86,4544.12 3767.9,4600.45 3767.9,4647.96 3771.42,4676.14 3759.1,4707.82 3750.3,4723.65 3739.74,4735.97 3729.16,4744.77 3722.12,4750.05 3674.61,4764.15 3653.49,4774.71 3648.19,4779.99 3634.12,4794.06 3628.84,4804.62 3614.76,4822.22 3605.96,4834.56 3588.36,4853.91 3570.77,4857.43 3563.71,4862.71 3561.95,4869.75 3558.43,4887.35 3549.63,4901.43 3549.63,4910.23 3549.63,4927.84 3546.11,4968.32 3542.59,4975.36 3517.95,5003.53 3510.91,5008.81 3509.15,5010.57 3505.64,5014.09 3496.84,5036.97 3489.8,5047.53 3488.04,5049.29 3486.26,5051.05 3480.98,5054.57 3472.18,5061.6 3465.14,5065.12 3461.62,5070.4 3459.86,5080.98 3466.9,5112.66 3468.66,5128.49 3461.62,5146.09 3440.5,5168.99 3438.75,5176.03 3428.19,5193.63 3422.91,5197.15 3415.87,5200.66 3410.59,5198.9 3405.29,5197.15 3398.25,5197.15 3392.97,5197.15 3391.21,5198.9 3387.69,5200.66 3385.93,5204.18 3385.93,5205.94 3385.93,5207.7 3385.93,5209.46 3384.17,5211.22 3382.41,5212.98 3380.65,5212.98 3378.89,5214.74 3377.13,5225.3 3392.97,5251.72 3398.25,5253.48 3400.01,5257 3401.77,5260.52 3400.01,5269.31 3394.73,5276.35 3387.69,5281.63 3378.89,5288.67 3366.58,5293.95 3361.3,5297.47 3350.74,5315.07 3348.98,5320.35 3348.98,5327.41 3347.22,5332.69 3343.7,5336.2 3341.94,5339.72 3338.42,5343.24 3334.9,5346.76 3327.86,5348.52 3326.1,5350.28 3308.48,5367.88 3304.96,5373.16 3303.2,5378.44 3301.44,5390.76 3299.69,5396.04 3289.13,5418.93 3289.13,5420.69 3285.61,5431.25 3283.85,5434.77 3260.97,5455.89 3253.93,5464.69 3252.17,5466.45 3243.37,5471.73 3239.83,5473.48 3231.04,5482.28 3227.52,5484.04 3224,5485.8 3216.96,5485.8 3213.44,5487.56 3206.4,5491.1 3195.84,5501.66 3176.48,5508.7 3169.44,5512.22 3158.87,5522.78 3125.43,5542.13 3123.67,5543.89 3121.91,5545.65 3118.39,5556.21 3116.63,5557.97 3090.24,5570.29 3083.2,5573.83 3077.92,5573.83 3074.38,5570.29 3072.62,5572.05 3065.58,5582.63 3060.3,5594.95 3056.78,5598.47 3053.26,5600.23 3047.98,5601.99 3044.46,5603.75 3042.7,5605.51 3021.59,5644.22 3012.79,5654.8 3002.23,5665.36 2891.32,5714.63 2864.93,5730.47 2854.37,5742.81 2849.09,5749.84 2840.29,5772.72 2836.77,5786.8 2833.25,5820.25 2827.95,5836.09 2820.91,5850.17 2810.36,5880.09 2803.32,5894.16 2794.52,5906.5 2755.8,5931.14 2725.87,5943.46 2717.07,5950.5 2717.07,5954.01 2717.07,5968.09 2699.47,6026.18 2697.71,6049.06 2685.39,6079 2681.87,6094.83 2681.87,6130.03 2678.36,6147.65 2671.32,6154.69 2643.14,6168.76 2641.38,6174.04 2634.34,6179.32 2620.26,6186.36 2609.71,6181.08 2576.25,6159.97 2556.89,6133.55 2549.85,6128.27 2490,6093.07 2479.44,6091.32 2474.16,6093.07 2465.37,6103.63 2460.09,6107.15 2412.55,6122.99 2389.68,6135.31 2386.16,6140.59 2377.36,6151.17 2372.08,6154.69 2365.04,6156.45 2354.48,6156.45 2347.44,6159.97 2336.86,6161.72 2313.99,6161.72 2305.19,6167 2292.87,6174.04 2280.55,6174.04 2268.23,6172.28 2255.9,6167 2243.58,6165.24 2222.46,6163.48 2210.14,6158.21 2203.1,6149.41 2199.58,6138.83 2194.31,6064.92 2187.27,6040.26 2171.41,6022.67 2164.37,6013.87 2162.61,5999.79 2162.61,5985.71 2160.85,5973.37 2159.09,5959.29 2169.65,5938.18 2169.65,5925.86 2166.13,5918.82 2155.57,5908.26 2152.05,5899.44 2153.81,5892.4 2162.61,5874.81 2162.61,5867.77 2153.81,5839.61 2153.81,5836.09 2143.25,5830.81 2139.73,5825.53 2139.73,5818.47 2141.49,5804.4 2139.73,5797.36 2134.45,5792.08 2125.66,5779.76 2125.66,5774.48 2127.42,5760.4 2127.42,5755.12 2118.62,5725.19 2118.62,5711.11 2123.9,5698.79 2129.17,5688.23 2132.69,5674.16 2132.69,5670.64 2130.93,5665.36 2129.17,5661.84 2129.17,5658.32 2130.93,5651.26 2132.69,5649.5 2130.93,5640.7 2129.17,5637.18 2123.9,5633.66 2116.86,5631.9 2104.54,5624.86 2095.74,5614.3 2088.68,5601.99 2086.92,5587.91 2085.16,5556.21 2083.4,5545.65 2079.88,5542.13 2064.04,5531.58 2046.45,5506.94 2042.93,5515.74 2042.93,5517.5 2035.89,5513.98 2013.01,5512.22 2007.71,5508.7 2002.43,5505.18 1998.91,5503.42 1993.63,5505.18 1988.36,5506.94 1928.5,5503.42 1921.46,5501.66 1916.19,5498.14 1905.63,5487.56 1884.51,5475.24 1873.95,5464.69 1866.91,5452.37 1856.35,5429.49 1852.84,5425.97 1847.56,5424.21 1822.9,5429.49 1815.86,5431.25 1812.34,5434.77 1808.82,5438.29 1803.54,5447.09 1803.54,5448.85 1801.78,5454.13 1800.02,5455.89 1796.5,5457.65 1796.5,5459.41 1789.46,5469.97 1785.94,5473.48 1775.39,5482.28 1771.87,5484.04 1768.35,5485.8 1764.81,5487.56 1770.11,5494.62 1768.35,5498.14 1761.29,5496.38 1750.73,5482.28 1743.69,5478.76 1741.93,5480.52 1740.17,5487.56 1738.41,5489.32 1733.13,5492.86 1733.13,5491.1 1733.13,5489.32 1729.61,5489.32 1719.05,5492.86 1715.53,5492.86 1710.26,5491.1 1710.26,5492.86 1708.5,5494.62 1706.74,5498.14 1697.94,5506.94 1694.42,5508.7 1685.62,5506.94 1685.62,5503.42 1682.08,5492.86 1676.8,5487.56 1673.28,5496.38 1669.76,5496.38 1662.72,5492.86 1659.2,5492.86 1657.44,5494.62 1655.68,5492.86 1655.68,5485.8 1652.16,5489.32 1648.64,5489.32 1639.85,5485.8 1632.81,5485.8 1622.25,5485.8 1616.97,5485.8 1615.21,5487.56 1613.45,5487.56 1611.69,5487.56 1604.65,5485.8 1602.89,5484.04 1602.89,5482.28 1599.35,5480.52 1588.79,5475.24 1583.51,5475.24 1579.99,5475.24 1578.23,5477 1576.48,5478.76 1572.96,5478.76 1569.44,5475.24 1569.44,5469.97 1567.68,5468.21 1562.4,5469.97 1553.6,5477 1546.56,5478.76 1530.72,5475.24 1525.44,5473.48 1525.44,5475.24 1523.68,5477 1521.92,5478.76 1518.38,5478.76 1513.1,5477 1509.58,5475.24 1509.58,5478.76 1506.07,5478.76 1495.51,5469.97 1490.23,5468.21 1486.71,5468.21 1477.91,5464.69 1476.15,5464.69 1462.07,5468.21 1453.27,5462.93 1451.51,5462.93 1446.23,5461.17 1444.47,5462.93 1442.71,5462.93 1440.95,5464.69 1432.14,5466.45 1425.1,5464.69 1421.58,5459.41 1416.3,5452.37 1411.02,5436.53 1407.5,5434.77 1405.74,5434.77 1402.22,5436.53 1398.7,5438.29 1391.66,5438.29 1386.38,5436.53 1382.86,5436.53 1375.82,5438.29 1374.06,5438.29 1370.55,5438.29 1368.79,5438.29 1367.03,5441.81 1367.03,5443.57 1368.79,5443.57 1363.51,5445.33 1361.75,5447.09 1358.23,5445.33 1354.69,5445.33 1347.65,5450.61 1344.13,5450.61 1342.37,5450.61 1337.09,5445.33 1333.57,5443.57 1331.81,5443.57 1326.53,5445.33 1321.25,5445.33 1310.69,5441.81 1305.41,5436.53 1301.89,5431.25 1298.38,5427.73 1293.1,5424.21 1293.1,5420.69 1293.1,5415.41 1293.1,5410.13 1301.89,5387.24 1301.89,5383.72 1305.41,5380.2 1314.21,5364.36 1314.21,5360.84 1312.45,5352.04 1307.17,5345 1303.65,5339.72 1307.17,5332.69 1310.69,5323.87 1312.45,5316.83 1310.69,5309.79 1310.69,5302.75 1324.77,5278.11 1323.01,5274.59 1319.49,5271.07 1315.97,5265.8 1312.45,5258.76 1310.69,5253.48 1312.45,5246.44 1317.73,5237.62 1319.49,5230.58 1315.97,5227.06 1310.69,5223.54 1307.17,5216.5 1307.17,5209.46 1307.17,5200.66 1314.21,5188.35 1337.09,5151.37 1340.61,5140.81 1335.33,5137.29 1330.05,5135.53 1326.53,5132.01 1326.53,5130.25 1324.77,5128.49 1323.01,5124.98 1323.01,5119.7 1324.77,5116.18 1335.33,5109.14 1342.37,5096.82 1347.65,5080.98 1349.41,5063.36 1345.89,5047.53 1340.61,5035.21 1340.61,5029.93 1351.17,5014.09 1354.69,5005.29 1352.93,4998.23 1345.89,4992.95 1345.89,4998.23 1342.37,4998.23 1335.33,4989.44 1326.53,4982.4 1324.77,4982.4 1323.01,4982.4 1321.25,4980.64 1319.49,4978.88 1317.73,4975.36 1321.25,4970.08 1335.33,4963.04 1338.85,4957.76 1338.85,4950.72 1335.33,4945.44 1328.29,4941.92 1321.25,4940.16 1312.45,4940.16 1308.93,4936.64 1312.45,4933.12 1317.73,4929.6 1321.25,4926.08 1324.77,4922.56 1331.81,4920.81 1337.09,4919.05 1338.85,4917.29 1338.85,4913.75 1335.33,4910.23 1330.05,4906.71 1326.53,4904.95 1326.53,4901.43 1324.77,4896.15 1323.01,4894.39 1317.73,4890.87 1312.45,4889.11 1307.17,4892.63 1303.65,4904.95 1301.89,4906.71 1298.38,4903.19 1294.86,4899.67 1294.86,4894.39 1298.38,4887.35 1298.38,4883.83 1296.62,4878.55 1291.34,4871.51 1291.34,4866.23 1291.34,4857.43 1291.34,4853.91 1287.82,4845.12 1286.06,4836.32 1284.3,4825.74 1286.06,4818.7 1291.34,4808.14 1293.1,4801.1 1287.82,4797.58 1280.78,4795.82 1271.96,4792.3 1264.92,4785.26 1259.64,4779.99 1256.12,4772.95 1254.36,4764.15 1252.6,4753.59 1256.12,4743.01 1254.36,4739.49 1252.6,4737.73 1249.08,4735.97 1245.56,4735.97 1243.8,4737.73 1242.04,4739.49 1240.28,4741.25 1233.24,4735.97 1231.49,4728.93 1233.24,4721.89 1247.32,4718.37 1245.56,4714.86 1242.04,4709.58 1240.28,4707.82 1236.76,4706.06 1235,4706.06 1233.24,4706.06 1231.49,4699.02 1247.32,4693.74 1252.6,4691.98 1254.36,4688.46 1257.88,4683.18 1259.64,4681.42 1270.2,4677.9 1280.78,4662.04 1289.58,4658.52 1293.1,4656.76 1296.62,4655 1300.14,4651.48 1300.14,4647.96 1303.65,4646.2 1308.93,4647.96 1317.73,4649.72 1324.77,4646.2 1330.05,4640.93 1335.33,4633.89 1338.85,4630.37 1301.89,4596.93 1273.74,4570.52 1247.32,4545.88 1243.8,4535.32 1256.12,4508.93 1261.4,4500.11 1270.2,4478.99 1280.78,4457.87 1284.3,4449.07 1294.86,4426.2 1319.49,4375.14 1344.13,4324.09 1354.69,4301.22 1363.51,4283.62 1368.79,4280.1 1389.9,4278.34 1386.38,4260.74 1384.62,4239.6 1382.86,4232.57 1379.34,4229.05 1365.27,4227.29 1370.55,4214.97 1386.38,4160.4 1403.98,4107.6 1419.82,4054.79 1435.66,4001.98 1442.71,3982.62 1446.23,3979.1 1453.27,3977.34 1477.91,3977.34 1477.91,3968.54 1474.39,3965.02 1469.11,3963.26 1462.07,3963.26 1447.99,3956.23 1435.66,3933.35 1418.06,3887.58 1384.62,3829.48 1395.18,3829.48 1396.94,3822.44 1391.66,3813.65 1384.62,3804.85 1382.86,3801.33 "/>
   <polygon class="fil0 str0" points="1240.28,8.16 1268.44,32.8 1296.62,76.79 1303.65,90.89 1307.17,108.48 1308.93,112 1312.45,117.28 1319.49,124.32 1323.01,129.6 1326.53,134.88 1331.81,161.3 1337.09,178.89 1345.89,196.49 1347.65,200.01 1347.65,212.33 1349.41,219.37 1352.93,228.17 1358.23,238.73 1359.99,249.3 1361.75,252.82 1363.51,256.34 1367.03,259.86 1382.86,277.46 1386.38,280.98 1388.14,286.26 1389.9,293.3 1391.66,296.82 1395.18,300.34 1411.02,316.17 1414.54,321.45 1416.3,326.75 1411.02,337.31 1411.02,347.87 1409.26,351.39 1407.5,358.43 1405.74,361.95 1405.74,368.99 1405.74,384.82 1405.74,388.34 1403.98,393.62 1402.22,397.14 1402.22,400.66 1402.22,404.18 1403.98,407.72 1411.02,418.28 1411.02,420.04 1412.78,421.8 1412.78,427.08 1411.02,428.84 1412.78,432.36 1416.3,444.68 1416.3,448.2 1414.54,455.23 1414.54,460.51 1416.3,464.03 1419.82,467.55 1421.58,471.07 1425.1,474.59 1426.86,478.11 1430.38,485.15 1432.14,493.97 1432.14,497.49 1432.14,506.29 1433.9,511.57 1437.44,515.09 1462.07,522.12 1465.59,523.88 1472.63,527.4 1484.95,539.72 1491.99,545 1506.07,553.8 1509.58,557.32 1513.1,560.84 1514.86,567.88 1516.62,571.42 1534.24,585.5 1537.76,587.25 1562.4,597.81 1572.96,603.09 1576.48,606.61 1579.99,610.13 1606.41,620.69 1609.93,622.45 1611.69,625.97 1613.45,629.49 1616.97,647.09 1616.97,669.98 1616.97,673.5 1618.73,677.02 1622.25,680.54 1627.53,685.82 1638.09,689.34 1643.37,691.1 1648.64,689.34 1650.4,689.34 1655.68,687.58 1660.96,689.34 1669.76,691.1 1694.42,696.38 1701.46,699.9 1704.98,703.42 1706.74,706.94 1708.5,710.46 1710.26,715.74 1712.02,726.29 1715.53,736.87 1717.29,740.39 1720.81,743.91 1724.33,745.67 1731.37,745.67 1736.65,743.91 1745.45,738.63 1748.97,738.63 1752.49,736.87 1757.77,738.63 1761.29,740.39 1764.81,742.15 1770.11,745.67 1785.94,749.19 1791.22,750.95 1803.54,761.51 1824.66,770.31 1831.7,773.83 1833.46,770.31 2319.27,805.5 3664.05,886.47 3709.81,888.23 4040.72,905.85 4031.92,918.17 4024.88,932.24 4019.6,956.88 4017.84,963.92 4016.08,969.2 4012.56,974.48 3993.2,995.62 3989.69,999.14 3987.93,1007.93 3986.17,1011.45 3982.65,1016.73 3984.41,1025.53 3986.17,1039.61 3984.41,1053.69 3980.89,1069.54 3973.83,1085.38 3965.03,1095.94 3954.47,1106.5 3949.19,1111.78 3947.43,1118.82 3949.19,1131.14 3947.43,1134.66 3945.67,1139.93 3940.39,1146.99 3938.63,1150.51 3940.39,1157.55 3940.39,1162.83 3936.87,1164.59 3935.11,1166.35 3929.83,1178.67 3928.07,1180.43 3924.55,1180.43 3921.04,1182.19 3919.28,1183.95 3917.52,1189.23 3915.76,1192.75 3912.24,1198.03 3912.24,1199.79 3912.24,1205.07 3915.76,1215.62 3915.76,1219.14 3915.76,1233.24 3915.76,1240.28 3912.24,1245.56 3912.24,1247.32 3908.72,1249.08 3906.96,1250.84 3905.2,1254.36 3901.68,1257.88 3901.68,1259.64 3901.68,1263.16 3903.44,1268.44 3906.96,1275.47 3906.96,1277.23 3906.96,1280.75 3906.96,1284.27 3905.2,1286.03 3903.44,1287.79 3899.92,1294.83 3899.92,1296.59 3899.92,1300.11 3901.68,1308.93 3905.2,1326.53 3906.96,1331.81 3906.96,1333.57 3906.96,1344.12 3906.96,1349.4 3905.2,1352.92 3903.44,1354.68 3901.68,1356.44 3898.16,1358.2 3896.38,1359.96 3891.1,1370.52 3889.34,1374.04 3887.58,1403.98 3885.82,1416.29 3885.82,1418.05 3882.3,1425.09 3880.54,1428.61 3880.54,1430.37 3878.78,1432.13 3866.46,1467.33 3866.46,1476.15 3864.7,1481.42 3862.94,1486.7 3861.18,1491.98 3861.18,1504.3 3862.94,1507.82 3864.7,1514.86 3868.22,1518.38 3869.98,1520.14 3871.74,1523.66 3873.5,1523.66 3875.26,1525.42 3889.34,1532.46 3891.1,1534.22 3892.86,1535.98 3892.86,1537.74 3894.62,1539.5 3894.62,1543.02 3892.86,1558.87 3891.1,1560.63 3891.1,1562.39 3889.34,1564.15 3885.82,1567.67 3882.3,1571.19 3880.54,1572.95 3877.02,1576.47 3873.5,1579.99 3873.5,1581.75 3871.74,1583.51 3871.74,1588.79 3871.74,1592.31 3871.74,1594.07 3873.5,1595.83 3877.02,1599.35 3877.02,1602.87 3878.78,1604.63 3878.78,1609.91 3882.3,1616.95 3882.3,1620.46 3882.3,1622.22 3884.06,1631.02 3884.06,1634.54 3885.82,1638.08 3889.34,1638.08 3892.86,1639.84 3894.62,1639.84 3894.62,1641.6 3896.38,1643.36 3896.38,1648.64 3894.62,1652.16 3894.62,1653.92 3892.86,1653.92 3891.1,1655.68 3889.34,1655.68 3889.34,1657.44 3889.34,1660.96 3889.34,1662.72 3891.1,1666.24 3891.1,1669.76 3891.1,1673.28 3891.1,1676.8 3889.34,1678.56 3884.06,1682.08 3882.3,1683.84 3882.3,1690.87 3882.3,1699.67 3885.82,1754.25 3887.58,1757.76 3891.1,1763.04 3896.38,1768.32 3898.16,1770.08 3903.44,1782.4 3903.44,1785.92 3903.44,1789.44 3901.68,1794.72 3901.68,1796.48 3906.96,1840.49 3906.96,1842.25 3906.96,1844.01 3905.2,1845.77 3905.2,1847.53 3901.68,1847.53 3899.92,1847.53 3899.92,1849.29 3899.92,1852.81 3899.92,1859.85 3899.92,1865.13 3898.16,1870.41 3898.16,1875.69 3898.16,1877.45 3894.62,1884.51 3894.62,1886.27 3892.86,1888.03 3892.86,1891.55 3894.62,1898.58 3894.62,1902.1 3892.86,1903.86 3891.1,1903.86 3891.1,1902.1 3889.34,1902.1 3887.58,1902.1 3885.82,1902.1 3885.82,1903.86 3885.82,1907.38 3885.82,1910.9 3889.34,1912.66 3894.62,1917.94 3899.92,1919.7 3901.68,1921.46 3901.68,1923.22 3903.44,1932.02 3903.44,1933.78 3906.96,1939.06 3906.96,1940.82 3908.72,1946.1 3908.72,1951.38 3908.72,1956.66 3908.72,1961.93 3908.72,1963.71 3908.72,1965.47 3910.48,1968.99 3912.24,1974.27 3912.24,1976.03 3914,1977.79 3915.76,1976.03 3919.28,1976.03 3921.04,1976.03 3922.79,1976.03 3924.55,1976.03 3924.55,1977.79 3922.79,1979.55 3922.79,1981.31 3922.79,1983.07 3924.55,1983.07 3924.55,1984.83 3928.07,1986.59 3933.35,1988.35 3936.87,1990.11 3947.43,1988.35 3952.71,1990.11 3954.47,1993.63 3954.47,1997.15 3954.47,2002.43 3949.19,2028.83 3947.43,2032.34 3945.67,2035.86 3942.15,2039.38 3940.39,2041.14 3928.07,2048.2 3926.31,2051.72 3924.55,2051.72 3924.55,2053.48 3924.55,2057 3928.07,2058.76 3929.83,2060.52 3929.83,2062.28 3929.83,2064.04 3929.83,2065.8 3928.07,2067.56 3926.31,2067.56 3921.04,2071.08 3919.28,2071.08 3917.52,2072.84 3915.76,2074.6 3915.76,2076.36 3917.52,2078.12 3919.28,2083.4 3921.04,2086.92 3921.04,2092.2 3919.28,2106.27 3919.28,2111.55 3919.28,2118.59 3919.28,2120.35 3922.79,2125.63 3922.79,2127.39 3922.79,2130.93 3922.79,2132.69 3921.04,2136.21 3912.24,2157.33 3906.96,2167.89 3901.68,2174.92 3896.38,2180.2 3892.86,2185.48 3891.1,2187.24 3891.1,2190.76 3889.34,2201.32 3889.34,2203.08 3887.58,2206.6 3884.06,2210.14 3880.54,2215.42 3877.02,2218.94 3875.26,2220.7 3875.26,2222.46 3871.74,2227.74 3869.98,2229.5 3864.7,2231.26 3862.94,2233.02 3861.18,2234.78 3855.9,2241.81 3855.9,2243.57 3852.39,2266.45 3845.35,2289.33 3843.59,2291.09 3841.83,2292.87 3841.83,2294.63 3838.31,2296.39 3833.03,2301.67 3831.27,2303.43 3829.51,2303.43 3825.99,2303.43 3820.71,2305.19 3818.95,2306.95 3817.19,2308.7 3817.19,2310.46 3817.19,2313.98 3818.95,2319.26 3820.71,2321.02 3820.71,2324.54 3820.71,2343.9 3820.71,2347.42 3822.47,2352.7 3824.23,2359.74 3824.23,2363.26 3824.23,2368.54 3822.47,2382.63 3818.95,2394.95 3817.19,2398.47 3817.19,2403.75 3818.95,2405.51 3820.71,2412.55 3818.95,2421.35 3820.71,2426.63 3820.71,2428.39 3820.71,2430.15 3824.23,2433.67 3824.23,2437.19 3824.23,2438.95 3824.23,2442.47 3824.23,2444.22 3822.47,2445.98 3822.47,2447.74 3820.71,2449.5 3817.19,2451.26 3804.85,2454.78 3801.33,2454.78 3799.57,2454.78 3797.81,2454.78 3796.05,2456.56 3796.05,2458.32 3797.81,2460.08 3797.81,2463.6 3799.57,2465.36 3797.81,2468.88 3796.05,2472.4 3783.73,2498.8 3780.22,2516.39 3778.46,2518.15 3780.22,2521.67 3780.22,2526.95 3780.22,2530.47 3778.46,2533.99 3774.94,2542.81 3773.18,2549.85 3773.18,2551.61 3771.42,2558.65 3771.42,2560.41 3771.42,2562.17 3773.18,2565.69 3774.94,2570.97 3774.94,2574.49 3776.7,2576.25 3780.22,2590.32 3780.22,2595.6 3780.22,2600.88 3778.46,2606.16 3776.7,2611.44 3774.94,2614.96 3774.94,2618.48 3774.94,2620.26 3773.18,2622.02 3771.42,2627.3 3769.66,2634.34 3767.9,2637.86 3766.14,2641.38 3757.34,2648.42 3755.58,2651.93 3755.58,2662.49 3748.54,2676.57 3746.78,2683.61 3746.78,2699.45 3745.02,2706.51 3739.74,2708.27 3737.98,2713.55 3734.46,2736.42 3732.68,2738.18 3723.88,2743.46 3720.36,2745.22 3720.36,2748.74 3716.84,2757.54 3716.84,2759.3 3716.84,2761.06 3713.33,2764.58 3708.05,2769.86 3695.73,2775.14 3685.17,2780.42 3679.89,2783.96 3672.85,2783.96 3664.05,2782.18 3662.29,2775.14 3660.53,2768.1 3657.01,2761.06 3646.43,2771.62 3639.4,2773.38 3630.6,2775.14 3623.56,2776.9 3618.28,2780.42 3609.48,2790.99 3602.44,2796.27 3588.36,2801.55 3581.32,2806.83 3565.47,2829.71 3560.19,2833.23 3554.91,2834.99 3547.87,2838.51 3542.59,2843.79 3539.07,2847.31 3537.31,2854.35 3537.31,2861.38 3539.07,2866.68 3539.07,2875.48 3537.31,2877.24 3532.03,2880.76 3530.27,2884.28 3530.27,2887.8 3528.51,2893.08 3528.51,2896.6 3528.51,2900.12 3530.27,2908.92 3530.27,2912.44 3528.51,2917.72 3524.99,2924.76 3523.23,2928.27 3519.71,2945.87 3517.95,2952.93 3512.67,2959.97 3503.88,2972.29 3500.36,2975.81 3491.56,2970.53 3488.04,2975.81 3493.32,2982.85 3495.08,2993.41 3495.08,3002.2 3493.32,3009.24 3488.04,3018.04 3477.46,3040.94 3463.38,3056.78 3461.62,3069.09 3456.34,3074.37 3451.06,3076.13 3445.78,3076.13 3442.26,3076.13 3436.99,3072.61 3431.71,3070.85 3426.43,3072.61 3426.43,3074.37 3426.43,3076.13 3424.67,3079.65 3412.35,3091.97 3405.29,3097.25 3396.49,3099.01 3359.54,3102.53 3341.94,3104.29 3333.14,3107.81 3329.62,3111.33 3326.1,3113.11 3326.1,3116.63 3322.56,3123.67 3306.72,3141.26 3299.69,3160.62 3296.17,3162.38 3294.41,3164.14 3290.89,3164.14 3287.37,3164.14 3276.81,3171.18 3262.73,3176.46 3257.45,3179.98 3255.69,3187.02 3252.17,3188.78 3232.79,3197.6 3229.28,3199.36 3227.52,3201.12 3225.76,3204.63 3224,3208.15 3225.76,3223.99 3225.76,3227.51 3225.76,3229.27 3224,3231.03 3222.24,3234.55 3218.72,3236.31 3213.44,3238.07 3195.84,3243.35 3187.04,3246.87 3180,3252.15 3178.24,3253.91 3176.48,3257.43 3174.72,3260.95 3172.96,3271.5 3172.96,3278.56 3174.72,3282.08 3176.48,3287.36 3176.48,3289.12 3178.24,3290.88 3180,3292.64 3183.52,3294.4 3190.56,3297.92 3190.56,3299.68 3192.32,3299.68 3197.6,3303.2 3194.08,3317.28 3192.32,3333.12 3190.56,3341.91 3187.04,3345.43 3178.24,3352.47 3172.96,3357.75 3169.44,3363.05 3165.92,3370.09 3165.92,3378.89 3162.41,3385.93 3157.11,3392.97 3141.27,3405.29 3128.95,3421.12 3121.91,3424.64 3116.63,3429.92 3113.11,3431.68 3097.27,3436.96 3074.38,3449.3 3063.82,3456.34 3053.26,3466.9 3056.78,3472.18 3051.5,3496.81 3047.98,3505.61 3046.22,3509.13 3047.98,3512.65 3049.74,3519.69 3049.74,3523.23 3047.98,3530.27 3044.46,3537.31 3040.94,3542.59 3035.66,3546.1 3033.9,3547.86 3019.83,3568.98 3014.55,3574.26 3012.79,3576.02 3011.03,3584.82 3007.51,3590.1 3003.99,3598.9 3002.23,3602.42 2993.41,3611.24 2989.89,3614.76 2988.13,3620.03 2989.89,3637.63 2991.65,3642.91 2993.41,3646.43 2993.41,3649.95 2991.65,3653.47 2989.89,3656.99 2988.13,3660.51 2986.37,3667.55 2982.85,3683.38 2981.09,3697.48 2982.85,3701 2979.33,3706.28 2974.05,3723.88 2974.05,3736.2 2975.81,3746.76 2979.33,3757.31 2998.71,3790.77 3007.51,3804.85 3009.27,3808.37 3011.03,3811.89 3014.55,3822.44 3021.59,3848.84 3035.66,3878.78 3042.7,3892.85 3037.42,3894.61 3009.27,3898.13 2995.17,3896.37 2986.37,3892.85 2958.21,3887.58 2951.18,3885.82 2917.74,3887.58 2910.68,3887.58 2907.16,3891.09 2896.6,3892.85 2886.05,3891.09 2856.13,3884.06 2847.33,3884.06 2803.32,3889.34 2789.24,3887.58 2752.28,3868.22 2727.63,3861.18 2715.31,3862.94 2711.79,3857.66 2710.03,3854.14 2710.03,3850.62 2711.79,3847.08 2713.55,3840.04 2718.83,3833 2731.15,3820.68 2732.91,3817.17 2736.43,3806.61 2745.23,3796.05 2746.99,3792.53 2748.74,3781.97 2750.52,3776.69 2754.04,3774.93 2755.8,3771.41 2761.08,3769.65 2773.4,3764.35 2789.24,3760.83 2791,3760.83 2794.52,3757.31 2794.52,3753.79 2801.56,3716.84 2805.08,3704.52 2806.84,3701 2806.84,3676.35 2819.15,3630.59 2819.15,3625.31 2819.15,3621.79 2819.15,3614.76 2819.15,3611.24 2817.4,3607.72 2798.04,3609.48 2792.76,3611.24 2787.48,3614.76 2769.88,3628.83 2766.36,3634.11 2762.84,3637.63 2761.08,3641.15 2755.8,3649.95 2724.11,3685.14 2713.55,3693.96 2692.43,3704.52 2688.91,3708.04 2685.39,3713.32 2683.63,3716.84 2683.63,3720.36 2680.12,3727.4 2676.6,3732.68 2667.8,3743.24 2660.74,3746.76 2655.46,3748.52 2648.42,3746.76 2639.62,3748.52 2623.78,3752.03 2593.87,3766.11 2586.83,3767.87 2581.53,3767.87 2570.97,3766.11 2567.45,3764.35 2563.93,3762.59 2563.93,3759.07 2562.17,3752.03 2560.41,3748.52 2560.41,3741.48 2560.41,3737.96 2558.65,3734.44 2556.89,3730.92 2555.13,3729.16 2535.78,3716.84 2526.98,3709.8 2519.94,3706.28 2516.42,3704.52 2512.9,3704.52 2498.8,3704.52 2495.28,3702.76 2491.76,3702.76 2460.09,3708.04 2440.73,3715.08 2433.69,3718.6 2430.17,3722.12 2428.41,3725.64 2424.89,3732.68 2423.13,3736.2 2419.59,3739.72 2387.92,3757.31 2382.64,3759.07 2377.36,3759.07 2366.8,3759.07 2361.52,3759.07 2324.55,3767.87 2315.75,3767.87 2310.47,3767.87 2287.59,3769.65 2248.86,3748.52 2241.82,3741.48 2238.3,3737.96 2231.26,3732.68 2227.74,3730.92 2218.94,3729.16 2213.66,3725.64 2208.38,3722.12 2194.31,3718.6 2171.41,3708.04 2162.61,3701 2159.09,3695.72 2148.53,3683.38 2146.77,3679.87 2145.01,3678.11 2143.25,3671.07 2141.49,3667.55 2136.21,3662.27 2127.42,3656.99 2122.14,3655.23 2111.58,3653.47 2101.02,3648.19 2093.98,3649.95 2072.84,3646.43 2067.56,3642.91 2064.04,3641.15 2058.77,3634.11 2057.01,3632.35 2051.73,3628.83 2041.17,3625.31 2030.61,3620.03 2004.19,3614.76 1998.91,3611.24 1997.15,3609.48 1995.39,3607.72 1995.39,3605.96 1993.63,3602.42 1991.87,3598.9 1988.36,3593.62 1981.32,3588.34 1976.04,3586.58 1961.96,3584.82 1954.92,3584.82 1949.64,3586.58 1942.6,3588.34 1924.98,3591.86 1916.19,3593.62 1912.67,3595.38 1909.15,3597.14 1905.63,3598.9 1903.87,3600.66 1891.55,3614.76 1889.79,3618.27 1886.27,3620.03 1880.99,3621.79 1877.47,3621.79 1872.19,3620.03 1868.67,3620.03 1861.63,3627.07 1854.59,3630.59 1849.32,3632.35 1842.26,3634.11 1836.98,3632.35 1824.66,3628.83 1821.14,3628.83 1819.38,3628.83 1815.86,3630.59 1810.58,3630.59 1761.29,3635.87 1733.13,3632.35 1729.61,3634.11 1720.81,3641.15 1719.05,3642.91 1719.05,3644.67 1717.29,3649.95 1717.29,3651.71 1717.29,3653.47 1715.53,3655.23 1712.02,3656.99 1704.98,3660.51 1701.46,3662.27 1699.7,3662.27 1699.7,3664.03 1697.94,3665.79 1697.94,3667.55 1697.94,3669.31 1699.7,3679.87 1699.7,3681.63 1697.94,3692.2 1696.18,3693.96 1696.18,3695.72 1692.66,3697.48 1692.66,3699.24 1687.38,3704.52 1682.08,3711.56 1680.32,3713.32 1678.56,3715.08 1673.28,3718.6 1671.52,3718.6 1668,3722.12 1662.72,3725.64 1653.92,3729.16 1652.16,3730.92 1652.16,3732.68 1650.4,3734.44 1650.4,3736.2 1650.4,3737.96 1652.16,3752.03 1652.16,3753.79 1652.16,3755.55 1652.16,3757.31 1650.4,3759.07 1613.45,3799.57 1608.17,3803.09 1599.35,3806.61 1595.83,3808.37 1571.2,3811.89 1564.16,3813.65 1553.6,3820.68 1495.51,3836.52 1491.99,3838.28 1490.23,3838.28 1488.47,3840.04 1488.47,3841.8 1486.71,3845.32 1481.43,3857.66 1477.91,3862.94 1476.15,3866.46 1476.15,3868.22 1474.39,3866.46 1474.39,3864.7 1474.39,3861.18 1474.39,3859.42 1476.15,3854.14 1476.15,3852.38 1476.15,3850.62 1476.15,3848.84 1474.39,3847.08 1470.87,3843.56 1469.11,3840.04 1469.11,3838.28 1467.35,3838.28 1465.59,3836.52 1458.55,3836.52 1456.79,3834.76 1455.03,3834.76 1449.75,3829.48 1446.23,3827.72 1440.95,3824.2 1439.2,3822.44 1432.14,3820.68 1430.38,3820.68 1430.38,3818.93 1428.62,3818.93 1428.62,3817.17 1428.62,3815.41 1428.62,3813.65 1428.62,3806.61 1428.62,3804.85 1426.86,3804.85 1426.86,3799.57 1418.06,3790.77 1416.3,3790.77 1414.54,3789.01 1403.98,3790.77 1400.46,3790.77 1389.9,3787.25 1386.38,3789.01 1381.1,3787.25 1375.82,3783.73 1370.55,3778.45 1367.03,3773.17 1365.27,3767.87 1363.51,3760.83 1363.51,3745 1363.51,3739.72 1363.51,3730.92 1363.51,3722.12 1359.99,3713.32 1354.69,3708.04 1345.89,3704.52 1340.61,3704.52 1331.81,3706.28 1321.25,3708.04 1308.93,3708.04 1294.86,3704.52 1284.3,3699.24 1270.2,3686.92 1264.92,3685.14 1252.6,3679.87 1249.08,3676.35 1238.52,3665.79 1235,3662.27 1231.49,3662.27 1226.21,3660.51 1222.69,3660.51 1215.65,3655.23 1210.37,3642.91 1206.85,3637.63 1203.33,3635.87 1198.05,3635.87 1194.53,3634.11 1191.01,3632.35 1185.71,3627.07 1182.19,3625.31 1178.67,3623.55 1166.35,3621.79 1154.04,3614.76 1147,3604.2 1145.24,3590.1 1145.24,3556.66 1143.48,3547.86 1139.96,3540.83 1138.2,3535.55 1134.68,3510.89 1132.92,3503.85 1127.64,3491.53 1124.12,3473.94 1122.36,3468.66 1124.12,3465.14 1127.64,3459.86 1127.64,3456.34 1127.64,3442.26 1118.84,3414.08 1118.84,3398.25 1120.6,3385.93 1127.64,3373.61 1162.84,3333.12 1166.35,3320.8 1159.32,3306.72 1161.08,3301.44 1168.11,3294.4 1169.87,3289.12 1168.11,3252.15 1164.59,3248.63 1148.76,3248.63 1147,3250.39 1141.72,3259.19 1139.96,3262.71 1131.16,3266.23 1124.12,3267.99 1097.7,3267.99 1030.83,3264.47 963.94,3262.71 895.29,3259.19 828.4,3257.43 761.51,3255.67 692.86,3252.15 625.99,3250.39 559.1,3246.87 534.45,3246.87 522.13,3243.35 515.09,3227.51 513.33,3185.26 511.57,3146.54 506.29,3091.97 499.25,3018.04 495.73,2963.49 492.21,2952.93 486.93,2945.87 455.26,2907.16 416.52,2859.62 391.89,2831.47 372.53,2813.87 441.16,2813.87 481.65,2812.11 483.41,2808.59 483.41,2783.96 481.65,2754.02 479.89,2724.1 478.13,2694.17 478.13,2664.25 476.37,2643.14 471.1,2634.34 455.26,2622.02 448.2,2609.68 460.54,2606.16 457.02,2592.08 446.44,2565.69 441.16,2542.81 437.64,2535.75 418.28,2519.91 414.76,2512.87 414.76,2504.08 416.52,2493.52 416.52,2484.72 411.24,2475.92 409.48,2470.64 409.48,2463.6 411.24,2454.78 413,2449.5 416.52,2447.74 425.32,2445.98 430.6,2440.71 434.12,2431.91 439.4,2414.31 442.92,2407.27 442.92,2405.51 441.16,2401.99 439.4,2401.99 435.88,2400.23 434.12,2396.71 435.88,2393.19 434.12,2391.43 427.08,2384.39 423.56,2382.63 420.04,2373.84 418.28,2365.02 414.76,2354.46 414.76,2345.66 413,2338.62 405.96,2335.1 379.57,2328.06 376.05,2326.3 374.29,2324.54 372.53,2321.02 370.77,2319.26 368.99,2317.5 360.19,2315.74 347.87,2308.7 323.24,2289.33 332.04,2277.01 346.11,2266.45 407.72,2224.22 435.88,2208.36 439.4,2204.84 442.92,2199.56 446.44,2192.52 448.2,2187.24 448.2,2176.68 451.72,2166.13 453.5,2153.81 455.26,2146.77 458.78,2137.97 481.65,2097.48 485.17,2090.44 485.17,2086.92 483.41,2076.36 483.41,2072.84 485.17,2067.56 488.69,2062.28 502.77,2048.2 506.29,2041.14 509.81,2037.62 516.85,2032.34 522.13,2030.59 525.65,2028.83 541.51,2025.31 546.78,2023.55 550.3,2021.79 553.82,2016.51 564.38,2002.43 566.14,1997.15 569.66,1990.11 571.42,1981.31 574.94,1963.71 578.46,1949.62 580.22,1944.34 583.74,1940.82 611.89,1909.14 634.79,1845.77 641.83,1831.69 641.83,1828.17 641.83,1824.66 636.55,1815.86 629.51,1801.78 620.71,1784.16 618.95,1778.88 618.95,1771.84 618.95,1731.37 618.95,1726.09 617.19,1720.81 603.1,1703.19 599.58,1689.11 592.54,1673.28 585.5,1653.92 581.98,1650.4 580.22,1648.64 576.7,1648.64 573.18,1648.64 566.14,1652.16 562.62,1652.16 559.1,1650.4 555.58,1645.12 552.06,1639.84 550.3,1631.02 548.54,1625.74 548.54,1609.91 548.54,1604.63 545.02,1595.83 543.26,1592.31 541.51,1560.63 543.26,1543.02 543.26,1539.5 545.02,1535.98 548.54,1532.46 571.42,1516.62 574.94,1511.34 580.22,1504.3 585.5,1499.02 587.26,1495.5 589.02,1486.7 590.78,1483.18 594.3,1479.67 597.82,1477.91 601.34,1476.15 604.86,1472.63 608.38,1469.09 610.14,1465.57 611.89,1462.05 610.14,1453.25 594.3,1421.57 590.78,1412.77 589.02,1405.74 589.02,1400.46 587.26,1393.42 581.98,1379.32 578.46,1374.04 574.94,1372.28 566.14,1370.52 559.1,1365.24 555.58,1363.48 552.06,1363.48 546.78,1365.24 543.26,1363.48 530.93,1359.96 527.41,1359.96 523.89,1361.72 520.37,1363.48 516.85,1365.24 511.57,1365.24 497.49,1359.96 492.21,1359.96 481.65,1351.16 476.37,1349.4 472.86,1349.4 469.34,1351.16 465.82,1352.92 455.26,1359.96 451.72,1361.72 448.2,1361.72 444.68,1359.96 425.32,1342.37 423.56,1337.09 423.56,1331.81 425.32,1328.29 425.32,1324.77 423.56,1323.01 59.22,1321.25 45.14,1317.73 39.84,1310.69 39.84,1305.39 45.14,1278.99 45.14,1273.72 45.14,1266.68 41.6,1252.6 41.6,1247.32 41.6,1242.04 45.14,1240.28 46.9,1242.04 48.66,1242.04 52.18,1242.04 55.7,1240.28 57.46,1235 59.22,1226.2 60.97,1220.9 59.22,1217.38 55.7,1215.62 52.18,1213.86 50.42,1213.86 48.66,1212.1 46.9,1208.58 48.66,1198.03 50.42,1183.95 53.94,1166.35 53.94,1141.69 57.46,1125.86 57.46,1118.82 57.46,1113.54 55.7,1108.26 53.94,1104.74 50.42,1101.22 43.38,1094.18 41.6,1090.66 25.76,1055.45 24,1051.93 25.76,1046.65 27.52,1034.33 29.28,1029.05 25.76,1023.77 24,1020.25 20.48,1014.97 20.48,1009.69 20.48,997.38 22.24,990.34 22.24,983.3 27.52,974.48 36.32,960.4 36.32,956.88 36.32,951.6 36.32,944.56 36.32,939.28 36.32,932.24 39.84,919.93 41.6,916.41 41.6,912.89 36.32,897.03 34.56,893.51 34.56,879.43 32.8,874.15 29.28,870.63 27.52,867.11 25.76,863.59 27.52,861.83 29.28,860.08 36.32,858.32 39.84,856.56 43.38,853.04 46.9,842.48 48.66,838.96 50.42,837.2 52.18,835.44 53.94,831.92 53.94,828.4 52.18,824.88 50.42,823.12 46.9,817.84 45.14,812.54 41.6,809.02 39.84,805.5 29.28,768.55 31.04,754.47 31.04,749.19 29.28,742.15 25.76,736.87 22.24,733.35 13.44,729.81 9.92,726.29 8.16,722.78 8.16,717.5 9.92,712.22 15.2,703.42 13.44,696.38 13.44,692.86 15.2,689.34 18.72,687.58 22.24,685.82 31.04,685.82 34.56,685.82 36.32,682.3 38.08,678.78 38.08,673.5 27.52,648.85 27.52,643.57 27.52,636.53 27.52,633.01 38.08,601.33 52.18,571.42 53.94,567.88 52.18,564.36 52.18,560.84 48.66,553.8 45.14,546.76 32.8,536.2 20.48,529.16 8.16,518.6 1095.94,511.57 1111.8,501.01 1118.84,495.73 1120.6,490.45 1127.64,467.55 1131.16,456.99 1138.2,444.68 1139.96,441.16 1139.96,437.64 1139.96,434.12 1136.44,427.08 1136.44,423.56 1132.92,398.9 1132.92,395.38 1132.92,391.86 1136.44,388.34 1145.24,381.3 1148.76,377.79 1150.52,374.27 1152.28,367.23 1157.56,353.15 1157.56,349.63 1162.84,342.59 1168.11,335.55 1169.87,332.03 1169.87,328.51 1168.11,324.99 1168.11,321.45 1168.11,317.93 1178.67,286.26 1180.43,280.98 1180.43,277.46 1180.43,273.94 1173.39,245.78 1166.35,228.17 1157.56,210.57 1157.56,207.05 1154.04,200.01 1154.04,192.97 1154.04,185.93 1154.04,182.41 1154.04,178.89 1155.8,175.37 1157.56,171.86 1162.84,164.82 1169.87,159.54 1180.43,152.48 1183.95,148.96 1192.77,129.6 1194.53,126.08 1205.09,115.52 1206.85,112 1208.61,108.48 1213.89,97.93 1215.65,94.41 1215.65,90.89 1215.65,85.61 1213.89,82.09 1210.37,75.03 1208.61,67.99 1208.61,66.23 1208.61,64.47 1208.61,57.43 1208.61,50.39 1210.37,46.87 1212.13,41.59 1212.13,38.07 1213.89,36.31 1224.45,27.52 1227.97,24 1235,13.44 "/>
   <polygon class="fil0 str0" points="5080.99,3160.62 4973.62,3160.62 4883.86,3160.62 4769.43,3160.62 4744.8,3157.1 4743.04,3155.34 4743.04,3153.58 4744.8,3151.82 4744.8,3146.54 4748.32,3141.26 4750.07,3134.22 4750.07,3130.71 4748.32,3125.43 4743.04,3123.67 4741.28,3121.91 4741.28,3120.15 4739.52,3109.57 4734.24,3086.69 4736,3083.17 4736,3081.41 4737.76,3079.65 4743.04,3077.89 4746.56,3076.13 4748.32,3072.61 4751.83,3070.85 4753.59,3067.33 4757.11,3060.3 4762.39,3047.98 4757.11,3042.7 4751.83,3039.18 4750.07,3035.66 4748.32,3032.14 4750.07,3019.8 4750.07,3016.28 4751.83,3014.52 4751.83,3012.76 4753.59,3012.76 4757.11,3011 4758.87,3005.72 4762.39,2972.29 4765.91,2963.49 4769.43,2958.21 4822.24,2958.21 4915.53,2958.21 5038.73,2961.73 5038.73,2963.49 5038.73,2968.77 5040.49,2972.29 5042.25,2975.81 5044.01,2977.57 5049.31,2979.33 5051.07,2981.09 5059.87,2986.37 5070.43,2989.89 5075.71,2993.41 5079.23,2995.16 5079.23,2996.92 5079.23,2998.68 5077.47,3003.96 5075.71,3007.48 5075.71,3023.32 5075.71,3028.6 5075.71,3030.38 5079.23,3035.66 5079.23,3039.18 5075.71,3056.78 5072.19,3069.09 5070.43,3074.37 5063.39,3083.17 5061.63,3091.97 5061.63,3104.29 5061.63,3106.05 5063.39,3111.33 5063.39,3114.87 5063.39,3121.91 5061.63,3132.47 5059.87,3135.98 5059.87,3139.5 5061.63,3141.26 5063.39,3144.78 5063.39,3146.54 5066.91,3148.3 5075.71,3153.58 5079.23,3155.34 "/>
  </g>
 </g>
</svg>
