<?xml version="1.0" encoding="UTF-8"?>
<!DOCTYPE svg PUBLIC "-//W3C//DTD SVG 1.1//EN" "http://www.w3.org/Graphics/SVG/1.1/DTD/svg11.dtd">
<!-- Creator: CorelDRAW -->
<svg xmlns="http://www.w3.org/2000/svg" xml:space="preserve" width="355.6mm" height="215.9mm" version="1.1" style="shape-rendering:geometricPrecision; text-rendering:geometricPrecision; image-rendering:optimizeQuality; fill-rule:evenodd; clip-rule:evenodd"
viewBox="0 0 35560 21590"
 xmlns:xlink="http://www.w3.org/1999/xlink"
 xmlns:xodm="http://www.corel.com/coreldraw/odm/2003">
 <defs>
  <style type="text/css">
   <![CDATA[
    .str0 {stroke:white;stroke-width:16.32;stroke-linejoin:round;stroke-miterlimit:22.9256}
    .fil0 {fill:#B9C281;fill-rule:nonzero}
   ]]>
  </style>
 </defs>
 <g id="Camada_x0020_1">
  <metadata id="CorelCorpID_0Corel-Layer"/>
  <g id="_2057180749968">
   <path class="fil0 str0" d="M30422.48 11835.78l6.96 12.18 179.26 114.87 -17.4 73.1 -6.96 59.17 1.74 81.8 6.96 69.62 6.96 55.69 0 50.47 -3.48 15.67 -27.85 69.62 -6.96 12.18 -8.7 6.96 -41.77 19.14 -19.15 15.67 -6.96 5.22 -19.14 48.73 -1.74 6.96 -3.48 6.97 -15.67 5.22 -5.22 5.22 6.96 0 1.74 5.22 -5.22 19.14 -3.48 1.74 -1.74 0 -3.48 1.74 -3.48 3.49 1.74 5.22 0 3.48 3.48 6.96 0 3.48 0 3.48 -3.48 8.7 -5.22 24.37 -1.74 1.74 -1.74 3.48 -6.96 17.41 -3.48 5.22 -3.49 3.48 -1.74 0 0 -1.74 -3.48 -3.48 -3.48 0 -3.48 1.74 -1.74 3.48 -1.74 1.74 -5.22 -3.48 1.74 -10.45 -1.74 -3.48 -5.22 -1.74 -6.96 0 -12.19 1.74 5.22 3.48 1.75 5.23 -1.75 3.48 -6.96 0 0 3.48 1.74 0 3.48 1.74 -3.48 6.96 1.74 8.7 5.23 1.74 8.7 -1.74 0 5.22 3.48 0 5.22 -6.96 6.96 -1.74 6.96 3.48 -5.22 3.48 -5.22 6.96 -3.48 6.97 -5.22 17.4 -6.96 15.66 -5.22 15.67 -15.67 26.1 -8.7 17.41 -5.22 5.22 -5.22 -5.22 -8.71 8.7 -3.48 3.48 -13.92 26.11 -3.48 3.48 -8.7 6.96 -1.74 3.48 -6.97 17.41 -8.7 1.74 -3.48 10.44 -3.48 1.74 -1.74 -3.48 -1.74 -3.48 -1.74 -5.22 -3.48 0 -3.48 1.74 -1.74 1.74 -12.19 6.96 -10.44 3.48 -5.22 3.48 -3.48 5.22 -1.74 5.22 -3.48 3.48 -1.74 5.23 -3.48 5.22 -5.22 5.22 -1.74 12.18 0 12.18 -1.74 8.71 -1.75 6.96 -5.22 3.48 -3.48 8.7 0 3.48 -1.74 5.22 -26.1 36.55 -10.45 17.41 -5.22 13.92 -5.22 -3.48 -1.74 -5.22 -1.74 -1.74 -1.74 -1.74 -15.66 -5.22 -3.49 0 -3.48 -3.49 -3.48 -1.74 -12.18 0 -24.37 5.23 -17.4 0 -8.7 1.74 -1.74 0 -3.48 0 -12.19 -5.23 -1.74 -1.74 -1.74 -1.74 -1.74 -1.74 -1.74 -1.74 -15.66 -3.48 -8.7 -1.74 -3.49 1.74 -3.48 0 -5.22 3.48 -1.74 1.74 -1.74 0 -1.74 -1.74 -6.96 -1.74 -1.74 -1.74 -6.96 -5.22 -5.22 -1.74 -1.74 0 -1.74 0 -1.75 0 -1.74 1.74 -1.74 0 -5.22 -1.74 -3.48 0 -1.74 -1.74 -1.74 0 -3.48 0 -3.48 -1.74 -5.22 -5.22 -6.96 -1.74 -3.48 -1.74 -8.71 -3.48 -1.74 0 -6.96 -6.97 -1.74 0 -3.48 -1.74 -1.74 0 -1.74 0 -1.74 0 -1.74 1.74 -1.74 0 -1.74 -1.74 0 -1.74 1.74 -1.74 -1.74 -1.74 -1.74 -1.74 -1.74 -1.74 0 -3.48 0 -3.48 0 -1.74 -1.74 -6.96 1.74 -1.74 0 -1.74 1.74 -1.74 0 -1.74 0 -3.48 0 -1.74 0 -3.49 1.74 -5.22 0 -1.74 0 -1.74 -1.74 -6.96 -1.74 -6.96 -1.74 -3.48 0 -3.48 1.74 -3.48 0 -3.48 0 -5.23 1.74 -1.74 0 -3.48 0 -1.74 -3.48 -1.74 -1.74 -1.74 -1.75 -1.74 0 -3.48 0 -5.22 0 -3.48 0 -1.74 -1.74 0 -1.74 -1.74 -1.74 -1.74 -19.14 -5.22 -19.15 -6.97 -5.22 -3.48 0 -1.74 -1.74 -3.48 1.74 -1.74 1.74 0 1.74 -3.48 3.48 -3.48 6.97 -17.4 1.74 -3.49 8.7 -10.44 0 -3.48 0 -1.74 -1.74 -1.74 -1.74 -1.74 -1.74 0 -1.74 1.74 -3.48 1.74 -1.74 0 -1.74 0 -1.75 0 0 -1.74 0 -1.74 5.23 -6.96 1.74 -3.48 5.22 -15.67 0 -1.74 1.74 -1.74 3.48 -1.74 1.74 -1.74 1.74 -1.74 0 -1.74 -3.48 -8.7 -1.74 -1.74 0 -10.44 5.22 -17.41 -12.18 -5.22 -1.74 -1.74 -1.74 -1.74 -1.74 -5.22 -1.74 -5.22 -1.75 -1.74 0 -3.49 0 -3.48 0 -1.74 1.75 -1.74 3.48 -3.48 1.74 -3.48 6.96 -3.48 10.44 -6.96 3.48 -1.74 1.74 -3.48 5.22 -17.41 0 -1.74 3.48 -3.48 1.74 -1.74 3.49 -1.74 5.22 -1.74 97.46 1.74 10.44 0 5.22 -3.48 5.23 -1.74 1.74 -1.74 1.74 -1.74 8.7 -20.89 0 -1.74 0 -3.48 0 -3.48 3.48 -12.18 6.96 -24.37 1.74 -5.22 0 -8.7 0 -5.22 1.74 -1.74 0 -1.74 3.48 -3.48 3.48 -5.22 1.74 -1.75 1.75 -1.74 1.74 0 1.74 0 1.74 0 3.48 0 1.74 0 3.48 -1.74 6.96 -8.7 1.74 -1.74 5.22 -3.48 1.74 -1.74 1.74 -1.74 1.74 -20.89 0 -5.22 0 -3.48 5.22 -36.55 1.75 -10.44 3.48 -3.48 1.74 0 10.44 -6.96 3.48 -1.74 1.74 -5.22 3.48 -3.48 1.74 -1.74 1.74 0 1.74 0 1.74 0 1.74 -1.75 10.45 -12.18 1.74 -3.48 0 -1.74 0 -1.74 -5.23 -10.44 -1.74 -1.74 0 -1.74 0 -1.74 1.74 -3.48 1.75 -1.75 1.74 0 6.96 5.23 1.74 0 1.74 0 3.48 1.74 1.74 -1.74 3.48 -1.74 3.48 -3.49 1.74 -3.48 1.74 -1.74 1.74 -1.74 0 -3.48 0 -1.74 0 -1.74 -1.74 -3.48 0 -3.48 1.74 -5.22 6.96 -19.15 1.74 -1.74 0 -3.48 0 -10.44 1.75 -10.44 0 -3.48 -1.75 -1.74 0 -1.74 -1.74 0 -1.74 -3.49 0 -3.48 1.74 -8.7 0 -10.44 0 -12.18 -1.74 -10.45 -1.74 -1.74 -5.22 -6.96 -1.74 -3.48 -17.4 -17.4 -1.74 -1.74 -3.48 0 -3.48 -1.74 -1.75 0 -1.74 -3.49 0 -1.74 0 -3.48 6.97 -12.18 1.74 -6.96 0 -1.74 -1.74 -1.74 -1.74 -1.74 -1.74 0 -3.49 -1.74 -1.74 0 0 -3.48 0 -3.49 1.74 -3.48 -1.74 -1.74 -5.22 -1.74 -1.74 -1.74 -1.74 0 0 -1.74 -3.48 -6.96 -1.74 0 -1.74 -1.74 -1.74 -1.74 -1.74 0 -3.48 0 -1.74 0 -1.74 0 -3.48 1.74 -1.74 1.74 -3.48 3.48 -1.74 0 -1.75 0 -1.74 0 -3.48 -1.74 -3.48 -1.74 -5.22 -1.74 -1.74 -1.74 0 -1.74 -3.48 -6.96 -5.22 -3.48 -1.74 -1.74 0 -1.74 0 -1.74 1.74 -1.74 0 -1.75 1.74 -3.48 1.74 -1.74 1.74 0 3.48 -1.74 3.48 -1.74 10.44 0 8.71 0 6.96 0 3.48 0 1.74 0 1.74 1.74 0 1.74 0 1.74 1.74 1.74 3.48 1.74 38.29 -1.74 6.96 -1.74 5.22 -1.74 1.74 0 3.48 -3.48 1.75 -1.74 0 -1.74 1.74 -3.48 1.74 -3.48 0 -1.74 0 -5.22 -3.48 -24.37 -1.75 -1.74 0 -1.74 -1.74 -1.74 0 -1.74 -1.74 -1.74 -1.74 0 -1.74 0 -19.14 -1.74 -3.48 0 -1.74 -1.74 -1.74 0 0 -1.74 -1.74 -1.74 0 -3.48 0 -1.74 3.48 -17.41 3.48 -19.14 1.74 -15.67 0 -10.44 1.74 -5.22 -1.74 -6.96 -1.74 -3.48 0 -1.74 -5.22 -6.96 -1.74 -1.74 -3.48 -3.49 -3.49 -1.74 -5.22 -3.48 -3.48 -1.74 -3.48 -1.74 -1.74 -3.48 -10.44 10.44 -5.22 3.48 -1.74 0 -3.48 -1.74 6.96 -13.92 0 -5.22 -3.48 -5.22 0 -3.48 -1.74 -5.22 1.74 -3.48 0 -1.75 8.7 -6.96 6.96 -8.7 6.96 -13.92 3.48 -5.22 1.74 -3.48 1.74 -1.74 3.48 0 6.97 0 1.74 0 1.74 0 22.62 -20.89 3.48 -3.48 3.48 -1.74 1.75 0 1.74 0 3.48 0 1.74 0 1.74 0 1.74 1.74 1.74 0 3.48 5.22 1.74 1.74 5.22 1.74 1.74 1.74 3.48 3.48 3.48 1.74 1.74 0 8.71 0 5.22 0 1.74 0 5.22 0 1.74 -1.74 0 -3.48 0 -6.96 -1.74 -3.48 0 -1.74 0 -3.48 -1.74 0 -46.99 -45.25 -1.74 -1.74 0 -1.74 0 -3.49 1.74 -1.74 1.74 0 1.74 0 3.48 3.49 1.74 1.74 1.74 0 1.74 1.74 3.48 0 3.48 -1.74 6.96 -1.74 1.74 0 1.74 0 1.74 0 1.74 1.74 3.49 1.74 1.74 1.74 1.74 0 1.74 0 1.74 0 5.22 -3.48 5.22 -1.74 5.22 -3.49 3.48 -1.74 1.74 0 1.74 0 10.45 3.48 5.22 0 3.48 1.75 5.22 -1.75 5.22 -3.48 15.66 -8.7 3.48 -3.48 5.23 0 12.18 -3.48 3.48 0 1.74 0 1.74 0 1.74 0 6.96 6.96 1.74 1.74 1.74 1.74 1.74 0 3.49 0 1.74 0 1.74 -1.74 1.74 -1.74 0 -1.74 -1.74 -6.96 0 -1.74 0 -3.48 3.48 -1.74 1.74 -1.74 1.74 0 0 1.74 1.74 3.48 0 1.74 1.74 1.74 1.74 0 17.4 5.22 3.48 3.48 1.74 0 6.97 0 1.74 0 1.74 1.74 0 1.74 1.74 1.74 1.74 1.74 1.74 1.74 1.74 0 3.48 0 1.74 0 5.22 0 1.74 0 1.74 0 1.74 1.74 1.74 0 0 1.74 3.48 1.75 1.74 1.74 1.74 0 6.97 3.48 3.48 1.74zm3809.8 967.68l-3.48 -8.71 0 -3.48 5.22 1.74 5.22 5.22 -3.48 0 0 1.74 -1.74 1.75 -1.74 1.74zm158.38 -24.37l0 -1.74 1.74 0 0 -1.74 0 1.74 0 1.74 -1.74 0z"/>
   <path class="fil0 str0" d="M25879.96 13602.31l10.44 -10.44 8.7 -10.44 20.89 -38.29 1.74 -1.74 3.48 -1.74 5.22 -1.74 3.48 -1.74 3.48 -3.48 5.22 -12.19 6.96 -10.44 1.74 -1.74 3.49 3.48 5.22 0 6.96 -3.48 26.11 -12.18 1.74 -1.74 3.48 -10.45 1.74 -1.74 1.74 -1.74 33.07 -19.14 10.44 -10.44 6.96 -3.49 19.14 -6.96 10.45 -10.44 6.96 -3.48 3.48 -1.74 6.96 0 3.48 -1.74 3.48 -1.74 8.71 -8.7 3.48 -1.74 8.7 -5.23 1.74 -1.74 6.96 -8.7 22.63 -20.88 1.74 -3.48 3.48 -10.45 0 -1.74 10.44 -22.62 1.74 -5.22 1.74 -12.19 1.74 -5.22 3.48 -5.22 17.41 -17.4 1.74 -1.74 6.96 -1.75 3.48 -3.48 3.48 -3.48 1.74 -3.48 3.48 -3.48 1.74 -5.22 0 -6.96 1.74 -5.22 10.44 -17.41 5.23 -3.48 12.18 -5.22 8.7 -6.96 6.96 -5.22 5.22 -6.96 1.74 -8.71 -1.74 -3.48 -1.74 -3.48 -5.22 -1.74 -15.66 -26.1 1.74 -10.45 1.74 -1.74 1.74 0 1.74 -1.74 1.74 -1.74 0 -1.74 0 -1.74 0 -1.74 1.74 -3.48 3.48 -1.74 1.74 -1.74 5.22 0 6.97 0 5.22 1.74 5.22 1.74 6.96 -3.48 5.22 -3.48 10.44 -17.41 1.74 -6.96 20.89 -22.62 6.96 -17.41 -1.74 -15.66 -6.96 -31.33 1.74 -10.44 3.48 -5.22 6.96 -3.48 8.7 -6.97 5.23 -3.48 1.74 -1.74 1.74 -1.74 6.96 -10.44 8.7 -22.63 3.48 -3.48 1.74 -1.74 6.96 -5.22 24.37 -27.85 3.48 -6.96 3.48 -40.03 0 -17.4 0 -8.7 8.7 -13.93 3.48 -17.4 1.74 -6.96 6.97 -5.22 17.4 -3.49 17.4 -19.14 8.71 -12.18 13.92 -17.41 5.22 -10.44 13.92 -13.92 5.23 -5.22 20.88 -10.45 46.99 -13.92 6.96 -5.22 10.45 -8.7 10.44 -12.19 8.7 -15.66 12.18 -31.33 15.67 -19.14 20.88 -17.41 6.97 -3.48 60.91 -22.62 8.7 -3.48 6.96 -3.49 26.11 -26.1 6.96 -13.93 12.19 -6.96 12.18 -3.48 12.18 0 10.44 3.48 8.71 8.7 12.18 15.67 8.7 5.22 113.13 15.66 46.99 6.97 118.35 0 17.4 3.48 31.33 10.44 6.96 5.22 24.37 -5.22 8.7 -1.74 6.96 1.74 6.97 3.48 3.48 3.48 -1.74 6.96 -12.19 5.22 -1.74 0 -1.74 1.74 -1.74 5.23 0 3.48 -3.48 10.44 0 8.7 3.48 17.41 1.74 6.96 8.7 17.4 8.71 12.18 5.22 13.93 3.48 5.22 12.18 5.22 12.18 -5.22 10.45 -10.44 6.96 -10.45 10.44 -26.1 10.44 -8.7 12.19 1.74 8.7 12.18 3.48 17.4 -1.74 34.81 1.74 29.59 3.48 3.48 15.66 6.96 5.23 3.48 10.44 -8.7 1.74 -3.48 -1.74 -5.22 -1.74 -10.44 -1.74 -5.23 0 -19.14 -1.74 -6.96 -1.74 -3.48 0 -3.48 5.22 -6.97 3.48 -10.44 3.48 -10.44 3.48 -8.7 8.7 -5.22 17.41 0 13.92 -1.74 5.22 0 20.89 3.48 6.96 1.74 5.22 -1.74 12.18 -8.71 6.96 -3.48 27.85 3.48 3.48 -1.74 3.48 -1.74 8.71 -1.74 15.66 -3.48 29.59 0 6.96 3.48 12.18 6.96 5.22 0 8.7 -8.7 -8.7 -26.1 6.96 -10.45 8.71 6.96 3.48 6.97 3.48 10.44 3.48 8.7 6.96 5.22 13.92 5.22 10.45 6.97 3.48 0 3.48 0 5.22 -3.49 1.74 -1.74 1.74 -3.48 1.74 -1.74 1.74 0 5.22 -1.74 1.74 -1.74 3.48 -6.96 1.74 -6.96 0 -17.41 5.23 1.74 3.48 1.75 3.48 3.48 3.48 5.22 0 3.48 0 5.22 1.74 3.48 1.74 5.22 3.48 1.74 3.48 0 3.48 0 3.48 -1.74 5.22 -3.48 3.48 -8.7 1.75 -8.7 0 -6.97 -3.49 -6.96 0 -3.48 3.49 -1.74 1.74 -3.48 3.48 -3.48 3.48 -1.74 45.25 -1.74 5.22 1.74 6.96 6.96 8.7 12.18 6.97 3.49 6.96 -1.75 5.22 -5.22 3.48 -5.22 3.48 -5.22 8.7 -1.74 8.7 -1.74 6.97 -1.74 8.7 -3.48 5.22 -3.48 3.48 3.48 6.96 5.22 1.74 1.74 1.74 3.48 0 3.48 -1.74 1.74 0 3.48 0 3.48 -1.74 1.74 0 1.75 8.7 8.7 5.23 3.48 3.48 1.74 5.22 0 24.36 17.4 3.48 5.22 13.93 10.45 3.48 8.7 3.48 6.96 0 6.96 0 1.74 0 3.48 -1.74 5.23 -1.74 3.48 0 1.74 -1.74 1.74 -5.22 5.22 -1.74 0 0 1.74 -1.74 3.48 0 6.96 -1.74 22.63 -1.74 8.7 0 5.22 -1.74 3.48 0 1.74 0 3.48 1.74 1.74 8.7 10.45 3.48 3.48 34.81 15.66 1.74 1.74 0 1.74 1.74 1.74 1.74 1.74 1.74 3.48 8.7 31.33 0 1.74 0 6.96 -1.74 3.48 0 3.48 -3.48 3.49 -1.74 1.74 -3.48 1.74 -3.48 0 -1.74 1.74 -1.74 1.74 -1.74 8.7 0 3.48 -1.74 5.22 -3.49 6.96 -1.74 1.74 -1.74 1.74 -5.22 3.48 -3.48 6.97 -1.74 27.84 -3.48 6.96 1.74 3.49 0 1.74 3.48 3.48 1.74 1.74 3.48 0 1.74 0 1.74 1.74 3.48 3.48 3.49 6.96 3.48 3.48 3.48 3.48 1.74 1.74 -1.74 1.74 -1.74 3.48 0 1.74 0 1.74 0 3.49 6.96 24.36 0 3.48 0 10.44 1.74 1.75 1.74 3.48 15.66 20.88 3.48 1.74 1.74 1.74 3.49 0 0 3.48 3.48 10.45 5.22 15.66 1.74 3.48 1.74 8.7 1.74 3.48 6.96 10.45 0 1.74 0 1.74 1.74 3.48 -1.74 1.74 -1.74 8.7 0 1.74 0 1.74 0 1.74 3.48 1.74 5.22 1.74 27.85 -3.48 1.74 0 1.74 0 1.74 -1.74 3.48 -1.74 1.74 -1.74 1.74 0 3.48 0 1.74 -1.74 1.74 0 1.74 -1.74 1.74 -1.74 1.75 -3.48 0 -1.74 1.74 0 1.74 -1.74 10.44 1.74 3.48 -1.74 1.74 0 1.74 1.74 8.7 1.74 8.7 5.22 6.97 5.22 1.74 0 1.74 1.74 1.74 -1.74 1.74 0 3.48 -5.22 3.48 -3.48 1.74 0 1.74 0 1.74 0 0 6.96 1.74 3.48 1.74 1.74 5.22 1.74 1.74 0 1.74 3.48 0 1.74 1.74 3.48 1.75 0 1.74 0 1.74 0 3.48 0 1.74 -1.74 1.74 0 3.48 0 3.48 1.74 5.22 1.74 1.74 0 1.74 1.74 1.74 1.75 1.74 1.74 1.74 1.74 0 1.74 1.74 17.4 1.74 1.74 0 3.48 1.74 0 0 1.74 -1.74 1.74 -3.48 3.48 -1.74 0 0 1.74 -1.74 3.49 -1.74 5.22 0 10.44 1.74 1.74 0 1.74 -1.74 1.74 -3.48 3.48 -1.74 0 0 1.74 -1.74 1.74 -6.96 19.15 -1.74 1.74 -1.74 1.74 -1.74 0 -8.71 -1.74 -1.74 0 -1.74 3.48 -6.96 29.59 0 5.22 -1.74 1.74 -6.96 3.48 -1.74 3.48 -1.74 1.74 -1.74 1.74 0 1.74 0 3.48 1.74 5.22 1.74 1.74 1.74 1.74 1.74 0 0 1.74 1.74 1.74 0 1.74 0 1.74 -1.74 3.49 -3.48 3.48 0 1.74 0 3.48 8.7 20.88 6.96 10.45 0 1.74 -1.74 1.74 -1.74 3.48 -3.48 1.74 -1.74 0 -1.74 0 -1.74 0 -1.74 0 -1.74 1.74 -1.74 3.48 -1.74 1.74 0 1.74 1.74 3.48 1.74 1.74 0 1.74 -1.74 1.74 -1.74 1.74 -6.96 0 -1.74 1.74 -1.74 1.74 1.74 1.74 1.74 3.48 1.74 1.75 1.74 1.74 3.48 0 10.44 0 1.74 1.74 1.74 0 1.74 1.74 8.7 12.18 0 1.74 -1.74 3.48 -8.7 8.7 -5.22 3.48 -6.96 10.45 -12.18 29.58 -1.74 8.71 1.74 3.48 1.74 1.74 12.18 13.92 0 3.48 1.74 1.74 -1.74 6.96 0 3.48 3.48 1.74 3.48 3.49 17.41 6.96 12.18 1.74 1.74 0 1.74 1.74 0 3.48 0 5.22 0 3.48 1.74 1.74 1.74 1.74 6.96 0 6.96 3.48 15.67 10.45 3.48 1.74 6.96 1.74 5.22 0 5.22 0 1.74 0 0 1.74 -1.74 3.48 0 1.74 -1.74 1.74 -3.48 1.74 -1.74 0 -1.74 3.48 0 1.74 0 5.22 1.74 3.48 1.74 1.74 5.22 6.96 0 1.74 -1.74 3.49 -1.74 1.74 -1.74 1.74 -17.4 5.22 -3.48 3.48 -1.74 0 0 1.74 -1.74 1.74 1.74 3.48 0 1.74 10.44 6.96 5.22 5.22 20.88 12.19 3.49 3.48 1.74 3.48 -3.48 5.22 0 1.74 0 1.74 0 8.7 0 3.48 0 5.23 1.74 3.48 1.74 5.22 1.74 1.74 1.74 1.74 1.74 0 3.48 1.74 6.96 0 3.48 1.74 3.48 1.74 3.48 0 3.48 0 1.74 -1.74 1.74 -1.74 1.74 -1.74 1.75 0 1.74 1.74 3.48 1.74 1.74 0 3.48 -1.74 3.48 -1.74 1.74 -1.74 1.74 -1.74 1.74 0 1.74 -1.74 12.18 -1.74 1.74 0 1.74 1.74 1.74 1.74 0 1.74 0 1.74 -1.74 1.74 -1.74 1.74 0 1.74 0 1.74 1.74 1.74 6.97 1.74 27.84 -5.22 8.7 -1.74 3.49 -1.74 3.48 -1.74 3.48 -1.74 3.48 -3.48 0 -1.74 3.48 -3.48 0 -1.74 3.48 0 3.48 0 3.48 1.74 1.74 0 1.74 -1.74 3.48 -3.49 0 -1.74 1.74 -1.74 3.48 1.74 0 1.74 1.75 3.49 1.74 1.74 0 1.74 3.48 1.74 3.48 1.74 3.48 3.48 3.48 0 1.74 -3.48 1.74 -1.74 3.48 -5.22 3.48 -1.75 1.74 -1.74 3.48 0 1.74 1.74 0 1.75 1.74 1.74 0 1.74 1.74 1.74 1.74 0 1.75 0 1.74 0 3.48 -3.48 0 -1.74 1.74 -3.49 0 -1.74 -1.74 -1.74 0 -1.74 0 -1.74 -1.74 -3.48 1.74 -1.74 0 -1.74 1.74 0 3.48 0 3.48 1.74 1.74 1.74 1.74 -1.74 1.74 -3.48 1.74 -1.74 0 -6.96 0 -3.48 0 -3.48 0 -1.74 0 -1.74 -1.74 -1.74 -1.74 -1.75 -1.74 0 -1.74 0 -5.22 0 -8.7 0 -1.75 0 -1.74 0 -1.74 -1.74 -1.74 0 0 -1.74 0 -3.48 0 -1.74 1.74 0 29.59 -19.14 1.74 -1.74 1.74 -3.48 -1.74 -1.74 0 -1.74 0 -1.74 -5.22 -5.23 -1.74 -1.74 0 -1.74 -1.74 -1.74 3.48 -3.48 6.96 0 13.93 -1.74 5.22 0 1.74 1.74 -1.74 1.74 -1.74 3.48 -1.74 3.48 -3.49 3.48 -1.74 1.75 -1.74 1.74 0 1.74 0 3.48 1.74 1.74 1.74 0 1.75 1.74 1.74 0 1.74 0 3.48 0 3.48 -1.74 8.7 -5.22 6.96 -5.23 1.74 0 1.74 0 1.74 0 1.74 1.75 0 1.74 0 1.74 1.74 1.74 0 1.74 1.74 1.74 12.19 1.74 3.48 0 3.48 -1.74 6.96 -5.22 3.48 -1.74 1.74 -1.74 5.22 -8.71 1.74 -1.74 1.74 0 3.49 0 1.74 1.74 1.74 0 3.48 3.48 0 1.74 1.74 1.74 0 1.75 0 5.22 0 1.74 1.74 1.74 1.74 1.74 1.74 0 3.48 -1.74 15.66 -8.7 26.11 -6.97 1.74 -1.74 3.48 -1.74 1.74 -3.48 0 -1.74 0 -5.22 0 -1.74 1.74 0 3.48 0 3.48 0 1.74 -1.74 5.23 -5.22 6.96 -5.22 1.74 -1.74 19.14 -10.45 3.48 -3.48 20.89 -8.7 3.48 -1.74 6.96 1.74 3.48 0 3.48 -1.74 5.22 -3.48 3.48 -1.74 3.49 0 10.44 0 5.22 0 1.74 0 8.7 -3.48 22.63 -12.18 5.22 0 5.22 0 10.44 5.22 5.22 3.48 3.48 3.48 1.75 3.48 8.7 17.4 1.74 3.48 3.48 3.48 5.22 3.49 5.22 6.96 1.74 1.74 0 1.74 1.74 1.74 1.74 0 3.48 0 0 1.74 3.48 12.18 0 1.74 1.74 1.74 1.75 1.74 8.7 3.48 1.74 0 3.48 0 5.22 0 1.74 -1.74 3.48 0 1.74 0 5.22 3.48 3.48 1.75 1.74 0 5.23 0 3.48 -1.75 1.74 0 0 -1.74 1.74 0 1.74 0 15.66 -1.74 1.74 0 1.74 -1.74 1.74 -1.74 3.48 0 6.97 0 3.48 -1.74 1.74 0 1.74 -3.48 1.74 -1.74 1.74 1.74 3.48 3.48 1.74 1.74 5.22 0 3.48 -1.74 5.22 -1.74 8.7 0 12.19 1.74 5.22 0 1.74 0 1.74 -1.74 1.74 0 1.74 -1.74 0 1.74 5.22 6.96 5.22 8.71 6.96 12.18 1.75 3.48 0 3.48 0 1.74 0 1.74 -1.75 1.74 -1.74 1.74 -3.48 1.74 -1.74 0 -5.22 1.74 -3.48 1.74 -3.48 1.74 -8.7 10.45 -1.74 3.48 1.74 3.48 0 1.74 0 1.74 0 3.48 -5.22 10.44 -1.74 1.74 -1.74 1.74 -12.19 3.48 -17.4 10.45 -5.22 1.74 -1.74 0 -3.48 -1.74 -1.74 -1.74 -1.74 0 -10.45 5.22 -3.48 0 -3.48 1.74 -1.74 -1.74 -1.74 0 0 -1.74 -1.74 -1.74 0 -1.74 -1.74 -1.74 -1.74 0 -19.15 12.18 -5.22 1.74 -1.74 0 -5.22 -3.48 -1.74 0 -3.48 0 -1.74 0 -1.74 0 -8.7 5.22 -12.19 8.7 -6.96 3.48 -3.48 1.74 -12.18 1.74 -1.74 0 -1.74 1.74 -1.74 0 -3.48 3.49 -1.74 1.74 -3.49 8.7 -1.74 1.74 -3.48 0 -1.74 1.74 -6.96 0 -1.74 1.74 0 1.74 0 3.48 0 1.74 0 5.22 0 1.74 -3.48 20.89 0 6.96 0 5.22 0 3.48 0 3.48 0 3.48 -3.48 6.97 -3.48 3.48 -1.74 1.74 -1.74 0 -3.48 3.48 -6.97 10.44 0 3.48 0 1.74 0 1.74 0 1.74 1.75 3.48 8.7 13.93 5.22 8.7 1.74 1.74 3.48 0 1.74 -1.74 0 -1.74 1.74 0 3.48 1.74 1.74 3.48 3.48 6.96 3.48 3.48 10.45 6.96 -1.74 5.22 -5.23 1.75 -5.22 1.74 -6.96 1.74 -5.22 -1.74 -5.22 1.74 -5.22 3.48 -5.22 0 -1.74 -3.48 -1.74 -3.48 -1.74 -3.49 -3.49 0 -3.48 0 -1.74 0 -5.22 1.74 1.74 -8.7 -8.7 3.48 -12.18 6.97 -3.48 3.48 -1.74 1.74 -3.48 5.22 -1.75 1.74 -1.74 0 -5.22 1.74 -1.74 0 -6.96 3.48 -3.48 0 -1.74 -3.48 -3.48 8.7 5.22 3.48 5.22 3.48 5.22 5.22 -8.7 0 -6.96 5.23 -6.96 15.66 -3.48 -6.96 -3.48 -1.74 -1.75 1.74 1.75 6.96 -3.49 0 -3.48 -1.74 -5.22 -3.48 -3.48 -3.48 -3.48 -1.74 -1.74 5.22 0 5.22 1.74 5.22 -6.96 1.74 -5.22 -1.74 -6.96 -1.74 -5.23 6.96 5.23 6.96 0 5.22 -3.49 1.74 -3.48 0 -10.44 5.23 -5.22 -1.74 -5.22 -5.23 -3.48 -1.74 -3.48 1.74 -3.48 3.49 -3.48 3.48 -1.75 1.74 -8.7 3.48 -6.96 3.48 -6.96 3.48 -8.7 -1.74 0 3.48 -5.22 5.22 -1.74 3.48 0 5.22 1.74 8.71 1.74 3.48 0 5.22 3.48 1.74 3.48 0 1.74 1.74 0 5.22 -1.74 8.7 0 3.48 3.48 6.96 0 6.97 -3.48 6.96 -6.96 5.22 -5.22 0 -3.49 -1.74 -1.74 -1.74 -3.48 0 -5.22 1.74 -6.96 3.48 -3.48 0 -6.96 -3.48 -8.7 -10.44 -6.97 -1.74 -12.18 1.74 -3.48 0 -1.74 0 -1.74 -3.48 -1.74 0 -6.96 -1.75 0 1.75 -22.63 -8.71 -22.62 0 -3.49 -1.74 -8.7 -3.48 -1.74 0 -15.66 0 -31.33 8.7 -12.18 5.23 -5.22 3.48 -5.23 3.48 -1.74 6.96 -3.48 0 -8.7 -1.74 -6.96 1.74 -6.96 3.48 -12.18 5.22 -1.75 0 0 -1.74 -1.74 0 -5.22 8.7 -6.96 8.7 -8.7 5.23 -10.44 3.48 0 1.74 6.96 0 5.22 -1.74 5.22 -3.48 13.92 -13.93 5.23 -1.74 6.96 0 -13.93 15.67 -3.48 5.22 -1.74 6.96 -1.74 6.96 0 6.96 1.74 3.48 -3.48 3.48 -3.48 1.74 -5.22 -1.74 0 -1.74 -3.48 -3.48 -3.48 1.74 -5.22 1.74 -6.97 3.48 -5.22 5.23 -6.96 5.22 -10.44 -3.48 3.48 -5.23 8.7 -3.48 1.74 -3.48 0 -5.22 -1.74 -5.22 -3.48 -3.48 -1.74 -3.48 0 -5.22 -3.48 -3.48 -3.48 -1.74 -10.44 -1.74 -3.48 -1.74 -1.74 -1.74 1.74 -3.49 0 -3.48 -10.45 -1.74 0 5.22 0 6.97 -3.48 3.48 -3.48 0 -1.74 3.48 1.74 3.48 -8.7 0 -6.96 -1.74 1.74 3.48 1.74 3.48 3.48 0 1.74 1.74 0 1.74 3.48 8.7 1.74 1.74 3.48 0 5.22 0 3.48 1.74 1.74 1.74 0 8.71 -1.74 3.48 -3.48 1.74 0 -1.74 -1.74 -3.48 -1.74 0 -3.48 -1.74 -20.88 12.18 -43.51 19.14 -53.96 33.07 -38.29 19.15 -29.58 17.4 -10.45 10.44 -6.96 12.19 -3.48 13.92 -3.48 1.74 0 1.74 3.48 8.7 0 3.48 -5.22 5.22 -6.96 3.49 -5.22 -1.74 -1.74 -6.97 -6.97 15.67 -3.48 1.74 -5.22 1.74 -8.7 10.44 -5.22 1.74 -15.67 17.41 -90.5 55.69 -5.22 -1.74 -5.22 1.74 -8.7 5.22 -8.7 -1.74 -3.49 0 -3.48 5.22 -6.96 3.48 -8.7 8.7 -17.4 8.71 -67.88 53.95 -5.22 5.22 -8.7 12.18 -1.75 1.74 -1.74 1.75 -3.48 1.74 -1.74 3.48 -13.92 27.84 -10.44 5.22 -17.41 -1.74 3.48 -6.96 5.22 0 5.23 0 3.48 -1.74 0 -3.48 -3.48 -1.74 -15.67 1.74 -1.74 0 -1.74 3.48 1.74 5.22 -1.74 3.48 -3.48 1.74 -3.48 -1.74 -1.74 -3.48 0 6.96 6.96 3.49 8.7 3.48 6.96 0 8.71 3.48 3.48 0 5.22 -1.74 3.48 -3.48 3.48 -3.48 5.22 0 5.22 0 -12.18 38.28 -10.44 17.41 -17.41 5.22 -6.96 3.48 -15.66 20.89 -3.48 5.22 -1.74 6.96 0 -5.22 1.74 -3.48 3.48 -5.22 8.7 -12.19 3.48 -5.22 -1.74 -3.48 -1.74 0 -1.74 0 -3.48 0 0 1.74 -1.74 0 -1.74 1.74 -1.74 1.74 0 1.74 -3.48 0 -1.74 0 -1.74 0 -20.89 -5.22 -1.74 -1.74 -3.48 -1.74 -5.22 -3.48 -1.74 -3.48 0 -3.48 0 -1.74 1.74 -3.48 -1.74 -5.22 0 -5.23 -6.96 -19.14 0 -1.74 -1.74 -8.7 -6.97 -22.63 -12.18 8.7 -1.74 0 -1.74 0 -1.74 -3.48 0 -1.74 0 -1.74 -3.48 -1.74 -3.48 0 -6.96 1.74 -3.48 -1.74 -1.75 0 -1.74 -1.74 0 -1.74 0 -1.74 0 -1.74 -1.74 -1.74 -1.74 -1.74 -1.74 -1.74 -1.74 -1.74 -3.48 0 -6.96 -1.74 -3.48 0 -5.22 -5.22 -1.74 0 -1.74 0 0 3.48 -1.74 1.74 -6.96 3.48 -3.49 1.74 0 1.74 -1.74 1.74 0 1.74 0 3.48 1.74 5.22 0 3.48 -1.74 1.74 0 1.74 -1.74 1.74 -3.48 1.74 -1.74 1.74 0 1.75 -1.74 1.74 -1.74 3.48 0 1.74 -1.74 3.48 -1.74 0 -3.48 0 -10.44 -5.22 -8.71 -5.22 -1.74 -1.75 0 -1.74 -5.22 -12.18 -1.74 -3.48 0 -1.74 0 -1.74 1.74 -1.74 6.96 -3.48 0 -1.74 1.75 -1.74 1.74 -3.48 0 -8.71 -1.74 -12.18 1.74 -5.22 0 -1.74 3.48 -3.48 3.48 -3.48 -1.74 -3.48 0 -3.48 -1.74 -10.45 0 -5.22 1.74 -3.48 3.48 -1.74 6.96 -3.48 1.74 -3.48 1.74 -3.48 5.22 -8.7 0 -3.48 0 -3.49 -1.74 0 -19.14 -6.96 -1.74 -1.74 -1.74 0 -1.74 -1.74 -1.75 -3.48 0 -1.74 -1.74 -1.74 -1.74 -1.74 -1.74 -1.74 -1.74 -1.74 -1.74 0 -3.48 0 -1.74 0 -1.74 0 -6.96 3.48 -3.48 3.48 -1.74 1.74 -1.74 1.74 -3.48 0 -1.74 -1.74 0 -3.48 -3.48 -6.96 -3.49 0 -1.74 3.48 -5.22 1.74 -12.18 1.74 -1.74 0 -5.22 -1.74 -1.74 0 -1.74 1.74 -1.74 1.74 -1.74 0 -5.22 -5.22 -5.23 -5.22 -6.96 -3.48 -6.96 0 0 1.74 1.74 1.74 -8.7 0 -27.85 1.74 -10.44 -1.74 -8.7 -12.18 -8.71 -1.75 1.75 12.19 -10.45 6.96 -12.18 1.74 -19.15 -3.48 -8.7 0 -5.22 5.22 -5.22 0 -6.96 -1.74 -22.63 -6.96 -5.22 -1.74 0 -1.74 -1.74 -1.74 0 -1.74 0 -5.22 0 -1.75 1.74 -12.18 0 -1.74 -1.74 -1.74 -5.22 -10.44 0 -1.74 0 -3.48 0 -1.74 0 -1.74 0 -1.74 1.74 -3.48 10.44 0 1.74 -3.49 0 -1.74 0 -1.74 0 -5.22 1.74 -10.44 -6.96 -5.22 0 -1.74 0 -1.74 0 -1.74 1.74 -1.74 1.74 0 10.45 -3.48 1.74 -1.74 3.48 -3.49 0 -1.74 0 -1.74 -3.48 -3.48 0 -3.48 0 -1.74 1.74 -1.74 1.74 0 1.74 -3.48 3.48 -3.48 0 -5.22 0 -1.74 -1.74 -1.74 -1.74 -1.74 -1.74 -1.74 -1.74 0 -1.74 -1.74 -1.74 0 -3.49 -3.49 -1.74 0 -1.74 -1.74 -3.48 -1.74 -1.74 -5.22 -5.22 -15.66 -1.74 -3.48 0 -1.74 -3.48 -1.74 -1.74 0 -1.74 -1.74 -3.48 -3.48 0 -1.74 0 -1.74 1.74 -5.23 0 -5.22 0 -13.92 0 -3.48 -1.74 -3.48 -1.74 -1.74 -3.48 -5.22 -1.74 -1.74 -1.74 -1.75 -3.48 -1.74 -1.75 0 -6.96 -3.48 -3.48 0 -1.74 -1.74 -1.74 -3.48 -1.74 -3.48 -1.74 -1.74 -1.74 -1.74 -3.48 -1.74 -1.74 -1.74 -1.74 0 -3.48 -6.96 -5.22 -6.96 -6.97 -8.71 -1.74 -5.22 -1.74 -3.48 0 -3.48 -1.74 -1.74 -1.74 -1.74 1.74 -5.22 -1.74 -1.74 -1.74 0 -1.74 1.74 -1.74 0 -1.74 0 -5.22 -3.48 -5.22 -10.44 -1.74 -1.74 -3.48 0 -1.74 -1.75 -1.74 -1.74 -1.74 -1.74 -1.74 -6.96 0 -1.74 0 -3.48 1.74 0 5.22 -1.74 1.74 0 0 -1.74 1.74 -3.48 1.74 -3.48 0 -5.22 1.74 -17.41 3.48 -20.88 -1.74 -3.48 0 -1.74 -3.48 -1.74 -3.48 -5.23 -3.48 -3.48 -6.96 -10.44 -5.23 -10.44 -1.74 -6.96 0 -15.67 -1.74 -5.22 0 -3.48 -1.74 -1.74 -5.22 -3.48 -1.74 -1.74 0 -3.48 1.74 -1.74 0 -1.74 0 -1.74 1.74 -1.74 1.74 -5.22 8.7 -24.37 0 -6.96 -1.74 -17.41 -6.96 -33.07 -10.44 -24.36 -8.7 -13.92 -8.7 -6.97 -1.75 -1.74 0 -3.48 0 -3.48 -1.74 -5.22 -1.74 -1.74 -1.74 -1.74 -1.74 0 -5.22 0 -1.74 1.74 -1.74 -1.74 -8.7 -3.48 -1.74 -1.74 -10.44 -5.22 -3.49 -1.74 -10.44 -1.74 -3.48 0 -5.22 -3.48 -5.22 -5.23 -1.74 -3.48 1.74 -10.44 -1.74 -5.22 -5.22 -3.48 -10.45 -5.22 -3.48 -3.48 0 -10.45 0 -5.22 -3.48 -3.48 -3.48 -1.74 -3.48 1.74 0 6.96 -6.96 -3.48 -3.48 0 -24.37 6.96 -3.48 1.74 -6.96 1.74 -27.85 3.49 -10.44 -1.74 -3.48 -1.75 -5.22 -1.74 -5.22 0 -3.48 3.49 -1.74 3.48 -5.23 0 -5.22 -3.48 -5.22 -1.75 -6.96 -6.96 -3.48 -1.74 -6.96 -1.74 -5.22 1.74 -3.48 3.48 -6.97 8.71 -3.48 -1.74 -20.88 1.74 -3.48 -1.74 -1.74 0 -1.74 -1.75 -1.74 0 -6.97 -3.48 -29.58 -3.48 -8.71 0 -6.96 1.74 -8.7 5.22 -3.48 1.75 -5.22 3.48 -8.7 0 -5.22 0 -5.23 -1.74 -3.48 -1.74 -1.74 -3.49 -1.74 -3.48 -3.48 -10.44 -3.48 -5.22 -13.92 -19.14 -3.48 -1.75 -5.23 -3.48 -41.77 -10.44 -38.28 -10.44 -24.37 -10.44 -29.59 -19.15 -8.7 -3.48 -8.7 -5.22 -6.96 -3.48 -5.23 -1.74 -1.74 0 -3.48 0 -1.74 0 -3.48 1.74 -3.48 0 -3.48 0 -6.96 0 -3.48 0 -3.48 0 -1.74 1.74 -6.97 5.22 -1.74 0 -1.74 1.74 -5.22 1.74 -6.96 1.74 -13.92 -1.74 -6.96 0 -6.97 -3.48 -12.18 -5.22 -6.96 -3.48 -6.96 0 -6.96 3.48 -5.23 1.74 -6.96 -6.96 -10.44 -10.45 -6.96 -3.48 -22.63 3.48 -8.7 -1.74 -6.96 -1.74 -38.29 -22.62 -13.92 -6.96 -15.67 -3.48 -6.96 0 -10.44 1.74 -6.96 5.22 -3.48 6.96 -1.75 6.96 -3.48 10.44 -3.48 6.97 -6.96 5.22 -8.7 1.74 -3.48 -3.48 -1.74 -5.23 -3.48 -3.48 -1.74 0 -1.74 -1.74 -3.48 -1.74 -5.23 -1.74 -3.48 1.74 -8.7 6.96 -8.7 0 -15.66 -5.22 -8.71 0 -13.92 -1.74 -5.22 1.74 -6.96 1.74 -13.93 1.74 -10.44 -6.96 -10.44 -8.7 -12.19 -1.74 -19.14 12.18 -8.7 1.74 -34.81 -6.96 -15.66 1.74 -5.23 -1.74 -8.7 -5.22 -5.22 -1.74 -19.14 0 -6.97 3.48 -8.7 5.22 -5.22 3.48 -17.4 12.19 -17.41 17.4 -3.48 3.48 -12.18 3.48 -5.22 1.74zm1980.61 765.79l3.48 0 6.96 0 3.48 -1.74 5.22 -3.48 3.48 0 0 1.74 -15.66 12.18 -12.19 3.48 -6.96 3.49 -81.8 69.61 -13.92 6.96 -5.22 6.97 -6.96 12.18 -6.97 13.92 -3.48 5.22 -5.22 -1.74 1.74 -6.96 5.22 -13.92 1.74 -6.96 1.74 -1.74 13.93 -17.41 40.03 -33.07 15.66 -6.96 20.89 -20.88 19.14 -6.97 8.7 -10.44 6.97 -3.48zm415.96 -297.61l3.48 0 0 1.74 0 1.74 0 1.74 5.22 6.96 3.48 6.96 0 5.22 -17.4 -8.7 -3.48 0 -5.23 5.22 -1.74 -1.74 -6.96 0 -1.74 -1.74 -1.74 -1.74 -6.96 -8.7 5.22 -1.74 1.74 0 3.48 1.74 1.74 -1.74 0 -1.74 0 -3.48 -1.74 -3.48 3.48 0 12.19 3.48 6.96 0zm389.85 -8.7l-3.48 1.74 0 1.74 1.74 5.22 0 5.22 1.74 1.74 0 1.74 -3.48 3.48 -1.74 0 -3.48 3.48 -1.74 -1.74 -1.74 -1.74 -1.74 0 -1.74 0 -3.48 -5.22 -3.48 -8.7 -3.48 -5.22 -5.22 3.48 -1.74 -1.74 -12.19 5.22 -13.92 3.48 -12.18 0 -10.45 -8.7 -1.74 -8.71 1.74 -5.22 5.23 -3.48 5.22 -3.48 22.62 -22.62 3.48 -6.97 1.74 -12.18 1.74 -1.74 1.74 -3.48 1.74 -1.74 0 -3.48 3.49 -1.74 1.74 0 5.22 1.74 3.48 1.74 17.4 12.18 3.48 5.22 -3.48 27.85 -10.44 -3.48 -1.74 12.18 5.22 10.45 12.18 -1.75 1.74 3.49 0 1.74z"/>
   <polygon class="fil0 str0" points="26640.52,12624.19 26637.04,12596.34 26637.04,12549.35 26630.08,12493.66 26630.08,12483.22 26631.82,12472.77 26640.52,12462.33 26642.27,12453.63 26642.27,12432.74 26642.27,12429.26 26644.01,12427.52 26647.49,12425.78 26654.45,12425.78 26656.19,12424.04 26661.41,12417.08 26659.67,12411.86 26654.45,12404.9 26650.97,12397.94 26652.71,12389.23 26656.19,12384.01 26661.41,12382.27 26668.37,12384.01 26671.85,12385.75 26677.07,12390.97 26680.55,12392.71 26682.3,12394.45 26684.04,12394.45 26685.78,12392.71 26689.26,12389.23 26691,12389.23 26696.22,12385.75 26691,12378.79 26680.55,12366.61 26680.55,12359.65 26689.26,12347.46 26691,12338.76 26691,12330.06 26694.48,12323.1 26697.96,12316.14 26704.92,12310.91 26717.1,12302.21 26724.07,12296.99 26725.81,12291.77 26727.55,12281.33 26732.77,12276.11 26737.99,12274.37 26744.95,12269.14 26753.65,12258.7 26760.61,12255.22 26774.54,12260.44 26783.24,12260.44 26791.94,12256.96 26798.9,12253.48 26802.38,12248.26 26811.09,12234.34 26814.57,12230.85 26816.31,12230.85 26816.31,12227.37 26818.05,12223.89 26818.05,12220.41 26819.79,12218.67 26818.05,12215.19 26818.05,12208.23 26816.31,12203.01 26812.83,12197.79 26812.83,12196.05 26812.83,12194.31 26812.83,12192.56 26812.83,12190.82 26812.83,12187.34 26814.57,12187.34 26823.27,12180.38 26831.97,12169.94 26875.48,12107.28 26885.93,12102.06 26896.37,12098.58 26950.32,12088.14 26959.02,12086.4 26969.47,12079.44 26976.43,12075.96 26983.39,12072.48 26992.09,12070.73 27025.16,12072.48 27047.79,12075.96 27059.97,12074.22 27133.07,12044.63 27140.03,12042.89 27145.25,12039.41 27150.47,12035.93 27155.69,12028.96 27157.43,12028.96 27160.91,12027.22 27164.39,12027.22 27166.13,12027.22 27167.87,12027.22 27169.62,12028.96 27169.62,12030.71 27171.36,12032.45 27176.58,12046.37 27180.06,12053.33 27192.24,12067.25 27197.46,12074.22 27202.68,12077.7 27207.9,12077.7 27213.13,12074.22 27270.56,12016.78 27281,12004.6 27286.22,11999.38 27293.19,11994.16 27333.22,11978.49 27357.58,11964.57 27369.76,11966.31 27390.65,11971.53 27404.57,11973.27 27475.93,11969.79 27562.95,11973.27 27585.58,11971.53 27599.5,11973.27 27615.17,11976.75 27630.83,11983.71 27639.53,11990.68 27644.75,11992.42 27644.75,11994.16 27648.23,11995.9 27651.71,11995.9 27660.42,11995.9 27663.9,11995.9 27669.12,11994.16 27670.86,11994.16 27672.6,11995.9 27672.6,11997.64 27674.34,11999.38 27676.08,12001.12 27679.56,12002.86 27683.04,12004.6 27688.26,12004.6 27700.45,12006.34 27710.89,12009.82 27712.63,12011.56 27716.11,12011.56 27719.59,12011.56 27726.55,12009.82 27813.57,11962.83 27818.8,11957.61 27824.02,11950.65 27829.24,11938.46 27832.72,11933.24 27839.68,11926.28 27848.38,11921.06 27890.15,11905.39 27891.89,11903.65 27893.63,11900.17 27895.37,11898.43 27897.11,11896.69 27898.86,11896.69 27900.6,11896.69 27902.34,11894.95 27904.08,11893.21 27905.82,11889.73 27907.56,11887.99 27912.78,11886.25 27916.26,11884.51 27918,11882.77 27921.48,11877.55 27923.22,11875.81 27928.44,11872.33 27933.66,11870.59 27935.4,11867.1 27937.14,11867.1 27944.11,11865.36 27935.4,11847.96 27933.66,11839.26 27933.66,11832.3 27933.66,11830.56 27931.92,11828.82 27928.44,11823.59 27926.7,11821.85 27924.96,11816.63 27924.96,11811.41 27923.22,11807.93 27921.48,11802.71 27919.74,11799.23 27918,11790.53 27916.26,11787.04 27916.26,11781.82 27916.26,11778.34 27919.74,11774.86 27919.74,11773.12 27919.74,11771.38 27919.74,11767.9 27921.48,11764.42 27921.48,11762.68 27924.96,11759.2 27924.96,11757.46 27926.7,11750.5 27926.7,11747.02 27928.44,11745.27 27930.18,11741.79 27933.66,11736.57 27937.14,11729.61 27938.89,11727.87 27942.37,11726.13 27944.11,11724.39 27945.85,11722.65 27947.59,11720.91 27947.59,11719.17 27947.59,11703.5 27947.59,11694.8 27945.85,11689.58 27942.37,11680.88 27940.63,11677.4 27937.14,11675.66 27933.66,11673.92 27921.48,11666.96 27919.74,11665.21 27916.26,11665.21 27912.78,11665.21 27909.3,11665.21 27907.56,11663.47 27902.34,11659.99 27900.6,11659.99 27898.86,11659.99 27897.11,11659.99 27895.37,11659.99 27890.15,11661.73 27888.41,11663.47 27886.67,11663.47 27884.93,11665.21 27881.45,11668.7 27881.45,11670.44 27879.71,11670.44 27876.23,11670.44 27874.49,11670.44 27872.75,11668.7 27871.01,11666.96 27857.08,11651.29 27857.08,11647.81 27855.34,11644.33 27855.34,11633.89 27855.34,11628.67 27857.08,11625.19 27857.08,11623.44 27857.08,11619.96 27858.83,11616.48 27862.31,11609.52 27862.31,11606.04 27865.79,11597.34 27867.53,11597.34 27869.27,11597.34 27874.49,11600.82 27877.97,11600.82 27879.71,11602.56 27881.45,11604.3 27883.19,11602.56 27884.93,11602.56 27886.67,11602.56 27888.41,11600.82 27888.41,11599.08 27886.67,11597.34 27886.67,11595.6 27888.41,11593.86 27890.15,11592.12 27891.89,11590.38 27893.63,11590.38 27895.37,11585.16 27895.37,11583.41 27893.63,11579.93 27893.63,11578.19 27893.63,11576.45 27895.37,11572.97 27897.11,11569.49 27898.86,11567.75 27900.6,11566.01 27902.34,11564.27 27904.08,11564.27 27905.82,11564.27 27907.56,11564.27 27909.3,11562.53 27912.78,11557.31 27918,11553.83 27919.74,11550.35 27919.74,11548.61 27921.48,11546.87 27919.74,11543.38 27919.74,11541.64 27923.22,11541.64 27923.22,11539.9 27923.22,11538.16 27923.22,11536.42 27924.96,11534.68 27928.44,11532.94 27928.44,11531.2 27930.18,11529.46 27931.92,11529.46 27933.66,11527.72 27935.4,11527.72 27935.4,11529.46 27937.14,11529.46 27938.89,11529.46 27940.63,11529.46 27942.37,11527.72 27944.11,11525.98 27945.85,11524.24 27947.59,11517.28 27949.33,11515.54 27951.07,11513.8 27956.29,11508.58 27958.03,11506.84 27959.77,11505.1 27963.25,11505.1 27966.73,11505.1 27968.47,11503.36 27966.73,11499.87 27961.51,11492.91 27959.77,11491.17 27959.77,11489.43 27959.77,11485.95 27961.51,11484.21 27961.51,11482.47 27963.25,11480.73 27964.99,11478.99 27966.73,11477.25 27970.21,11473.77 27971.95,11472.03 27973.69,11472.03 27975.43,11472.03 27977.17,11472.03 27978.91,11473.77 27980.66,11473.77 27982.4,11473.77 27984.14,11472.03 27985.88,11472.03 27987.62,11470.29 27987.62,11468.55 27987.62,11465.07 27987.62,11458.1 27984.14,11447.66 27980.66,11438.96 27978.91,11435.48 27977.17,11432 27975.43,11418.07 27973.69,11416.33 27971.95,11412.85 27968.47,11407.63 27966.73,11404.15 27959.77,11379.78 27954.55,11367.6 27952.81,11364.12 27947.59,11351.94 27945.85,11350.2 27942.37,11348.46 27940.63,11348.46 27940.63,11346.72 27937.14,11341.5 27935.4,11339.75 27933.66,11338.01 27928.44,11336.27 27926.7,11336.27 27924.96,11334.53 27923.22,11331.05 27921.48,11329.31 27919.74,11327.57 27916.26,11325.83 27909.3,11324.09 27902.34,11320.61 27898.86,11318.87 27888.41,11304.95 27886.67,11301.47 27883.19,11294.5 27883.19,11292.76 27881.45,11292.76 27881.45,11291.02 27888.41,11263.18 27888.41,11261.44 27902.34,11249.25 27904.08,11247.51 27907.56,11238.81 27909.3,11237.07 27911.04,11235.33 27911.04,11233.59 27912.78,11231.85 27918,11221.41 27926.7,11200.52 27926.7,11198.78 27928.44,11193.56 27923.22,11163.97 27923.22,11160.49 27924.96,11157.01 27933.66,11137.86 27935.4,11125.68 27945.85,11120.46 27947.59,11120.46 27956.29,11122.2 27958.03,11122.2 27959.77,11122.2 27963.25,11122.2 27964.99,11122.2 27964.99,11120.46 27968.47,11118.72 27970.21,11115.24 27973.69,11111.76 27975.43,11110.02 27975.43,11108.28 27980.66,11104.8 27982.4,11104.8 27984.14,11103.06 27991.1,11087.39 27992.84,11083.91 27994.58,11083.91 27996.32,11082.17 27998.06,11082.17 27999.8,11083.91 27999.8,11085.65 28001.54,11085.65 28001.54,11087.39 28005.02,11087.39 28006.76,11089.13 28010.24,11089.13 28011.98,11089.13 28013.72,11089.13 28018.94,11085.65 28022.43,11083.91 28025.91,11082.17 28027.65,11080.43 28029.39,11080.43 28031.13,11078.69 28034.61,11078.69 28050.27,11080.43 28052.01,11080.43 28053.75,11078.69 28058.97,11076.95 28060.72,11075.21 28062.46,11075.21 28069.42,11075.21 28071.16,11075.21 28074.64,11073.47 28081.6,11069.99 28083.34,11068.25 28088.56,11068.25 28097.26,11063.03 28099,11061.29 28099,11057.81 28100.74,11054.32 28097.26,11038.66 28099,11029.96 28099,11026.48 28097.26,11023 28093.78,11012.55 28092.04,11009.07 28086.82,10962.08 28086.82,10958.6 28085.08,10958.6 28083.34,10956.86 28074.64,10955.12 28072.9,10955.12 28069.42,10951.64 28067.68,10949.9 28067.68,10948.16 28065.94,10948.16 28065.94,10946.42 28062.46,10904.65 28064.2,10901.17 28065.94,10897.69 28067.68,10895.95 28069.42,10894.2 28074.64,10888.98 28078.12,10885.5 28079.86,10882.02 28085.08,10875.06 28088.56,10871.58 28092.04,10864.62 28092.04,10862.88 28092.04,10859.4 28090.3,10854.17 28085.08,10843.73 28083.34,10836.77 28081.6,10835.03 28079.86,10833.29 28078.12,10833.29 28074.64,10833.29 28067.68,10835.03 28065.94,10835.03 28065.94,10829.81 28078.12,10770.63 28078.12,10768.89 28079.86,10765.41 28079.86,10763.67 28081.6,10761.93 28083.34,10760.19 28086.82,10756.71 28088.56,10754.97 28095.52,10753.23 28099,10751.49 28112.93,10749.75 28121.63,10751.49 28130.33,10753.23 28133.81,10754.97 28168.62,10772.37 28175.58,10775.86 28177.32,10775.86 28180.8,10774.12 28184.29,10774.12 28192.99,10767.15 28199.95,10761.93 28199.95,10760.19 28199.95,10758.45 28198.21,10749.75 28196.47,10739.31 28196.47,10730.6 28196.47,10728.86 28196.47,10727.12 28194.73,10725.38 28191.25,10721.9 28189.51,10718.42 28189.51,10716.68 28189.51,10714.94 28189.51,10713.2 28189.51,10711.46 28194.73,10702.76 28196.47,10701.02 28196.47,10699.28 28196.47,10697.54 28196.47,10695.8 28194.73,10694.06 28189.51,10687.09 28189.51,10685.35 28187.77,10683.61 28187.77,10676.65 28187.77,10674.91 28187.77,10673.17 28189.51,10671.43 28192.99,10664.47 28210.39,10643.58 28212.13,10641.84 28215.61,10643.58 28220.83,10645.32 28227.8,10650.54 28255.64,10664.47 28260.86,10669.69 28267.83,10674.91 28278.27,10687.09 28278.27,10688.83 28280.01,10692.32 28286.97,10713.2 28286.97,10714.94 28290.45,10714.94 28295.67,10716.68 28306.12,10716.68 28314.82,10716.68 28316.56,10716.68 28316.56,10718.42 28323.52,10723.64 28327,10723.64 28342.66,10720.16 28347.89,10720.16 28351.37,10720.16 28356.59,10721.9 28358.33,10723.64 28360.07,10721.9 28365.29,10718.42 28367.03,10714.94 28370.51,10707.98 28373.99,10704.5 28382.69,10699.28 28384.43,10702.76 28384.43,10706.24 28389.66,10714.94 28389.66,10716.68 28389.66,10725.38 28389.66,10727.12 28391.4,10728.86 28400.1,10741.05 28400.1,10742.79 28400.1,10744.53 28400.1,10746.27 28400.1,10748.01 28400.1,10749.75 28394.88,10754.97 28393.14,10756.71 28387.92,10772.37 28384.43,10784.56 28377.47,10800.22 28370.51,10814.15 28367.03,10819.37 28365.29,10821.11 28363.55,10828.07 28361.81,10829.81 28361.81,10831.55 28361.81,10833.29 28363.55,10835.03 28365.29,10836.77 28368.77,10836.77 28372.25,10835.03 28375.73,10829.81 28377.47,10828.07 28380.95,10826.33 28398.36,10817.63 28400.1,10817.63 28401.84,10815.89 28403.58,10814.15 28407.06,10808.92 28408.8,10807.18 28410.54,10803.7 28414.02,10796.74 28415.76,10795 28417.5,10793.26 28420.98,10793.26 28424.46,10793.26 28443.61,10795 28448.83,10796.74 28474.94,10800.22 28478.42,10800.22 28480.16,10800.22 28492.34,10793.26 28504.52,10781.08 28508.01,10775.86 28509.75,10768.89 28511.49,10763.67 28511.49,10761.93 28518.45,10758.45 28523.67,10754.97 28528.89,10749.75 28530.63,10748.01 28532.37,10744.53 28534.11,10742.79 28537.59,10737.57 28541.07,10734.09 28544.55,10730.6 28544.55,10728.86 28544.55,10727.12 28546.29,10725.38 28548.04,10723.64 28556.74,10723.64 28558.48,10723.64 28560.22,10723.64 28561.96,10725.38 28567.18,10727.12 28570.66,10727.12 28579.36,10725.38 28586.32,10721.9 28600.25,10714.94 28608.95,10706.24 28614.17,10701.02 28615.91,10699.28 28619.39,10699.28 28624.61,10697.54 28628.09,10695.8 28629.84,10695.8 28633.32,10688.83 28635.06,10687.09 28636.8,10685.35 28640.28,10681.87 28642.02,10680.13 28643.76,10674.91 28645.5,10673.17 28657.68,10662.73 28659.42,10660.99 28659.42,10659.25 28661.16,10655.77 28662.9,10654.03 28662.9,10652.29 28664.64,10652.29 28668.12,10650.54 28673.35,10650.54 28680.31,10650.54 28682.05,10648.8 28687.27,10647.06 28690.75,10647.06 28694.23,10647.06 28695.97,10647.06 28697.71,10648.8 28699.45,10647.06 28706.41,10645.32 28782.99,10601.81 28791.7,10594.85 28791.7,10593.11 28791.7,10589.63 28793.44,10587.89 28798.66,10579.19 28798.66,10575.71 28798.66,10573.97 28798.66,10572.23 28802.14,10572.23 28805.62,10570.48 28809.1,10568.74 28845.65,10546.12 28850.87,10539.16 28857.83,10533.94 28859.57,10532.2 28861.31,10530.46 28863.05,10528.71 28868.27,10526.97 28876.98,10520.01 28887.42,10514.79 28890.9,10513.05 28896.12,10509.57 28929.19,10499.13 28950.07,10486.94 28962.26,10485.2 28965.74,10483.46 28969.22,10481.72 28976.18,10476.5 28977.92,10474.76 28979.66,10474.76 28983.14,10474.76 28988.36,10476.5 28991.84,10476.5 28995.33,10474.76 28997.07,10474.76 28998.81,10476.5 29005.77,10478.24 29007.51,10478.24 29009.25,10478.24 29010.99,10476.5 29010.99,10474.76 29012.73,10473.02 29014.47,10471.28 29016.21,10471.28 29017.95,10471.28 29021.43,10474.76 29024.91,10478.24 29030.13,10481.72 29033.61,10483.46 29037.1,10483.46 29040.58,10481.72 29042.32,10483.46 29044.06,10483.46 29045.8,10485.2 29049.28,10485.2 29051.02,10485.2 29054.5,10483.46 29056.24,10483.46 29057.98,10483.46 29061.46,10483.46 29064.94,10485.2 29068.42,10485.2 29071.9,10485.2 29077.13,10488.68 29080.61,10488.68 29082.35,10488.68 29084.09,10488.68 29089.31,10485.2 29091.05,10485.2 29091.05,10483.46 29092.79,10485.2 29096.27,10485.2 29101.49,10488.68 29108.45,10493.91 29110.19,10495.65 29118.9,10495.65 29122.38,10495.65 29125.86,10493.91 29127.6,10493.91 29129.34,10493.91 29132.82,10495.65 29134.56,10495.65 29139.78,10499.13 29143.26,10500.87 29145,10500.87 29146.74,10499.13 29150.22,10499.13 29151.96,10500.87 29155.45,10502.61 29158.93,10506.09 29164.15,10507.83 29165.89,10509.57 29160.67,10518.27 29153.7,10526.97 29150.22,10539.16 29145,10554.82 29139.78,10565.26 29138.04,10572.23 29136.3,10575.71 29132.82,10587.89 29134.56,10593.11 29136.3,10594.85 29138.04,10600.07 29139.78,10601.81 29139.78,10603.55 29139.78,10608.77 29139.78,10610.51 29139.78,10612.26 29139.78,10614 29138.04,10615.74 29138.04,10617.48 29138.04,10619.22 29139.78,10624.44 29139.78,10626.18 29141.52,10627.92 29145,10631.4 29146.74,10633.14 29150.22,10634.88 29153.7,10636.62 29185.03,10641.84 29186.77,10643.58 29191.99,10647.06 29193.73,10650.54 29195.47,10652.29 29270.31,10671.43 29285.98,10666.21 29287.72,10666.21 29289.46,10664.47 29291.2,10660.99 29292.94,10659.25 29294.68,10655.77 29299.9,10652.29 29301.64,10650.54 29301.64,10648.8 29303.38,10643.58 29303.38,10641.84 29305.12,10641.84 29306.86,10640.1 29308.6,10638.36 29345.15,10620.96 29355.59,10619.22 29362.56,10615.74 29364.3,10615.74 29369.52,10614 29381.7,10614 29386.92,10615.74 29397.36,10617.48 29404.33,10620.96 29419.99,10624.44 29423.47,10624.44 29426.95,10624.44 29430.43,10624.44 29446.1,10631.4 29449.58,10631.4 29454.8,10629.66 29460.02,10631.4 29461.76,10633.14 29465.24,10634.88 29470.46,10638.36 29472.2,10641.84 29473.94,10643.58 29477.42,10652.29 29479.16,10654.03 29480.91,10655.77 29508.75,10676.65 29515.71,10681.87 29531.38,10695.8 29534.86,10699.28 29552.26,10709.72 29554,10713.2 29557.48,10716.68 29559.22,10718.42 29566.19,10721.9 29569.67,10723.64 29573.15,10725.38 29576.63,10725.38 29590.55,10721.9 29592.29,10721.9 29594.03,10723.64 29599.25,10728.86 29611.44,10732.34 29620.14,10739.31 29623.62,10742.79 29627.1,10748.01 29632.32,10749.75 29642.77,10758.45 29686.28,10779.34 29693.24,10782.82 29701.94,10786.3 29719.34,10789.78 29724.57,10789.78 29726.31,10789.78 29731.53,10786.3 29733.27,10786.3 29735.01,10786.3 29738.49,10789.78 29740.23,10793.26 29741.97,10795 29743.71,10796.74 29752.41,10800.22 29754.15,10801.96 29757.63,10807.18 29759.37,10808.92 29759.37,10810.66 29761.11,10812.4 29762.85,10812.4 29766.34,10814.15 29768.08,10812.4 29776.78,10810.66 29778.52,10808.92 29782,10808.92 29785.48,10808.92 29794.18,10807.18 29799.4,10807.18 29809.85,10810.66 29813.33,10810.66 29815.07,10808.92 29816.81,10808.92 29820.29,10807.18 29822.03,10805.44 29834.21,10800.22 29839.43,10796.74 29841.17,10793.26 29842.91,10793.26 29844.65,10791.52 29846.4,10791.52 29855.1,10791.52 29856.84,10789.78 29858.58,10789.78 29863.8,10786.3 29968.23,10882.02 30016.96,10927.27 30027.4,11007.33 30030.88,11017.78 30041.32,11016.03 30056.99,11019.52 30074.39,11023 30076.13,11023 30077.87,11024.74 30088.32,11031.7 30095.28,11029.96 30110.94,11021.26 30124.86,11017.78 30133.57,11014.29 30145.75,11003.85 30149.23,10998.63 30150.97,10996.89 30154.45,10996.89 30156.19,10995.15 30159.67,10993.41 30161.41,10991.67 30163.15,10991.67 30166.63,10991.67 30170.12,10993.41 30178.82,10998.63 30182.3,11000.37 30185.78,11000.37 30189.26,11000.37 30192.74,10998.63 30199.7,10995.15 30201.44,10995.15 30203.18,10995.15 30206.66,10995.15 30210.15,10996.89 30215.37,11000.37 30217.11,11002.11 30218.85,11003.85 30227.55,11016.03 30229.29,11016.03 30231.03,11017.78 30236.25,11016.03 30239.73,11016.03 30246.69,11012.55 30250.17,11010.81 30260.62,11007.33 30262.36,11007.33 30265.84,11009.07 30272.8,11010.81 30290.2,11019.52 30293.69,11023 30300.65,11035.18 30302.39,11036.92 30304.13,11036.92 30307.61,11036.92 30309.35,11036.92 30311.09,11035.18 30311.09,11033.44 30314.57,11033.44 30319.79,11033.44 30319.79,11031.7 30326.75,11029.96 30328.49,11028.22 30331.98,11029.96 30359.82,11042.14 30370.26,11045.62 30378.97,11047.36 30385.93,11047.36 30391.15,11045.62 30392.89,11045.62 30412.03,11043.88 30415.52,11045.62 30417.26,11047.36 30420.74,11047.36 30422.48,11052.58 30422.48,11054.32 30420.74,11056.06 30420.74,11057.81 30422.48,11059.55 30422.48,11061.29 30425.96,11061.29 30431.18,11063.03 30432.92,11064.77 30432.92,11066.51 30432.92,11069.99 30432.92,11071.73 30434.66,11073.47 30438.14,11073.47 30439.88,11073.47 30443.36,11071.73 30446.84,11071.73 30448.58,11071.73 30453.81,11073.47 30459.03,11076.95 30469.47,11083.91 30472.95,11089.13 30476.43,11090.87 30478.17,11097.84 30479.91,11099.58 30481.65,11101.32 30483.39,11103.06 30492.09,11108.28 30495.58,11110.02 30497.32,11110.02 30499.06,11110.02 30504.28,11110.02 30509.5,11108.28 30518.2,11111.76 30519.94,11115.24 30519.94,11116.98 30521.68,11120.46 30525.16,11125.68 30526.9,11129.16 30532.12,11132.64 30533.86,11134.38 30535.61,11136.12 30535.61,11137.86 30537.35,11143.09 30537.35,11144.83 30542.57,11151.79 30542.57,11155.27 30542.57,11157.01 30542.57,11160.49 30542.57,11163.97 30539.09,11165.71 30535.61,11167.45 30533.86,11169.19 30532.12,11172.67 30526.9,11184.86 30525.16,11190.08 30523.42,11200.52 30523.42,11205.74 30523.42,11209.22 30519.94,11219.67 30514.72,11224.89 30512.98,11228.37 30504.28,11235.33 30499.06,11240.55 30474.69,11254.47 30448.58,11294.5 30445.1,11299.72 30446.84,11303.21 30446.84,11304.95 30446.84,11308.43 30446.84,11310.17 30445.1,11311.91 30441.62,11311.91 30439.88,11311.91 30438.14,11311.91 30434.66,11310.17 30429.44,11310.17 30425.96,11310.17 30406.81,11317.13 30405.07,11318.87 30403.33,11320.61 30401.59,11322.35 30399.85,11329.31 30399.85,11332.79 30398.11,11334.53 30399.85,11346.72 30399.85,11360.64 30394.63,11383.27 30394.63,11385.01 30396.37,11386.75 30396.37,11388.49 30396.37,11390.23 30403.33,11397.19 30405.07,11400.67 30408.55,11407.63 30408.55,11411.11 30408.55,11412.85 30408.55,11414.59 30408.55,11418.07 30405.07,11419.81 30399.85,11423.3 30398.11,11425.04 30394.63,11426.78 30394.63,11428.52 30392.89,11432 30391.15,11432 30385.93,11433.74 30378.97,11433.74 30351.12,11433.74 30338.94,11432 30330.23,11428.52 30328.49,11428.52 30326.75,11428.52 30325.01,11430.26 30323.27,11435.48 30321.53,11437.22 30314.57,11444.18 30312.83,11445.92 30312.83,11447.66 30311.09,11451.14 30300.65,11498.13 30295.43,11513.8 30293.69,11520.76 30293.69,11525.98 30297.17,11541.64 30298.91,11545.13 30297.17,11548.61 30297.17,11552.09 30297.17,11555.57 30297.17,11559.05 30297.17,11567.75 30297.17,11569.49 30297.17,11572.97 30297.17,11574.71 30295.43,11576.45 30293.69,11576.45 30288.46,11579.93 30286.72,11579.93 30286.72,11581.67 30283.24,11586.9 30283.24,11592.12 30281.5,11609.52 30281.5,11618.22 30281.5,11619.96 30281.5,11623.44 30283.24,11625.19 30288.46,11626.93 30290.2,11626.93 30291.95,11626.93 30293.69,11625.19 30293.69,11623.44 30297.17,11616.48 30298.91,11614.74 30298.91,11613 30300.65,11613 30304.13,11611.26 30307.61,11611.26 30309.35,11609.52 30311.09,11609.52 30312.83,11609.52 30314.57,11613 30314.57,11614.74 30312.83,11618.22 30307.61,11625.19 30307.61,11626.93 30305.87,11628.67 30305.87,11630.41 30305.87,11632.15 30307.61,11633.89 30309.35,11635.63 30311.09,11633.89 30312.83,11633.89 30316.31,11632.15 30318.05,11630.41 30319.79,11630.41 30321.53,11632.15 30323.27,11633.89 30325.01,11639.11 30326.75,11642.59 30326.75,11646.07 30326.75,11647.81 30321.53,11659.99 30321.53,11663.47 30321.53,11666.96 30321.53,11668.7 30323.27,11677.4 30323.27,11679.14 30325.01,11680.88 30330.23,11682.62 30331.98,11682.62 30335.46,11682.62 30337.2,11680.88 30340.68,11680.88 30345.9,11680.88 30349.38,11680.88 30352.86,11682.62 30354.6,11686.1 30356.34,11689.58 30359.82,11701.76 30361.56,11705.24 30363.3,11708.73 30365.04,11710.47 30380.71,11719.17 30382.45,11720.91 30384.19,11722.65 30387.67,11727.87 30387.67,11731.35 30389.41,11734.83 30391.15,11736.57 30394.63,11740.05 30408.55,11747.02 30413.78,11748.76 30422.48,11757.46 30425.96,11767.9 30429.44,11774.86 30429.44,11776.6 30429.44,11780.08 30429.44,11783.56 30427.7,11792.27 30425.96,11795.75 30424.22,11797.49 30419,11804.45 30417.26,11807.93 30415.52,11811.41 30413.78,11813.15 30415.52,11820.11 30422.48,11835.78 30419,11834.04 30412.03,11830.56 30410.29,11830.56 30408.55,11828.82 30405.07,11827.07 30405.07,11825.33 30403.33,11825.33 30401.59,11823.59 30399.85,11823.59 30398.11,11823.59 30392.89,11823.59 30391.15,11823.59 30387.67,11823.59 30385.93,11823.59 30384.19,11821.85 30382.45,11820.11 30380.71,11818.37 30380.71,11816.63 30378.97,11814.89 30377.23,11814.89 30370.26,11814.89 30368.52,11814.89 30365.04,11811.41 30347.64,11806.19 30345.9,11806.19 30344.16,11804.45 30344.16,11802.71 30342.42,11799.23 30342.42,11797.49 30340.68,11797.49 30338.94,11799.23 30335.46,11800.97 30335.46,11804.45 30335.46,11806.19 30337.2,11813.15 30337.2,11814.89 30335.46,11816.63 30333.72,11818.37 30331.98,11818.37 30328.49,11818.37 30326.75,11818.37 30325.01,11816.63 30323.27,11814.89 30316.31,11807.93 30314.57,11807.93 30312.83,11807.93 30311.09,11807.93 30307.61,11807.93 30295.43,11811.41 30290.2,11811.41 30286.72,11814.89 30271.06,11823.59 30265.84,11827.07 30260.62,11828.82 30257.14,11827.07 30251.92,11827.07 30241.47,11823.59 30239.73,11823.59 30237.99,11823.59 30234.51,11825.33 30229.29,11828.82 30224.07,11830.56 30218.85,11834.04 30217.11,11834.04 30215.37,11834.04 30213.63,11834.04 30211.89,11832.3 30208.4,11830.56 30206.66,11828.82 30204.92,11828.82 30203.18,11828.82 30201.44,11828.82 30194.48,11830.56 30191,11832.3 30187.52,11832.3 30185.78,11830.56 30184.04,11830.56 30182.3,11828.82 30178.82,11825.33 30177.08,11825.33 30175.34,11825.33 30173.6,11827.07 30173.6,11830.56 30173.6,11832.3 30175.34,11834.04 30222.33,11879.29 30224.07,11879.29 30224.07,11882.77 30224.07,11884.51 30225.81,11887.99 30225.81,11894.95 30225.81,11898.43 30224.07,11900.17 30218.85,11900.17 30217.11,11900.17 30211.89,11900.17 30203.18,11900.17 30201.44,11900.17 30197.96,11898.43 30194.48,11894.95 30192.74,11893.21 30187.52,11891.47 30185.78,11889.73 30182.3,11884.51 30180.56,11884.51 30178.82,11882.77 30177.08,11882.77 30175.34,11882.77 30171.86,11882.77 30170.12,11882.77 30168.37,11882.77 30164.89,11884.51 30161.41,11887.99 30138.79,11908.88 30137.05,11908.88 30135.31,11908.88 30128.34,11908.88 30124.86,11908.88 30123.12,11910.62 30121.38,11914.1 30117.9,11919.32 30110.94,11933.24 30103.98,11941.94 30095.28,11948.9 30095.28,11950.65 30093.54,11954.13 30095.28,11959.35 30095.28,11962.83 30098.76,11968.05 30098.76,11973.27 30091.8,11987.19 30095.28,11988.93 30097.02,11988.93 30102.24,11985.45 30112.68,11975.01 30114.42,11978.49 30117.9,11980.23 30121.38,11981.97 30126.6,11985.45 30130.09,11987.19 30133.57,11990.68 30135.31,11992.42 30140.53,11999.38 30140.53,12001.12 30142.27,12004.6 30144.01,12011.56 30142.27,12016.78 30142.27,12027.22 30140.53,12042.89 30137.05,12062.03 30133.57,12079.44 30133.57,12081.18 30133.57,12084.66 30135.31,12086.4 30135.31,12088.14 30137.05,12088.14 30138.79,12089.88 30142.27,12089.88 30161.41,12091.62 30163.15,12091.62 30164.89,12091.62 30166.63,12093.36 30166.63,12095.1 30168.37,12096.84 30168.37,12098.58 30170.12,12100.32 30173.6,12124.69 30173.6,12129.91 30173.6,12131.65 30171.86,12135.13 30170.12,12138.61 30170.12,12140.35 30168.37,12142.09 30164.89,12145.57 30163.15,12145.57 30157.93,12147.31 30150.97,12149.05 30112.68,12150.79 30109.2,12149.05 30107.46,12147.31 30107.46,12145.57 30107.46,12143.83 30105.72,12142.09 30103.98,12142.09 30100.5,12142.09 30093.54,12142.09 30084.83,12142.09 30074.39,12142.09 30070.91,12143.83 30067.43,12145.57 30065.69,12145.57 30063.95,12147.31 30062.21,12150.79 30062.21,12152.54 30060.47,12154.28 30060.47,12156.02 30060.47,12157.76 30062.21,12159.5 30067.43,12162.98 30070.91,12169.94 30070.91,12171.68 30072.65,12173.42 30077.87,12175.16 30081.35,12176.9 30084.83,12178.64 30086.57,12178.64 30088.32,12178.64 30090.06,12178.64 30093.54,12175.16 30095.28,12173.42 30098.76,12171.68 30100.5,12171.68 30102.24,12171.68 30105.72,12171.68 30107.46,12171.68 30109.2,12173.42 30110.94,12175.16 30112.68,12175.16 30116.16,12182.12 30116.16,12183.86 30117.9,12183.86 30119.64,12185.6 30124.86,12187.34 30126.6,12189.08 30124.86,12192.56 30124.86,12196.05 30124.86,12199.53 30126.6,12199.53 30130.09,12201.27 30131.83,12201.27 30133.57,12203.01 30135.31,12204.75 30135.31,12206.49 30133.57,12213.45 30126.6,12225.63 30126.6,12229.11 30126.6,12230.85 30128.34,12234.34 30130.09,12234.34 30133.57,12236.08 30137.05,12236.08 30138.79,12237.82 30156.19,12255.22 30157.93,12258.7 30163.15,12265.66 30164.89,12267.4 30166.63,12277.85 30166.63,12290.03 30166.63,12300.47 30164.89,12309.17 30164.89,12312.65 30166.63,12316.14 30168.37,12316.14 30168.37,12317.88 30170.12,12319.62 30170.12,12323.1 30168.37,12333.54 30168.37,12343.98 30168.37,12347.46 30166.63,12349.2 30159.67,12368.35 30157.93,12373.57 30157.93,12377.05 30159.67,12380.53 30159.67,12382.27 30159.67,12384.01 30159.67,12387.49 30157.93,12389.23 30156.19,12390.97 30154.45,12394.45 30150.97,12397.94 30147.49,12399.68 30145.75,12401.42 30142.27,12399.68 30140.53,12399.68 30138.79,12399.68 30131.83,12394.45 30130.09,12394.45 30128.34,12396.2 30126.6,12399.68 30126.6,12401.42 30126.6,12403.16 30128.34,12404.9 30133.57,12415.34 30133.57,12417.08 30133.57,12418.82 30131.83,12422.3 30121.38,12434.48 30119.64,12436.23 30117.9,12436.23 30116.16,12436.23 30114.42,12436.23 30112.68,12437.97 30109.2,12441.45 30107.46,12446.67 30103.98,12448.41 30093.54,12455.37 30091.8,12455.37 30088.32,12458.85 30086.57,12469.29 30081.35,12505.84 30081.35,12509.32 30081.35,12514.54 30079.61,12535.43 30077.87,12537.17 30076.13,12538.91 30070.91,12542.39 30069.17,12544.13 30062.21,12552.83 30058.73,12554.57 30056.99,12554.57 30053.51,12554.57 30051.77,12554.57 30050.03,12554.57 30048.29,12554.57 30046.54,12556.31 30044.8,12558.06 30041.32,12563.28 30037.84,12566.76 30037.84,12568.5 30036.1,12570.24 30036.1,12575.46 30036.1,12584.16 30034.36,12589.38 30027.4,12613.75 30023.92,12625.93 30023.92,12629.41 30023.92,12632.89 30023.92,12634.63 30015.22,12655.52 30013.48,12657.26 30011.74,12659 30006.51,12660.74 30001.29,12664.22 29990.85,12664.22 29893.39,12662.48 29888.17,12664.22 29884.68,12665.96 29882.94,12667.7 29879.46,12671.18 29879.46,12672.92 29874.24,12690.33 29872.5,12693.81 29869.02,12695.55 29858.58,12702.51 29851.62,12705.99 29849.88,12709.47 29846.4,12712.95 29844.65,12714.69 29844.65,12716.43 29844.65,12719.91 29844.65,12723.4 29846.4,12725.14 29848.14,12730.36 29849.88,12735.58 29851.62,12737.32 29853.36,12739.06 29865.54,12744.28 29860.32,12761.69 29860.32,12772.13 29862.06,12773.87 29865.54,12782.57 29865.54,12784.31 29863.8,12786.05 29862.06,12787.79 29858.58,12789.53 29856.84,12791.27 29856.84,12793.01 29851.62,12808.68 29849.88,12812.16 29844.65,12819.12 29844.65,12820.86 29844.65,12822.6 29846.4,12822.6 29848.14,12822.6 29849.88,12822.6 29853.36,12820.86 29855.1,12819.12 29856.84,12819.12 29858.58,12820.86 29860.32,12822.6 29860.32,12824.34 29860.32,12827.82 29851.62,12838.26 29849.88,12841.75 29842.91,12859.15 29839.43,12862.63 29837.69,12866.11 29835.95,12866.11 29834.21,12867.85 29835.95,12871.33 29835.95,12873.07 29841.17,12876.55 29837.69,12880.03 29835.95,12881.77 29834.21,12883.52 29828.99,12885.26 29825.51,12885.26 29822.03,12887 29818.55,12895.7 29820.29,12899.18 29818.55,12900.92 29813.33,12911.36 29806.37,12925.29 29804.63,12927.03 29802.88,12930.51 29799.4,12932.25 29797.66,12933.99 29795.92,12933.99 29794.18,12933.99 29790.7,12933.99 29788.96,12933.99 29787.22,12932.25 29787.22,12930.51 29785.48,12930.51 29783.74,12930.51 29776.78,12932.25 29773.3,12932.25 29771.56,12932.25 29769.82,12932.25 29766.34,12932.25 29764.6,12928.77 29762.85,12928.77 29759.37,12930.51 29757.63,12933.99 29754.15,12937.47 29750.67,12939.21 29747.19,12940.95 29745.45,12942.69 29743.71,12946.17 29745.45,12951.39 29745.45,12954.87 29747.19,12956.61 29748.93,12956.61 29750.67,12958.35 29752.41,12958.35 29757.63,12958.35 29759.37,12960.09 29759.37,12963.58 29757.63,12970.54 29750.67,12984.46 29747.19,12989.68 29741.97,12996.64 29740.23,13000.12 29738.49,13007.09 29736.75,13010.57 29735.01,13012.31 29731.53,13015.79 29731.53,13017.53 29729.79,13021.01 29729.79,13026.23 29729.79,13029.71 29731.53,13033.19 29731.53,13036.67 29729.79,13040.15 29721.08,13059.3 29719.34,13066.26 29715.86,13087.15 29696.72,13101.07 29694.98,13102.81 29689.76,13113.25 29689.76,13114.99 29689.76,13118.47 29689.76,13130.66 29689.76,13137.62 29688.02,13141.1 29688.02,13142.84 29672.35,13168.95 29665.39,13182.87 29663.65,13193.31 29663.65,13196.79 29663.65,13198.53 29667.13,13198.53 29668.87,13198.53 29670.61,13198.53 29674.09,13200.27 29677.57,13202.01 29679.31,13202.01 29682.8,13202.01 29684.54,13200.27 29686.28,13200.27 29688.02,13200.27 29689.76,13200.27 29691.5,13200.27 29694.98,13202.01 29694.98,13203.75 29696.72,13203.75 29698.46,13207.24 29700.2,13210.72 29701.94,13212.46 29700.2,13217.68 29694.98,13228.12 29691.5,13229.86 29684.54,13236.82 29681.05,13238.56 29675.83,13238.56 29670.61,13235.08 29665.39,13235.08 29661.91,13238.56 29658.43,13242.04 29651.47,13247.27 29632.32,13252.49 29599.25,13271.63 29555.74,13287.29 29529.64,13302.96 29482.65,13322.1 29477.42,13325.58 29465.24,13336.03 29460.02,13339.51 29437.39,13341.25 29430.43,13346.47 29426.95,13351.69 29425.21,13356.91 29421.73,13363.87 29419.99,13365.61 29411.29,13362.13 29406.07,13362.13 29402.59,13365.61 29399.11,13370.84 29393.88,13372.58 29393.88,13369.1 29392.14,13367.35 29392.14,13365.61 29392.14,13363.87 29392.14,13362.13 29393.88,13360.39 29393.88,13358.65 29395.62,13356.91 29397.36,13355.17 29397.36,13353.43 29397.36,13351.69 29397.36,13348.21 29397.36,13346.47 29395.62,13346.47 29393.88,13344.73 29385.18,13344.73 29376.48,13344.73 29371.26,13346.47 29366.04,13344.73 29362.56,13344.73 29360.82,13342.99 29357.33,13341.25 29355.59,13339.51 29353.85,13339.51 29350.37,13339.51 29339.93,13339.51 29334.71,13339.51 29332.97,13339.51 29331.23,13337.77 29329.49,13337.77 29327.75,13337.77 29322.53,13337.77 29313.82,13339.51 29285.98,13355.17 29280.76,13356.91 29279.02,13358.65 29273.79,13358.65 29266.83,13358.65 29263.35,13358.65 29258.13,13360.39 29252.91,13362.13 29247.69,13362.13 29245.95,13360.39 29244.21,13360.39 29242.47,13358.65 29238.99,13355.17 29237.25,13353.43 29235.5,13355.17 29232.02,13356.91 29230.28,13358.65 29228.54,13358.65 29225.06,13358.65 29221.58,13356.91 29218.1,13356.91 29216.36,13356.91 29212.88,13360.39 29209.4,13363.87 29207.66,13363.87 29205.92,13362.13 29202.44,13360.39 29200.7,13360.39 29197.22,13360.39 29190.25,13363.87 29186.77,13363.87 29181.55,13365.61 29179.81,13363.87 29178.07,13363.87 29176.33,13362.13 29174.59,13360.39 29174.59,13358.65 29172.85,13358.65 29171.11,13356.91 29167.63,13356.91 29157.19,13360.39 29138.04,13369.1 29132.82,13372.58 29129.34,13376.06 29124.12,13377.8 29111.93,13381.28 29070.16,13398.68 29068.42,13398.68 29064.94,13400.42 29063.2,13400.42 29059.72,13402.16 29052.76,13410.87 29049.28,13412.61 29016.21,13431.75 29007.51,13433.49 29002.29,13433.49 29000.55,13431.75 28998.81,13430.01 28997.07,13428.27 28995.33,13428.27 28991.84,13428.27 28990.1,13428.27 28974.44,13430.01 28969.22,13430.01 28951.81,13433.49 28948.33,13431.75 28944.85,13431.75 28941.37,13431.75 28937.89,13433.49 28910.04,13449.15 28908.3,13450.9 28906.56,13450.9 28901.34,13452.64 28892.64,13454.38 28882.2,13456.12 28878.72,13456.12 28876.98,13457.86 28871.76,13463.08 28866.53,13471.78 28864.79,13473.52 28864.79,13475.26 28859.57,13475.26 28852.61,13473.52 28843.91,13471.78 28840.43,13471.78 28836.95,13471.78 28821.28,13477 28814.32,13480.48 28800.4,13490.93 28777.77,13503.11 28769.07,13506.59 28767.33,13506.59 28762.11,13506.59 28751.67,13506.59 28748.18,13506.59 28744.7,13508.33 28739.48,13511.81 28736,13513.55 28732.52,13513.55 28725.56,13511.81 28722.08,13513.55 28701.19,13522.25 28697.71,13525.73 28678.57,13536.18 28676.83,13537.92 28669.87,13543.14 28664.64,13548.36 28662.9,13550.1 28659.42,13550.1 28655.94,13550.1 28654.2,13550.1 28654.2,13551.84 28654.2,13557.06 28654.2,13558.8 28652.46,13562.28 28648.98,13564.02 28647.24,13565.76 28621.13,13572.73 28605.47,13581.43 28601.99,13583.17 28600.25,13583.17 28598.51,13581.43 28596.77,13579.69 28596.77,13577.95 28596.77,13572.73 28596.77,13570.98 28595.03,13569.24 28595.03,13567.5 28591.55,13564.02 28589.81,13564.02 28588.07,13562.28 28584.58,13562.28 28582.84,13562.28 28581.1,13564.02 28575.88,13572.73 28574.14,13574.47 28570.66,13576.21 28563.7,13581.43 28560.22,13583.17 28556.74,13583.17 28544.55,13581.43 28542.81,13579.69 28542.81,13577.95 28541.07,13576.21 28541.07,13574.47 28541.07,13572.73 28539.33,13570.98 28537.59,13570.98 28535.85,13570.98 28534.11,13570.98 28527.15,13576.21 28518.45,13581.43 28514.97,13583.17 28511.49,13583.17 28509.75,13583.17 28508.01,13583.17 28506.26,13581.43 28504.52,13581.43 28502.78,13579.69 28502.78,13576.21 28502.78,13574.47 28504.52,13572.73 28506.26,13570.98 28509.75,13567.5 28511.49,13564.02 28513.23,13560.54 28514.97,13558.8 28513.23,13557.06 28508.01,13557.06 28494.08,13558.8 28487.12,13558.8 28483.64,13562.28 28485.38,13564.02 28485.38,13565.76 28487.12,13567.5 28492.34,13572.73 28492.34,13574.47 28492.34,13576.21 28494.08,13577.95 28492.34,13581.43 28490.6,13583.17 28461.01,13602.31 28459.27,13602.31 28459.27,13604.05 28459.27,13607.53 28459.27,13609.27 28461.01,13609.27 28462.75,13611.01 28464.49,13611.01 28466.24,13611.01 28474.94,13611.01 28480.16,13611.01 28481.9,13611.01 28483.64,13611.01 28485.38,13612.76 28487.12,13614.5 28487.12,13616.24 28487.12,13617.98 28487.12,13621.46 28487.12,13624.94 28487.12,13631.9 28485.38,13633.64 28483.64,13637.12 28481.9,13638.86 28480.16,13637.12 28476.68,13635.38 28473.2,13635.38 28471.46,13635.38 28471.46,13637.12 28469.72,13638.86 28471.46,13642.34 28471.46,13644.08 28471.46,13645.82 28473.2,13647.56 28473.2,13649.3 28471.46,13652.79 28471.46,13654.53 28467.98,13658.01 28466.24,13658.01 28464.49,13658.01 28462.75,13658.01 28461.01,13656.27 28461.01,13654.53 28459.27,13652.79 28459.27,13651.04 28457.53,13649.3 28454.05,13649.3 28452.31,13651.04 28448.83,13652.79 28445.35,13658.01 28443.61,13659.75 28441.87,13663.23 28438.39,13663.23 28434.91,13659.75 28431.43,13658.01 28427.95,13656.27 28427.95,13654.53 28426.21,13652.79 28424.46,13649.3 28424.46,13647.56 28420.98,13645.82 28419.24,13647.56 28419.24,13649.3 28415.76,13652.79 28414.02,13654.53 28412.28,13654.53 28408.8,13652.79 28405.32,13652.79 28401.84,13652.79 28401.84,13654.53 28398.36,13658.01 28398.36,13659.75 28394.88,13663.23 28391.4,13664.97 28387.92,13666.71 28384.43,13668.45 28375.73,13670.19 28347.89,13675.41 28340.92,13673.67 28339.18,13671.93 28339.18,13670.19 28339.18,13668.45 28340.92,13666.71 28342.66,13664.97 28342.66,13663.23 28342.66,13661.49 28340.92,13659.75 28339.18,13658.01 28337.44,13658.01 28325.26,13659.75 28323.52,13661.49 28321.78,13661.49 28320.04,13663.23 28318.3,13664.97 28314.82,13666.71 28311.34,13668.45 28309.6,13668.45 28306.12,13666.71 28304.38,13664.97 28302.63,13664.97 28300.89,13666.71 28299.15,13668.45 28297.41,13670.19 28293.93,13670.19 28290.45,13670.19 28286.97,13668.45 28283.49,13666.71 28276.53,13666.71 28273.05,13664.97 28271.31,13664.97 28269.57,13663.23 28267.83,13661.49 28266.09,13656.27 28264.35,13652.79 28264.35,13647.56 28264.35,13644.08 28264.35,13635.38 28264.35,13633.64 28264.35,13631.9 28267.83,13626.68 28266.09,13623.2 28262.6,13619.72 28241.72,13607.53 28236.5,13602.31 28226.06,13595.35 28226.06,13593.61 28224.32,13590.13 28226.06,13588.39 28226.06,13586.65 28227.8,13586.65 28231.28,13583.17 28248.68,13577.95 28250.42,13576.21 28252.16,13574.47 28253.9,13570.98 28253.9,13569.24 28248.68,13562.28 28246.94,13560.54 28245.2,13557.06 28245.2,13551.84 28245.2,13550.1 28246.94,13546.62 28248.68,13546.62 28252.16,13544.88 28253.9,13543.14 28253.9,13541.4 28255.64,13537.92 28255.64,13536.18 28253.9,13536.18 28248.68,13536.18 28243.46,13536.18 28236.5,13534.44 28233.02,13532.7 28217.35,13522.25 28210.39,13518.77 28203.43,13518.77 28201.69,13517.03 28199.95,13515.29 28199.95,13511.81 28199.95,13506.59 28199.95,13503.11 28198.21,13501.37 28196.47,13501.37 28184.29,13499.63 28166.88,13492.67 28163.4,13489.18 28159.92,13487.44 28159.92,13483.96 28161.66,13477 28159.92,13475.26 28159.92,13471.78 28147.74,13457.86 28146,13456.12 28144.26,13452.64 28146,13443.93 28158.18,13414.35 28165.14,13403.9 28170.36,13400.42 28179.06,13391.72 28180.8,13388.24 28180.8,13386.5 28172.1,13374.32 28170.36,13372.58 28168.62,13372.58 28166.88,13370.84 28156.44,13370.84 28152.96,13370.84 28151.22,13369.1 28149.48,13367.35 28147.74,13363.87 28146,13362.13 28147.74,13360.39 28149.48,13358.65 28156.44,13358.65 28158.18,13356.91 28159.92,13355.17 28159.92,13353.43 28158.18,13351.69 28156.44,13348.21 28156.44,13346.47 28158.18,13344.73 28159.92,13341.25 28161.66,13339.51 28163.4,13339.51 28165.14,13339.51 28166.88,13339.51 28168.62,13339.51 28172.1,13337.77 28173.84,13334.29 28175.58,13332.55 28175.58,13330.81 28168.62,13320.36 28159.92,13299.48 28159.92,13296 28159.92,13294.26 28163.4,13290.78 28165.14,13287.29 28165.14,13285.55 28165.14,13283.81 28163.4,13282.07 28163.4,13280.33 28161.66,13280.33 28159.92,13278.59 28158.18,13276.85 28156.44,13271.63 28156.44,13268.15 28156.44,13266.41 28158.18,13264.67 28159.92,13262.93 28161.66,13259.45 28168.62,13255.97 28170.36,13254.23 28170.36,13249.01 28177.32,13219.42 28179.06,13215.94 28180.8,13215.94 28189.51,13217.68 28191.25,13217.68 28192.99,13215.94 28194.73,13214.2 28201.69,13195.05 28203.43,13193.31 28203.43,13191.57 28205.17,13191.57 28208.65,13188.09 28210.39,13186.35 28210.39,13184.61 28208.65,13182.87 28208.65,13172.43 28210.39,13167.21 28212.13,13163.72 28212.13,13161.98 28213.87,13161.98 28217.35,13158.5 28219.09,13156.76 28219.09,13155.02 28217.35,13155.02 28217.35,13151.54 28215.61,13149.8 28213.87,13132.4 28213.87,13130.66 28212.13,13128.92 28210.39,13127.18 28208.65,13125.43 28206.91,13123.69 28205.17,13123.69 28199.95,13121.95 28196.47,13120.21 28192.99,13120.21 28191.25,13120.21 28189.51,13121.95 28186.03,13121.95 28184.29,13121.95 28182.55,13121.95 28180.8,13121.95 28179.06,13118.47 28179.06,13116.73 28177.32,13113.25 28175.58,13113.25 28170.36,13111.51 28168.62,13109.77 28166.88,13106.29 28166.88,13099.33 28165.14,13099.33 28163.4,13099.33 28161.66,13099.33 28158.18,13102.81 28154.7,13108.03 28152.96,13108.03 28151.22,13109.77 28149.48,13108.03 28147.74,13108.03 28140.77,13102.81 28132.07,13097.59 28123.37,13095.85 28121.63,13094.11 28119.89,13094.11 28116.41,13095.85 28105.97,13094.11 28104.23,13095.85 28102.49,13095.85 28102.49,13097.59 28100.74,13101.07 28099,13102.81 28097.26,13104.55 28095.52,13104.55 28093.78,13106.29 28090.3,13106.29 28088.56,13106.29 28086.82,13108.03 28083.34,13109.77 28081.6,13111.51 28079.86,13111.51 28078.12,13111.51 28050.27,13114.99 28045.05,13113.25 28041.57,13111.51 28041.57,13109.77 28041.57,13108.03 28041.57,13106.29 28043.31,13097.59 28045.05,13095.85 28043.31,13092.37 28043.31,13090.63 28043.31,13088.89 28036.35,13078.44 28034.61,13074.96 28032.87,13066.26 28031.13,13062.78 28025.91,13047.12 28022.43,13036.67 28022.43,13033.19 28018.94,13033.19 28017.2,13031.45 28013.72,13029.71 27998.06,13008.83 27996.32,13005.35 27994.58,13003.6 27994.58,12993.16 27994.58,12989.68 27987.62,12965.32 27987.62,12961.83 27987.62,12960.09 27987.62,12958.35 27989.36,12954.87 27991.1,12953.13 27989.36,12951.39 27985.88,12947.91 27982.4,12944.43 27978.91,12937.47 27975.43,12933.99 27973.69,12932.25 27971.95,12932.25 27968.47,12932.25 27966.73,12930.51 27963.25,12927.03 27963.25,12925.29 27961.51,12921.8 27964.99,12914.84 27966.73,12887 27970.21,12880.03 27975.43,12876.55 27977.17,12874.81 27978.91,12873.07 27982.4,12866.11 27984.14,12860.89 27984.14,12857.41 27985.88,12848.71 27987.62,12846.97 27989.36,12845.23 27992.84,12845.23 27996.32,12843.49 27998.06,12841.75 28001.54,12838.26 28001.54,12834.78 28003.28,12831.3 28003.28,12824.34 28003.28,12822.6 27994.58,12791.27 27992.84,12787.79 27991.1,12786.05 27989.36,12784.31 27989.36,12782.57 27987.62,12780.83 27952.81,12765.17 27949.33,12761.69 27940.63,12751.24 27938.89,12749.5 27938.89,12746.02 27938.89,12744.28 27940.63,12740.8 27940.63,12735.58 27942.37,12726.88 27944.11,12704.25 27944.11,12697.29 27945.85,12693.81 27945.85,12692.07 27947.59,12692.07 27952.81,12686.85 27954.55,12685.11 27954.55,12683.37 27956.29,12679.89 27958.03,12674.66 27958.03,12671.18 27958.03,12669.44 27958.03,12662.48 27954.55,12655.52 27951.07,12646.82 27937.14,12636.37 27933.66,12631.15 27909.3,12613.75 27904.08,12613.75 27900.6,12612.01 27895.37,12608.53 27886.67,12599.83 27886.67,12598.08 27888.41,12596.34 27888.41,12592.86 27888.41,12589.38 27890.15,12587.64 27890.15,12584.16 27888.41,12580.68 27886.67,12578.94 27879.71,12573.72 27876.23,12570.24 27871.01,12573.72 27862.31,12577.2 27855.34,12578.94 27846.64,12580.68 27837.94,12582.42 27834.46,12587.64 27830.98,12592.86 27825.76,12598.08 27818.8,12599.83 27811.83,12596.34 27803.13,12584.16 27796.17,12577.2 27790.95,12575.46 27745.7,12577.2 27742.22,12578.94 27738.74,12582.42 27737,12585.9 27733.51,12587.64 27733.51,12591.12 27737,12598.08 27737,12605.05 27735.25,12613.75 27731.77,12622.45 27726.55,12625.93 27723.07,12627.67 27719.59,12627.67 27716.11,12627.67 27712.63,12625.93 27710.89,12620.71 27709.15,12617.23 27709.15,12612.01 27709.15,12608.53 27705.67,12603.31 27702.19,12599.83 27698.71,12598.08 27693.48,12596.34 27693.48,12613.75 27691.74,12620.71 27688.26,12627.67 27686.52,12629.41 27681.3,12631.15 27679.56,12631.15 27677.82,12632.89 27676.08,12636.37 27674.34,12638.11 27669.12,12641.6 27665.64,12641.6 27662.16,12641.6 27651.71,12634.63 27637.79,12629.41 27630.83,12624.19 27627.35,12615.49 27623.87,12605.05 27620.39,12598.08 27611.68,12591.12 27604.72,12601.57 27613.42,12627.67 27604.72,12636.37 27599.5,12636.37 27587.32,12629.41 27580.36,12625.93 27550.77,12625.93 27535.11,12629.41 27526.4,12631.15 27522.92,12632.89 27519.44,12634.63 27491.59,12631.15 27484.63,12634.63 27472.45,12643.34 27467.23,12645.08 27460.27,12643.34 27439.38,12639.86 27434.16,12639.86 27420.24,12641.6 27402.83,12641.6 27394.13,12646.82 27390.65,12655.52 27387.17,12665.96 27383.69,12676.4 27378.47,12683.37 27378.47,12686.85 27380.21,12690.33 27381.95,12697.29 27381.95,12716.43 27383.69,12721.66 27385.43,12732.1 27387.17,12737.32 27385.43,12740.8 27374.99,12749.5 27369.76,12746.02 27354.1,12739.06 27350.62,12735.58 27348.88,12705.99 27350.62,12671.18 27347.14,12653.78 27338.44,12641.6 27326.25,12639.86 27315.81,12648.56 27305.37,12674.66 27298.41,12685.11 27287.96,12695.55 27275.78,12700.77 27263.6,12695.55 27260.12,12690.33 27254.9,12676.4 27246.19,12664.22 27237.49,12646.82 27235.75,12639.86 27232.27,12622.45 27232.27,12613.75 27235.75,12603.31 27235.75,12599.83 27237.49,12594.6 27239.23,12592.86 27240.97,12592.86 27253.16,12587.64 27254.9,12580.68 27251.42,12577.2 27244.45,12573.72 27237.49,12571.98 27228.79,12573.72 27204.42,12578.94 27197.46,12573.72 27166.13,12563.28 27148.73,12559.8 27030.38,12559.8 26983.39,12552.83 26870.26,12537.17 26861.56,12531.95 26849.38,12516.28 26840.67,12507.58 26830.23,12504.1 26818.05,12504.1 26805.87,12507.58 26793.68,12514.54 26786.72,12528.47 26760.61,12554.57 26753.65,12558.06 26744.95,12561.54 26684.04,12584.16 26677.07,12587.64 26656.19,12605.05 "/>
   <path class="fil0 str0" d="M29841.17 12876.55l19.15 6.97 19.14 5.22 1.74 1.74 1.74 1.74 1.74 0 0 1.74 0 3.48 0 5.22 0 3.48 1.75 1.74 1.74 1.74 3.48 1.74 0 1.74 0 3.48 -1.74 1.74 0 5.23 0 3.48 -1.74 3.48 0 3.48 1.74 3.48 1.74 6.96 1.74 6.96 0 1.74 0 1.74 -1.74 5.22 0 3.49 0 1.74 0 3.48 0 1.74 -1.74 1.74 0 1.74 -1.74 1.74 1.74 6.96 0 1.74 0 3.48 0 3.48 1.74 1.74 1.74 1.74 1.74 1.74 -1.74 1.74 0 1.74 1.74 1.74 1.74 0 1.74 -1.74 1.74 0 1.74 0 1.74 0 3.48 1.74 1.74 0 6.96 6.97 1.74 0 8.71 3.48 3.48 1.74 6.96 1.74 5.22 5.22 3.48 1.74 3.48 0 1.74 0 1.74 1.74 3.48 0 5.22 1.74 1.74 0 1.74 -1.74 1.75 0 1.74 0 1.74 0 5.22 1.74 6.96 5.22 1.74 1.74 6.96 1.74 1.74 1.74 1.74 0 1.74 -1.74 5.22 -3.48 3.48 0 3.49 -1.74 8.7 1.74 15.66 3.48 1.74 1.74 1.74 1.74 1.74 1.74 1.74 1.74 12.19 5.23 3.48 0 1.74 0 8.7 -1.74 17.4 0 24.37 -5.23 12.18 0 3.48 1.74 3.48 3.49 3.49 0 15.66 5.22 1.74 1.74 1.74 1.74 1.74 5.22 5.22 3.48 1.74 5.22 0 5.22 0 6.96 -1.74 5.23 0 12.18 -6.96 8.7 -12.18 19.14 -10.45 10.45 -1.74 5.22 -5.22 15.66 3.48 13.93 13.93 17.4 1.74 17.4 -3.48 24.37 6.96 40.03 13.92 46.99 -1.74 13.93 -8.7 10.44 -50.47 31.33 -36.55 19.14 -36.55 10.44 -41.77 10.45 -31.33 12.18 -38.29 19.14 -26.11 17.41 -10.44 8.7 -1.74 3.48 -1.74 6.96 -1.74 3.48 -6.96 5.22 -10.44 6.97 -5.22 3.48 -6.97 13.92 -1.74 1.74 -3.48 1.74 -3.48 1.74 -1.74 1.74 -1.74 1.74 -3.48 6.96 -5.22 3.49 -13.92 6.96 -6.97 10.44 -3.48 17.4 0 17.41 1.74 17.4 3.48 5.22 12.19 13.93 3.48 5.22 1.74 1.74 3.48 -3.48 5.22 -5.22 1.74 -1.74 8.7 -1.74 3.48 -1.74 0 6.96 -1.74 3.48 -3.48 3.48 -1.74 5.22 -6.96 -3.48 -5.22 3.48 -6.96 10.44 -10.45 3.48 -3.48 1.74 -1.74 0 -1.74 3.49 0 3.48 0 6.96 0 1.74 -1.74 3.48 -1.74 1.74 -3.48 0 -1.74 0 -1.74 1.74 -1.74 3.48 -1.74 6.96 1.74 8.7 1.74 3.49 3.48 -3.49 1.74 0 1.74 5.23 0 3.48 -3.48 8.7 -5.22 -1.74 -6.96 -6.96 -3.48 -1.74 -40.03 -1.74 -71.36 -3.49 -53.95 -1.74 -33.07 1.74 -10.44 1.75 -5.23 1.74 -1.74 0 -5.22 5.22 -1.74 1.74 -26.1 0 -33.07 3.48 -24.37 -1.74 -34.81 1.74 -8.7 -8.7 -6.96 -3.48 -5.22 3.48 -3.48 -3.48 -6.96 -5.23 -3.49 -3.48 5.23 0 1.74 0 1.74 1.74 5.22 -3.48 0 -3.48 -3.48 -1.74 -5.22 -1.74 -5.23 -1.74 1.75 -3.48 5.22 -8.7 3.48 -10.44 6.96 -6.97 15.66 -15.66 -5.22 1.74 -3.48 -1.74 0 -3.48 1.74 -3.48 6.96 -3.48 3.48 -1.74 0 -3.48 1.74 -6.97 0 -3.48 -1.74 -10.44 0 -1.74 -5.22 -1.74 -8.7 0 -3.48 -1.74 -3.48 3.48 -3.48 5.22 -3.48 1.74 -3.48 1.74 -1.74 0 -3.49 0 -3.48 -1.74 -3.48 1.74 -8.7 3.48 -13.92 10.45 -6.96 0 -6.97 1.74 -5.22 3.48 -1.74 8.7 1.74 6.96 10.45 20.89 1.74 0 1.74 -1.74 1.74 -1.74 1.74 -1.75 0 3.49 1.74 3.48 1.74 1.74 3.48 1.74 -1.74 0 -1.74 1.74 -1.74 1.74 13.92 8.7 5.22 1.74 0 5.22 -1.74 6.96 1.74 5.22 3.48 -1.74 0 6.97 -6.96 6.96 -8.7 5.22 -8.7 3.48 -80.06 8.7 -17.41 5.22 -15.66 6.97 -1.74 1.74 -1.74 3.48 -3.48 1.74 -1.74 0 -3.48 -6.96 -1.74 0 -13.93 -1.75 -87.02 8.71 -15.66 0 -6.96 1.74 -5.23 3.48 -6.96 5.22 -6.96 1.74 -5.22 -3.48 -1.74 -8.7 3.48 -6.96 3.48 -3.49 13.92 1.74 3.48 0 8.71 5.23 3.48 -1.74 1.74 -1.74 3.48 -10.45 6.96 6.96 13.92 3.49 27.85 0 27.85 -5.23 15.66 -5.22 8.7 -5.22 -6.96 -1.74 -8.7 -1.74 -6.96 -3.48 -1.74 -5.22 -1.74 1.74 -3.48 0 -5.22 -1.74 -1.75 0 -3.48 -3.48 -5.22 -8.7 -1.74 -1.75 -5.22 -1.74 -15.66 -1.74 -1.74 0 -3.48 -8.7 -5.23 0 -6.96 1.74 -6.96 -1.74 5.22 -3.48 0 -1.74 -5.22 1.74 -10.44 3.48 -1.74 1.74 -19.15 3.48 -3.48 0 -10.44 5.22 -3.48 1.74 -3.48 1.75 -1.74 5.22 -3.48 5.22 -6.96 1.74 1.74 -6.96 1.74 -5.22 -1.74 -3.49 -3.49 1.74 -3.48 3.49 -5.22 13.92 -3.48 3.48 -8.7 10.44 -5.22 3.48 -8.7 0 -1.74 0 -5.23 5.22 -1.74 0 -3.48 1.75 -1.74 0 0 -3.49 -1.74 -1.74 -3.48 1.74 -3.48 3.49 -6.96 0 -1.74 -1.75 0 -13.92 0 -3.48 -3.48 -1.74 -6.96 0 -5.23 6.96 -3.48 0 -1.74 -6.96 -5.22 3.48 -1.74 1.74 -3.48 3.48 -6.96 -6.96 -1.74 -5.22 5.22 -3.48 6.96 0 3.48 -1.74 0 -3.48 -1.74 -5.22 -1.74 -1.74 -1.74 -1.75 0 -1.74 3.48 -3.48 -3.48 -1.74 -3.48 0 -3.48 -1.74 -3.48 1.74 1.74 5.22 -1.74 3.49 -1.74 3.48 -3.48 3.48 -1.74 -3.48 -1.74 -3.48 -1.74 -1.75 -1.74 1.75 -1.74 0 0 1.74 -5.23 -3.49 -3.48 3.49 -6.96 12.18 1.74 6.96 -6.96 3.48 -10.44 3.48 -17.41 3.48 -24.36 10.45 1.74 -1.74 0 -3.49 0 -1.74 -10.44 0 -8.71 3.48 -6.96 5.23 -8.7 19.14 0 1.74 1.74 3.48 0 1.74 -3.48 6.96 -3.48 12.19 0 3.48 1.74 10.44 6.96 -1.74 8.7 -5.22 6.96 -3.48 6.97 3.48 -17.41 13.92 -1.74 6.96 3.48 -5.22 5.22 -1.74 5.22 -1.74 5.23 3.48 -5.23 5.22 -3.48 5.23 -1.74 3.48 1.74 5.22 1.74 -1.74 5.23 -8.71 5.22 -5.22 5.22 -3.48 5.22 -3.48 10.44 0 -3.48 5.22 -1.74 1.74 -1.74 1.74 5.22 5.23 10.44 1.74 6.97 1.74 3.48 8.7 -8.71 -1.74 -5.22 5.22 -8.7 12.18 -6.96 6.96 -5.22 -1.74 -5.22 -3.48 -5.22 1.74 -5.23 -3.48 -10.44 0 -10.44 1.74 -8.7 3.48 -10.45 -6.96 -3.48 -3.48 -3.48 -6.96 -1.74 -3.48 -3.48 -1.74 -1.74 0 0 1.74 -1.74 1.74 -3.48 0 -1.74 -1.74 -5.22 -8.7 -8.7 -13.93 -1.75 -3.48 0 -1.74 0 -1.74 0 -1.74 0 -3.48 6.97 -10.44 3.48 -3.48 1.74 0 1.74 -1.74 3.48 -3.48 3.48 -6.97 0 -3.48 0 -3.48 0 -3.48 0 -5.22 0 -6.96 3.48 -20.89 0 -1.74 0 -5.22 0 -1.74 0 -3.48 0 -1.74 1.74 -1.74 6.96 0 1.74 -1.74 3.48 0 1.74 -1.74 3.49 -8.7 1.74 -1.74 3.48 -3.49 1.74 0 1.74 -1.74 1.74 0 12.18 -1.74 3.48 -1.74 6.96 -3.48 12.19 -8.7 8.7 -5.22 1.74 0 1.74 0 3.48 0 1.74 0 5.22 3.48 1.74 0 5.22 -1.74 19.15 -12.18 1.74 0 1.74 1.74 0 1.74 1.74 1.74 0 1.74 1.74 0 1.74 1.74 3.48 -1.74 3.48 0 10.45 -5.22 1.74 0 1.74 1.74 3.48 1.74 1.74 0 5.22 -1.74 17.4 -10.45 12.19 -3.48 1.74 -1.74 1.74 -1.74 5.22 -10.44 0 -3.48 0 -1.74 0 -1.74 -1.74 -3.48 1.74 -3.48 8.7 -10.45 3.48 -1.74 3.48 -1.74 5.22 -1.74 1.74 0 3.48 -1.74 1.74 -1.74 1.75 -1.74 0 -1.74 0 -1.74 0 -3.48 -1.75 -3.48 -6.96 -12.18 -5.22 -8.71 -5.22 -6.96 0 -1.74 -1.74 1.74 -1.74 0 -1.74 1.74 -1.74 0 -5.22 0 -12.19 -1.74 -8.7 0 -5.22 1.74 -3.48 1.74 -5.22 0 -1.74 -1.74 -3.48 -3.48 -1.74 -1.74 -1.74 1.74 -1.74 3.48 -1.74 0 -3.48 1.74 -6.97 0 -3.48 0 -1.74 1.74 -1.74 1.74 -1.74 0 -15.66 1.74 -1.74 0 -1.74 0 0 1.74 -1.74 0 -3.48 1.75 -5.23 0 -1.74 0 -3.48 -1.75 -5.22 -3.48 -1.74 0 -3.48 0 -1.74 1.74 -5.22 0 -3.48 0 -1.74 0 -8.7 -3.48 -1.75 -1.74 -1.74 -1.74 0 -1.74 -3.48 -12.18 0 -1.74 -3.48 0 -1.74 0 -1.74 -1.74 0 -1.74 -1.74 -1.74 -5.22 -6.96 -5.22 -3.49 -3.48 -3.48 -1.74 -3.48 -8.7 -17.4 -1.75 -3.48 -3.48 -3.48 -5.22 -3.48 -10.44 -5.22 -5.22 0 -5.22 0 13.92 -10.45 6.96 -3.48 15.67 -5.22 3.48 0 3.48 0 8.7 1.74 6.96 1.74 5.22 0 0 -1.74 1.74 -1.74 5.23 -8.7 5.22 -5.22 1.74 -1.74 3.48 0 10.44 -1.74 8.7 -1.74 5.22 -1.74 1.74 0 1.74 -1.75 27.85 -15.66 3.48 -1.74 3.48 0 3.48 0 3.48 1.74 17.41 -3.48 5.22 0 15.66 -1.74 1.74 0 3.49 0 1.74 0 1.74 1.74 1.74 1.74 1.74 1.74 5.22 0 8.7 -1.74 33.07 -19.14 3.48 -1.74 6.96 -8.71 3.48 -1.74 1.74 0 3.48 -1.74 1.74 0 41.77 -17.4 12.19 -3.48 5.22 -1.74 3.48 -3.48 5.22 -3.48 19.15 -8.71 10.44 -3.48 3.48 0 1.74 1.74 1.74 0 0 1.74 1.74 1.74 1.74 1.74 1.74 0 1.74 1.74 5.22 -1.74 3.48 0 6.97 -3.48 3.48 0 1.74 0 3.48 1.74 1.74 1.74 1.74 0 3.48 -3.48 3.48 -3.48 1.74 0 3.48 0 3.48 1.74 3.48 0 1.74 0 1.74 -1.74 3.48 -1.74 1.75 -1.74 1.74 1.74 3.48 3.48 1.74 1.74 1.74 0 1.74 1.74 5.22 0 5.22 -1.74 5.22 -1.74 3.48 0 6.96 0 5.23 0 1.74 -1.74 5.22 -1.74 27.84 -15.66 8.71 -1.74 5.22 0 1.74 0 1.74 0 1.74 1.74 1.74 0 5.22 0 10.44 0 3.48 0 1.74 0 1.74 1.74 3.49 1.74 1.74 1.74 3.48 0 5.22 1.74 5.22 -1.74 8.7 0 8.7 0 1.74 1.74 1.74 0 0 1.74 0 3.48 0 1.74 0 1.74 -1.74 1.74 -1.74 1.74 0 1.74 -1.74 1.74 0 1.74 0 1.74 0 1.74 1.74 1.75 0 3.48 5.23 -1.74 3.48 -5.23 3.48 -3.48 5.22 0 8.7 3.48 1.74 -1.74 3.48 -6.96 1.74 -5.22 3.48 -5.22 6.96 -5.22 22.63 -1.74 5.22 -3.48 12.18 -10.45 5.23 -3.48 46.99 -19.14 26.1 -15.67 43.51 -15.66 33.07 -19.14 19.15 -5.22 6.96 -5.23 3.48 -3.48 3.48 -3.48 5.22 0 5.22 3.48 5.22 0 3.49 -1.74 6.96 -6.96 3.48 -1.74 5.22 -10.44 1.74 -5.22 -1.74 -1.74 -1.74 -3.48 -1.74 -3.49 -1.74 0 0 -1.74 -3.48 -1.74 -1.74 0 -1.74 0 -1.74 0 -1.74 0 -1.74 1.74 -3.49 0 -1.74 0 -3.48 -1.74 -3.48 -1.74 -1.74 0 -1.74 0 -3.48 0 0 -1.74 0 -3.48 1.74 -10.44 6.96 -13.92 15.67 -26.11 0 -1.74 1.74 -3.48 0 -6.96 0 -12.19 0 -3.48 0 -1.74 5.22 -10.44 1.74 -1.74 19.14 -13.92 3.48 -20.89 1.74 -6.96 8.71 -19.15 1.74 -3.48 0 -3.48 -1.74 -3.48 0 -3.48 0 -5.22 1.74 -3.48 0 -1.74 3.48 -3.48 1.74 -1.74 1.74 -3.48 1.74 -6.97 1.74 -3.48 5.22 -6.96 3.48 -5.22 6.96 -13.92 1.74 -6.96 0 -3.49 -1.74 -1.74 -5.22 0 -1.74 0 -1.74 -1.74 -1.74 0 -1.74 -1.74 0 -3.48 -1.74 -5.22 1.74 -3.48 1.74 -1.74 3.48 -1.74 3.48 -1.74 3.48 -3.48 1.74 -3.48 3.48 -1.74 1.75 0 1.74 3.48 3.48 0 1.74 0 1.74 0 3.48 0 6.96 -1.74 1.74 0 1.74 0 0 1.74 1.74 1.74 1.74 0 3.48 0 1.74 0 1.74 0 1.74 -1.74 3.48 -1.74 1.75 -3.48 1.74 -1.74 6.96 -13.93 5.22 -10.44 1.74 -1.74 -1.74 -3.48 3.48 -8.7 3.48 -1.74 3.48 0 5.22 -1.74 1.74 -1.75 1.74 -1.74 3.48 -3.48zm-783.19 896.32l5.22 5.23 0 1.74 -5.22 1.74 -1.74 1.74 -1.74 1.74 -1.74 -1.74 -1.74 -1.74 0 -1.74 0 -1.74 -3.48 0 -1.74 0 -3.48 1.74 0 1.74 -5.22 -1.74 -3.49 1.74 -3.48 3.48 -3.48 1.74 -15.66 3.48 -3.48 0 -5.22 -3.48 -3.48 -1.74 -3.48 -1.74 -5.23 -1.74 -3.48 1.74 -3.48 5.22 -1.74 6.96 -1.74 5.22 -1.74 0 0 -1.74 -1.74 -1.74 -1.74 -3.48 -1.74 -1.74 0 -3.48 1.74 -3.48 -6.96 0 -1.74 -1.74 -1.74 -1.74 0 -3.48 1.74 0 13.92 -6.97 8.7 -10.44 5.23 1.74 3.48 -3.48 8.7 -8.7 1.74 -1.74 0 -6.96 3.48 0 0 1.74 1.74 1.74 3.48 0 3.48 1.74 3.48 1.74 3.48 1.74 0 1.74 -1.74 1.74 -1.74 0 -1.74 1.74 -1.74 0 6.96 5.22 5.22 -3.48 3.49 3.48 3.48 3.48 3.48 1.74 3.48 -1.74 1.74 -1.74 0 -3.48 1.74 -1.74 3.48 1.74 0 3.48 -1.74 1.74 0 1.74 3.48 3.48 3.48 3.48z"/>
  </g>
 </g>
</svg>
