<?xml version="1.0" encoding="UTF-8"?>
<!DOCTYPE svg PUBLIC "-//W3C//DTD SVG 1.1//EN" "http://www.w3.org/Graphics/SVG/1.1/DTD/svg11.dtd">
<!-- Creator: CorelDRAW -->
<svg xmlns="http://www.w3.org/2000/svg" xml:space="preserve" width="355.6mm" height="215.9mm" version="1.1" style="shape-rendering:geometricPrecision; text-rendering:geometricPrecision; image-rendering:optimizeQuality; fill-rule:evenodd; clip-rule:evenodd"
viewBox="0 0 35560 21590"
 xmlns:xlink="http://www.w3.org/1999/xlink"
 xmlns:xodm="http://www.corel.com/coreldraw/odm/2003">
 <defs>
  <style type="text/css">
   <![CDATA[
    .str0 {stroke:white;stroke-width:16.32;stroke-linejoin:round;stroke-miterlimit:22.9256}
    .fil0 {fill:#9FAF8A;fill-rule:nonzero}
   ]]>
  </style>
 </defs>
 <g id="Camada_x0020_1">
  <metadata id="CorelCorpID_0Corel-Layer"/>
  <g id="_2021074909440">
   <path class="fil0 str0" d="M18083.7 13490.92l-2.61 0 -0.87 -0.87 -0.87 -2.61 -0.87 -1.74 -0.87 -0.87 -0.87 -0.87 -1.74 0 -5.22 -1.74 -3.48 -1.74 -6.96 -8.7 -1.74 -0.87 -0.87 -0.87 -10.44 -4.35 -4.36 -0.87 -0.87 0.87 -0.87 0.87 -0.87 2.61 -0.87 0.87 -3.48 0 -0.87 0 -0.87 0 -3.48 2.61 -1.74 0.87 -7.83 1.74 -1.74 0.87 -0.87 0.87 0 0.87 0 0.87 0.87 0.87 6.09 4.35 1.74 1.74 0 0.87 0.87 0.87 0.87 1.74 0 0.87 0 1.75 0 1.74 -0.87 2.61 -1.74 0.87 -0.87 0 -0.87 0 -0.87 -0.87 -1.74 -3.48 -1.74 -0.87 -0.87 -0.88 -9.57 -2.61 -1.74 -0.87 -1.74 -1.74 -0.87 -1.74 0 -0.87 0 -1.74 0 -0.87 0.87 -6.09 0 -3.48 -0.87 -3.48 0 -1.74 0.87 -1.74 0.87 0 3.48 -2.61 5.22 -5.22 2.61 -3.48 1.74 -2.62 0.87 -2.61 0.87 -1.74 0.87 -0.87 0.87 0 0.87 0.87 0.87 2.61 0.87 0.87 0.87 0 0.87 -0.87 0.87 -0.87 0.87 -0.87 0.87 0 0.87 0.87 0.87 0 0.87 -0.87 0.87 -0.87 0 -0.87 0 -2.61 0 -2.61 0 -0.87 0 -0.87 4.35 -3.48 0.87 -1.74 0.87 -5.22 2.61 -6.96 0.87 -1.74 0 -2.61 -2.61 -18.28 0 -5.22 1.74 -7.83 0 -0.87 0.87 -0.87 0 -0.87 0.88 -0.87 1.74 -0.87 0.87 -0.87 0.87 -1.74 0.87 -0.87 -0.87 -1.74 0 -0.87 0 -2.61 0 -0.87 0.87 -0.87 0 -0.88 0.87 -0.87 0.87 0.87 0 0.88 0 0.87 0 0.87 0.87 0.87 0.87 0 0.87 -0.87 2.61 -3.49 0.87 -0.87 1.74 -0.87 0.87 -0.87 2.61 0 0.87 -1.74 1.74 -2.61 6.09 -10.44 0 -0.87 1.74 -0.87 0.87 -0.87 0.87 -0.87 0.87 0 0.87 0 0.87 0 1.74 0.87 1.74 0.87 0.87 0 0.87 0.87 0.87 0 1.74 -0.87 1.75 -0.87 0.87 -2.61 -3.49 -6.96 0 -1.74 0 -1.74 0 -0.87 1.75 -0.87 0.87 -0.87 -0.87 -0.87 -4.36 -3.49 -0.87 -1.74 -2.61 -5.22 -0.87 -0.87 -0.87 0 -0.87 2.61 -0.87 1.74 -0.87 0.87 -6.96 0 -2.61 -0.87 -2.61 -1.74 -0.87 -1.74 -0.87 -2.61 -0.87 -0.87 -1.74 -1.74 -1.74 0 -6.09 2.61 -2.61 0.87 -0.87 0.87 -0.87 0 -1.75 -2.61 -1.74 -0.87 -1.74 -0.87 -5.22 2.61 -3.48 2.61 -2.61 0.87 -1.74 0 -1.74 0 -4.35 -0.87 -3.48 -0.87 -1.74 0 -0.87 -0.87 0 -2.61 -0.87 -1.74 -1.74 -0.87 -1.74 2.61 0 3.48 -0.87 2.61 -2.61 0 -2.61 -1.74 -3.49 -3.48 -3.48 -1.74 -17.4 -1.74 -2.61 0 -2.61 1.74 -2.61 -3.48 -4.35 -1.74 -10.45 0 -1.74 -0.87 -3.48 -2.61 -1.74 -0.87 -2.61 0 -2.61 0 -2.61 1.74 -1.74 0.87 -6.96 -5.22 -6.09 -1.74 -1.74 -0.87 0 -1.74 -3.49 -5.22 -6.09 -7.84 -1.74 -5.22 -1.74 -1.74 -1.74 -1.74 -4.35 -2.61 -1.74 -1.74 -1.74 -3.48 -3.48 -12.18 -3.48 -4.35 -1.74 0.87 -1.74 -0.87 -0.87 -1.74 -2.61 -0.87 -0.87 0.87 -1.74 0.87 -1.74 0.87 -1.74 -1.74 -0.88 -1.74 0.88 -2.62 -0.88 -2.61 -0.87 -0.87 -2.61 -0.87 0 -1.74 1.74 -2.61 0 -4.35 -0.87 -2.61 -5.22 -5.22 -5.22 -6.96 -2.61 -2.61 -4.35 0.87 -4.35 -4.35 -6.96 -12.19 -4.35 -6.09 0 -1.74 0 -0.87 -0.87 -0.87 -4.36 -1.74 -2.61 -2.61 -5.22 -1.74 -4.35 -4.35 -2.61 -0.87 -1.74 0 -1.74 0.87 -1.74 0 -1.74 -0.87 -6.09 -6.09 -0.87 -1.74 -3.48 -0.87 -0.87 -0.87 0.87 -1.74 0.87 -1.74 0 -1.75 0 -1.74 -3.48 -1.74 -2.61 0 -2.61 -0.87 -0.88 -5.22 -1.74 -3.48 -2.61 1.74 -4.35 4.35 -1.74 -1.74 0 -1.74 0 -1.74 -1.74 -0.87 -1.74 -1.74 -0.87 0 -1.74 0 -1.74 -1.74 -1.74 -4.35 -0.87 -2.61 -1.74 -1.74 -4.35 -0.87 -3.48 0.87 -3.48 0.87 -3.48 0.87 -2.62 -2.61 0 -1.74 1.75 -4.35 -0.87 -0.87 -6.1 2.61 -0.87 -0.87 0 -2.61 -0.87 -3.48 -0.87 -2.62 -2.61 0.88 -0.87 1.74 -0.87 1.74 -0.87 0 -2.61 -1.74 -0.87 -0.87 0 -1.75 -0.87 -1.74 -1.74 -0.87 -1.74 0.87 -1.74 1.74 -1.74 3.49 -1.74 0.87 -1.74 -1.74 -1.74 -1.74 -0.87 -0.88 -3.48 0 -3.48 0 -0.87 2.62 0.87 4.35 -5.23 0 -3.48 -0.87 -4.35 -0.87 0 -0.87 1.74 -3.48 -0.87 -1.75 -0.87 -0.87 -0.87 -0.87 -1.74 6.97 -0.87 1.74 -3.48 -0.87 -1.74 -3.48 -0.87 -6.1 -0.87 -3.48 -1.74 1.74 -1.74 0.87 -1.74 0.87 -2.61 -0.87 5.22 -3.48 -4.35 -4.35 -10.44 -5.22 2.61 -1.74 2.61 0 6.09 0 -2.61 -3.48 -7.83 -1.74 -1.74 -3.48 0 -2.61 -0.87 0 -13.06 0 -2.61 0 0 -1.74 0.87 -3.48 -1.74 -1.74 -3.48 0 -3.48 0 -1.74 -4.36 -1.74 -0.87 -4.35 3.48 -5.22 6.97 -2.61 -1.74 -2.62 -3.48 -0.87 -3.49 0 -0.87 3.49 -0.87 0.87 -1.74 -1.74 -1.74 -3.49 -1.74 -4.35 0.87 -1.74 1.74 0 2.61 0.87 4.36 -2.61 0.87 -0.87 -0.87 -0.87 -0.88 -1.74 -1.74 -1.74 0 -2.61 0 -2.61 0.87 -0.87 0.87 -0.87 -0.87 -0.87 -5.22 -0.87 -1.74 -0.87 -0.87 -0.87 -0.87 -0.87 0 -0.87 1.74 0 0.87 0.87 0.87 0 0.87 -0.87 2.61 -1.74 -2.61 -1.74 -3.48 -1.74 -2.61 0 -0.87 0 -0.87 0 -0.87 -1.74 0 -1.74 0.87 -0.87 1.74 -0.87 1.74 -0.87 1.74 -0.87 2.61 -2.62 0 -5.22 -1.74 -0.87 -0.87 -0.87 -1.74 -0.87 0 -0.87 0 -2.61 0.87 -2.61 0.87 -5.22 1.74 -1.74 0.87 -3.48 -0.87 -3.48 -0.87 -2.61 0 -0.87 0.87 -1.74 2.61 -1.74 0.87 -0.87 -2.61 -0.87 -2.61 -1.74 -1.74 -1.75 0 -1.74 2.61 -5.22 -5.22 -2.61 -2.61 -4.35 0 -3.48 -1.74 -0.87 -4.35 -1.74 -3.48 -4.35 0 -2.61 1.74 -1.74 2.61 -2.61 2.61 -3.48 0.87 -1.74 -1.74 -0.87 -4.35 0 -1.74 -3.49 5.22 -0.87 1.74 -0.87 2.61 -0.87 1.74 -1.74 0.87 -0.87 0 -1.74 -1.74 0 -1.74 0 -1.74 1.74 -2.61 1.74 -3.48 -0.87 -2.61 -1.74 -2.61 -0.87 0.87 -1.74 0.87 -1.74 -0.87 -0.87 -2.61 0.87 -1.74 0.87 -1.74 2.61 -3.48 0 -1.74 -2.61 -0.87 -3.48 0.87 -2.61 2.61 -1.74 3.48 0 3.48 -1.74 2.61 -2.61 2.61 -4.35 0 -2.61 -0.87 -4.35 -5.22 -0.87 6.09 -1.74 2.61 -1.74 0.87 -1.75 0 -3.48 -2.61 -1.74 -0.87 -5.22 1.74 -7.83 5.22 -4.35 0 4.35 -9.57 2.61 -6.09 -1.74 -2.61 -4.35 0 -3.48 -1.74 -6.96 -4.36 -3.48 6.1 -2.61 3.48 -2.62 0.87 -1.74 0.87 -2.61 1.74 -1.74 0 -0.87 -0.87 -1.74 -1.74 -0.87 -1.74 -1.74 -0.87 -2.61 2.61 0 4.35 0 5.22 -0.87 3.48 -2.61 0 -8.7 -2.61 -3.48 -0.87 -3.48 1.74 -4.35 5.22 -3.49 0.87 -0.87 -5.22 -0.87 -4.35 -2.61 -2.61 -1.74 0 -0.87 0.87 -1.74 1.74 -4.35 2.61 -1.74 0 -1.74 0 -1.74 0 -0.87 -0.87 -0.87 -1.74 -0.87 -1.74 -0.87 -1.74 -1.74 0 -3.48 0.87 -1.74 0.87 -0.87 0.87 -1.74 0.87 -1.74 0 0 -0.87 1.74 -0.87 1.74 -3.48 0.87 -1.74 -1.74 -1.74 0 -1.74 0 -0.87 2.61 -1.74 0.87 -0.87 0.87 -2.61 -0.87 -6.1 0.87 -2.61 0.87 -0.87 2.61 0 1.74 -0.87 0.87 -0.87 6.96 -16.53 2.61 -6.96 0 -6.1 -1.74 -12.18 -1.74 -6.96 -0.87 0 -2.61 -0.87 0 -1.74 0.87 -2.61 0 -2.61 -0.87 0 -1.74 -0.87 -1.74 -0.87 -0.87 -2.61 0.87 -2.61 1.74 0 1.74 -0.87 0.87 -0.87 0.87 -3.48 0.87 -3.49 -0.87 -7.83 0 -3.48 1.74 -6.96 0.87 -3.48 0 0.87 -0.87 -0.87 -0.87 -2.61 0 -1.74 0 -0.87 1.74 -1.74 2.61 -1.74 0 -6.09 -1.74 -18.28 0.87 -6.09 7.83 -10.44 1.74 -6.09 2.62 0 2.61 -0.87 1.74 0 1.74 0 10.44 3.48 6.96 3.48 0.87 0 1.74 0 3.48 0 1.74 -0.87 1.74 0 13.93 -8.71 0.87 0 0.87 0 2.61 -0.87 2.61 0.87 10.44 3.49 2.61 1.74 1.74 1.74 0 0.87 0.87 0.87 0.87 0 7.83 5.22 3.49 2.61 5.22 2.61 1.74 0.87 0.87 0.87 0.87 0.87 0.87 1.74 0.87 0.87 1.74 0 2.61 0 9.57 0 6.96 -2.61 1.74 -0.87 0.87 0 1.74 0 1.74 1.74 1.74 0.87 0.88 0.87 1.74 0 5.22 -0.87 6.09 -1.74 3.48 -1.74 1.74 -0.87 3.48 -0.87 1.74 0 26.11 7.83 2.61 1.74 0.87 1.74 0.87 0.87 4.35 0.87 13.05 -0.87 6.96 2.61 6.1 3.48 0.87 0 1.74 0 8.7 0 8.7 2.61 2.61 0 1.74 0 5.22 -0.87 4.35 0.87 4.36 0.87 4.35 0.87 3.48 0 1.74 0 1.74 0 1.74 0.87 8.7 5.23 0.87 0.87 0.87 1.74 0.87 2.61 0.87 0.87 2.61 2.61 10.44 6.09 2.62 3.48 0.87 0 0.87 0.87 1.74 0 6.96 0 3.48 0 11.31 3.48 29.59 0 1.74 0 2.61 -0.87 2.61 -1.74 0.87 -0.87 1.74 0 0.87 0 1.74 0.87 0.87 1.74 0.87 0.87 0.87 0.87 1.74 0 19.15 -0.87 0.87 0 0.87 0 0.87 0.87 0 0.87 0.87 0.87 0 2.61 0 0.87 0.87 0.87 0 0.87 0.87 0 2.61 1.74 1.74 0.87 0 0.87 0.87 1.74 1.74 2.62 1.74 3.48 0.87 0.87 0 0.87 0.87 -0.87 0.87 -0.87 0.87 -2.61 0.87 -0.87 1.74 -0.87 9.58 -2.62 5.22 -0.87 1.74 0 1.74 -0.87 5.22 -4.35 2.61 -4.35 0.87 -3.48 -0.87 -1.74 0 -2.61 -1.74 -3.48 -5.22 -9.57 0 -0.87 0 -0.87 1.74 -2.61 0 -1.74 0 -0.87 0 -0.87 -2.61 -1.75 -0.87 -1.74 0 -0.87 -0.87 -0.87 0.87 -0.87 0 -0.87 0.87 -1.74 3.48 -3.48 0.87 -1.74 0 -1.74 0.87 -4.35 0 -0.87 0.87 -1.74 0.87 -0.87 0.87 -0.87 2.61 -2.61 1.74 -2.61 1.74 -0.87 1.74 -0.87 10.44 -2.61 0.87 -0.87 1.74 -0.87 1.74 -1.74 0.87 -1.74 1.75 -2.62 2.61 -1.74 0.87 -0.87 0.87 0 0.87 0 0.87 0.87 0.87 0.87 0.87 0.87 0.87 0 1.74 -0.87 3.48 -0.87 2.61 0 0.87 0 0.87 0 0.87 0.87 0.87 0.87 1.74 2.62 0.87 0.87 0.87 0 0.87 0 0.87 -1.74 0.87 -1.75 0.87 -0.87 1.74 0 0.87 0.87 0.87 0 0.87 0.87 0 0.88 0 0.87 0.87 2.61 0 0.87 0.87 0 0.87 0 0.87 -1.74 0.87 -1.74 0 -0.87 0.87 -0.88 1.74 0 2.62 0 0.87 0.88 0.87 0 1.74 0 0.87 -0.88 0.87 0 6.09 -4.35 1.74 -0.87 1.74 -0.87 0.87 0 1.74 0 0.87 0.87 1.74 0.87 0.87 0.87 0.87 0 0.87 -0.87 0.87 -1.74 0 -2.61 1.74 -1.74 3.48 -5.22 2.61 -3.48 1.74 -1.74 1.74 -4.35 2.61 -10.44 1.75 -1.74 0.87 0 1.74 -0.87 7.83 -0.87 2.61 -0.87 0.87 -0.88 0 -0.87 0 -0.87 -0.87 0 -4.35 -1.74 0 -0.87 -0.87 -0.87 0 -0.87 0 -0.87 0.87 0 1.74 0 1.74 0.87 1.74 0.87 1.74 0.87 0.87 0.87 12.18 -0.87 2.61 0.87 0.87 0.87 0.87 0.87 0 1.74 0.87 0.88 0.87 0 0.87 0.87 0.87 0 5.23 0.87 1.74 0 0.87 0.87 0.87 0 0.87 0.87 0 0.87 0.87 0.87 0.87 4.35 0.87 0.87 0 0.87 0.87 0 1.74 0.87 1.74 0 0.87 0 0.87 -0.87 0 -1.74 0 -0.87 0 -0.87 -0.87 -0.87 0 -1.74 0 -0.87 0.87 -0.87 0.87 -1.74 0.87 -0.87 2.61 -1.75 0.87 -0.87 1.74 0 2.61 0 4.35 0 2.61 0 0.87 0.87 0.87 0.88 0.87 0 1.74 0.87 2.61 0 0.87 0 1.75 0 2.61 -0.87 1.74 -0.88 6.09 0 15.66 -2.61 2.61 -0.87 0.87 -0.87 2.61 -1.74 5.22 0.87 1.74 -0.87 1.75 0.87 0.87 0 0.87 1.74 0.87 0 1.74 0.87 2.61 0 1.74 0.87 1.74 0.87 3.48 1.75 1.74 2.61 0.87 0.87 2.61 2.61 3.48 1.74 11.31 6.96 1.74 1.74 1.74 1.74 0 2.61 0.87 0.87 10.45 6.96 12.18 5.22 2.61 0.87 5.22 0.87 6.96 0 3.48 -1.74 0.87 -1.74 1.75 -4.35 0.87 -1.74 0.87 -0.87 1.74 -1.74 0.87 0 1.74 -0.87 2.61 0 8.7 -3.48 13.92 -7.83 1.74 -0.87 0.87 -1.74 5.22 -6.96 2.62 -2.62 4.35 -2.61 2.61 -1.74 4.35 -1.74 5.22 -0.87 1.74 -0.87 0.87 0 0 -0.87 0.87 -0.87 0.87 0 0.87 0 0.87 0 0.87 0 0 0.87 0 0.87 0 0.87 0 0.87 0.87 0.87 0.87 0 3.48 -0.87 0.87 -0.87 2.61 1.74 1.74 0 0.87 -0.87 0 -0.87 0.87 -0.87 0 -0.87 1.74 0.87 3.49 1.74 4.35 -0.87 2.61 0 3.48 0 2.61 -1.74 0 -1.74 0.87 -0.87 0 -0.87 0.87 -0.87 46.99 -0.87 5.22 1.74 1.74 0.87 5.22 -0.87 -0.87 2.61 -2.61 6.09 -1.74 2.61 0.87 2.62 0.87 3.48 3.48 17.4 0 2.61 -1.74 2.61 -4.35 0 -3.48 1.74 -1.74 2.61 -1.74 3.48 -1.74 1.74 -3.48 0.87 -4.35 -0.87 -3.48 -1.74 -1.74 -2.61 -0.87 -4.35 -0.87 -3.48 -2.61 -5.22 -0.87 -3.48 0 -3.48 0 -1.74 -1.74 -1.74 -0.87 -6.09 -1.75 1.74 0 3.48 1.75 5.22 -0.88 1.74 0 2.61 0.88 1.74 0 1.74 0.87 0 1.74 0.87 0.87 0.87 0 1.74 0 1.74 0.87 0.87 0 0.87 0.87 2.61 -1.74 4.35 0.87 2.61 0.87 1.74 -0.87 1.75 -0.87 0.87 -1.74 0 3.48 6.09 -2.61 -0.87 -1.74 0.87 -1.75 0.87 -0.87 1.74 6.97 0.87 3.48 1.74 0.87 2.61 1.74 2.61 10.44 4.35 1.74 1.74 1.74 1.74 0 1.74 0.87 2.61 0 1.74 1.74 1.74 1.74 0 1.74 1.74 -0.87 4.35 -8.7 19.15 -2.61 7.83 -0.87 13.05 0 11.32 0.87 2.61 0.87 0.87 7.83 6.96 2.61 -0.87 3.48 -0.87 1.74 0.87 0.87 1.74 0 1.74 -0.87 1.74 -2.61 1.74 -1.74 3.48 -2.61 3.48 -0.87 2.61 0 2.61 0 6.1 0.87 0.87 0.87 1.74 0.87 1.74 0 0.87 -0.87 1.74 -0.87 0.87 0 7.83 0 0.87 1.74 2.61 1.74 0.87 1.74 0 0 -0.87 3.48 4.35 -0.87 3.48 -1.74 3.48 -1.74 6.97 -0.87 1.74 -0.87 1.74 3.48 8.7 1.74 1.74 2.61 0.87 1.75 -0.87 1.74 -1.74 0 -1.74 1.74 -1.74 2.61 -1.74 1.74 1.74 1.74 3.48 3.48 0.87 -0.87 2.61 -0.87 0.87 -1.74 0.87 1.74 4.35 0 2.61 -0.87 0.87 -1.74 0.87 -2.61 0.87 -0.87 -0.87 -1.74 -1.74 2.61 -0.87 0.87 -1.74 -0.87 -1.74 -2.61 -1.74 -1.74 0.87 -3.49 1.74 -0.87 0.87 -0.87 0 -6.09 5.22 -0.87 1.74 -0.87 0.87 -0.87 1.74 0 2.61 1.74 7.84 0.87 0.87 0 0.87 6.09 0.87 1.74 2.61 1.75 3.48 0 8.7 -1.75 -2.61 -0.87 -0.87 -0.87 1.74 -0.87 0.87 0 1.74 0 2.61 -0.87 2.61 -1.74 0.87 -1.74 0 -1.74 0.87 -2.61 1.74 -1.74 2.61 -0.87 2.61 -0.87 3.48 6.96 15.67 2.61 0.87 2.61 2.61 0 3.48 -1.74 3.48 -0.87 -1.74 -3.48 1.74 -4.35 4.35 -1.74 2.61 1.74 2.61 0.87 3.48 0.87 4.36 0 3.48 0.87 1.74 1.74 2.61 0.87 1.74 -0.87 0.87 -1.74 1.74 -0.87 0.87 0.87 0.87 0.87 1.74 6.09 6.96 1.74 2.61 0 0.87 -1.74 0.87 -0.87 0.87 -0.87 0.87 0.87 1.74 1.74 0.87 0.87 0 0.87 0.87 0 3.48 -5.22 6.97 -1.74 3.48 -1.74 11.31 0.87 4.35 0.87 0.87 0.87 0.87 0 1.74 0.87 2.61 -0.87 1.74 -0.87 1.74 -1.74 0.87 -0.87 0.87 0 1.74 -1.74 6.1 -1.74 7.83 -1.74 8.7 -0.87 4.35 3.48 3.48 -2.61 3.48 -6.09 6.09 -0.87 1.74 -0.87 5.23 0 4.35 0 0.87 -5.22 6.09 -0.87 2.61 -1.74 7.83 -2.61 4.35 -0.87 2.61 0 1.74 0.87 2.61 -0.87 1.74 -1.74 0.87 -1.74 -0.87 -2.62 -3.48 -0.87 -3.48 -0.87 -4.35 0 -4.35 1.74 -3.48 0.87 -1.74 -0.87 -2.61 -4.35 -5.22 -2.61 -1.74 -2.61 -2.61 -2.61 0 -1.74 4.35 0.87 2.61 1.74 4.35 0 2.61 0 1.74 -1.74 1.74 -0.87 1.74 0.87 1.74 1.74 0 2.61 0 0.87 0 0 1.74 0 1.74 -1.74 1.74 0 1.74 -0.87 1.74 0 0.87 0.87 0.87 1.74 1.74 6.09 3.48 0.87 1.75 1.74 1.74 2.62 0 0.87 -0.87 1.74 -0.87 1.74 -0.88 -0.87 3.49 -1.74 3.48 -5.23 6.96 -1.74 4.35 -1.74 1.74 -1.74 0.87 -7.83 0.87 -2.61 0.87 -4.35 2.61 -5.22 1.74 -2.61 1.74 -3.48 4.35 -14.8 8.71 -49.6 40.9 -36.55 40.9 -28.72 39.15zm224.52 -382.02l0.87 -3.48 3.48 2.61 3.48 4.35 1.74 2.61 0 4.35 -0.87 3.48 -1.74 3.49 -1.74 3.48 -0.87 0.87 -0.87 1.74 0 1.74 0 2.61 0.87 4.35 0 2.61 -0.87 2.61 -2.61 3.48 -2.61 3.48 -1.74 0.87 -7.83 13.93 0 3.48 2.61 7.83 -0.87 2.61 -0.87 0.87 -3.48 0.87 -0.87 0.87 -2.61 4.35 -1.74 1.74 -1.74 0 -0.88 0 -0.87 0 0 -0.87 0 -14.79 0.87 -6.09 2.62 -5.23 -2.62 -1.74 1.75 -2.61 4.35 -5.22 -0.87 -4.35 -1.74 -4.35 -1.74 -2.61 3.48 -0.87 1.74 -0.87 1.74 -0.87 0.87 -1.74 0 -1.74 -0.87 -0.87 -0.87 -0.87 -1.74 -0.87 0 -1.74 0 -0.87 0.87 -1.74 0 -0.87 0 -1.74 -2.61 -2.62 -0.87 -1.74 0.87 -2.61 2.61 -1.74 0.87 -1.74 -0.87 -3.48 3.48 0 9.57 -2.61 1.74 -1.74zm-19.14 -208.85l-0.87 1.74 -5.23 5.22 0 1.74 0 2.61 0 4.35 -0.87 0 -0.87 -0.87 -0.87 -0.87 -3.48 0 -2.61 -5.22 -2.61 -5.22 -2.61 -2.61 -7.83 -6.09 0 -0.87 0 -0.87 3.48 -5.22 0.87 -0.87 2.61 -0.87 2.61 -0.87 0.87 -0.87 0.87 -1.75 0.87 -2.61 4.35 -2.61 5.22 -1.74 3.48 -2.61 -1.74 -4.35 3.49 -2.61 2.61 0 2.61 3.48 4.35 6.09 0.87 1.74 0 1.74 -0.87 1.74 -2.61 2.62 -1.74 4.35 -3.48 7.83 -0.87 4.35z"/>
   <polygon class="fil0 str0" points="17360.56,13061.04 17360.56,13061.91 17362.3,13061.91 17364.04,13061.04 17364.91,13060.17 17366.65,13059.3 17370.13,13058.43 17371.87,13058.43 17372.74,13060.17 17373.61,13061.91 17374.48,13063.65 17375.35,13064.52 17377.09,13064.52 17378.83,13064.52 17380.57,13064.52 17384.92,13061.91 17386.66,13060.17 17387.53,13059.3 17389.27,13059.3 17391.88,13061.91 17392.75,13066.26 17393.62,13071.48 17397.11,13070.61 17401.46,13065.39 17404.94,13063.65 17408.42,13064.52 17417.12,13067.13 17419.73,13067.13 17420.6,13063.65 17420.6,13058.43 17420.6,13054.08 17423.21,13051.47 17424.95,13052.34 17425.82,13054.08 17427.56,13055.82 17428.43,13056.69 17430.17,13056.69 17432.78,13054.95 17434.52,13054.08 17437.14,13053.21 17439.75,13049.73 17443.23,13043.63 17450.19,13047.99 17453.67,13049.73 17458.02,13049.73 17459.76,13052.34 17457.15,13058.43 17452.8,13068 17457.15,13068 17464.98,13062.78 17470.2,13061.04 17471.94,13061.91 17475.42,13064.52 17477.17,13064.52 17478.91,13063.65 17480.65,13061.04 17481.52,13054.95 17485.87,13060.17 17488.48,13061.04 17492.83,13061.04 17495.44,13058.43 17497.18,13055.82 17497.18,13052.34 17498.92,13048.86 17501.53,13046.25 17505.01,13045.38 17507.62,13046.25 17507.62,13047.99 17505.01,13051.47 17504.14,13053.21 17503.27,13054.95 17504.14,13057.56 17505.88,13058.43 17507.62,13057.56 17508.49,13056.69 17510.23,13059.3 17511.1,13061.91 17509.36,13065.39 17507.62,13068 17507.62,13069.74 17507.62,13071.48 17509.36,13073.22 17510.23,13073.22 17511.97,13072.35 17512.84,13070.61 17513.71,13068 17514.58,13066.26 17518.07,13061.04 17518.07,13062.78 17518.94,13067.13 17520.68,13068.87 17524.16,13068 17526.77,13065.39 17528.51,13062.78 17531.12,13061.04 17535.47,13061.04 17537.21,13064.52 17538.08,13068.87 17541.56,13070.61 17545.91,13070.61 17548.52,13073.22 17553.74,13078.44 17555.48,13075.83 17557.23,13075.83 17558.97,13077.57 17559.84,13080.18 17560.71,13082.79 17562.45,13081.92 17564.19,13079.31 17565.06,13078.44 17567.67,13078.44 17571.15,13079.31 17574.63,13080.18 17576.37,13079.31 17581.59,13077.57 17584.2,13076.7 17586.81,13075.83 17587.68,13075.83 17588.55,13075.83 17589.42,13077.57 17590.29,13078.44 17595.51,13080.18 17598.13,13080.18 17599,13077.57 17599.87,13075.83 17600.74,13074.09 17601.61,13072.35 17603.35,13071.48 17605.09,13071.48 17605.09,13072.35 17605.09,13073.22 17605.09,13074.09 17606.83,13076.7 17608.57,13080.18 17610.31,13082.79 17611.18,13080.18 17611.18,13079.31 17610.31,13078.44 17610.31,13077.57 17611.18,13075.83 17612.05,13075.83 17612.92,13076.7 17613.79,13077.57 17614.66,13079.31 17615.53,13084.53 17616.4,13085.4 17617.27,13084.53 17619.88,13083.66 17622.49,13083.66 17624.23,13083.66 17625.97,13085.4 17626.84,13086.28 17627.71,13087.15 17630.32,13086.28 17629.45,13081.92 17629.45,13079.31 17631.19,13077.57 17635.54,13076.7 17639.03,13078.44 17640.77,13080.18 17639.9,13081.92 17636.41,13082.79 17636.41,13083.66 17637.28,13087.15 17639.9,13090.63 17642.51,13092.37 17647.73,13085.4 17652.08,13081.92 17653.82,13082.79 17655.56,13087.15 17659.04,13087.15 17662.52,13087.15 17664.26,13088.89 17663.39,13092.37 17663.39,13094.11 17666,13094.11 17679.06,13094.11 17679.93,13094.11 17679.93,13096.72 17681.67,13100.2 17689.5,13101.94 17692.11,13105.42 17686.02,13105.42 17683.41,13105.42 17680.8,13107.16 17691.24,13112.38 17695.59,13116.73 17690.37,13120.21 17692.98,13121.08 17694.72,13120.21 17696.46,13119.34 17698.2,13117.6 17699.07,13121.08 17699.94,13127.18 17701.68,13130.66 17705.16,13131.53 17706.03,13129.79 17707.77,13122.82 17708.64,13123.69 17709.51,13124.56 17710.38,13126.31 17708.64,13129.79 17708.64,13130.66 17712.99,13131.53 17716.47,13132.4 17721.7,13132.4 17720.83,13128.05 17721.7,13125.43 17725.18,13125.43 17728.66,13125.43 17729.53,13126.31 17731.27,13128.05 17733.01,13129.79 17734.75,13128.92 17736.49,13125.43 17738.23,13123.69 17739.97,13122.82 17741.71,13123.69 17742.58,13125.43 17742.58,13127.18 17743.45,13128.05 17746.06,13129.79 17746.93,13129.79 17747.8,13128.05 17748.67,13126.31 17751.28,13125.43 17752.15,13128.05 17753.02,13131.53 17753.02,13134.14 17753.89,13135.01 17759.99,13132.4 17760.86,13133.27 17759.11,13137.62 17759.11,13139.36 17761.73,13141.97 17765.21,13141.1 17768.69,13140.23 17772.17,13139.36 17776.52,13140.23 17778.26,13141.97 17779.13,13144.58 17780.87,13148.93 17782.61,13150.67 17784.35,13150.67 17785.22,13150.67 17786.96,13152.41 17788.7,13153.28 17788.7,13155.02 17788.7,13156.76 17790.44,13158.5 17794.79,13154.15 17797.4,13152.41 17799.14,13155.89 17800.02,13161.11 17802.63,13161.98 17805.24,13161.98 17808.72,13163.72 17808.72,13165.46 17808.72,13167.21 17807.85,13168.95 17806.98,13170.69 17807.85,13171.56 17811.33,13172.43 17812.2,13174.17 17818.29,13180.26 17820.03,13181.13 17821.77,13181.13 17823.51,13180.26 17825.25,13180.26 17827.86,13181.13 17832.21,13185.48 17837.43,13187.22 17840.04,13189.83 17844.4,13191.57 17845.27,13192.44 17845.27,13193.31 17845.27,13195.05 17849.62,13201.14 17856.58,13213.33 17860.93,13217.68 17865.28,13216.81 17867.89,13219.42 17873.11,13226.38 17878.33,13231.6 17879.2,13234.21 17879.2,13238.56 17877.46,13241.17 17877.46,13242.91 17880.07,13243.78 17880.94,13244.65 17881.82,13247.26 17880.94,13249.88 17881.82,13251.62 17883.56,13253.36 17885.3,13252.49 17887.04,13251.62 17887.91,13250.75 17890.52,13251.62 17891.39,13253.36 17893.13,13254.23 17894.87,13253.36 17898.35,13257.71 17901.83,13269.89 17903.57,13273.37 17905.31,13275.11 17909.66,13277.72 17911.4,13279.46 17913.14,13281.2 17914.88,13286.42 17920.97,13294.26 17924.46,13299.48 17924.46,13301.22 17926.2,13302.09 17932.29,13303.83 17939.25,13309.05 17940.99,13308.18 17943.6,13306.44 17946.21,13306.44 17948.82,13306.44 17950.56,13307.31 17954.04,13309.92 17955.78,13310.79 17966.23,13310.79 17970.58,13312.53 17973.19,13316.01 17975.8,13314.27 17978.41,13314.27 17995.81,13316.01 17999.29,13317.75 18002.78,13321.23 18005.39,13322.97 18008,13322.97 18008.87,13320.36 18008.87,13316.88 18010.61,13314.27 18012.35,13315.14 18013.22,13316.88 18013.22,13319.49 18014.09,13320.36 18015.83,13320.36 18019.31,13321.23 18023.66,13322.1 18025.4,13322.1 18027.14,13322.1 18029.75,13321.23 18033.23,13318.62 18038.45,13316.01 18040.19,13316.88 18041.93,13317.75 18043.68,13320.36 18044.55,13320.36 18045.42,13319.49 18048.03,13318.62 18054.12,13316.01 18055.86,13316.01 18057.6,13317.75 18058.47,13318.62 18059.34,13321.23 18060.21,13322.97 18062.82,13324.71 18065.43,13325.58 18072.39,13325.58 18073.26,13324.71 18074.13,13322.97 18075,13320.36 18075.87,13320.36 18076.74,13321.23 18079.35,13326.45 18080.22,13328.19 18084.58,13331.68 18085.45,13332.55 18084.58,13333.42 18082.83,13334.29 18082.83,13335.16 18082.83,13336.9 18082.83,13338.64 18086.32,13345.6 18085.45,13348.21 18083.7,13349.08 18081.96,13349.95 18081.09,13349.95 18080.22,13349.08 18079.35,13349.08 18077.61,13348.21 18075.87,13347.34 18075,13347.34 18074.13,13347.34 18073.26,13347.34 18072.39,13348.21 18071.52,13349.08 18069.78,13349.95 18069.78,13350.82 18063.69,13361.26 18061.95,13363.87 18061.08,13365.61 18058.47,13365.61 18057.6,13366.48 18055.86,13367.35 18054.99,13368.22 18052.38,13371.71 18051.51,13372.58 18050.64,13372.58 18049.77,13371.71 18049.77,13370.84 18049.77,13369.97 18049.77,13369.09 18048.9,13368.22 18048.03,13369.09 18048.03,13369.97 18047.16,13370.84 18047.16,13371.71 18047.16,13374.32 18047.16,13375.19 18048.03,13376.93 18047.16,13377.8 18046.29,13379.54 18045.42,13380.41 18043.68,13381.28 18042.8,13382.15 18042.8,13383.02 18041.93,13383.89 18041.93,13384.76 18040.19,13392.59 18040.19,13397.81 18042.8,13416.09 18042.8,13418.7 18041.93,13420.44 18039.32,13427.4 18038.45,13432.62 18037.58,13434.36 18033.23,13437.84 18033.23,13438.71 18033.23,13439.58 18033.23,13442.19 18033.23,13444.8 18033.23,13445.67 18032.36,13446.54 18031.49,13447.41 18030.62,13447.41 18029.75,13446.54 18028.88,13446.54 18028.01,13447.41 18027.14,13448.28 18026.27,13449.15 18025.4,13449.15 18024.53,13448.28 18023.66,13445.67 18022.79,13444.8 18021.92,13444.8 18021.05,13445.67 18020.18,13447.41 18019.31,13450.02 18017.57,13452.64 18014.96,13456.12 18009.74,13461.34 18006.26,13463.95 18005.39,13463.95 18004.52,13465.69 18004.52,13467.43 18005.39,13470.91 18005.39,13474.39 18004.52,13480.48 18004.52,13481.35 18004.52,13483.09 18004.52,13483.96 18005.39,13485.7 18007.13,13487.44 18008.87,13488.31 18018.44,13490.92 18019.31,13491.8 18021.05,13492.67 18022.79,13496.15 18023.66,13497.02 18024.53,13497.02 18025.4,13497.02 18027.14,13496.15 18028.01,13493.54 18028.01,13491.8 18028.01,13490.05 18028.01,13489.18 18027.14,13487.44 18026.27,13486.57 18026.27,13485.7 18024.53,13483.96 18018.44,13479.61 18017.57,13478.74 18017.57,13477.87 18017.57,13477 18018.44,13476.13 18020.18,13475.26 18028.01,13473.52 18029.75,13472.65 18033.23,13470.04 18034.1,13470.04 18034.97,13470.04 18038.45,13470.04 18039.32,13469.17 18040.19,13466.56 18041.06,13465.69 18041.93,13464.82 18046.29,13465.69 18056.73,13470.04 18057.6,13470.91 18059.34,13471.78 18066.3,13480.48 18069.78,13482.22 18075,13483.96 18076.74,13483.96 18077.61,13484.83 18078.48,13485.7 18079.35,13487.44 18080.22,13490.05 18081.09,13490.92 18083.7,13490.92 18067.17,13515.29 18058.47,13532.7 18045.42,13553.58 18034.1,13579.69 18025.4,13590.13 17997.55,13668.45 17989.72,13692.81 17978.41,13720.66 17930.55,13800.72 17929.68,13804.2 17928.81,13806.81 17907.05,13839.88 17888.78,13859.9 17879.2,13875.56 17852.23,13908.63 17832.21,13929.51 17801.76,13954.75 17759.99,13990.43 17706.9,14022.63 17702.55,14026.98 17677.31,14059.18 17671.22,14069.62 17669.48,14071.36 17668.61,14067.01 17669.48,14061.79 17673.83,14054.82 17674.7,14051.34 17676.44,14046.99 17677.31,14041.77 17675.57,14038.29 17672.96,14033.94 17675.57,14031.33 17679.06,14029.59 17680.8,14026.11 17679.06,14020.02 17667.74,14006.96 17667.74,14000.87 17674.7,13996.52 17682.54,14000 17696.46,14009.57 17704.29,14009.57 17712.12,14006.09 17715.6,14000.87 17712.12,13995.65 17720.83,13993.91 17727.79,13993.91 17734.75,13993.91 17741.71,13988.69 17759.99,13967.8 17762.6,13961.71 17768.69,13957.36 17769.56,13953.88 17771.3,13948.66 17773.91,13950.4 17778.26,13957.36 17780,13956.49 17779.13,13953.01 17777.39,13945.18 17778.26,13941.7 17780,13936.47 17782.61,13932.99 17784.35,13930.38 17786.09,13937.35 17792.18,13939.09 17800.02,13937.35 17805.24,13933.86 17807.85,13931.25 17813.07,13927.77 17815.68,13926.03 17821.77,13916.46 17826.99,13904.28 17830.47,13889.48 17831.34,13874.69 17827.86,13861.64 17828.73,13858.16 17829.6,13849.45 17830.47,13846.84 17831.34,13844.23 17834.82,13845.1 17841.79,13847.71 17844.4,13846.84 17850.49,13844.23 17853.1,13843.36 17855.71,13843.36 17857.45,13845.1 17857.45,13856.42 17858.32,13858.16 17859.19,13859.03 17860.93,13858.16 17862.67,13857.29 17863.54,13856.42 17863.54,13853.8 17864.41,13851.19 17867.02,13850.32 17868.76,13849.45 17869.63,13848.58 17868.76,13846.84 17867.89,13845.97 17865.28,13846.84 17863.54,13845.97 17860.93,13839.88 17862.67,13832.92 17865.28,13824.22 17866.15,13815.51 17863.54,13811.16 17862.67,13809.42 17862.67,13807.68 17865.28,13808.55 17867.02,13809.42 17868.76,13809.42 17873.98,13809.42 17876.59,13807.68 17890.52,13796.37 17897.48,13794.63 17900.09,13792.89 17903.57,13791.15 17905.31,13788.54 17912.27,13774.61 17914.88,13758.08 17913.14,13721.53 17912.27,13718.05 17908.79,13710.22 17907.05,13704.13 17906.18,13702.39 17906.18,13700.65 17909.66,13698.91 17911.4,13698.91 17913.14,13698.91 17914.88,13702.39 17920.97,13706.74 17920.97,13708.48 17920.1,13709.35 17919.23,13711.09 17919.23,13712.83 17920.1,13716.31 17921.85,13719.79 17924.46,13723.27 17927.07,13725.88 17933.16,13720.66 17934.9,13718.92 17934.03,13715.44 17933.16,13710.22 17934.03,13708.48 17936.64,13704.13 17939.25,13692.81 17939.25,13686.72 17939.25,13681.5 17938.38,13678.02 17931.42,13674.54 17930.55,13673.67 17928.81,13668.45 17927.94,13666.71 17926.2,13664.97 17924.46,13664.97 17921.85,13664.97 17920.1,13665.84 17915.75,13671.06 17914.88,13671.93 17914.88,13673.67 17914.88,13674.54 17916.62,13674.54 17918.36,13676.28 17919.23,13678.02 17919.23,13680.63 17917.49,13683.24 17915.75,13685.85 17912.27,13686.72 17900.09,13686.72 17897.48,13686.72 17894.87,13688.46 17894,13692.81 17883.56,13691.94 17880.07,13691.94 17876.59,13690.2 17873.98,13691.94 17872.24,13695.43 17870.5,13698.91 17870.5,13705 17870.5,13708.48 17873.11,13716.31 17869.63,13714.57 17860.93,13707.61 17857.45,13705.87 17854.84,13705 17852.23,13703.26 17851.36,13699.78 17851.36,13697.17 17851.36,13696.3 17853.1,13693.68 17853.97,13691.94 17854.84,13690.2 17855.71,13689.33 17856.58,13687.59 17855.71,13684.11 17854.84,13680.63 17852.23,13679.76 17850.49,13681.5 17849.62,13681.5 17848.75,13676.28 17844.4,13675.41 17840.04,13677.15 17838.3,13678.02 17836.56,13679.76 17833.95,13678.02 17827.86,13672.8 17828.73,13670.19 17826.99,13668.45 17821.77,13665.84 17820.03,13665.84 17818.29,13665.84 17817.42,13665.84 17816.55,13664.97 17817.42,13663.23 17820.03,13660.62 17820.03,13658.88 17820.03,13655.4 17818.29,13652.78 17815.68,13651.04 17814.81,13649.3 17814.81,13645.82 17816.55,13639.73 17816.55,13635.38 17813.07,13637.12 17812.2,13634.51 17812.2,13630.16 17810.46,13628.42 17808.72,13629.29 17808.72,13630.16 17808.72,13631.9 17808.72,13633.64 17805.24,13640.6 17804.37,13641.47 17805.24,13643.21 17806.11,13643.21 17806.98,13644.08 17806.98,13645.82 17806.11,13647.56 17806.11,13648.43 17806.11,13652.78 17805.24,13655.4 17804.37,13657.14 17803.5,13658.88 17803.5,13660.62 17804.37,13663.23 17804.37,13664.97 17804.37,13667.58 17800.89,13672.8 17802.63,13672.8 17806.11,13671.93 17807.85,13671.93 17808.72,13671.93 17812.2,13677.15 17806.98,13682.37 17809.59,13685.85 17814.81,13687.59 17816.55,13691.07 17818.29,13689.33 17821.77,13685.85 17822.64,13684.98 17823.51,13687.59 17824.38,13690.2 17824.38,13695.43 17825.25,13700.65 17829.6,13700.65 17838.3,13698.04 17841.79,13697.17 17842.66,13698.91 17841.79,13701.52 17840.92,13705.87 17840.04,13707.61 17838.3,13708.48 17836.56,13710.22 17834.82,13710.22 17833.95,13710.22 17831.34,13708.48 17830.47,13707.61 17823.51,13708.48 17818.29,13713.7 17814.81,13721.53 17809.59,13737.2 17807.85,13745.9 17807.85,13754.6 17808.72,13763.3 17811.33,13776.36 17812.2,13780.71 17811.33,13785.93 17808.72,13789.41 17806.11,13789.41 17803.5,13784.19 17807.85,13783.32 17807.85,13778.1 17803.5,13765.91 17801.76,13758.08 17800.02,13756.34 17795.66,13756.34 17792.18,13758.08 17791.31,13761.56 17791.31,13785.06 17792.18,13788.54 17794.79,13796.37 17794.79,13801.59 17794.79,13805.94 17793.92,13807.68 17786.09,13806.81 17781.74,13806.81 17778.26,13808.55 17776.52,13811.16 17774.78,13815.51 17773.04,13824.22 17773.91,13833.79 17775.65,13841.62 17780.87,13847.71 17758.24,13855.54 17754.76,13855.54 17749.54,13858.16 17746.06,13865.12 17744.32,13872.95 17744.32,13879.91 17746.93,13882.52 17746.93,13883.39 17744.32,13884.26 17742.58,13883.39 17739.97,13882.52 17738.23,13882.52 17736.49,13883.39 17733.88,13885.13 17729.53,13886 17721.7,13885.13 17719.09,13885.13 17714.73,13886.87 17711.25,13888.61 17708.64,13894.7 17704.29,13894.7 17700.81,13893.83 17696.46,13893.83 17695.59,13894.7 17694.72,13896.44 17693.85,13897.32 17691.24,13898.19 17689.5,13899.06 17689.5,13900.8 17690.37,13902.54 17692.11,13903.41 17692.98,13904.28 17692.11,13906.02 17685.15,13911.24 17684.28,13912.11 17683.41,13914.72 17682.54,13919.07 17683.41,13932.12 17683.41,13934.73 17682.54,13939.09 17682.54,13941.7 17683.41,13944.31 17685.15,13946.92 17686.02,13948.66 17682.54,13959.1 17682.54,13961.71 17681.67,13963.45 17680.8,13961.71 17679.06,13957.36 17678.18,13951.27 17677.31,13950.4 17676.44,13947.79 17675.57,13946.92 17673.83,13946.92 17672.09,13945.18 17670.35,13944.31 17668.61,13945.18 17666.87,13946.92 17666.87,13949.53 17667.74,13955.62 17669.48,13955.62 17672.09,13954.75 17674.7,13955.62 17675.57,13958.23 17674.7,13962.58 17672.09,13967.8 17669.48,13970.41 17666.87,13973.02 17647.73,13979.99 17645.12,13982.6 17644.25,13987.82 17644.25,13989.56 17645.99,13993.91 17645.99,13995.65 17645.99,13997.39 17645.12,13999.13 17644.25,14000.87 17644.25,14003.48 17639.9,14003.48 17639.9,14007.83 17641.64,14011.31 17645.99,14009.57 17650.34,14014.79 17651.21,14015.66 17652.08,14016.53 17655.56,14017.4 17657.3,14017.4 17658.17,14019.15 17659.04,14020.02 17659.91,14021.76 17659.04,14024.37 17657.3,14024.37 17653.82,14023.5 17652.08,14024.37 17648.6,14026.11 17645.12,14027.85 17641.64,14029.59 17639.9,14033.07 17639.9,14040.03 17639.03,14044.38 17638.16,14047.86 17643.38,14046.99 17645.99,14047.86 17645.99,14050.47 17641.64,14053.08 17645.99,14053.95 17651.21,14053.08 17656.43,14049.6 17658.17,14046.99 17659.04,14044.38 17661.65,14042.64 17664.26,14041.77 17666.87,14041.77 17668.61,14042.64 17668.61,14044.38 17666,14046.99 17657.3,14052.21 17653.82,14057.43 17655.56,14061.79 17659.04,14060.92 17665.13,14053.08 17667.74,14050.47 17666,14058.3 17665.13,14061.79 17666.87,14067.88 17666.87,14070.49 17660.78,14073.1 17643.38,14088.76 17639.03,14094.85 17617.27,14140.11 17605.96,14178.39 17600.74,14202.76 17574.63,14265.42 17570.28,14273.25 17552.87,14296.74 17539.82,14311.54 17521.55,14328.94 17491.96,14355.05 17473.68,14374.19 17461.5,14386.38 17441.49,14399.43 17436.27,14400.3 17433.65,14397.69 17432.78,14394.21 17431.04,14390.73 17427.56,14388.12 17424.95,14388.12 17422.34,14388.99 17417.99,14388.99 17413.64,14380.28 17413.64,14361.14 17417.99,14327.2 17413.64,14295 17413.64,14280.21 17417.12,14270.64 17417.99,14265.42 17417.99,14264.55 17423.21,14258.45 17429.3,14253.23 17450.19,14238.44 17452.8,14236.7 17453.67,14232.35 17454.54,14224.52 17455.41,14221.03 17460.63,14215.81 17471.94,14207.11 17476.3,14202.76 17479.78,14198.41 17485.87,14193.19 17487.61,14189.71 17488.48,14186.23 17486.74,14182.75 17475.42,14170.56 17472.81,14168.82 17466.72,14166.21 17461.5,14162.73 17455.41,14162.73 17452.8,14160.99 17444.97,14156.64 17435.4,14153.16 17424.95,14141.85 17413.64,14134.01 17409.29,14129.66 17405.81,14124.44 17403.2,14119.22 17401.46,14116.61 17397.11,14113.13 17395.37,14109.65 17394.5,14106.17 17393.62,14095.72 17392.75,14088.76 17390.14,14083.54 17381.44,14069.62 17376.22,14058.3 17376.22,14050.47 17375.35,14047.86 17372.74,14046.12 17362.3,14043.51 17357.95,14040.9 17355.34,14039.16 17353.59,14036.55 17352.72,14034.81 17351.85,14032.2 17350.98,14030.46 17349.24,14027.85 17344.02,14024.37 17341.41,14023.5 17338.8,14022.63 17332.71,14021.76 17330.97,14020.89 17329.23,14020.02 17328.36,14016.53 17326.62,14015.66 17324.01,14013.05 17320.53,14011.31 17317.05,14011.31 17313.57,14012.18 17310.95,14015.66 17309.21,14017.4 17307.47,14017.4 17303.12,14014.79 17294.42,14006.96 17284.85,14000 17272.66,13988.69 17267.44,13982.6 17262.22,13977.37 17256.13,13973.02 17251.78,13968.67 17250.91,13966.93 17249.17,13962.58 17249.17,13953.88 17248.3,13950.4 17245.69,13946.92 17243.08,13944.31 17234.38,13936.47 17231.76,13933.86 17229.15,13927.77 17226.54,13925.16 17223.93,13924.29 17217.84,13924.29 17189.12,13919.94 17183.9,13918.2 17181.29,13916.46 17179.55,13913.85 17176.94,13911.24 17175.2,13909.5 17168.24,13906.02 17163.02,13900.8 17158.67,13894.7 17155.19,13889.48 17152.58,13886 17149.96,13886.87 17146.48,13892.96 17144.74,13896.44 17142.13,13898.19 17139.52,13897.32 17136.04,13894.7 17127.34,13887.74 17124.73,13885.13 17117.77,13882.52 17114.29,13880.78 17111.68,13877.3 17110.81,13873.82 17108.19,13865.12 17105.58,13862.51 17100.36,13858.16 17098.62,13856.42 17096.88,13852.93 17096.01,13845.97 17095.14,13842.49 17092.53,13838.14 17079.48,13824.22 17071.65,13816.39 17068.16,13812.03 17064.68,13809.42 17058.59,13805.94 17053.37,13799.85 17049.89,13798.98 17046.41,13799.85 17043.8,13802.46 17042.93,13805.94 17043.8,13814.64 17042.93,13818.13 17041.19,13820.74 17036.84,13819.87 17032.49,13819 17029,13819.87 17027.26,13822.48 17024.65,13829.44 17023.78,13832.92 17021.17,13834.66 17014.21,13839.88 17011.6,13841.62 17010.73,13842.49 17009.86,13844.23 17008.99,13845.1 17008.12,13845.97 17006.38,13846.84 17002.03,13846.84 16995.94,13847.71 16984.62,13846.84 16980.27,13847.71 16979.4,13845.97 16978.53,13844.23 16978.53,13839.88 16979.4,13831.18 16979.4,13817.26 16980.27,13812.9 16982.88,13807.68 16983.75,13801.59 16982.88,13795.5 16980.27,13789.41 16968.96,13780.71 16966.35,13777.23 16960.26,13765.91 16959.39,13764.17 16957.65,13762.43 16954.17,13759.82 16952.43,13758.95 16951.56,13756.34 16950.69,13754.6 16949.82,13751.99 16944.59,13745.9 16941.11,13742.42 16935.02,13738.94 16924.58,13730.23 16916.75,13725.88 16915.01,13724.14 16912.4,13720.66 16908.05,13713.7 16904.56,13710.22 16895.86,13704.13 16892.38,13701.52 16890.64,13699.78 16883.68,13692.81 16882.81,13690.2 16881.07,13688.46 16879.33,13687.59 16877.59,13687.59 16875.85,13687.59 16874.11,13686.72 16871.5,13684.98 16871.5,13684.11 16872.37,13681.5 16871.5,13678.02 16869.76,13674.54 16867.14,13671.93 16864.53,13670.19 16858.44,13667.58 16848,13659.75 16846.26,13658.01 16842.78,13652.78 16836.69,13648.43 16829.73,13648.43 16823.63,13649.3 16814.93,13646.69 16811.45,13647.56 16805.36,13648.43 16803.62,13649.3 16800.14,13651.04 16798.4,13651.04 16794.92,13649.3 16793.18,13649.3 16788.83,13651.91 16784.47,13658.01 16780.12,13664.1 16779.25,13669.32 16778.38,13676.28 16774.9,13681.5 16769.68,13685.85 16764.46,13686.72 16762.72,13686.72 16760.98,13684.11 16759.24,13683.24 16758.37,13684.11 16756.63,13686.72 16754.89,13686.72 16752.28,13685.85 16750.54,13684.11 16748.8,13682.37 16745.31,13682.37 16742.7,13683.24 16738.35,13687.59 16736.61,13688.46 16734,13687.59 16731.39,13683.24 16729.65,13682.37 16725.3,13682.37 16717.47,13683.24 16713.12,13683.24 16707.9,13679.76 16704.41,13668.45 16700.93,13665.84 16700.06,13664.1 16707.03,13663.23 16710.51,13661.49 16718.34,13656.27 16734.87,13635.38 16749.67,13623.2 16751.41,13620.59 16753.15,13597.09 16755.76,13590.13 16760.98,13585.78 16768.81,13582.3 16775.77,13581.43 16783.6,13581.43 16787.09,13580.56 16790.57,13577.08 16803.62,13563.15 16804.49,13561.41 16805.36,13559.67 16810.58,13553.58 16813.19,13546.62 16815.8,13544.01 16821.89,13537.92 16823.63,13536.18 16825.37,13533.57 16838.43,13521.38 16839.3,13519.64 16840.17,13517.9 16841.04,13515.29 16841.91,13513.55 16844.52,13511.81 16845.39,13510.07 16845.39,13507.46 16845.39,13505.72 16846.26,13503.98 16847.13,13502.24 16848.87,13501.37 16849.74,13499.63 16856.7,13497.02 16858.44,13495.28 16861.92,13492.67 16863.66,13489.18 16866.27,13480.48 16868.02,13476.13 16867.14,13473.52 16867.14,13470.91 16868.02,13468.3 16869.76,13465.69 16874.11,13458.73 16880.2,13452.64 16886.29,13448.28 16892.38,13444.8 16904.56,13442.19 16907.17,13440.45 16909.79,13436.1 16909.79,13432.62 16909.79,13424.79 16913.27,13416.96 16925.45,13409.12 16929.8,13402.16 16930.67,13385.63 16932.41,13382.15 16935.89,13380.41 16943.72,13378.67 16949.82,13375.19 16963.74,13356.04 16975.05,13348.21 16978.53,13342.99 16978.53,13335.16 16978.53,13331.68 16978.53,13328.19 16980.27,13325.58 16985.49,13323.84 16990.72,13321.23 16996.81,13321.23 16997.68,13320.36 16999.42,13319.49 17000.29,13318.62 17000.29,13316.88 17000.29,13307.31 16999.42,13305.57 16998.55,13302.09 17002.03,13298.61 17009.86,13295.13 17015.08,13296.87 17022.04,13297.74 17029,13299.48 17031.62,13302.96 17032.49,13307.31 17034.23,13308.18 17035.97,13306.44 17037.71,13303.83 17038.58,13301.22 17041.19,13291.65 17038.58,13286.42 17036.84,13284.68 17034.23,13282.94 17032.49,13282.94 17025.52,13279.46 17022.91,13277.72 17022.04,13272.5 17026.39,13269.89 17037.71,13265.54 17044.67,13258.58 17046.41,13257.71 17048.15,13255.97 17048.15,13255.1 17049.02,13252.49 17051.63,13249.88 17055.11,13250.75 17055.98,13251.62 17055.98,13253.36 17055.98,13255.1 17058.59,13255.97 17060.33,13255.97 17061.2,13254.23 17061.2,13253.36 17062.07,13251.62 17062.94,13250.75 17065.55,13249.01 17066.42,13248.14 17068.16,13243.78 17069.03,13242.04 17070.78,13241.17 17072.52,13242.04 17072.52,13242.91 17074.26,13243.78 17076,13243.78 17080.35,13242.04 17081.22,13240.3 17089.05,13231.6 17089.92,13229.86 17090.79,13228.12 17090.79,13223.77 17090.79,13222.03 17091.66,13221.16 17092.53,13221.16 17094.27,13221.16 17098.62,13219.42 17099.49,13215.94 17099.49,13212.46 17102.1,13209.85 17104.71,13209.85 17108.19,13210.72 17109.93,13211.59 17111.68,13210.72 17118.64,13205.49 17120.38,13202.01 17122.99,13199.4 17126.47,13197.66 17129.08,13198.53 17132.56,13202.01 17136.91,13202.88 17137.78,13197.66 17138.65,13195.92 17139.52,13195.92 17143.87,13195.92 17145.61,13195.05 17149.09,13196.79 17152.58,13196.79 17152.58,13195.05 17149.96,13190.7 17144.74,13186.35 17143,13182.87 17146.48,13181.13 17149.96,13182 17152.58,13183.74 17156.06,13184.61 17160.41,13183.74 17169.11,13175.91 17172.59,13174.17 17173.46,13172.43 17174.33,13168.08 17175.2,13159.37 17175.2,13152.41 17176.94,13151.54 17181.29,13151.54 17184.77,13149.8 17185.64,13145.45 17186.51,13140.23 17187.38,13136.75 17189.12,13135.01 17191.74,13133.27 17193.48,13132.4 17195.22,13134.14 17194.35,13135.01 17193.48,13136.75 17193.48,13137.62 17194.35,13137.62 17194.35,13138.49 17196.09,13139.36 17196.09,13140.23 17196.96,13140.23 17204.79,13137.62 17206.53,13137.62 17210.01,13138.49 17211.75,13137.62 17213.49,13136.75 17214.36,13135.88 17214.36,13134.14 17214.36,13131.53 17214.36,13129.79 17216.1,13128.05 17216.97,13128.05 17217.84,13128.92 17218.71,13132.4 17220.45,13133.27 17223.06,13130.66 17224.8,13127.18 17225.67,13123.69 17226.54,13121.08 17227.41,13119.34 17229.15,13118.47 17230.02,13118.47 17231.76,13118.47 17232.64,13119.34 17233.51,13119.34 17235.25,13123.69 17235.25,13124.56 17237.86,13125.43 17239.6,13125.43 17250.91,13121.95 17254.39,13119.34 17254.39,13116.73 17250.91,13112.38 17251.78,13110.64 17254.39,13109.77 17262.22,13109.77 17264.83,13109.77 17266.57,13112.38 17266.57,13116.73 17267.44,13118.47 17269.18,13118.47 17270.92,13116.73 17271.79,13114.99 17271.79,13113.25 17271.79,13107.16 17274.41,13108.9 17276.15,13111.51 17278.76,13113.25 17282.24,13113.25 17283.11,13112.38 17284.85,13111.51 17285.72,13108.9 17285.72,13107.16 17286.59,13105.42 17289.2,13105.42 17290.94,13104.55 17291.81,13103.68 17292.68,13102.81 17291.81,13098.46 17292.68,13096.72 17293.55,13095.85 17294.42,13094.11 17299.64,13080.18 17301.38,13076.7 17303.99,13078.44 17305.73,13080.18 17304.86,13084.53 17310.08,13086.28 17317.05,13085.4 17329.23,13070.61 17330.97,13067.13 17331.84,13066.26 17333.58,13066.26 17334.45,13067.13 17336.19,13068 17339.67,13067.13 17339.67,13064.52 17338.8,13061.91 17338.8,13059.3 17341.41,13058.43 17343.15,13059.3 17345.76,13061.91 17348.37,13061.91 17350.11,13060.17 17351.85,13054.08 17353.59,13052.34 17355.34,13054.08 17357.95,13056.69 17358.82,13060.17 "/>
   <path class="fil0 str0" d="M17290.07 12456.24l6.96 -3.48 3.48 -2.61 0.87 -2.61 13.93 -6.96 3.48 -3.48 1.74 -8.71 0 -17.4 1.74 -7.83 6.09 -14.8 0.87 -11.31 8.7 -28.72 0 -6.96 0 -1.74 4.35 -3.48 14.8 -6.09 19.14 -12.18 4.35 -6.1 3.48 -6.96 5.22 -14.79 3.48 -6.96 2.62 -7.83 1.74 -16.54 1.74 -6.96 4.35 -11.31 2.61 -3.48 5.22 -6.1 13.05 -7.83 54.83 -24.36 2.61 -0.87 6.09 -1.74 1.74 -1.74 8.7 -8.71 8.7 -6.09 2.61 -1.74 4.35 -2.61 3.49 -1.74 9.57 0 2.61 0.87 4.35 2.61 2.61 0.87 7.83 -0.87 17.41 3.48 4.35 -0.87 9.57 -6.09 6.09 0.87 5.22 4.35 5.22 3.48 6.97 -0.87 3.48 -0.87 2.61 -0.87 6.96 0.87 4.35 0 7.83 2.61 4.35 0 4.35 -3.48 1.74 -0.87 2.61 0.87 1.75 0.87 0.87 0.87 0.87 0 1.74 1.74 0.87 2.61 1.74 1.74 4.35 -0.87 3.48 -2.61 1.74 -3.48 1.74 -5.22 0.87 -3.48 1.74 -3.48 3.48 -2.61 5.22 -0.87 3.48 0 7.84 1.74 6.96 3.48 19.14 11.31 3.48 0.87 4.35 0.87 11.32 -1.74 3.48 1.74 5.22 5.22 3.48 3.48 2.61 -0.87 3.48 -1.74 3.48 0 3.48 1.74 6.09 2.62 3.48 1.74 3.49 0 6.96 0.87 3.48 -0.87 2.61 -0.87 0.87 -0.87 0.87 0 3.48 -2.62 0.87 -0.87 1.74 0 1.74 0 3.48 0 1.74 0 1.74 0 1.74 -0.87 0.87 0 1.74 0 0.87 0 2.62 0.87 3.48 1.74 4.35 2.62 4.35 1.74 14.79 9.57 12.18 5.22 19.15 5.22 20.88 5.22 2.62 1.74 1.74 0.87 6.96 9.57 1.74 2.62 1.74 5.22 0.87 1.74 0.87 1.74 1.74 0.87 2.61 0.87 2.61 0 4.35 0 2.61 -1.74 1.74 -0.87 4.35 -2.61 3.48 -0.87 4.36 0 14.79 1.74 3.48 1.74 0.87 0 0.87 0.87 0.87 0 1.74 0.87 10.44 -0.87 1.74 0.87 3.48 -4.35 1.75 -1.74 2.61 -0.87 3.48 0.87 1.74 0.87 3.48 3.48 2.61 0.87 2.61 1.74 2.61 0 0.87 -1.74 1.74 -1.74 2.61 0 2.61 0.87 1.74 0.87 5.22 0.87 13.93 -1.74 3.48 -0.87 1.74 -0.87 12.18 -3.48 1.74 0 3.48 1.74 0 -3.48 1.74 -0.87 1.74 0.87 1.74 1.74 0 2.61 0 5.22 1.74 1.74 5.23 2.61 2.61 1.74 0.87 2.61 -0.87 5.22 0.87 1.74 2.61 2.61 2.61 1.74 1.74 0 5.22 0.87 1.74 0.87 5.22 2.61 0.87 0.87 4.35 1.74 0.87 0.87 0.87 -0.87 2.61 0 0.87 0 0.87 0.87 0.87 0.88 0.87 2.61 0 1.74 0 1.74 0.87 0.87 4.36 3.48 4.35 6.96 5.22 12.18 3.48 16.54 0.87 8.7 0 3.48 -4.35 12.18 -0.87 2.61 -0.87 0.87 0 0.87 0 0.87 -0.87 0.87 0 1.74 0.87 0.87 2.61 1.75 0.87 0.87 0 1.74 0.87 2.61 0 7.83 0.87 3.48 2.61 5.22 3.48 5.22 1.74 1.74 1.74 2.61 1.74 0.87 0 0.87 0.87 1.74 -1.74 10.45 -0.87 8.7 0 2.61 -0.87 1.74 -0.87 1.74 0 0.87 -0.87 0 -2.61 0.87 -0.87 0 0 1.74 0 0.87 0.87 3.48 0.87 0.87 0.87 0.87 0.87 0.87 1.74 0 0.87 0.87 2.61 5.22 2.61 1.74 0.87 0 0.87 0 0.87 -0.87 0.87 0 0.87 0.87 -0.87 2.62 0.87 0.87 0.87 0.87 0 1.74 0.87 1.74 0.87 2.61 3.49 4.35 2.61 3.48 1.74 3.48 0.87 0 0.87 0.87 1.74 0.87 0.87 0.87 0.87 0.87 0.87 1.74 0.87 1.74 0.87 0.87 1.74 0 3.48 1.74 0.87 0 1.74 0.87 0.87 0.87 0.87 0.87 1.74 2.61 0.87 0.87 0.87 1.74 0 1.74 0 6.97 0 2.61 -0.87 2.61 0 0.87 0 0.87 1.74 1.74 0.87 0.87 0.87 0 1.74 0.87 0 0.87 0.87 1.74 2.61 7.83 0.87 2.61 1.74 0.87 0.87 0.87 0.87 0 1.74 1.74 0.88 0 0.87 0.87 0.87 0 0.87 0.87 0.87 0.87 0.87 0.87 0 0.87 0 2.61 -1.74 1.75 -0.87 1.74 -0.87 0 -0.87 0.87 0 0.87 0 1.74 1.74 1.74 0 0.87 0 0.87 -1.74 1.74 -0.88 0.87 -5.22 1.74 -0.87 0 -0.87 0.87 0 0.87 0 0.87 0 0.87 3.48 2.61 -0.87 5.22 0 2.61 0 0.87 0 0.87 -0.87 1.74 -5.22 0 -0.87 1.74 0 0.87 0 0.87 0 0.87 0 1.74 0 0.87 2.61 5.23 0.87 0.87 0 0.87 -0.87 6.09 0 0.87 0 2.61 0 0.87 0.87 0.87 0 0.87 2.61 0.87 11.32 3.48 3.48 0.87 2.61 0 2.61 -2.61 4.35 0 9.57 1.74 6.09 -0.87 5.22 -3.48 -0.87 -6.09 4.36 0.87 4.35 6.09 5.22 0.87 13.92 -0.87 4.35 0 -0.87 -0.87 0 -0.87 3.48 0 3.48 1.74 2.61 2.61 2.62 2.61 0.87 0 0.87 -0.87 0.87 -0.87 0.87 0 2.61 0.87 0.87 0 6.09 -0.87 2.61 -0.87 0.87 -1.74 1.74 0 1.74 3.48 0 1.74 0.87 0.87 1.74 0 0.87 -0.87 0.87 -0.87 1.74 -1.74 3.48 -1.74 0.87 0 0.87 0 1.74 0 0.87 0 0.87 0.87 0.87 0.87 0.87 0.87 0.87 0.87 0 0.87 0.87 1.74 0.87 0.87 0.88 0 0.87 0.87 9.57 3.48 0.87 0 0 1.74 0 1.74 -2.61 4.35 -0.87 1.74 -0.87 1.75 -3.48 1.74 -1.74 0.87 -0.87 1.74 0 2.61 0.87 5.22 0 1.74 0.87 1.74 -1.74 1.74 -1.75 1.74 0 0.87 -0.87 2.61 0.87 6.09 0 4.35 -0.87 1.74 -0.87 0.87 0 0.87 -3.48 1.74 -0.87 0.87 0 0.88 0 0.87 0.87 1.74 2.61 6.09 0 0.87 0.87 0.87 4.36 2.61 5.22 2.61 1.74 0 0.87 0 0.87 -1.74 0 -0.87 0.87 -1.74 0.87 -0.87 0 -0.87 0.87 -0.87 1.74 -0.87 0.87 -0.87 0 -0.87 0.87 -0.87 0 -1.74 -0.87 -2.61 0 -1.75 0 -0.87 0.87 -0.87 0 -0.87 1.74 -0.87 3.48 -1.74 0.87 -0.87 0 -1.74 0.87 0 0.87 0 2.61 2.61 1.74 0 3.48 0.87 1.74 0 0.87 0.87 0.87 0.87 0.87 0.87 0.87 0.87 0 0.87 0 0.88 0 0.87 0.87 0.87 0.87 0 1.75 0.87 3.48 -0.87 1.74 0 1.74 0.87 0 0.87 0 0.87 0.87 1.74 0.87 0 0.87 0 6.09 -4.35 3.48 11.31 0.87 4.35 0 0.87 3.48 9.57 0 2.61 0.87 2.61 -0.87 1.74 0 0.87 0 1.74 0.87 1.74 2.61 1.75 1.74 0.87 0.87 0.87 10.45 2.61 0.87 0 0.87 0 1.74 0 0 -0.87 0.87 -0.87 0.87 -0.87 0.87 0 0 -0.87 1.74 0 0.87 0 0.87 0 0.87 1.74 -1.74 2.61 -4.35 6.09 -1.74 2.61 -0.87 1.74 0 2.61 -1.74 3.48 -13.93 7.83 -0.87 2.61 -3.48 6.96 -2.61 7.84 -2.61 0 -2.61 -1.74 -1.74 -4.35 0.87 -2.62 3.48 -11.31 0.87 -1.74 0 -0.87 0 -0.87 1.74 -2.61 1.74 -0.87 3.48 -2.61 7.83 -2.61 1.74 -2.61 -2.61 -1.74 -1.74 2.61 -4.35 1.74 -4.35 0.87 -3.48 0 -1.74 0.87 -2.61 2.61 -0.87 0.87 -1.74 -0.87 -2.61 -3.48 -1.74 -0.87 0 2.61 0 1.74 0 1.74 -2.61 3.48 -0.87 1.74 -2.61 1.74 -2.62 0 2.62 -6.96 -0.87 0 -1.75 1.74 0 -2.61 0.87 -9.57 0.88 -5.22 0 -2.61 -2.62 1.74 -1.74 2.61 -1.74 2.61 -0.87 0.87 -1.74 0.87 0 0.87 1.74 0.87 0.87 0.87 0.87 0 0 0.87 0 0.87 -0.87 0 0 0.87 -1.74 0.87 -2.61 -1.74 -4.35 -2.61 -0.87 -1.74 -1.74 -4.35 -1.74 -1.74 0 4.35 -1.74 0 0 -1.74 -0.87 0 -0.87 -0.87 0 -0.87 0 3.48 4.35 11.31 -3.48 0 -5.22 1.74 -3.48 0 0 0.87 6.09 0.87 3.48 0.87 1.74 2.61 -3.48 1.74 -0.87 2.61 0.87 0.87 3.48 -0.87 0.87 1.74 1.74 2.61 0.87 0.87 -0.87 3.49 -1.74 0.87 -1.74 0 -1.74 0.87 -0.87 1.74 -0.87 2.61 0 2.61 -2.61 0.87 -2.61 0 -1.74 -1.74 -3.48 -3.48 -1.74 0.87 -1.74 0 -1.74 0 -1.75 -0.87 -0.87 1.74 -1.74 0.87 -8.7 -2.61 -2.61 -0.87 -7.83 -6.1 -1.74 -1.74 -6.96 -8.7 -1.74 -0.87 0 2.61 3.48 7.83 0.87 2.62 0 0.87 0.87 1.74 2.61 0.87 2.61 4.35 -0.87 2.61 -3.48 0 -4.35 -1.74 3.48 6.09 5.22 0 5.22 -0.87 5.22 0.87 0 0.87 0 0.87 -0.87 0.87 -1.74 -1.74 -0.87 0 -0.87 0.87 -0.87 1.74 1.74 0.87 2.61 0.87 1.74 0.87 1.74 2.61 1.74 -2.61 3.48 -0.87 3.48 0.87 6.1 -2.61 3.48 1.74 2.61 1.74 3.48 1.74 -1.74 2.61 -0.87 0 0.87 -0.87 -1.74 2.61 -1.74 0.87 -0.87 0.87 3.48 0.87 1.74 -0.87 1.74 -2.61 1.74 -1.74 2.61 0 2.61 0.87 3.48 0 2.61 -2.61 5.22 5.22 -5.22 5.22 -7.83 5.22 -14.79 28.72 0 5.22 -2.61 7.83 -1.74 1.75 -2.62 -0.87 -2.61 -4.36 -2.61 -0.87 0.87 -2.61 0.87 -0.87 -2.61 0 -1.74 0.87 -1.74 0.87 -1.74 1.74 2.61 0.87 1.74 0.87 0.87 0.87 0.87 1.74 1.74 2.62 -0.87 0.87 -12.18 -2.61 -15.66 1.74 -1.74 0.87 -1.74 0.87 -1.74 1.74 0 1.74 0.87 1.74 1.74 -0.87 0.87 -0.87 1.74 -0.87 28.71 0 0.87 -0.87 0.87 -0.87 0.87 0 0.87 2.61 0 2.61 0 1.74 -3.48 12.18 -0.87 3.48 -5.22 0.87 -1.74 -0.87 -5.22 -1.74 -46.99 0.87 -0.87 0.87 0 0.87 -0.87 0.87 0 1.74 -2.61 1.74 -3.48 0 -2.61 0 -4.35 0.87 -3.49 -1.74 -1.74 -0.87 0 0.87 -0.87 0.87 0 0.87 -0.87 0.87 -1.74 0 -2.61 -1.74 -0.87 0.87 -3.48 0.87 -0.87 0 -0.87 -0.87 0 -0.87 0 -0.87 0 -0.87 0 -0.87 -0.87 0 -0.87 0 -0.87 0 -0.87 0 -0.87 0.87 0 0.87 -0.87 0 -1.74 0.87 -5.22 0.87 -4.35 1.74 -2.61 1.74 -4.35 2.61 -2.62 2.62 -5.22 6.96 -0.87 1.74 -1.74 0.87 -13.92 7.83 -8.7 3.48 -2.61 0 -1.74 0.87 -0.87 0 -1.74 1.74 -0.87 0.87 -0.87 1.74 -1.75 4.35 -0.87 1.74 -3.48 1.74 -6.96 0 -5.22 -0.87 -2.61 -0.87 -12.18 -5.22 -10.45 -6.96 -0.87 -0.87 0 -2.61 -1.74 -1.74 -1.74 -1.74 -11.31 -6.96 -3.48 -1.74 -2.61 -2.61 -0.87 -0.87 -1.74 -2.61 -3.48 -1.75 -1.74 -0.87 -1.74 -0.87 -2.61 0 -1.74 -0.87 -0.87 0 -0.87 -1.74 -0.87 0 -1.75 -0.87 -1.74 0.87 -5.22 -0.87 -2.61 1.74 -0.87 0.87 -2.61 0.87 -15.66 2.61 -6.09 0 -1.74 0.88 -2.61 0.87 -1.75 0 -0.87 0 -2.61 0 -1.74 -0.87 -0.87 0 -0.87 -0.88 -0.87 -0.87 -2.61 0 -4.35 0 -2.61 0 -1.74 0 -0.87 0.87 -2.61 1.75 -0.87 0.87 -0.87 1.74 -0.87 0.87 0 0.87 0 1.74 0.87 0.87 0 0.87 0 0.87 0 1.74 -0.87 0.87 -0.87 0 -1.74 0 -1.74 -0.87 -0.87 0 0 -0.87 -0.87 -0.87 -0.87 -4.35 -0.87 -0.87 0 -0.87 -0.87 -0.87 -0.87 0 -0.87 -0.87 -1.74 0 -5.23 -0.87 -0.87 0 -0.87 -0.87 -0.87 0 -0.87 -0.88 0 -1.74 -0.87 -0.87 -0.87 -0.87 -2.61 -0.87 -12.18 0.87 -0.87 -0.87 -1.74 -0.87 -1.74 -0.87 -1.74 -0.87 -1.74 0 -0.87 0 0 0.87 0 0.87 0.87 0.87 0 0.87 4.35 1.74 0.87 0 0 0.87 0 0.87 -0.87 0.88 -2.61 0.87 -7.83 0.87 -1.74 0.87 -0.87 0 -1.75 1.74 -2.61 10.44 -1.74 4.35 -1.74 1.74 -2.61 3.48 -3.48 5.22 -1.74 1.74 0 2.61 -0.87 1.74 -0.87 0.87 -0.87 0 -0.87 -0.87 -1.74 -0.87 -0.87 -0.87 -1.74 0 -0.87 0 -1.74 0.87 -1.74 0.87 -6.09 4.35 -0.87 0 -0.87 0.88 -1.74 0 -0.87 0 -0.87 -0.88 -2.62 0 -1.74 0 -0.87 0.88 0 0.87 -0.87 1.74 -0.87 1.74 -0.87 0 -0.87 0 0 -0.87 -0.87 -2.61 0 -0.87 0 -0.88 -0.87 -0.87 -0.87 0 -0.87 -0.87 -1.74 0 -0.87 0.87 -0.87 1.75 -0.87 1.74 -0.87 0 -0.87 0 -0.87 -0.87 -1.74 -2.62 -0.87 -0.87 -0.87 -0.87 -0.87 0 -0.87 0 -2.61 0 -3.48 0.87 -1.74 0.87 -0.87 0 -0.87 -0.87 -0.87 -0.87 -0.87 -0.87 -0.87 0 -0.87 0 -0.87 0.87 -2.61 1.74 -1.75 2.62 -0.87 1.74 -1.74 1.74 -1.74 0.87 -0.87 0.87 -10.44 2.61 -1.74 0.87 -1.74 0.87 -1.74 2.61 -2.61 2.61 -0.87 0.87 -0.87 0.87 -0.87 1.74 0 0.87 -0.87 4.35 0 1.74 -0.87 1.74 -3.48 3.48 -0.87 1.74 0 0.87 -0.87 0.87 0.87 0.87 0 0.87 0.87 1.74 2.61 1.75 0 0.87 0 0.87 0 1.74 -1.74 2.61 0 0.87 0 0.87 5.22 9.57 1.74 3.48 0 2.61 0.87 1.74 -0.87 3.48 -2.61 4.35 -5.22 4.35 -1.74 0.87 -1.74 0 -5.22 0.87 -9.58 2.62 -1.74 0.87 -0.87 0.87 -0.87 2.61 -0.87 0.87 -0.87 0.87 0 -0.87 -0.87 -0.87 -1.74 -3.48 -1.74 -2.62 -0.87 -1.74 0 -0.87 -1.74 -0.87 -2.61 -1.74 -0.87 0 0 -0.87 -0.87 -0.87 0 -0.87 0 -2.61 -0.87 -0.87 0 -0.87 -0.87 -0.87 -0.87 0 -0.87 0 -19.15 0.87 -1.74 0 -0.87 -0.87 -0.87 -0.87 -0.87 -1.74 -1.74 -0.87 -0.87 0 -1.74 0 -0.87 0.87 -2.61 1.74 -2.61 0.87 -1.74 0 -29.59 0 -11.31 -3.48 -3.48 0 -6.96 0 -1.74 0 -0.87 -0.87 -0.87 0 -2.62 -3.48 -10.44 -6.09 -2.61 -2.61 -0.87 -0.87 -0.87 -2.61 -0.87 -1.74 -0.87 -0.87 -8.7 -5.23 -1.74 -0.87 -1.74 0 -1.74 0 -3.48 0 -4.35 -0.87 -4.36 -0.87 -4.35 -0.87 -5.22 0.87 -1.74 0 -2.61 0 -8.7 -2.61 -8.7 0 -1.74 0 -0.87 0 -6.1 -3.48 -6.96 -2.61 -13.05 0.87 -4.35 -0.87 -0.87 -0.87 -0.87 -1.74 -2.61 -1.74 -26.11 -7.83 -1.74 0 -3.48 0.87 -1.74 0.87 -3.48 1.74 -6.09 1.74 -5.22 0.87 -1.74 0 -0.88 -0.87 -1.74 -0.87 -1.74 -1.74 -1.74 0 -0.87 0 -1.74 0.87 -6.96 2.61 -9.57 0 -2.61 0 -1.74 0 -0.87 -0.87 -0.87 -1.74 -0.87 -0.87 -0.87 -0.87 -1.74 -0.87 -5.22 -2.61 -3.49 -2.61 -7.83 -5.22 -0.87 0 -0.87 -0.87 0 -0.87 -1.74 -1.74 -2.61 -1.74 -10.44 -3.49 -2.61 -0.87 -2.61 0.87 -0.87 0 -0.87 0 -13.93 8.71 -1.74 0 -1.74 0.87 -3.48 0 -1.74 0 -0.87 0 -6.96 -3.48 -10.44 -3.48 -1.74 0 -1.74 0 -2.61 0.87 -2.62 0 -0.87 -8.71 -3.48 -6.09 -7.83 -11.31 -2.61 -6.96 -0.87 -6.96 -2.61 -5.23 -4.35 -6.09 -6.09 -5.22 -0.87 -1.74 -0.87 -2.61 0 -1.74 0.87 -1.74 0 -1.74 -1.74 -10.44 0.87 -11.32 -0.87 -3.48 -1.74 -4.35 -0.87 -1.74 -3.48 -3.48 -1.75 -1.74 0 -2.61 0.87 -1.74 0.88 -0.87 0 -1.74 -1.75 -7.83 -1.74 -3.48 -2.61 -2.62 -6.96 4.36 -2.61 0.87 -1.74 -5.23 -0.87 -4.35 -0.87 -3.48 -1.74 -2.61 -3.48 -1.74 -2.61 -0.87 -0.87 0.87 -1.74 0.87 -1.74 0 -3.48 -2.61 -1.74 -0.87 -0.87 1.74 0 1.74 0.87 1.74 0 2.61 -0.87 0.87 -1.74 0 -1.74 -0.87 -1.75 -2.61 -0.87 -0.87 0 -4.35 0.87 -3.48 0.87 -2.61 0.88 -3.48 0 -0.87 -0.88 -0.87 -1.74 0.87 -0.87 0.87 -4.35 5.22 -1.74 0.87 -2.61 0 -3.48 -0.87 -1.74 0 -0.87 0.87 3.48 6.09 0.87 3.48 -3.48 0 -3.48 -0.87 -0.87 0 -1.74 0 -0.87 2.61 -0.87 1.74 -1.74 -1.74 -1.74 -4.35 -1.74 -2.61 -2.61 -0.87 -4.35 0.87 -1.74 0.87 -2.62 4.35 -2.61 0 -2.61 -0.87 -1.74 0 -1.74 0.87 -0.87 1.74 0 1.74 0 1.74 -0.87 1.74 -0.87 1.74 -3.48 1.75 -0.87 1.74 0 1.74 0.87 4.35 -0.87 1.74 -1.74 0.87 -0.87 -1.74 -0.87 -1.74 0 -1.74 -0.87 -4.35 -1.74 -2.62 -3.48 -2.61 -3.48 -1.74 -3.48 0.87 -0.87 -1.74 -0.87 -2.61 -0.87 -2.61 -2.61 -0.87 -6.97 0.87 0.87 -5.22 0.87 -4.35 -1.74 -3.48 -1.74 -3.48 0 -4.35 0 -4.35 0 -2.61 2.61 -6.1 3.48 -7.83 5.23 -4.35 3.48 -4.35 4.35 -6.96 3.48 -12.18 1.74 -3.49 6.09 -6.09 1.74 -3.48 -0.87 -3.48 -4.35 -6.96 -0.87 -4.35 0 -2.61 0 -4.35 1.74 -6.09 7.83 -35.68 1.74 -2.61 4.35 -7.84 2.61 -6.09 6.1 -20.01 0 -6.09 -1.74 -13.93 0 -5.22 1.74 -6.96 6.96 -9.57 1.74 -4.35 1.74 -6.1 0 -5.22 -1.74 -6.09 -1.74 -4.35 -4.35 -6.09 -0.87 -1.74 -0.87 -7.83 -2.61 -6.09 0 -2.62 1.74 -6.09 3.48 -5.22 6.09 -5.22 4.35 -2.61zm1037.3 257.58l4.35 -3.48 5.22 -3.48 2.61 0 0.87 2.61 -0.87 5.22 -2.61 6.97 0.87 4.35 1.74 3.48 -2.61 1.74 -3.48 2.61 -3.48 -0.87 -2.61 -3.48 0.87 -2.61 0 -1.74 -3.49 -3.48 0 -3.49 2.62 -4.35z"/>
  </g>
 </g>
</svg>
