<?xml version="1.0" encoding="UTF-8"?>
<!DOCTYPE svg PUBLIC "-//W3C//DTD SVG 1.1//EN" "http://www.w3.org/Graphics/SVG/1.1/DTD/svg11.dtd">
<!-- Creator: CorelDRAW -->
<svg xmlns="http://www.w3.org/2000/svg" xml:space="preserve" width="34.117mm" height="45.382mm" version="1.1" style="shape-rendering:geometricPrecision; text-rendering:geometricPrecision; image-rendering:optimizeQuality; fill-rule:evenodd; clip-rule:evenodd"
viewBox="0 0 3411.7 4538.2"
 xmlns:xlink="http://www.w3.org/1999/xlink"
 xmlns:xodm="http://www.corel.com/coreldraw/odm/2003">
 <defs>
  <style type="text/css">
   <![CDATA[
    .str0 {stroke:white;stroke-width:16.32;stroke-linejoin:round;stroke-miterlimit:22.9256}
    .fil0 {fill:#9FAF8A;fill-rule:nonzero}
   ]]>
  </style>
 </defs>
 <g id="Camada_x0020_1">
  <metadata id="CorelCorpID_0Corel-Layer"/>
  <g id="_2021525353008">
   <path class="fil0 str0" d="M2800.23 2690.65l-5.28 0 -1.76 -1.76 -1.76 -5.28 -1.76 -3.52 -1.76 -1.76 -1.76 -1.76 -3.52 0 -10.56 -3.52 -7.03 -3.52 -14.08 -17.6 -3.52 -1.76 -1.76 -1.76 -21.12 -8.8 -8.82 -1.76 -1.76 1.76 -1.76 1.76 -1.76 5.28 -1.76 1.76 -7.03 0 -1.76 0 -1.76 0 -7.04 5.28 -3.52 1.76 -15.84 3.52 -3.52 1.76 -1.76 1.76 0 1.76 0 1.76 1.76 1.76 12.32 8.8 3.52 3.52 0 1.76 1.76 1.76 1.76 3.52 0 1.76 0 3.54 0 3.52 -1.76 5.28 -3.52 1.76 -1.76 0 -1.76 0 -1.76 -1.76 -3.52 -7.04 -3.52 -1.76 -1.76 -1.78 -19.36 -5.28 -3.52 -1.76 -3.52 -3.52 -1.76 -3.52 0 -1.76 0 -3.52 0 -1.76 1.76 -12.32 0 -7.04 -1.76 -7.04 0 -3.52 1.76 -3.51 1.76 0 7.04 -5.28 10.56 -10.56 5.28 -7.04 3.52 -5.3 1.76 -5.28 1.76 -3.52 1.76 -1.76 1.76 0 1.76 1.76 1.76 5.28 1.76 1.76 1.76 0 1.76 -1.76 1.76 -1.76 1.76 -1.76 1.76 0 1.76 1.76 1.76 0 1.76 -1.76 1.76 -1.76 0 -1.76 0 -5.28 0 -5.28 0 -1.76 0 -1.76 8.79 -7.04 1.76 -3.52 1.76 -10.55 5.28 -14.08 1.76 -3.52 0 -5.28 -5.28 -36.98 0 -10.55 3.52 -15.84 0 -1.76 1.76 -1.76 0 -1.76 1.78 -1.76 3.52 -1.76 1.76 -1.76 1.76 -3.52 1.76 -1.76 -1.76 -3.52 0 -1.76 0 -5.28 0 -1.76 1.76 -1.76 0 -1.78 1.76 -1.76 1.76 1.76 0 1.78 0 1.76 0 1.76 1.76 1.76 1.76 0 1.76 -1.76 5.28 -7.06 1.76 -1.76 3.52 -1.76 1.76 -1.76 5.28 0 1.76 -3.52 3.52 -5.27 12.31 -21.12 0 -1.76 3.52 -1.76 1.76 -1.76 1.76 -1.76 1.76 0 1.76 0 1.76 0 3.52 1.76 3.52 1.76 1.76 0 1.76 1.76 1.76 0 3.52 -1.76 3.54 -1.76 1.76 -5.28 -7.06 -14.08 0 -3.52 0 -3.52 0 -1.76 3.54 -1.76 1.76 -1.76 -1.76 -1.76 -8.82 -7.06 -1.76 -3.51 -5.28 -10.56 -1.76 -1.76 -1.76 0 -1.76 5.28 -1.76 3.52 -1.76 1.76 -14.07 0 -5.28 -1.76 -5.28 -3.52 -1.76 -3.52 -1.76 -5.28 -1.76 -1.76 -3.52 -3.52 -3.52 0 -12.32 5.28 -5.28 1.76 -1.76 1.76 -1.76 0 -3.54 -5.28 -3.52 -1.76 -3.52 -1.76 -10.55 5.28 -7.04 5.28 -5.28 1.76 -3.52 0 -3.52 0 -8.8 -1.76 -7.04 -1.76 -3.52 0 -1.76 -1.76 0 -5.28 -1.76 -3.52 -3.52 -1.76 -3.52 5.28 0 7.04 -1.76 5.28 -5.28 0 -5.28 -3.52 -7.05 -7.04 -7.04 -3.52 -35.2 -3.52 -5.28 0 -5.28 3.52 -5.28 -7.04 -8.79 -3.52 -21.14 0 -3.52 -1.76 -7.04 -5.28 -3.52 -1.76 -5.28 0 -5.28 0 -5.28 3.52 -3.52 1.76 -14.07 -10.56 -12.32 -3.52 -3.52 -1.76 0 -3.52 -7.06 -10.55 -12.32 -15.86 -3.52 -10.56 -3.52 -3.52 -3.52 -3.52 -8.8 -5.28 -3.52 -3.52 -3.52 -7.04 -7.03 -24.63 -7.04 -8.8 -3.52 1.76 -3.52 -1.76 -1.76 -3.52 -5.28 -1.76 -1.76 1.76 -3.52 1.76 -3.52 1.76 -3.52 -3.52 -1.78 -3.52 1.78 -5.3 -1.78 -5.28 -1.76 -1.76 -5.28 -1.76 0 -3.52 3.52 -5.28 0 -8.8 -1.76 -5.28 -10.56 -10.56 -10.56 -14.07 -5.28 -5.28 -8.79 1.76 -8.8 -8.8 -14.08 -24.66 -8.8 -12.32 0 -3.52 0 -1.76 -1.76 -1.75 -8.82 -3.52 -5.28 -5.28 -10.56 -3.52 -8.79 -8.8 -5.28 -1.76 -3.52 0 -3.52 1.76 -3.52 0 -3.52 -1.76 -12.32 -12.32 -1.76 -3.52 -7.04 -1.76 -1.76 -1.76 1.76 -3.52 1.76 -3.52 0 -3.54 0 -3.52 -7.04 -3.52 -5.28 0 -5.28 -1.76 -1.78 -10.55 -3.52 -7.04 -5.27 3.52 -8.8 8.79 -3.52 -3.51 0 -3.52 0 -3.52 -3.52 -1.76 -3.52 -3.52 -1.76 0 -3.52 0 -3.52 -3.52 -3.52 -8.8 -1.76 -5.28 -3.52 -3.52 -8.8 -1.76 -7.04 1.76 -7.04 1.76 -7.03 1.76 -5.3 -5.28 0 -3.52 3.54 -8.8 -1.76 -1.76 -12.34 5.28 -1.76 -1.76 0 -5.28 -1.76 -7.04 -1.76 -5.3 -5.28 1.78 -1.76 3.52 -1.76 3.52 -1.76 0 -5.28 -3.52 -1.76 -1.76 0 -3.54 -1.76 -3.52 -3.52 -1.75 -3.52 1.75 -3.52 3.52 -3.52 7.06 -3.52 1.76 -3.52 -3.52 -3.52 -3.52 -1.75 -1.78 -7.04 0 -7.04 0 -1.76 5.3 1.76 8.8 -10.58 0 -7.04 -1.76 -8.8 -1.76 0 -1.76 3.52 -7.04 -1.76 -3.54 -1.76 -1.76 -1.76 -1.75 -3.52 14.09 -1.76 3.52 -7.04 -1.76 -3.52 -7.04 -1.76 -12.33 -1.76 -7.04 -3.52 3.52 -3.51 1.76 -3.52 1.76 -5.28 -1.76 10.55 -7.04 -8.79 -8.8 -21.12 -10.56 5.28 -3.52 5.28 0 12.32 0 -5.28 -7.04 -15.84 -3.52 -3.52 -7.04 0 -5.28 -1.76 0 -26.42 0 -5.28 0 0 -3.52 1.76 -7.03 -3.52 -3.52 -7.03 0 -7.04 0 -3.52 -8.82 -3.52 -1.76 -8.8 7.04 -10.56 14.09 -5.28 -3.52 -5.3 -7.03 -1.76 -7.06 0 -1.76 7.06 -1.76 1.76 -3.52 -3.52 -3.52 -7.06 -3.52 -8.8 1.76 -3.52 3.52 0 5.28 1.76 8.82 -5.28 1.76 -1.76 -1.76 -1.75 -1.78 -3.52 -3.52 -3.52 0 -5.28 0 -5.28 1.76 -1.76 1.76 -1.76 -1.76 -1.76 -10.56 -1.76 -3.52 -1.76 -1.76 -1.76 -1.76 -1.76 0 -1.76 3.52 0 1.76 1.76 1.76 0 1.76 -1.76 5.28 -3.52 -5.28 -3.52 -7.04 -3.52 -5.28 0 -1.76 0 -1.76 0 -1.76 -3.52 0 -3.52 1.76 -1.76 3.52 -1.76 3.52 -1.76 3.52 -1.76 5.28 -5.3 0 -10.55 -3.52 -1.76 -1.76 -1.76 -3.52 -1.76 0 -1.76 0 -5.28 1.76 -5.28 1.76 -10.56 3.52 -3.52 1.76 -7.04 -1.76 -7.04 -1.76 -5.28 0 -1.76 1.76 -3.52 5.28 -3.52 1.76 -1.76 -5.28 -1.76 -5.28 -3.51 -3.52 -3.54 0 -3.52 5.28 -10.56 -10.56 -5.28 -5.28 -8.8 0 -7.04 -3.52 -1.76 -8.8 -3.52 -7.04 -8.8 0 -5.28 3.52 -3.52 5.28 -5.27 5.28 -7.04 1.76 -3.52 -3.52 -1.76 -8.8 0 -3.52 -7.06 10.56 -1.76 3.52 -1.76 5.28 -1.76 3.52 -3.52 1.76 -1.76 0 -3.52 -3.52 0 -3.52 0 -3.52 3.52 -5.28 3.52 -7.04 -1.76 -5.28 -3.52 -5.28 -1.76 1.76 -3.52 1.76 -3.52 -1.76 -1.76 -5.27 1.76 -3.52 1.76 -3.52 5.28 -7.04 0 -3.52 -5.28 -1.76 -7.04 1.76 -5.28 5.28 -3.52 7.04 0 7.04 -3.52 5.27 -5.28 5.28 -8.79 0 -5.28 -1.76 -8.8 -10.55 -1.76 12.31 -3.52 5.28 -3.52 1.76 -3.54 0 -7.04 -5.28 -3.52 -1.76 -10.56 3.52 -15.84 10.56 -8.79 0 8.79 -19.36 5.28 -12.31 -3.52 -5.28 -8.79 0 -7.04 -3.52 -14.08 -8.82 -7.04 12.34 -5.28 7.04 -5.3 1.76 -3.52 1.76 -5.28 3.51 -3.52 0 -1.76 -1.75 -3.52 -3.52 -1.76 -3.52 -3.52 -1.76 -5.27 5.28 0 8.79 0 10.56 -1.76 7.04 -5.28 0 -17.6 -5.28 -7.04 -1.76 -7.04 3.52 -8.8 10.56 -7.06 1.76 -1.76 -10.56 -1.76 -8.8 -5.28 -5.28 -3.51 0 -1.76 1.76 -3.52 3.52 -8.8 5.28 -3.52 0 -3.52 0 -3.52 0 -1.76 -1.76 -1.76 -3.52 -1.76 -3.52 -1.76 -3.52 -3.52 0 -7.04 1.76 -3.52 1.76 -1.76 1.76 -3.52 1.76 -3.52 0 0 -1.76 3.52 -1.76 3.52 -7.04 1.76 -3.51 -3.52 -3.52 0 -3.52 0 -1.76 5.28 -3.52 1.76 -1.76 1.76 -5.28 -1.76 -12.34 1.76 -5.28 1.76 -1.76 5.28 0 3.52 -1.76 1.76 -1.76 14.08 -33.43 5.28 -14.08 0 -12.34 -3.52 -24.64 -3.52 -14.07 -1.76 0 -5.28 -1.76 0 -3.52 1.76 -5.28 0 -5.28 -1.76 0 -3.52 -1.76 -3.52 -1.76 -1.76 -5.28 1.76 -5.28 3.52 0 3.52 -1.76 1.76 -1.76 1.76 -7.04 1.76 -7.06 -1.76 -15.84 0 -7.03 3.52 -14.08 1.76 -7.04 0 1.76 -1.76 -1.76 -1.76 -5.28 0 -3.52 0 -1.76 3.52 -3.52 5.28 -3.52 0 -12.32 -3.52 -36.97 1.76 -12.32 15.83 -21.12 3.52 -12.31 5.3 0 5.28 -1.76 3.52 0 3.52 0 21.12 7.03 14.08 7.04 1.76 0 3.52 0 7.03 0 3.52 -1.76 3.52 0 28.18 -17.61 1.76 0 1.76 0 5.28 -1.76 5.28 1.76 21.11 7.06 5.28 3.51 3.52 3.52 0 1.76 1.76 1.76 1.76 0 15.84 10.56 7.06 5.28 10.56 5.28 3.52 1.76 1.76 1.76 1.76 1.76 1.76 3.52 1.76 1.76 3.52 0 5.27 0 19.36 0 14.08 -5.28 3.52 -1.76 1.76 0 3.52 0 3.52 3.52 3.52 1.76 1.78 1.76 3.52 0 10.56 -1.76 12.31 -3.52 7.04 -3.52 3.52 -1.76 7.04 -1.76 3.52 0 52.81 15.84 5.28 3.52 1.76 3.52 1.76 1.76 8.8 1.76 26.4 -1.76 14.07 5.28 12.34 7.04 1.76 0 3.52 0 17.6 0 17.6 5.27 5.28 0 3.52 0 10.55 -1.75 8.8 1.75 8.82 1.76 8.8 1.76 7.04 0 3.52 0 3.52 0 3.52 1.76 17.59 10.58 1.76 1.76 1.76 3.52 1.76 5.28 1.76 1.76 5.28 5.28 21.12 12.32 5.3 7.04 1.76 0 1.76 1.76 3.52 0 14.08 0 7.04 0 22.87 7.04 59.85 0 3.52 0 5.28 -1.76 5.28 -3.52 1.76 -1.76 3.52 0 1.76 0 3.52 1.76 1.76 3.52 1.76 1.76 1.76 1.76 3.52 0 38.73 -1.76 1.76 0 1.76 0 1.76 1.76 0 1.76 1.76 1.76 0 5.27 0 1.76 1.76 1.76 0 1.76 1.76 0 5.28 3.52 3.52 1.76 0 1.76 1.76 3.52 3.52 5.3 3.52 7.04 1.76 1.76 0 1.76 1.76 -1.76 1.76 -1.76 1.76 -5.28 1.76 -1.76 3.52 -1.76 19.37 -5.3 10.56 -1.76 3.52 0 3.52 -1.76 10.56 -8.8 5.28 -8.79 1.76 -7.04 -1.76 -3.52 0 -5.28 -3.52 -7.04 -10.56 -19.36 0 -1.76 0 -1.76 3.52 -5.28 0 -3.52 0 -1.76 0 -1.76 -5.28 -3.54 -1.76 -3.52 0 -1.75 -1.76 -1.76 1.76 -1.76 0 -1.76 1.76 -3.52 7.04 -7.04 1.76 -3.52 0 -3.52 1.76 -8.8 0 -1.76 1.76 -3.52 1.76 -1.76 1.76 -1.76 5.28 -5.28 3.52 -5.28 3.52 -1.76 3.52 -1.76 21.11 -5.28 1.76 -1.76 3.52 -1.76 3.52 -3.52 1.76 -3.51 3.54 -5.3 5.28 -3.52 1.76 -1.76 1.76 0 1.76 0 1.76 1.76 1.76 1.76 1.76 1.76 1.76 0 3.52 -1.76 7.04 -1.76 5.28 0 1.76 0 1.76 0 1.76 1.76 1.76 1.76 3.52 5.3 1.76 1.76 1.75 0 1.76 0 1.76 -3.52 1.76 -3.54 1.76 -1.76 3.52 0 1.76 1.76 1.76 0 1.76 1.76 0 1.78 0 1.76 1.76 5.27 0 1.76 1.76 0 1.76 0 1.76 -3.52 1.76 -3.51 0 -1.76 1.76 -1.78 3.52 0 5.3 0 1.76 1.78 1.76 0 3.52 0 1.76 -1.78 1.76 0 12.32 -8.8 3.52 -1.76 3.52 -1.76 1.76 0 3.51 0 1.76 1.76 3.52 1.76 1.76 1.76 1.76 0 1.76 -1.76 1.76 -3.52 0 -5.28 3.52 -3.52 7.04 -10.56 5.28 -7.04 3.52 -3.52 3.52 -8.8 5.28 -21.11 3.54 -3.52 1.76 0 3.52 -1.76 15.84 -1.76 5.27 -1.76 1.76 -1.78 0 -1.76 0 -1.76 -1.76 0 -8.79 -3.52 0 -1.76 -1.76 -1.76 0 -1.76 0 -1.76 1.76 0 3.52 0 3.51 1.76 3.52 1.76 3.52 1.76 1.76 1.76 24.64 -1.76 5.28 1.76 1.76 1.76 1.76 1.76 0 3.52 1.76 1.78 1.76 0 1.76 1.76 1.76 0 10.58 1.76 3.52 0 1.76 1.76 1.76 0 1.75 1.76 0 1.76 1.76 1.76 1.76 8.79 1.76 1.76 0 1.76 1.76 0 3.52 1.76 3.52 0 1.76 0 1.76 -1.76 0 -3.52 0 -1.75 0 -1.76 -1.76 -1.76 0 -3.52 0 -1.76 1.76 -1.76 1.76 -3.52 1.76 -1.76 5.28 -3.54 1.76 -1.76 3.52 0 5.28 0 8.8 0 5.28 0 1.76 1.76 1.76 1.78 1.76 0 3.52 1.76 5.28 0 1.76 0 3.53 0 5.28 -1.76 3.52 -1.78 12.32 0 31.68 -5.28 5.28 -1.76 1.76 -1.76 5.28 -3.52 10.55 1.76 3.52 -1.76 3.54 1.76 1.76 0 1.76 3.52 1.76 0 3.52 1.76 5.28 0 3.52 1.76 3.52 1.76 7.04 3.54 3.52 5.28 1.76 1.76 5.28 5.28 7.04 3.52 22.87 14.07 3.52 3.52 3.52 3.52 0 5.28 1.76 1.76 21.14 14.08 24.63 10.56 5.28 1.76 10.56 1.76 14.08 0 7.04 -3.52 1.76 -3.52 3.54 -8.8 1.76 -3.52 1.76 -1.76 3.52 -3.52 1.76 0 3.52 -1.76 5.28 0 17.59 -7.04 28.16 -15.84 3.52 -1.76 1.76 -3.51 10.56 -14.08 5.3 -5.3 8.8 -5.28 5.27 -3.52 8.8 -3.52 10.56 -1.76 3.52 -1.76 1.76 0 0 -1.76 1.76 -1.76 1.76 0 1.76 0 1.76 0 1.76 0 0 1.76 0 1.76 0 1.76 0 1.76 1.76 1.76 1.76 0 7.04 -1.76 1.76 -1.76 5.28 3.52 3.52 0 1.76 -1.76 0 -1.76 1.76 -1.76 0 -1.76 3.52 1.76 7.05 3.52 8.8 -1.76 5.28 0 7.04 0 5.28 -3.52 0 -3.52 1.76 -1.76 0 -1.76 1.76 -1.76 95.05 -1.76 10.55 3.52 3.52 1.76 10.56 -1.76 -1.76 5.28 -5.28 12.32 -3.52 5.28 1.76 5.3 1.76 7.04 7.04 35.19 0 5.28 -3.52 5.28 -8.8 0 -7.03 3.52 -3.52 5.28 -3.52 7.04 -3.52 3.52 -7.04 1.76 -8.8 -1.76 -7.04 -3.52 -3.52 -5.28 -1.76 -8.8 -1.76 -7.04 -5.28 -10.56 -1.76 -7.04 0 -7.04 0 -3.52 -3.52 -3.51 -1.76 -12.32 -3.54 3.52 0 7.04 3.54 10.55 -1.78 3.52 0 5.28 1.78 3.52 0 3.52 1.76 0 3.52 1.76 1.76 1.76 0 3.52 0 3.52 1.76 1.76 0 1.76 1.76 5.28 -3.52 8.8 1.76 5.28 1.76 3.52 -1.76 3.54 -1.76 1.76 -3.52 0 7.04 12.31 -5.28 -1.76 -3.52 1.76 -3.54 1.76 -1.76 3.52 14.1 1.76 7.04 3.52 1.76 5.28 3.52 5.28 21.12 8.8 3.52 3.52 3.52 3.52 0 3.52 1.76 5.28 0 3.52 3.51 3.52 3.52 0 3.52 3.52 -1.76 8.79 -17.59 38.74 -5.28 15.84 -1.76 26.39 0 22.9 1.76 5.28 1.76 1.76 15.83 14.08 5.28 -1.76 7.04 -1.76 3.52 1.76 1.76 3.52 0 3.52 -1.76 3.51 -5.28 3.52 -3.52 7.04 -5.28 7.04 -1.76 5.28 0 5.28 0 12.34 1.76 1.76 1.76 3.52 1.76 3.52 0 1.76 -1.76 3.52 -1.76 1.76 0 15.83 0 1.76 3.52 5.28 3.52 1.76 3.52 0 0 -1.76 7.04 8.8 -1.76 7.04 -3.52 7.04 -3.52 14.1 -1.76 3.52 -1.76 3.52 7.04 17.59 3.52 3.52 5.28 1.76 3.54 -1.76 3.52 -3.52 0 -3.52 3.52 -3.51 5.28 -3.52 3.52 3.52 3.52 7.03 7.04 1.76 -1.76 5.28 -1.76 1.76 -3.52 1.76 3.52 8.8 0 5.28 -1.76 1.76 -3.52 1.76 -5.28 1.76 -1.76 -1.76 -3.52 -3.52 5.28 -1.76 1.76 -3.52 -1.76 -3.52 -5.28 -3.52 -3.52 1.76 -7.06 3.52 -1.76 1.76 -1.76 0 -12.32 10.56 -1.76 3.52 -1.76 1.76 -1.76 3.52 0 5.28 3.52 15.86 1.76 1.76 0 1.76 12.32 1.75 3.52 5.28 3.54 7.04 0 17.6 -3.54 -5.28 -1.76 -1.76 -1.76 3.52 -1.76 1.76 0 3.52 0 5.28 -1.76 5.28 -3.52 1.76 -3.52 0 -3.52 1.76 -5.28 3.52 -3.51 5.28 -1.76 5.28 -1.76 7.03 14.07 31.7 5.28 1.76 5.28 5.28 0 7.04 -3.52 7.04 -1.76 -3.52 -7.04 3.52 -8.79 8.8 -3.52 5.28 3.52 5.27 1.76 7.04 1.75 8.82 0 7.04 1.76 3.52 3.52 5.28 1.76 3.52 -1.76 1.76 -3.52 3.52 -1.76 1.76 1.76 1.76 1.76 3.52 12.32 14.08 3.52 5.27 0 1.76 -3.52 1.76 -1.76 1.76 -1.76 1.76 1.76 3.52 3.52 1.76 1.76 0 1.76 1.76 0 7.04 -10.56 14.1 -3.52 7.04 -3.52 22.88 1.76 8.79 1.76 1.76 1.76 1.76 0 3.52 1.76 5.28 -1.76 3.52 -1.76 3.52 -3.52 1.76 -1.76 1.76 0 3.52 -3.51 12.34 -3.52 15.84 -3.52 17.59 -1.76 8.8 7.04 7.04 -5.28 7.04 -12.32 12.32 -1.76 3.52 -1.76 10.58 0 8.8 0 1.76 -10.56 12.31 -1.76 5.28 -3.52 15.84 -5.28 8.8 -1.76 5.28 0 3.52 1.76 5.28 -1.76 3.52 -3.52 1.76 -3.52 -1.76 -5.3 -7.04 -1.76 -7.04 -1.76 -8.8 0 -8.8 3.52 -7.04 1.76 -3.52 -1.76 -5.28 -8.8 -10.56 -5.27 -3.51 -5.28 -5.28 -5.28 0 -3.52 8.79 1.76 5.28 3.52 8.8 0 5.28 0 3.52 -3.52 3.52 -1.76 3.52 1.76 3.52 3.52 0 5.28 0 1.76 0 0 3.52 0 3.52 -3.52 3.52 0 3.52 -1.76 3.52 0 1.76 1.76 1.76 3.52 3.52 12.31 7.04 1.76 3.53 3.52 3.52 5.3 0 1.76 -1.76 3.52 -1.76 3.52 -1.78 -1.76 7.06 -3.52 7.04 -10.58 14.08 -3.52 8.8 -3.52 3.52 -3.51 1.76 -15.84 1.76 -5.28 1.76 -8.8 5.28 -10.56 3.52 -5.28 3.52 -7.04 8.8 -29.93 17.61 -100.33 82.73 -73.93 82.73 -58.09 79.19zm454.14 -772.71l1.75 -7.04 7.04 5.28 7.04 8.8 3.52 5.28 0 8.8 -1.76 7.04 -3.52 7.05 -3.52 7.04 -1.76 1.76 -1.76 3.52 0 3.52 0 5.28 1.76 8.8 0 5.28 -1.76 5.28 -5.28 7.04 -5.27 7.04 -3.52 1.76 -15.84 28.17 0 7.04 5.28 15.84 -1.76 5.28 -1.76 1.76 -7.04 1.76 -1.76 1.76 -5.28 8.8 -3.52 3.52 -3.52 0 -1.78 0 -1.76 0 0 -1.76 0 -29.92 1.76 -12.32 5.3 -10.58 -5.3 -3.52 3.54 -5.28 8.8 -10.55 -1.76 -8.8 -3.52 -8.8 -3.52 -5.28 7.04 -1.76 3.52 -1.76 3.52 -1.76 1.76 -3.52 0 -3.52 -1.76 -1.76 -1.76 -1.76 -3.52 -1.76 0 -3.52 0 -1.76 1.76 -3.52 0 -1.76 0 -3.52 -5.28 -5.3 -1.76 -3.51 1.76 -5.28 5.28 -3.52 1.76 -3.52 -1.76 -7.04 7.04 0 19.36 -5.28 3.52 -3.52zm-38.72 -422.44l-1.76 3.52 -10.58 10.56 0 3.52 0 5.28 0 8.8 -1.76 0 -1.76 -1.76 -1.76 -1.76 -7.04 0 -5.28 -10.56 -5.27 -10.56 -5.28 -5.28 -15.84 -12.32 0 -1.76 0 -1.76 7.04 -10.56 1.76 -1.76 5.28 -1.76 5.28 -1.75 1.76 -1.76 1.76 -3.54 1.76 -5.28 8.79 -5.28 10.56 -3.52 7.04 -5.28 -3.52 -8.8 7.06 -5.28 5.28 0 5.28 7.04 8.8 12.32 1.76 3.52 0 3.52 -1.76 3.52 -5.28 5.3 -3.52 8.79 -7.04 15.84 -1.76 8.8z"/>
   <polygon class="fil0 str0" points="1337.54,1821.13 1337.54,1822.89 1341.06,1822.89 1344.58,1821.13 1346.34,1819.37 1349.86,1817.61 1356.9,1815.85 1360.42,1815.85 1362.18,1819.37 1363.94,1822.89 1365.7,1826.41 1367.46,1828.17 1370.98,1828.17 1374.5,1828.17 1378.02,1828.17 1386.82,1822.89 1390.34,1819.37 1392.1,1817.61 1395.61,1817.61 1400.89,1822.89 1402.65,1831.69 1404.41,1842.25 1411.47,1840.49 1420.27,1829.93 1427.31,1826.41 1434.35,1828.17 1451.95,1833.45 1457.23,1833.45 1458.99,1826.41 1458.99,1815.85 1458.99,1807.06 1464.26,1801.78 1467.78,1803.54 1469.54,1807.06 1473.06,1810.58 1474.82,1812.33 1478.34,1812.33 1483.62,1808.82 1487.14,1807.06 1492.44,1805.3 1497.72,1798.26 1504.76,1785.92 1518.84,1794.74 1525.88,1798.26 1534.67,1798.26 1538.19,1803.54 1532.91,1815.85 1524.12,1835.21 1532.91,1835.21 1548.75,1824.65 1559.31,1821.13 1562.83,1822.89 1569.87,1828.17 1573.41,1828.17 1576.93,1826.41 1580.45,1821.13 1582.21,1808.82 1591.01,1819.37 1596.29,1821.13 1605.08,1821.13 1610.36,1815.85 1613.88,1810.58 1613.88,1803.54 1617.4,1796.5 1622.68,1791.22 1629.72,1789.46 1635,1791.22 1635,1794.74 1629.72,1801.78 1627.96,1805.3 1626.2,1808.82 1627.96,1814.09 1631.48,1815.85 1635,1814.09 1636.76,1812.33 1640.28,1817.61 1642.04,1822.89 1638.52,1829.93 1635,1835.21 1635,1838.73 1635,1842.25 1638.52,1845.77 1640.28,1845.77 1643.8,1844.01 1645.56,1840.49 1647.32,1835.21 1649.08,1831.69 1656.14,1821.13 1656.14,1824.65 1657.9,1833.45 1661.42,1836.97 1668.46,1835.21 1673.73,1829.93 1677.25,1824.65 1682.53,1821.13 1691.33,1821.13 1694.85,1828.17 1696.61,1836.97 1703.65,1840.49 1712.45,1840.49 1717.73,1845.77 1728.29,1856.33 1731.81,1851.05 1735.35,1851.05 1738.86,1854.57 1740.62,1859.85 1742.38,1865.13 1745.9,1863.37 1749.42,1858.09 1751.18,1856.33 1756.46,1856.33 1763.5,1858.09 1770.54,1859.85 1774.06,1858.09 1784.62,1854.57 1789.9,1852.81 1795.18,1851.05 1796.94,1851.05 1798.7,1851.05 1800.46,1854.57 1802.22,1856.33 1812.77,1859.85 1818.07,1859.85 1819.83,1854.57 1821.59,1851.05 1823.35,1847.53 1825.11,1844.01 1828.63,1842.25 1832.15,1842.25 1832.15,1844.01 1832.15,1845.77 1832.15,1847.53 1835.67,1852.81 1839.19,1859.85 1842.71,1865.13 1844.47,1859.85 1844.47,1858.09 1842.71,1856.33 1842.71,1854.57 1844.47,1851.05 1846.23,1851.05 1847.99,1852.81 1849.75,1854.57 1851.51,1858.09 1853.27,1868.65 1855.03,1870.41 1856.79,1868.65 1862.07,1866.89 1867.35,1866.89 1870.87,1866.89 1874.39,1870.41 1876.14,1872.19 1877.9,1873.95 1883.18,1872.19 1881.42,1863.37 1881.42,1858.09 1884.94,1854.57 1893.74,1852.81 1900.8,1856.33 1904.32,1859.85 1902.56,1863.37 1895.5,1865.13 1895.5,1866.89 1897.26,1873.95 1902.56,1880.98 1907.84,1884.5 1918.4,1870.41 1927.2,1863.37 1930.72,1865.13 1934.24,1873.95 1941.28,1873.95 1948.31,1873.95 1951.83,1877.47 1950.07,1884.5 1950.07,1888.02 1955.35,1888.02 1981.77,1888.02 1983.53,1888.02 1983.53,1893.3 1987.05,1900.34 2002.89,1903.86 2008.17,1910.9 1995.85,1910.9 1990.57,1910.9 1985.29,1914.42 2006.41,1924.98 2015.2,1933.78 2004.65,1940.82 2009.93,1942.58 2013.45,1940.82 2016.96,1939.06 2020.48,1935.54 2022.24,1942.58 2024,1954.91 2027.52,1961.95 2034.56,1963.71 2036.32,1960.19 2039.84,1946.1 2041.6,1947.85 2043.36,1949.61 2045.12,1953.15 2041.6,1960.19 2041.6,1961.95 2050.4,1963.71 2057.44,1965.47 2068.02,1965.47 2066.26,1956.67 2068.02,1951.37 2075.06,1951.37 2082.1,1951.37 2083.85,1953.15 2087.37,1956.67 2090.89,1960.19 2094.41,1958.43 2097.93,1951.37 2101.45,1947.85 2104.97,1946.1 2108.49,1947.85 2110.25,1951.37 2110.25,1954.91 2112.01,1956.67 2117.29,1960.19 2119.05,1960.19 2120.81,1956.67 2122.57,1953.15 2127.85,1951.37 2129.61,1956.67 2131.37,1963.71 2131.37,1968.99 2133.13,1970.75 2145.47,1965.47 2147.23,1967.23 2143.69,1976.03 2143.69,1979.55 2148.99,1984.83 2156.02,1983.07 2163.06,1981.31 2170.1,1979.55 2178.9,1981.31 2182.42,1984.83 2184.18,1990.11 2187.7,1998.91 2191.22,2002.43 2194.74,2002.43 2196.5,2002.43 2200.02,2005.95 2203.54,2007.71 2203.54,2011.23 2203.54,2014.75 2207.06,2018.26 2215.86,2009.47 2221.13,2005.95 2224.65,2012.99 2226.43,2023.54 2231.71,2025.3 2236.99,2025.3 2244.03,2028.82 2244.03,2032.34 2244.03,2035.88 2242.27,2039.4 2240.51,2042.92 2242.27,2044.68 2249.31,2046.44 2251.07,2049.96 2263.39,2062.28 2266.91,2064.04 2270.43,2064.04 2273.95,2062.28 2277.47,2062.28 2282.75,2064.04 2291.54,2072.84 2302.1,2076.36 2307.38,2081.64 2316.2,2085.16 2317.96,2086.91 2317.96,2088.67 2317.96,2092.19 2326.76,2104.51 2340.84,2129.17 2349.64,2137.97 2358.43,2136.21 2363.71,2141.49 2374.27,2155.56 2384.83,2166.12 2386.59,2171.4 2386.59,2180.2 2383.07,2185.48 2383.07,2189 2388.35,2190.76 2390.11,2192.52 2391.89,2197.8 2390.11,2203.1 2391.89,2206.62 2395.41,2210.14 2398.93,2208.38 2402.45,2206.62 2404.21,2204.86 2409.49,2206.62 2411.25,2210.14 2414.77,2211.9 2418.29,2210.14 2425.33,2218.94 2432.36,2243.57 2435.88,2250.61 2439.4,2254.13 2448.2,2259.41 2451.72,2262.93 2455.24,2266.45 2458.76,2277.01 2471.08,2292.87 2478.14,2303.42 2478.14,2306.94 2481.66,2308.7 2493.98,2312.22 2508.05,2322.78 2511.57,2321.02 2516.85,2317.5 2522.13,2317.5 2527.41,2317.5 2530.93,2319.26 2537.97,2324.54 2541.49,2326.3 2562.63,2326.3 2571.42,2329.82 2576.7,2336.86 2581.98,2333.34 2587.26,2333.34 2622.46,2336.86 2629.5,2340.38 2636.55,2347.42 2641.83,2350.94 2647.11,2350.94 2648.87,2345.66 2648.87,2338.62 2652.39,2333.34 2655.91,2335.1 2657.67,2338.62 2657.67,2343.9 2659.43,2345.66 2662.95,2345.66 2669.99,2347.42 2678.79,2349.18 2682.31,2349.18 2685.83,2349.18 2691.11,2347.42 2698.15,2342.14 2708.7,2336.86 2712.22,2338.62 2715.74,2340.38 2719.28,2345.66 2721.04,2345.66 2722.8,2343.9 2728.08,2342.14 2740.4,2336.86 2743.92,2336.86 2747.44,2340.38 2749.2,2342.14 2750.96,2347.42 2752.72,2350.94 2758,2354.46 2763.28,2356.22 2777.35,2356.22 2779.11,2354.46 2780.87,2350.94 2782.63,2345.66 2784.39,2345.66 2786.15,2347.42 2791.43,2357.98 2793.19,2361.49 2802.01,2368.55 2803.77,2370.31 2802.01,2372.07 2798.47,2373.83 2798.47,2375.59 2798.47,2379.11 2798.47,2382.63 2805.53,2396.71 2803.77,2401.99 2800.23,2403.75 2796.71,2405.51 2794.95,2405.51 2793.19,2403.75 2791.43,2403.75 2787.91,2401.99 2784.39,2400.23 2782.63,2400.23 2780.87,2400.23 2779.11,2400.23 2777.35,2401.99 2775.59,2403.75 2772.07,2405.51 2772.07,2407.27 2759.76,2428.39 2756.24,2433.66 2754.48,2437.18 2749.2,2437.18 2747.44,2438.94 2743.92,2440.7 2742.16,2442.46 2736.88,2449.52 2735.12,2451.28 2733.36,2451.28 2731.6,2449.52 2731.6,2447.76 2731.6,2446 2731.6,2444.22 2729.84,2442.46 2728.08,2444.22 2728.08,2446 2726.32,2447.76 2726.32,2449.52 2726.32,2454.8 2726.32,2456.56 2728.08,2460.08 2726.32,2461.84 2724.56,2465.36 2722.8,2467.12 2719.28,2468.88 2717.5,2470.64 2717.5,2472.4 2715.74,2474.16 2715.74,2475.92 2712.22,2491.76 2712.22,2502.31 2717.5,2539.29 2717.5,2544.57 2715.74,2548.09 2710.46,2562.17 2708.7,2572.72 2706.94,2576.24 2698.15,2583.28 2698.15,2585.04 2698.15,2586.8 2698.15,2592.08 2698.15,2597.36 2698.15,2599.12 2696.39,2600.88 2694.63,2602.64 2692.87,2602.64 2691.11,2600.88 2689.35,2600.88 2687.59,2602.64 2685.83,2604.4 2684.07,2606.16 2682.31,2606.16 2680.55,2604.4 2678.79,2599.12 2677.03,2597.36 2675.27,2597.36 2673.51,2599.12 2671.75,2602.64 2669.99,2607.92 2666.47,2613.22 2661.19,2620.26 2650.63,2630.82 2643.59,2636.1 2641.83,2636.1 2640.07,2639.61 2640.07,2643.13 2641.83,2650.17 2641.83,2657.21 2640.07,2669.53 2640.07,2671.29 2640.07,2674.81 2640.07,2676.57 2641.83,2680.09 2645.35,2683.61 2648.87,2685.37 2668.23,2690.65 2669.99,2692.43 2673.51,2694.19 2677.03,2701.23 2678.79,2702.99 2680.55,2702.99 2682.31,2702.99 2685.83,2701.23 2687.59,2695.95 2687.59,2692.43 2687.59,2688.89 2687.59,2687.13 2685.83,2683.61 2684.07,2681.85 2684.07,2680.09 2680.55,2676.57 2668.23,2667.77 2666.47,2666.01 2666.47,2664.25 2666.47,2662.49 2668.23,2660.73 2671.75,2658.97 2687.59,2655.45 2691.11,2653.69 2698.15,2648.41 2699.91,2648.41 2701.67,2648.41 2708.7,2648.41 2710.46,2646.65 2712.22,2641.37 2713.98,2639.61 2715.74,2637.85 2724.56,2639.61 2745.68,2648.41 2747.44,2650.17 2750.96,2651.93 2765.04,2669.53 2772.07,2673.05 2782.63,2676.57 2786.15,2676.57 2787.91,2678.33 2789.67,2680.09 2791.43,2683.61 2793.19,2688.89 2794.95,2690.65 2800.23,2690.65 2766.8,2739.94 2749.2,2775.15 2722.8,2817.39 2699.91,2870.2 2682.31,2891.32 2625.98,3049.73 2610.14,3099.01 2587.26,3155.34 2490.46,3317.28 2488.7,3324.32 2486.94,3329.59 2442.92,3396.48 2405.97,3436.98 2386.59,3468.65 2332.04,3535.54 2291.54,3577.78 2229.95,3628.83 2145.47,3701 2038.08,3766.13 2029.28,3774.93 1978.23,3840.06 1965.91,3861.18 1962.39,3864.7 1960.63,3855.9 1962.39,3845.34 1971.19,3831.24 1972.95,3824.2 1976.47,3815.4 1978.23,3804.85 1974.71,3797.81 1969.43,3789.01 1974.71,3783.73 1981.77,3780.21 1985.29,3773.17 1981.77,3760.85 1958.87,3734.44 1958.87,3722.12 1972.95,3713.32 1988.81,3720.36 2016.96,3739.71 2032.8,3739.71 2048.64,3732.68 2055.68,3722.12 2048.64,3711.56 2066.26,3708.04 2080.34,3708.04 2094.41,3708.04 2108.49,3697.48 2145.47,3655.23 2150.75,3642.91 2163.06,3634.11 2164.82,3627.07 2168.34,3616.51 2173.62,3620.03 2182.42,3634.11 2185.94,3632.35 2184.18,3625.31 2180.66,3609.47 2182.42,3602.43 2185.94,3591.86 2191.22,3584.82 2194.74,3579.54 2198.26,3593.64 2210.58,3597.16 2226.43,3593.64 2236.99,3586.58 2242.27,3581.3 2252.83,3574.26 2258.11,3570.74 2270.43,3551.38 2280.99,3526.75 2288.03,3496.81 2289.78,3466.89 2282.75,3440.5 2284.51,3433.46 2286.27,3415.84 2288.03,3410.56 2289.78,3405.28 2296.82,3407.04 2310.92,3412.32 2316.2,3410.56 2328.52,3405.28 2333.8,3403.52 2339.08,3403.52 2342.6,3407.04 2342.6,3429.94 2344.36,3433.46 2346.12,3435.22 2349.64,3433.46 2353.16,3431.7 2354.92,3429.94 2354.92,3424.64 2356.68,3419.36 2361.95,3417.6 2365.47,3415.84 2367.23,3414.08 2365.47,3410.56 2363.71,3408.8 2358.43,3410.56 2354.92,3408.8 2349.64,3396.48 2353.16,3382.41 2358.43,3364.81 2360.19,3347.19 2354.92,3338.39 2353.16,3334.87 2353.16,3331.35 2358.43,3333.11 2361.95,3334.87 2365.47,3334.87 2376.03,3334.87 2381.31,3331.35 2409.49,3308.48 2423.57,3304.96 2428.84,3301.44 2435.88,3297.92 2439.4,3292.64 2453.48,3264.46 2458.76,3231.03 2455.24,3157.1 2453.48,3150.06 2446.44,3134.22 2442.92,3121.9 2441.16,3118.39 2441.16,3114.87 2448.2,3111.35 2451.72,3111.35 2455.24,3111.35 2458.76,3118.39 2471.08,3127.18 2471.08,3130.7 2469.32,3132.46 2467.56,3135.98 2467.56,3139.5 2469.32,3146.54 2472.86,3153.58 2478.14,3160.62 2483.42,3165.9 2495.74,3155.34 2499.25,3151.82 2497.49,3144.78 2495.74,3134.22 2497.49,3130.7 2502.77,3121.9 2508.05,3099.01 2508.05,3086.69 2508.05,3076.13 2506.29,3069.09 2492.22,3062.05 2490.46,3060.29 2486.94,3049.73 2485.18,3046.22 2481.66,3042.7 2478.14,3042.7 2472.86,3042.7 2469.32,3044.46 2460.52,3055.01 2458.76,3056.77 2458.76,3060.29 2458.76,3062.05 2462.28,3062.05 2465.8,3065.57 2467.56,3069.09 2467.56,3074.37 2464.04,3079.65 2460.52,3084.93 2453.48,3086.69 2428.84,3086.69 2423.57,3086.69 2418.29,3090.21 2416.53,3099.01 2395.41,3097.25 2388.35,3097.25 2381.31,3093.73 2376.03,3097.25 2372.51,3104.31 2368.99,3111.35 2368.99,3123.66 2368.99,3130.7 2374.27,3146.54 2367.23,3143.02 2349.64,3128.94 2342.6,3125.42 2337.32,3123.66 2332.04,3120.14 2330.28,3113.11 2330.28,3107.83 2330.28,3106.07 2333.8,3100.77 2335.56,3097.25 2337.32,3093.73 2339.08,3091.97 2340.84,3088.45 2339.08,3081.41 2337.32,3074.37 2332.04,3072.61 2328.52,3076.13 2326.76,3076.13 2325,3065.57 2316.2,3063.81 2307.38,3067.33 2303.86,3069.09 2300.34,3072.61 2295.06,3069.09 2282.75,3058.53 2284.51,3053.25 2280.99,3049.73 2270.43,3044.46 2266.91,3044.46 2263.39,3044.46 2261.63,3044.46 2259.87,3042.7 2261.63,3039.18 2266.91,3033.9 2266.91,3030.38 2266.91,3023.34 2263.39,3018.04 2258.11,3014.52 2256.35,3011 2256.35,3003.96 2259.87,2991.64 2259.87,2982.84 2252.83,2986.36 2251.07,2981.08 2251.07,2972.29 2247.55,2968.77 2244.03,2970.53 2244.03,2972.29 2244.03,2975.81 2244.03,2979.33 2236.99,2993.4 2235.23,2995.16 2236.99,2998.68 2238.75,2998.68 2240.51,3000.44 2240.51,3003.96 2238.75,3007.48 2238.75,3009.24 2238.75,3018.04 2236.99,3023.34 2235.23,3026.86 2233.47,3030.38 2233.47,3033.9 2235.23,3039.18 2235.23,3042.7 2235.23,3047.98 2228.19,3058.53 2231.71,3058.53 2238.75,3056.77 2242.27,3056.77 2244.03,3056.77 2251.07,3067.33 2240.51,3077.89 2245.79,3084.93 2256.35,3088.45 2259.87,3095.49 2263.39,3091.97 2270.43,3084.93 2272.19,3083.17 2273.95,3088.45 2275.71,3093.73 2275.71,3104.31 2277.47,3114.87 2286.27,3114.87 2303.86,3109.59 2310.92,3107.83 2312.68,3111.35 2310.92,3116.63 2309.16,3125.42 2307.38,3128.94 2303.86,3130.7 2300.34,3134.22 2296.82,3134.22 2295.06,3134.22 2289.78,3130.7 2288.03,3128.94 2273.95,3130.7 2263.39,3141.26 2256.35,3157.1 2245.79,3188.79 2242.27,3206.39 2242.27,3223.99 2244.03,3241.59 2249.31,3268 2251.07,3276.8 2249.31,3287.36 2244.03,3294.4 2238.75,3294.4 2233.47,3283.84 2242.27,3282.08 2242.27,3271.52 2233.47,3246.87 2229.95,3231.03 2226.43,3227.51 2217.62,3227.51 2210.58,3231.03 2208.82,3238.07 2208.82,3285.6 2210.58,3292.64 2215.86,3308.48 2215.86,3319.04 2215.86,3327.83 2214.1,3331.35 2198.26,3329.59 2189.46,3329.59 2182.42,3333.11 2178.9,3338.39 2175.38,3347.19 2171.86,3364.81 2173.62,3384.17 2177.14,3400 2187.7,3412.32 2141.93,3428.16 2134.89,3428.16 2124.33,3433.46 2117.29,3447.54 2113.77,3463.37 2113.77,3477.45 2119.05,3482.73 2119.05,3484.49 2113.77,3486.25 2110.25,3484.49 2104.97,3482.73 2101.45,3482.73 2097.93,3484.49 2092.65,3488.01 2083.85,3489.77 2068.02,3488.01 2062.74,3488.01 2053.92,3491.53 2046.88,3495.05 2041.6,3507.37 2032.8,3507.37 2025.76,3505.61 2016.96,3505.61 2015.2,3507.37 2013.45,3510.89 2011.69,3512.67 2006.41,3514.43 2002.89,3516.19 2002.89,3519.71 2004.65,3523.23 2008.17,3524.99 2009.93,3526.75 2008.17,3530.27 1994.09,3540.82 1992.33,3542.58 1990.57,3547.86 1988.81,3556.66 1990.57,3583.06 1990.57,3588.34 1988.81,3597.16 1988.81,3602.43 1990.57,3607.71 1994.09,3612.99 1995.85,3616.51 1988.81,3637.63 1988.81,3642.91 1987.05,3646.43 1985.29,3642.91 1981.77,3634.11 1979.99,3621.79 1978.23,3620.03 1976.47,3614.75 1974.71,3612.99 1971.19,3612.99 1967.67,3609.47 1964.15,3607.71 1960.63,3609.47 1957.11,3612.99 1957.11,3618.27 1958.87,3630.59 1962.39,3630.59 1967.67,3628.83 1972.95,3630.59 1974.71,3635.87 1972.95,3644.67 1967.67,3655.23 1962.39,3660.51 1957.11,3665.79 1918.4,3679.88 1913.12,3685.16 1911.36,3695.72 1911.36,3699.24 1914.88,3708.04 1914.88,3711.56 1914.88,3715.08 1913.12,3718.6 1911.36,3722.12 1911.36,3727.4 1902.56,3727.4 1902.56,3736.2 1906.08,3743.23 1914.88,3739.71 1923.68,3750.27 1925.44,3752.03 1927.2,3753.79 1934.24,3755.55 1937.76,3755.55 1939.52,3759.09 1941.28,3760.85 1943.04,3764.37 1941.28,3769.65 1937.76,3769.65 1930.72,3767.89 1927.2,3769.65 1920.16,3773.17 1913.12,3776.69 1906.08,3780.21 1902.56,3787.25 1902.56,3801.33 1900.8,3810.12 1899.04,3817.16 1909.6,3815.4 1914.88,3817.16 1914.88,3822.44 1906.08,3827.72 1914.88,3829.48 1925.44,3827.72 1936,3820.68 1939.52,3815.4 1941.28,3810.12 1946.55,3806.6 1951.83,3804.85 1957.11,3804.85 1960.63,3806.6 1960.63,3810.12 1955.35,3815.4 1937.76,3825.96 1930.72,3836.52 1934.24,3845.34 1941.28,3843.58 1953.59,3827.72 1958.87,3822.44 1955.35,3838.28 1953.59,3845.34 1957.11,3857.66 1957.11,3862.94 1944.79,3868.22 1909.6,3899.89 1900.8,3912.21 1856.79,4003.76 1833.91,4081.18 1823.35,4130.48 1770.54,4257.22 1761.74,4273.06 1726.53,4320.57 1700.13,4350.51 1663.18,4385.7 1603.32,4438.51 1566.35,4477.23 1541.71,4501.88 1501.24,4528.28 1490.68,4530.04 1485.38,4524.76 1483.62,4517.72 1480.1,4510.68 1473.06,4505.4 1467.78,4505.4 1462.5,4507.16 1453.71,4507.16 1444.91,4489.55 1444.91,4450.83 1453.71,4382.18 1444.91,4317.05 1444.91,4287.14 1451.95,4267.78 1453.71,4257.22 1453.71,4255.46 1464.26,4243.12 1476.58,4232.56 1518.84,4202.65 1524.12,4199.13 1525.88,4190.33 1527.64,4174.49 1529.4,4167.43 1539.95,4156.87 1562.83,4139.28 1571.65,4130.48 1578.69,4121.68 1591.01,4111.12 1594.53,4104.08 1596.29,4097.04 1592.77,4090 1569.87,4065.35 1564.59,4061.83 1552.27,4056.55 1541.71,4049.51 1529.4,4049.51 1524.12,4045.99 1508.28,4037.19 1488.92,4030.15 1467.78,4007.28 1444.91,3991.42 1436.11,3982.62 1429.07,3972.06 1423.79,3961.5 1420.27,3956.22 1411.47,3949.18 1407.95,3942.15 1406.19,3935.11 1404.41,3913.97 1402.65,3899.89 1397.37,3889.33 1379.78,3861.18 1369.22,3838.28 1369.22,3822.44 1367.46,3817.16 1362.18,3813.64 1341.06,3808.36 1332.26,3803.09 1326.98,3799.57 1323.44,3794.29 1321.69,3790.77 1319.93,3785.49 1318.17,3781.97 1314.65,3776.69 1304.09,3769.65 1298.81,3767.89 1293.53,3766.13 1281.21,3764.37 1277.69,3762.61 1274.17,3760.85 1272.41,3753.79 1268.89,3752.03 1263.61,3746.75 1256.57,3743.23 1249.54,3743.23 1242.5,3744.99 1237.2,3752.03 1233.68,3755.55 1230.16,3755.55 1221.36,3750.27 1203.76,3734.44 1184.41,3720.36 1159.75,3697.48 1149.19,3685.16 1138.63,3674.58 1126.31,3665.79 1117.51,3656.99 1115.76,3653.47 1112.24,3644.67 1112.24,3627.07 1110.48,3620.03 1105.2,3612.99 1099.92,3607.71 1082.32,3591.86 1077.02,3586.58 1071.74,3574.26 1066.46,3568.98 1061.18,3567.22 1048.86,3567.22 990.77,3558.42 980.21,3554.9 974.94,3551.38 971.42,3546.1 966.14,3540.82 962.62,3537.3 948.54,3530.27 937.98,3519.71 929.18,3507.37 922.14,3496.81 916.86,3489.77 911.56,3491.53 904.53,3503.85 901.01,3510.89 895.73,3514.43 890.45,3512.67 883.41,3507.37 865.81,3493.29 860.53,3488.01 846.45,3482.73 839.42,3479.21 834.14,3472.17 832.38,3465.13 827.08,3447.54 821.8,3442.26 811.24,3433.46 807.72,3429.94 804.2,3422.88 802.44,3408.8 800.68,3401.76 795.4,3392.97 769.01,3364.81 753.17,3348.97 746.11,3340.15 739.07,3334.87 726.75,3327.83 716.19,3315.52 709.15,3313.76 702.12,3315.52 696.84,3320.8 695.08,3327.83 696.84,3345.43 695.08,3352.49 691.56,3357.77 682.76,3356.01 673.96,3354.25 666.9,3356.01 663.38,3361.29 658.1,3375.37 656.34,3382.41 651.06,3385.93 636.98,3396.48 631.71,3400 629.95,3401.76 628.19,3405.28 626.43,3407.04 624.67,3408.8 621.15,3410.56 612.35,3410.56 600.03,3412.32 577.13,3410.56 568.33,3412.32 566.57,3408.8 564.82,3405.28 564.82,3396.48 566.57,3378.89 566.57,3350.73 568.33,3341.91 573.61,3331.35 575.37,3319.04 573.61,3306.72 568.33,3294.4 545.46,3276.8 540.18,3269.76 527.86,3246.87 526.1,3243.35 522.58,3239.83 515.54,3234.55 512.02,3232.79 510.26,3227.51 508.5,3223.99 506.74,3218.71 496.16,3206.39 489.13,3199.35 476.81,3192.31 455.69,3174.7 439.85,3165.9 436.33,3162.38 431.05,3155.34 422.26,3141.26 415.2,3134.22 397.6,3121.9 390.56,3116.63 387.04,3113.11 372.96,3099.01 371.2,3093.73 367.68,3090.21 364.16,3088.45 360.64,3088.45 357.13,3088.45 353.61,3086.69 348.33,3083.17 348.33,3081.41 350.09,3076.13 348.33,3069.09 344.81,3062.05 339.51,3056.77 334.23,3053.25 321.91,3047.98 300.79,3032.14 297.27,3028.62 290.23,3018.04 277.92,3009.24 263.84,3009.24 251.5,3011 233.9,3005.72 226.86,3007.48 214.55,3009.24 211.03,3011 203.99,3014.52 200.47,3014.52 193.43,3011 189.91,3011 181.11,3016.28 172.29,3028.62 163.49,3040.94 161.73,3051.49 159.97,3065.57 152.93,3076.13 142.38,3084.93 131.82,3086.69 128.3,3086.69 124.78,3081.41 121.26,3079.65 119.5,3081.41 115.98,3086.69 112.46,3086.69 107.18,3084.93 103.66,3081.41 100.14,3077.89 93.08,3077.89 87.8,3079.65 79.01,3088.45 75.49,3090.21 70.21,3088.45 64.93,3079.65 61.41,3077.89 52.61,3077.89 36.77,3079.65 27.97,3079.65 17.41,3072.61 10.36,3049.73 3.32,3044.46 1.56,3040.94 15.65,3039.18 22.69,3035.66 38.53,3025.1 71.97,2982.84 101.9,2958.21 105.42,2952.93 108.94,2905.4 114.22,2891.32 124.78,2882.52 140.62,2875.48 154.69,2873.72 170.53,2873.72 177.59,2871.96 184.63,2864.92 211.03,2836.75 212.79,2833.23 214.55,2829.71 225.1,2817.39 230.38,2803.31 235.66,2798.03 247.98,2785.71 251.5,2782.19 255.02,2776.91 281.44,2752.26 283.2,2748.74 284.96,2745.22 286.72,2739.94 288.48,2736.42 293.75,2732.9 295.51,2729.38 295.51,2724.1 295.51,2720.58 297.27,2717.06 299.03,2713.54 302.55,2711.78 304.31,2708.26 318.39,2702.99 321.91,2699.47 328.95,2694.19 332.47,2687.13 337.75,2669.53 341.29,2660.73 339.51,2655.45 339.51,2650.17 341.29,2644.89 344.81,2639.61 353.61,2625.54 365.92,2613.22 378.24,2604.4 390.56,2597.36 415.2,2592.08 420.48,2588.56 425.78,2579.76 425.78,2572.72 425.78,2556.89 432.81,2541.05 457.45,2525.19 466.25,2511.11 468.01,2477.68 471.53,2470.64 478.57,2467.12 494.41,2463.6 506.74,2456.56 534.9,2417.83 557.78,2401.99 564.82,2391.43 564.82,2375.59 564.82,2368.55 564.82,2361.49 568.33,2356.22 578.89,2352.7 589.47,2347.42 601.79,2347.42 603.55,2345.66 607.07,2343.9 608.83,2342.14 608.83,2338.62 608.83,2319.26 607.07,2315.74 605.31,2308.7 612.35,2301.66 628.19,2294.62 638.74,2298.14 652.82,2299.9 666.9,2303.42 672.2,2310.46 673.96,2319.26 677.48,2321.02 681,2317.5 684.52,2312.22 686.28,2306.94 691.56,2287.59 686.28,2277.01 682.76,2273.49 677.48,2269.97 673.96,2269.97 659.86,2262.93 654.58,2259.41 652.82,2248.85 661.62,2243.57 684.52,2234.77 698.6,2220.7 702.12,2218.94 705.63,2215.42 705.63,2213.66 707.39,2208.38 712.67,2203.1 719.71,2204.86 721.47,2206.62 721.47,2210.14 721.47,2213.66 726.75,2215.42 730.27,2215.42 732.03,2211.9 732.03,2210.14 733.79,2206.62 735.55,2204.86 740.83,2201.34 742.59,2199.58 746.11,2190.76 747.87,2187.24 751.41,2185.48 754.93,2187.24 754.93,2189 758.45,2190.76 761.97,2190.76 770.77,2187.24 772.53,2183.72 788.36,2166.12 790.12,2162.6 791.88,2159.08 791.88,2150.29 791.88,2146.77 793.64,2145.01 795.4,2145.01 798.92,2145.01 807.72,2141.49 809.48,2134.45 809.48,2127.41 814.76,2122.13 820.04,2122.13 827.08,2123.89 830.6,2125.65 834.14,2123.89 848.21,2113.31 851.73,2106.27 857.01,2100.99 864.05,2097.47 869.33,2099.23 876.37,2106.27 885.17,2108.03 886.93,2097.47 888.69,2093.95 890.45,2093.95 899.25,2093.95 902.77,2092.19 909.8,2095.71 916.86,2095.71 916.86,2092.19 911.56,2083.4 901.01,2074.6 897.49,2067.56 904.53,2064.04 911.56,2065.8 916.86,2069.32 923.9,2071.08 932.7,2069.32 950.3,2053.48 957.34,2049.96 959.1,2046.44 960.86,2037.64 962.62,2020.02 962.62,2005.95 966.14,2004.19 974.94,2004.19 981.97,2000.67 983.73,1991.87 985.49,1981.31 987.25,1974.27 990.77,1970.75 996.07,1967.23 999.59,1965.47 1003.11,1968.99 1001.35,1970.75 999.59,1974.27 999.59,1976.03 1001.35,1976.03 1001.35,1977.79 1004.87,1979.55 1004.87,1981.31 1006.63,1981.31 1022.47,1976.03 1025.99,1976.03 1033.03,1977.79 1036.55,1976.03 1040.07,1974.27 1041.83,1972.51 1041.83,1968.99 1041.83,1963.71 1041.83,1960.19 1045.35,1956.67 1047.11,1956.67 1048.86,1958.43 1050.62,1965.47 1054.14,1967.23 1059.42,1961.95 1062.94,1954.91 1064.7,1947.85 1066.46,1942.58 1068.22,1939.06 1071.74,1937.3 1073.5,1937.3 1077.02,1937.3 1078.8,1939.06 1080.56,1939.06 1084.08,1947.85 1084.08,1949.61 1089.36,1951.37 1092.88,1951.37 1115.76,1944.34 1122.79,1939.06 1122.79,1933.78 1115.76,1924.98 1117.51,1921.46 1122.79,1919.7 1138.63,1919.7 1143.91,1919.7 1147.43,1924.98 1147.43,1933.78 1149.19,1937.3 1152.71,1937.3 1156.23,1933.78 1157.99,1930.26 1157.99,1926.74 1157.99,1914.42 1163.29,1917.94 1166.81,1923.22 1172.09,1926.74 1179.13,1926.74 1180.89,1924.98 1184.41,1923.22 1186.17,1917.94 1186.17,1914.42 1187.92,1910.9 1193.2,1910.9 1196.72,1909.14 1198.48,1907.38 1200.24,1905.62 1198.48,1896.82 1200.24,1893.3 1202,1891.54 1203.76,1888.02 1214.32,1859.85 1217.84,1852.81 1223.12,1856.33 1226.64,1859.85 1224.88,1868.65 1235.44,1872.19 1249.54,1870.41 1274.17,1840.49 1277.69,1833.45 1279.45,1831.69 1282.97,1831.69 1284.73,1833.45 1288.25,1835.21 1295.29,1833.45 1295.29,1828.17 1293.53,1822.89 1293.53,1817.61 1298.81,1815.85 1302.33,1817.61 1307.61,1822.89 1312.89,1822.89 1316.41,1819.37 1319.93,1807.06 1323.44,1803.54 1326.98,1807.06 1332.26,1812.33 1334.02,1819.37 "/>
   <path class="fil0 str0" d="M1194.96 597.81l14.08 -7.04 7.04 -5.28 1.76 -5.28 28.18 -14.07 7.04 -7.04 3.51 -17.62 0 -35.2 3.52 -15.83 12.32 -29.94 1.76 -22.88 17.6 -58.09 0 -14.08 0 -3.51 8.8 -7.04 29.93 -12.32 38.72 -24.64 8.8 -12.34 7.04 -14.07 10.55 -29.92 7.04 -14.08 5.3 -15.84 3.52 -33.45 3.52 -14.08 8.8 -22.88 5.28 -7.03 10.56 -12.34 26.39 -15.84 110.91 -49.27 5.28 -1.76 12.32 -3.52 3.52 -3.52 17.59 -17.62 17.6 -12.32 5.28 -3.52 8.8 -5.28 7.06 -3.52 19.35 0 5.28 1.76 8.8 5.28 5.28 1.76 15.84 -1.76 35.21 7.04 8.8 -1.76 19.36 -12.32 12.32 1.76 10.56 8.8 10.56 7.04 14.09 -1.76 7.04 -1.76 5.28 -1.76 14.08 1.76 8.8 0 15.84 5.28 8.79 0 8.8 -7.04 3.52 -1.76 5.28 1.76 3.54 1.76 1.76 1.76 1.76 0 3.52 3.52 1.76 5.28 3.52 3.52 8.8 -1.76 7.04 -5.28 3.52 -7.04 3.52 -10.56 1.76 -7.04 3.52 -7.03 7.03 -5.28 10.56 -1.76 7.04 0 15.86 3.52 14.08 7.04 38.71 22.87 7.04 1.76 8.8 1.76 22.9 -3.52 7.04 3.52 10.55 10.56 7.04 7.04 5.28 -1.76 7.04 -3.52 7.04 0 7.04 3.52 12.32 5.3 7.04 3.52 7.06 0 14.07 1.76 7.04 -1.76 5.28 -1.76 1.76 -1.76 1.76 0 7.04 -5.3 1.76 -1.76 3.52 0 3.52 0 7.04 0 3.52 0 3.52 0 3.52 -1.76 1.76 0 3.52 0 1.75 0 5.3 1.76 7.04 3.52 8.8 5.3 8.8 3.52 29.92 19.35 24.63 10.56 38.74 10.56 42.23 10.56 5.3 3.52 3.52 1.76 14.08 19.36 3.52 5.3 3.52 10.55 1.76 3.52 1.76 3.52 3.52 1.76 5.27 1.76 5.28 0 8.8 0 5.28 -3.52 3.52 -1.76 8.8 -5.28 7.04 -1.76 8.82 0 29.91 3.52 7.04 3.52 1.76 0 1.76 1.76 1.76 0 3.52 1.76 21.12 -1.76 3.52 1.76 7.04 -8.8 3.54 -3.51 5.28 -1.76 7.03 1.76 3.52 1.75 7.04 7.04 5.28 1.76 5.28 3.52 5.28 0 1.76 -3.52 3.52 -3.52 5.28 0 5.28 1.76 3.52 1.76 10.56 1.76 28.17 -3.52 7.04 -1.76 3.52 -1.76 24.64 -7.03 3.52 0 7.04 3.51 0 -7.03 3.51 -1.76 3.52 1.76 3.52 3.52 0 5.27 0 10.56 3.52 3.52 10.58 5.28 5.28 3.52 1.76 5.28 -1.76 10.56 1.76 3.52 5.28 5.28 5.28 3.52 3.52 0 10.56 1.76 3.52 1.76 10.56 5.28 1.75 1.76 8.8 3.51 1.76 1.76 1.76 -1.76 5.28 0 1.76 0 1.76 1.76 1.76 1.78 1.76 5.28 0 3.52 0 3.52 1.76 1.76 8.82 7.04 8.8 14.08 10.56 24.64 7.04 33.45 1.76 17.6 0 7.04 -8.8 24.63 -1.76 5.28 -1.76 1.76 0 1.76 0 1.76 -1.76 1.76 0 3.52 1.76 1.76 5.28 3.54 1.76 1.76 0 3.52 1.76 5.28 0 15.84 1.76 7.04 5.28 10.55 7.03 10.56 3.52 3.52 3.52 5.28 3.52 1.76 0 1.76 1.76 3.52 -3.52 21.14 -1.76 17.59 0 5.28 -1.76 3.52 -1.76 3.52 0 1.76 -1.76 0 -5.28 1.76 -1.75 0 0 3.52 0 1.76 1.75 7.04 1.76 1.76 1.76 1.76 1.76 1.76 3.52 0 1.76 1.76 5.28 10.56 5.28 3.52 1.76 0 1.76 0 1.76 -1.76 1.76 0 1.76 1.76 -1.76 5.3 1.76 1.76 1.76 1.76 0 3.52 1.76 3.52 1.76 5.27 7.06 8.8 5.28 7.04 3.52 7.04 1.76 0 1.76 1.76 3.52 1.76 1.76 1.76 1.76 1.76 1.76 3.52 1.76 3.52 1.76 1.76 3.51 0 7.04 3.52 1.76 0 3.52 1.76 1.76 1.76 1.76 1.76 3.52 5.28 1.76 1.76 1.76 3.52 0 3.52 0 14.09 0 5.28 -1.76 5.28 0 1.76 0 1.76 3.52 3.52 1.76 1.76 1.76 0 3.52 1.76 0 1.76 1.76 3.52 5.28 15.84 1.76 5.28 3.52 1.76 1.76 1.76 1.76 0 3.52 3.52 1.78 0 1.76 1.76 1.76 0 1.76 1.76 1.76 1.75 1.76 1.76 0 1.76 0 5.28 -3.52 3.54 -1.76 3.52 -1.76 0 -1.76 1.76 0 1.76 0 3.52 3.52 3.52 0 1.76 0 1.76 -3.52 3.52 -1.78 1.76 -10.56 3.52 -1.76 0 -1.76 1.76 0 1.76 0 1.76 0 1.76 7.04 5.28 -1.76 10.56 0 5.28 0 1.75 0 1.76 -1.76 3.52 -10.56 0 -1.76 3.52 0 1.76 0 1.76 0 1.76 0 3.52 0 1.76 5.28 10.58 1.76 1.76 0 1.76 -1.76 12.32 0 1.76 0 5.28 0 1.76 1.76 1.76 0 1.76 5.28 1.76 22.9 7.04 7.03 1.75 5.28 0 5.28 -5.27 8.8 0 19.36 3.52 12.32 -1.76 10.56 -7.04 -1.76 -12.32 8.81 1.76 8.8 12.32 10.56 1.76 28.16 -1.76 8.8 0 -1.76 -1.76 0 -1.76 7.04 0 7.03 3.52 5.28 5.28 5.3 5.27 1.76 0 1.76 -1.76 1.76 -1.75 1.76 0 5.28 1.75 1.76 0 12.32 -1.75 5.28 -1.76 1.76 -3.52 3.52 0 3.52 7.03 0 3.52 1.76 1.76 3.52 0 1.76 -1.76 1.76 -1.76 3.52 -3.51 7.03 -3.52 1.76 0 1.76 0 3.52 0 1.76 0 1.76 1.76 1.76 1.76 1.76 1.75 1.76 1.76 0 1.76 1.76 3.52 1.76 1.76 1.78 0 1.76 1.76 19.36 7.04 1.76 0 0 3.52 0 3.52 -5.28 8.8 -1.76 3.52 -1.76 3.54 -7.04 3.52 -3.52 1.76 -1.76 3.52 0 5.28 1.76 10.56 0 3.51 1.76 3.52 -3.52 3.52 -3.54 3.52 0 1.76 -1.76 5.28 1.76 12.32 0 8.8 -1.76 3.52 -1.76 1.76 0 1.76 -7.04 3.52 -1.76 1.76 0 1.78 0 1.76 1.76 3.52 5.28 12.31 0 1.76 1.76 1.76 8.82 5.28 10.56 5.28 3.52 0 1.76 0 1.76 -3.52 0 -1.76 1.76 -3.52 1.76 -1.76 0 -1.76 1.76 -1.76 3.52 -1.75 1.76 -1.76 0 -1.76 1.76 -1.76 0 -3.52 -1.76 -5.28 0 -3.54 0 -1.76 1.76 -1.76 0 -1.76 3.52 -1.76 7.03 -3.52 1.76 -1.76 0 -3.52 1.76 0 1.76 0 5.28 5.28 3.52 0 7.04 1.76 3.52 0 1.76 1.76 1.76 1.76 1.76 1.76 1.76 1.76 0 1.76 0 1.78 0 1.76 1.76 1.76 1.76 0 3.54 1.76 7.04 -1.76 3.52 0 3.52 1.76 0 1.76 0 1.76 1.76 3.52 1.76 0 1.76 0 12.31 -8.8 7.04 22.87 1.76 8.8 0 1.76 7.04 19.36 0 5.28 1.76 5.28 -1.76 3.52 0 1.76 0 3.52 1.76 3.52 5.28 3.54 3.52 1.76 1.76 1.75 21.14 5.28 1.76 0 1.76 0 3.52 0 0 -1.76 1.76 -1.76 1.76 -1.76 1.76 0 0 -1.75 3.52 0 1.75 0 1.76 0 1.76 3.51 -3.52 5.28 -8.79 12.32 -3.52 5.28 -1.76 3.52 0 5.28 -3.52 7.04 -28.18 15.84 -1.76 5.28 -7.04 14.07 -5.28 15.86 -5.28 0 -5.27 -3.52 -3.52 -8.8 1.76 -5.3 7.03 -22.87 1.76 -3.52 0 -1.76 0 -1.76 3.52 -5.28 3.52 -1.76 7.04 -5.28 15.84 -5.28 3.52 -5.28 -5.28 -3.52 -3.52 5.28 -8.8 3.52 -8.8 1.76 -7.04 0 -3.52 1.76 -5.27 5.28 -1.76 1.76 -3.52 -1.76 -5.28 -7.04 -3.52 -1.76 0 5.28 0 3.52 0 3.52 -5.28 7.04 -1.76 3.52 -5.28 3.52 -5.3 0 5.3 -14.08 -1.76 0 -3.54 3.52 0 -5.28 1.76 -19.36 1.78 -10.56 0 -5.28 -5.3 3.52 -3.52 5.28 -3.52 5.28 -1.76 1.76 -3.52 1.76 0 1.76 3.52 1.76 1.76 1.76 1.76 0 0 1.76 0 1.76 -1.76 0 0 1.76 -3.52 1.76 -5.28 -3.52 -8.8 -5.28 -1.76 -3.52 -3.52 -8.8 -3.51 -3.52 0 8.8 -3.52 0 0 -3.52 -1.76 0 -1.76 -1.76 0 -1.76 0 7.04 8.79 22.88 -7.03 0 -10.56 3.52 -7.04 0 0 1.76 12.32 1.76 7.04 1.76 3.52 5.28 -7.04 3.52 -1.76 5.28 1.76 1.76 7.04 -1.76 1.75 3.52 3.52 5.27 1.76 1.76 -1.76 7.06 -3.52 1.76 -3.51 0 -3.52 1.76 -1.76 3.52 -1.76 5.28 0 5.28 -5.28 1.76 -5.28 0 -3.52 -3.52 -7.04 -7.04 -3.52 1.76 -3.52 0 -3.52 0 -3.54 -1.76 -1.76 3.52 -3.52 1.76 -17.6 -5.28 -5.27 -1.76 -15.84 -12.34 -3.52 -3.52 -14.08 -17.59 -3.52 -1.76 0 5.28 7.04 15.83 1.76 5.3 0 1.76 1.76 3.52 5.28 1.76 5.28 8.8 -1.76 5.28 -7.04 0 -8.8 -3.52 7.04 12.32 10.56 0 10.56 -1.76 10.55 1.76 0 1.76 0 1.76 -1.76 1.76 -3.51 -3.52 -1.76 0 -1.76 1.76 -1.76 3.52 3.52 1.76 5.27 1.76 3.52 1.76 3.52 5.28 3.52 -5.28 7.04 -1.76 7.04 1.76 12.34 -5.28 7.04 3.52 5.28 3.52 7.04 3.52 -3.52 5.28 -1.76 0 1.76 -1.76 -3.52 5.28 -3.52 1.76 -1.76 1.75 7.04 1.76 3.52 -1.76 3.52 -5.27 3.52 -3.52 5.28 0 5.27 1.76 7.04 0 5.28 -5.28 10.56 10.56 -10.56 10.55 -15.83 10.56 -29.92 58.09 0 10.56 -5.28 15.84 -3.52 3.54 -5.3 -1.76 -5.28 -8.82 -5.28 -1.76 1.76 -5.28 1.76 -1.76 -5.28 0 -3.52 1.76 -3.52 1.76 -3.52 3.52 5.28 1.76 3.52 1.76 1.76 1.76 1.76 3.52 3.52 5.3 -1.76 1.76 -24.63 -5.28 -31.68 3.52 -3.52 1.76 -3.52 1.76 -3.52 3.52 0 3.52 1.76 3.52 3.52 -1.76 1.76 -1.76 3.52 -1.76 58.07 0 1.76 -1.76 1.76 -1.76 1.76 0 1.76 5.28 0 5.28 0 3.52 -7.04 24.63 -1.76 7.04 -10.56 1.76 -3.52 -1.76 -10.55 -3.52 -95.05 1.76 -1.76 1.76 0 1.76 -1.76 1.76 0 3.52 -5.28 3.52 -7.04 0 -5.28 0 -8.8 1.76 -7.05 -3.52 -3.52 -1.76 0 1.76 -1.76 1.76 0 1.76 -1.76 1.76 -3.52 0 -5.28 -3.52 -1.76 1.76 -7.04 1.76 -1.76 0 -1.76 -1.76 0 -1.76 0 -1.76 0 -1.76 0 -1.76 -1.76 0 -1.76 0 -1.76 0 -1.76 0 -1.76 1.76 0 1.76 -1.76 0 -3.52 1.76 -10.56 1.76 -8.8 3.52 -5.27 3.52 -8.8 5.28 -5.3 5.3 -10.56 14.08 -1.76 3.51 -3.52 1.76 -28.16 15.84 -17.59 7.04 -5.28 0 -3.52 1.76 -1.76 0 -3.52 3.52 -1.76 1.76 -1.76 3.52 -3.54 8.8 -1.76 3.52 -7.04 3.52 -14.08 0 -10.56 -1.76 -5.28 -1.76 -24.63 -10.56 -21.14 -14.08 -1.76 -1.76 0 -5.28 -3.52 -3.52 -3.52 -3.52 -22.87 -14.07 -7.04 -3.52 -5.28 -5.28 -1.76 -1.76 -3.52 -5.28 -7.04 -3.54 -3.52 -1.76 -3.52 -1.76 -5.28 0 -3.52 -1.76 -1.76 0 -1.76 -3.52 -1.76 0 -3.54 -1.76 -3.52 1.76 -10.55 -1.76 -5.28 3.52 -1.76 1.76 -5.28 1.76 -31.68 5.28 -12.32 0 -3.52 1.78 -5.28 1.76 -3.53 0 -1.76 0 -5.28 0 -3.52 -1.76 -1.76 0 -1.76 -1.78 -1.76 -1.76 -5.28 0 -8.8 0 -5.28 0 -3.52 0 -1.76 1.76 -5.28 3.54 -1.76 1.76 -1.76 3.52 -1.76 1.76 0 1.76 0 3.52 1.76 1.76 0 1.76 0 1.75 0 3.52 -1.76 1.76 -1.76 0 -3.52 0 -3.52 -1.76 -1.76 0 0 -1.76 -1.76 -1.76 -1.76 -8.79 -1.76 -1.76 0 -1.76 -1.75 -1.76 -1.76 0 -1.76 -1.76 -3.52 0 -10.58 -1.76 -1.76 0 -1.76 -1.76 -1.76 0 -1.76 -1.78 0 -3.52 -1.76 -1.76 -1.76 -1.76 -5.28 -1.76 -24.64 1.76 -1.76 -1.76 -3.52 -1.76 -3.52 -1.76 -3.51 -1.76 -3.52 0 -1.76 0 0 1.76 0 1.76 1.76 1.76 0 1.76 8.79 3.52 1.76 0 0 1.76 0 1.76 -1.76 1.78 -5.27 1.76 -15.84 1.76 -3.52 1.76 -1.76 0 -3.54 3.52 -5.28 21.11 -3.52 8.8 -3.52 3.52 -5.28 7.04 -7.04 10.56 -3.52 3.52 0 5.28 -1.76 3.52 -1.76 1.76 -1.76 0 -1.76 -1.76 -3.52 -1.76 -1.76 -1.76 -3.51 0 -1.76 0 -3.52 1.76 -3.52 1.76 -12.32 8.8 -1.76 0 -1.76 1.78 -3.52 0 -1.76 0 -1.76 -1.78 -5.3 0 -3.52 0 -1.76 1.78 0 1.76 -1.76 3.51 -1.76 3.52 -1.76 0 -1.76 0 0 -1.76 -1.76 -5.27 0 -1.76 0 -1.78 -1.76 -1.76 -1.76 0 -1.76 -1.76 -3.52 0 -1.76 1.76 -1.76 3.54 -1.76 3.52 -1.76 0 -1.75 0 -1.76 -1.76 -3.52 -5.3 -1.76 -1.76 -1.76 -1.76 -1.76 0 -1.76 0 -5.28 0 -7.04 1.76 -3.52 1.76 -1.76 0 -1.76 -1.76 -1.76 -1.76 -1.76 -1.76 -1.76 0 -1.76 0 -1.76 1.76 -5.28 3.52 -3.54 5.3 -1.76 3.51 -3.52 3.52 -3.52 1.76 -1.76 1.76 -21.11 5.28 -3.52 1.76 -3.52 1.76 -3.52 5.28 -5.28 5.28 -1.76 1.76 -1.76 1.76 -1.76 3.52 0 1.76 -1.76 8.8 0 3.52 -1.76 3.52 -7.04 7.04 -1.76 3.52 0 1.76 -1.76 1.76 1.76 1.76 0 1.75 1.76 3.52 5.28 3.54 0 1.76 0 1.76 0 3.52 -3.52 5.28 0 1.76 0 1.76 10.56 19.36 3.52 7.04 0 5.28 1.76 3.52 -1.76 7.04 -5.28 8.79 -10.56 8.8 -3.52 1.76 -3.52 0 -10.56 1.76 -19.37 5.3 -3.52 1.76 -1.76 1.76 -1.76 5.28 -1.76 1.76 -1.76 1.76 0 -1.76 -1.76 -1.76 -3.52 -7.04 -3.52 -5.3 -1.76 -3.52 0 -1.76 -3.52 -1.76 -5.28 -3.52 -1.76 0 0 -1.76 -1.76 -1.76 0 -1.76 0 -5.27 -1.76 -1.76 0 -1.76 -1.76 -1.76 -1.76 0 -1.76 0 -38.73 1.76 -3.52 0 -1.76 -1.76 -1.76 -1.76 -1.76 -3.52 -3.52 -1.76 -1.76 0 -3.52 0 -1.76 1.76 -5.28 3.52 -5.28 1.76 -3.52 0 -59.85 0 -22.87 -7.04 -7.04 0 -14.08 0 -3.52 0 -1.76 -1.76 -1.76 0 -5.3 -7.04 -21.12 -12.32 -5.28 -5.28 -1.76 -1.76 -1.76 -5.28 -1.76 -3.52 -1.76 -1.76 -17.59 -10.58 -3.52 -1.76 -3.52 0 -3.52 0 -7.04 0 -8.8 -1.76 -8.82 -1.76 -8.8 -1.75 -10.55 1.75 -3.52 0 -5.28 0 -17.6 -5.27 -17.6 0 -3.52 0 -1.76 0 -12.34 -7.04 -14.07 -5.28 -26.4 1.76 -8.8 -1.76 -1.76 -1.76 -1.76 -3.52 -5.28 -3.52 -52.81 -15.84 -3.52 0 -7.04 1.76 -3.52 1.76 -7.04 3.52 -12.31 3.52 -10.56 1.76 -3.52 0 -1.78 -1.76 -3.52 -1.76 -3.52 -3.52 -3.52 0 -1.76 0 -3.52 1.76 -14.08 5.28 -19.36 0 -5.27 0 -3.52 0 -1.76 -1.76 -1.76 -3.52 -1.76 -1.76 -1.76 -1.76 -3.52 -1.76 -10.56 -5.28 -7.06 -5.28 -15.84 -10.56 -1.76 0 -1.76 -1.76 0 -1.76 -3.52 -3.52 -5.28 -3.51 -21.11 -7.06 -5.28 -1.76 -5.28 1.76 -1.76 0 -1.76 0 -28.18 17.61 -3.52 0 -3.52 1.76 -7.03 0 -3.52 0 -1.76 0 -14.08 -7.04 -21.12 -7.03 -3.52 0 -3.52 0 -5.28 1.76 -5.3 0 -1.76 -17.62 -7.03 -12.32 -15.84 -22.88 -5.28 -14.07 -1.76 -14.08 -5.28 -10.58 -8.8 -12.32 -12.32 -10.56 -1.76 -3.52 -1.76 -5.28 0 -3.52 1.76 -3.52 0 -3.52 -3.52 -21.11 1.76 -22.9 -1.76 -7.04 -3.52 -8.8 -1.76 -3.52 -7.04 -7.03 -3.53 -3.52 0 -5.28 1.75 -3.52 1.78 -1.76 0 -3.52 -3.53 -15.84 -3.52 -7.04 -5.28 -5.3 -14.08 8.82 -5.28 1.76 -3.52 -10.58 -1.76 -8.8 -1.76 -7.04 -3.52 -5.28 -7.04 -3.51 -5.28 -1.76 -1.76 1.76 -3.52 1.76 -3.52 0 -7.03 -5.28 -3.52 -1.76 -1.76 3.52 0 3.52 1.76 3.51 0 5.28 -1.76 1.76 -3.52 0 -3.52 -1.76 -3.54 -5.28 -1.76 -1.76 0 -8.79 1.76 -7.04 1.76 -5.28 1.78 -7.04 0 -1.76 -1.78 -1.76 -3.52 1.76 -1.76 1.76 -8.8 10.56 -3.52 1.76 -5.28 0 -7.04 -1.76 -3.52 0 -1.76 1.76 7.04 12.32 1.76 7.03 -7.04 0 -7.04 -1.76 -1.76 0 -3.52 0 -1.76 5.28 -1.76 3.52 -3.52 -3.52 -3.51 -8.79 -3.52 -5.28 -5.28 -1.76 -8.8 1.76 -3.52 1.76 -5.3 8.79 -5.28 0 -5.28 -1.76 -3.52 0 -3.52 1.76 -1.76 3.52 0 3.52 0 3.52 -1.76 3.52 -1.76 3.52 -7.04 3.54 -1.76 3.52 0 3.52 1.76 8.8 -1.76 3.52 -3.52 1.76 -1.76 -3.52 -1.76 -3.52 0 -3.52 -1.76 -8.8 -3.51 -5.3 -7.04 -5.28 -7.04 -3.52 -7.04 1.76 -1.76 -3.52 -1.76 -5.28 -1.76 -5.28 -5.28 -1.75 -14.1 1.75 1.76 -10.55 1.76 -8.8 -3.52 -7.04 -3.52 -7.04 0 -8.8 0 -8.8 0 -5.28 5.28 -12.34 7.04 -15.83 10.58 -8.8 7.04 -8.8 8.8 -14.08 7.04 -24.63 3.52 -7.06 12.31 -12.32 3.52 -7.04 -1.76 -7.04 -8.8 -14.08 -1.76 -8.8 0 -5.28 0 -8.79 3.52 -12.32 15.84 -72.17 3.52 -5.28 8.8 -15.86 5.28 -12.32 12.34 -40.47 0 -12.32 -3.52 -28.18 0 -10.55 3.52 -14.08 14.08 -19.36 3.52 -8.8 3.51 -12.34 0 -10.55 -3.51 -12.32 -3.52 -8.8 -8.8 -12.32 -1.76 -3.52 -1.76 -15.84 -5.28 -12.32 0 -5.29 3.52 -12.32 7.04 -10.56 12.32 -10.56 8.79 -5.28zm2098.14 521.01l8.8 -7.04 10.56 -7.04 5.28 0 1.76 5.28 -1.76 10.56 -5.28 14.09 1.76 8.8 3.52 7.04 -5.28 3.52 -7.04 5.28 -7.04 -1.76 -5.28 -7.04 1.76 -5.28 0 -3.52 -7.06 -7.04 0 -7.06 5.3 -8.79z"/>
  </g>
 </g>
</svg>
