<?xml version="1.0" encoding="UTF-8"?>
<!DOCTYPE svg PUBLIC "-//W3C//DTD SVG 1.1//EN" "http://www.w3.org/Graphics/SVG/1.1/DTD/svg11.dtd">
<!-- Creator: CorelDRAW -->
<svg xmlns="http://www.w3.org/2000/svg" xml:space="preserve" width="36.6122mm" height="36.1918mm" version="1.1" style="shape-rendering:geometricPrecision; text-rendering:geometricPrecision; image-rendering:optimizeQuality; fill-rule:evenodd; clip-rule:evenodd"
viewBox="0 0 3661.22 3619.18"
 xmlns:xlink="http://www.w3.org/1999/xlink"
 xmlns:xodm="http://www.corel.com/coreldraw/odm/2003">
 <defs>
  <style type="text/css">
   <![CDATA[
    .str0 {stroke:#E9CF57;stroke-width:7.62;stroke-miterlimit:22.9256}
    .fil1 {fill:#E9CF57;fill-rule:nonzero}
    .fil4 {fill:black;fill-rule:nonzero}
    .fil3 {fill:#EADE71;fill-rule:nonzero}
    .fil0 {fill:#D6D276;fill-rule:nonzero}
    .fil2 {fill:#B9C281;fill-rule:nonzero}
   ]]>
  </style>
 </defs>
 <g id="Camada_x0020_1">
  <metadata id="CorelCorpID_0Corel-Layer"/>
  <g id="_1428247149232">
   <g>
    <path class="fil0" d="M822.56 1524.08c0,-215.44 42.15,-349.69 172.06,-513.77 188.05,-238.66 376.88,-340.88 311.46,-671.58 251.03,185.55 300.65,584.69 204.34,852.63 353.7,-316.88 -158.16,-959.6 605.15,-1191.36 -232.13,436.92 279.33,730.28 100.77,1445.44 322.96,-438.91 -74.94,-753.1 215.05,-941.15 -30.2,160.39 112.33,269.53 241.91,526.01 111.79,221.59 118.07,476.86 74.87,692.06 -79.45,258.28 -188.08,497.19 -449.97,595.5 -346.46,130.08 -648.94,77.23 -988.84,-29.81 -345.32,-115.65 -486.8,-493.31 -486.8,-763.97z"/>
    <path class="fil1 str0" d="M2571.39 2038.82l-1.22 3.89 -1.27 3.88 -1.32 3.89 -1.37 3.88 -1.42 3.88 -1.47 3.88 -1.52 3.87 -1.56 3.87 -1.6 3.87 -1.65 3.85 -1.69 3.86 -1.73 3.84 -1.76 3.84 -1.81 3.83 -1.84 3.81 -0.01 0 -1.87 3.81 -0.01 0 -1.91 3.8 -1.95 3.79 -1.98 3.78 -2.01 3.76 -2.04 3.75 -2.07 3.74 -0.01 0 -2.09 3.72 -2.13 3.71 -2.15 3.69 -2.18 3.67 -2.19 3.66 -0.01 0 -2.22 3.64 -2.24 3.62 -2.26 3.6 -2.28 3.59 -2.3 3.56 -2.31 3.54 -0.01 0 -2.32 3.52 -0.01 0 -2.33 3.5 -0.01 0 -2.35 3.47 -2.37 3.45 -2.37 3.43 -0.01 0 -2.38 3.4 -0.01 0 -2.39 3.38 -2.4 3.35 -0.01 0 -2.4 3.32 -0.01 0 -2.4 3.29 -0.01 0 -2.41 3.27 -0.01 0 -2.41 3.24 -0.01 0 -2.41 3.21 -0.01 0 -2.41 3.17 -0.01 0 -2.41 3.15 -0.01 0 -2.33 3c-49.14,41.74 -106.27,76.27 -173.52,101.52 -4.2,1.58 -8.38,3.11 -12.57,4.63l-0.45 0.16 -0.45 0.16c-5.13,1.8 -10.29,3.54 -15.29,5.25 -9.42,3.28 -18.93,6.2 -28.36,9.12 -28.33,9.12 -56.39,16.77 -83.67,23.28 -9.42,2.14 -18.54,4.39 -27.66,6.14 -16.41,3.67 -33.12,6.98 -49.14,9.87 -10.48,1.86 -21.07,3.31 -31.64,4.76 -8.73,1.39 -17.49,2.53 -26.14,3.61 -21.91,2.92 -43.29,5.06 -64.84,6.51 -7.56,0.39 -15.24,0.78 -22.91,1.14 -6.12,0.33 -12.32,0.69 -18.55,0.69 -7.28,0.39 -14.15,0.7 -21.08,0.7 -12.1,0.39 -24.06,0.49 -35.91,0.4 -154.76,-2.84 -307.63,-34.6 -467.54,-81.15 -29.8,-8.97 -57.29,-17.6 -82.64,-25.08 -279.81,-191.36 -354.75,-651.55 -154.66,-974.66 33.79,-53.86 132.05,-148.43 236.49,-216.5 76.02,262.33 -21.05,680.7 156.05,632.7 34.62,-9.12 39.01,-99.29 41.15,-228.15 2.14,-118.23 44.74,-298.33 133.89,-397.96 161.83,-180.85 246.69,-189.97 283.01,-329.66 250.36,303.47 14.93,698.59 14.93,852.47 0,81.47 20.02,175.35 80.41,242.25 127.66,148.15 272.89,-375.05 272.89,-495.84 120.01,83.31 292.91,359.06 197.87,666.12z"/>
    <path class="fil2" d="M2440.67 2240.95c-41.79,30.82 -88.92,56.81 -142.47,76.91 -4.2,1.58 -8.38,3.11 -12.57,4.63l-0.45 0.16 -0.45 0.16c-5.13,1.8 -10.29,3.54 -15.29,5.25 -9.42,3.28 -18.93,6.2 -28.36,9.12 -28.33,9.12 -56.39,16.77 -83.67,23.28 -9.42,2.14 -18.54,4.39 -27.66,6.14 -16.41,3.67 -33.12,6.98 -49.14,9.87 -10.48,1.86 -21.07,3.31 -31.64,4.76 -8.73,1.39 -17.49,2.53 -26.14,3.61 -21.91,2.92 -43.29,5.06 -64.84,6.51 -7.56,0.39 -15.24,0.78 -22.91,1.14 -6.12,0.33 -12.32,0.69 -18.55,0.69 -7.28,0.39 -14.15,0.7 -21.08,0.7 -12.1,0.39 -24.06,0.49 -35.91,0.4 -154.76,-2.84 -307.63,-34.6 -467.54,-81.15 -29.8,-8.97 -57.29,-17.6 -82.64,-25.08 -186.3,-274.67 -242.72,-575.53 -8.06,-816.03 -61.15,216.11 131.91,376.27 235.5,366.58 103.59,-9.69 113.97,-136.88 145.44,-320.95 31.02,-134.77 103.4,-187.1 174.49,-254.2 38.14,-36 59.31,-105.83 110.77,-128.68 -33.7,223.13 -69.01,663.01 96.23,846.07 89.01,168.99 364.46,-247 364.46,-367.79 213.85,235.92 66.56,409.09 12.48,627.9z"/>
    <path class="fil3" d="M2298.2 2317.86c-9.43,3.67 -19.33,6.98 -28.76,10.2 -9.42,3.28 -18.93,6.2 -28.36,9.12 -28.33,9.12 -56.39,16.77 -83.67,23.28 -9.42,2.14 -18.54,4.39 -27.66,6.14 -16.41,3.67 -33.12,6.98 -49.14,9.87 -10.48,1.86 -21.07,3.31 -31.64,4.76 -8.73,1.39 -17.49,2.53 -26.14,3.61 -21.91,2.92 -43.29,5.06 -64.84,6.51 -7.56,0.39 -15.24,0.78 -22.91,1.14 -6.12,0.33 -12.32,0.69 -18.55,0.69 -7.28,0.39 -14.15,0.7 -21.08,0.7 -23.97,0.78 -47.35,0.39 -70.57,-0.31 -11.65,-0.39 -23.66,-1.08 -34.95,-1.83 -26.89,-1.84 -53.47,-4.37 -79.3,-7.29 -8.73,-1.08 -17.49,-2.14 -26.22,-3.59 -38.93,-5.53 -76.03,-12.42 -111.65,-20.02 -9.12,-1.83 -17.85,-3.67 -26.61,-5.81 -17.07,-4.06 -33.78,-8.45 -50.19,-12.43 -8.34,-2.14 -16.4,-4.36 -24.35,-6.5 -16.02,-4.37 -31.29,-8.73 -46.22,-13.1 -5.45,-18.18 -10.2,-38.26 -11.29,-68.07 -2.14,-66.9 -0.66,-84.06 22.94,-144.06 60.37,-154.58 296.89,-166.62 404.94,-368.15 106.22,51.27 58.23,293.96 120.76,366.7 95.74,110.59 288.16,60.76 312.52,-75.66 51.27,67.29 63.31,194.28 22.94,284.1z"/>
   </g>
   <g>
    <polygon class="fil4" points="437.42,3242.38 436.8,2953.95 295.19,3191.49 245.22,3191.49 104.22,2960.06 104.22,3242.38 -0,3242.38 -0,2761.72 91.95,2761.72 271.89,3060.31 449.07,2761.72 540.44,2761.72 541.66,3242.38 "/>
    <path class="fil4" d="M939.29 3250.67c-68.66,0 -122.24,-19 -160.61,-57.01 -38.26,-38.04 -57.34,-92.29 -57.34,-162.77l0 -269.17 111.28 0 0 265.16c0,86.06 35.71,129.08 107.28,129.08 34.73,0 61.17,-10.43 79.41,-31.28 18.38,-20.86 27.59,-53.42 27.59,-97.8l0 -265.16 110.05 0 0 269.17c0,70.48 -19.18,124.73 -57.33,162.77 -38.24,38.01 -91.65,57.01 -160.33,57.01z"/>
    <path class="fil4" d="M1494.52 3250.67c-38.04,0 -74.8,-5.15 -110.36,-15.33 -35.43,-10.42 -63.76,-23.91 -85.23,-40.45l37.71 -83.7c20.6,15.18 45.07,27.28 73.26,36.48 28.37,9.21 56.78,13.79 85.23,13.79 31.64,0 55,-4.67 70.18,-14.09 15.1,-9.35 22.69,-21.86 22.69,-37.4 0,-11.43 -4.53,-20.94 -13.48,-28.5 -9.04,-7.54 -20.47,-13.57 -34.34,-18.11 -13.96,-4.67 -32.79,-9.81 -56.7,-15.32 -36.65,-8.59 -66.54,-17.24 -89.81,-26.05 -23.31,-8.73 -43.38,-22.77 -60.09,-42.02 -16.8,-19.13 -25.14,-44.82 -25.14,-76.94 0,-27.72 7.51,-53.02 22.69,-75.71 15.1,-22.66 37.84,-40.6 68.35,-53.95 30.42,-13.26 67.59,-19.9 111.58,-19.9 30.65,0 60.54,3.67 89.82,11.03 29.42,7.35 55.02,17.91 76.94,31.56l-34.34 84.62c-44.36,-25.31 -88.73,-38.01 -133.03,-38.01 -31.28,0 -54.42,5.11 -69.29,15.32 -14.71,10.04 -22.05,23.3 -22.05,39.84 0,16.41 8.56,28.67 25.75,36.79 17.15,7.98 43.29,15.88 78.47,23.61 36.53,8.59 66.51,17.32 89.81,26.05 23.44,8.6 43.54,22.3 60.09,41.07 16.68,18.86 25.13,44.3 25.13,76.33 0,27.45 -7.67,52.41 -22.99,75.1 -15.32,22.69 -38.32,40.71 -68.99,53.98 -30.64,13.23 -67.96,19.91 -111.86,19.91z"/>
    <polygon class="fil4" points="1844.65,2761.72 1955.93,2761.72 1955.93,3242.38 1844.65,3242.38 "/>
    <path class="fil4" d="M2369.77 3250.67c-48.88,0 -93.1,-10.57 -132.72,-31.87 -39.71,-21.24 -70.82,-50.75 -93.51,-88.62 -22.66,-37.76 -34.01,-80.44 -34.01,-128.13 0,-47.57 11.35,-90.26 34.01,-128.13 22.69,-37.79 53.8,-67.29 93.51,-88.59 39.62,-21.21 84.14,-31.86 133.64,-31.86 41.48,0 79.1,7.34 112.81,22.05 33.72,14.57 62,35.56 84.92,63.14l-71.44 65.93c-32.48,-37.56 -72.85,-56.42 -121.07,-56.42 -29.66,0 -56.25,6.59 -79.72,19.63 -23.27,13.1 -41.51,31.26 -54.55,54.56 -12.88,23.3 -19.3,49.88 -19.3,79.69 0,29.89 6.42,56.42 19.3,79.72 13.04,23.28 31.28,41.54 54.55,54.56 23.47,13.09 50.06,19.63 79.72,19.63 48.22,0 88.59,-19.02 121.07,-57.03l71.44 65.9c-22.92,28.05 -51.33,49.35 -85.23,64.06 -33.95,14.49 -71.71,21.78 -113.42,21.78z"/>
    <path class="fil4" d="M3029.77 3139.39l-223.17 0 -42.6 102.99 -114.03 0 214.27 -480.66 109.73 0 214.91 480.66 -116.81 0 -42.3 -102.99zm-35.26 -84.59l-76.02 -183.94 -76.32 183.94 152.34 0z"/>
    <polygon class="fil4" points="3309,2761.72 3420.28,2761.72 3420.28,3151.65 3661.22,3151.65 3661.22,3242.38 3309,3242.38 "/>
    <polygon class="fil4" points="1182.2,3412.58 1156.76,3412.58 1156.76,3505.45 1045.17,3505.45 1045.17,3412.58 1020.04,3412.58 1020.04,3615.2 1045.17,3615.2 1045.17,3526.61 1156.76,3526.61 1156.76,3615.2 1182.2,3615.2 "/>
    <path class="fil4" d="M1501.41 3533.04c0,-45.69 -23.91,-77.56 -66.81,-77.56 -42.63,0 -73.88,31.87 -73.88,82.45 0,54.89 30.03,81.25 70.79,81.25 31.89,0 61.62,-16.55 67.76,-54.25l-26.36 0c-3.69,22.36 -19.93,34.92 -40.45,34.92 -22.69,0 -42.33,-13.79 -44.47,-54.86l112.81 0c0.61,-5.5 0.61,-9.81 0.61,-11.95zm-67.43 -58.23c25.75,0 39.54,18.38 41.69,50.86l-87.37 0c2.75,-33.09 21.16,-50.86 45.68,-50.86z"/>
    <path class="fil4" d="M1770.88 3615.2l25.45 0c-2.45,-17.49 -3.09,-27.91 -3.09,-39.57l0 -58.53c0,-6.75 -0.28,-14.4 -0.92,-20.55 -2.75,-25.44 -18.07,-41.07 -55.17,-41.07 -34.34,0 -57.61,19 -59.78,52.11l26.39 0c1.53,-21.46 12.23,-32.78 33.39,-32.78 20.86,0 29.14,9.48 30.34,23.89 0.64,5.83 0.64,11.95 0.64,18.71l0 3.97 -10.12 0c-61.01,0 -87.67,18.41 -87.67,53.67 0,28.81 22.07,44.13 50.27,44.13 15.01,0 28.5,-2.14 39.23,-9.51l8.29 -16.85 2.75 22.38zm-41.68 -15.35c-19.02,0 -30.97,-8.25 -30.97,-26.97 0,-26.66 26.97,-35.87 69.9,-32.48l0 15.63c0,28.2 -15.35,43.82 -38.93,43.82z"/>
    <path class="fil4" d="M2045.47 3456.1c-7.34,0 -15.32,2.44 -21.75,7.06l-14.09 20.83 0 -24.53 -25.14 0 0 155.74 25.14 0 0 -88.59c0,-35.56 19.9,-51.19 46.57,-49.35l0 -19.33c-3.06,-1.22 -6.42,-1.83 -10.73,-1.83z"/>
    <path class="fil4" d="M2258.6 3480.01l28.84 0 0 -19.33 -28.84 0 0 -36.14 -25.44 0 0 36.14 -20.83 0 0 19.33 20.83 0 0 90.73c0,8.9 0,15.32 0.3,19.63 1.53,19.3 11.35,27.28 30.98,27.28 7.03,0 14.1,-0.31 21.47,-1.53l0 -18.41c-19.94,2.14 -26.09,-0.92 -27,-15.93 -0.31,-4.28 -0.31,-6.73 -0.31,-11.96l0 -89.81z"/>
    <path class="fil4" d="M2597.95 3500.84c-2.45,-27.28 -21.44,-45.36 -55.48,-45.36 -15.93,0 -27.28,2.45 -40.46,12.88l-9.81 17.77 0 -88.29 -25.14 0 0 217.36 25.14 0 0 -68.37c0,-53.33 20.52,-70.82 45.07,-71.41 23.89,-0.61 34.01,13.49 35.54,31.56 0.61,7.98 0.61,14.4 0.61,22.39l0 85.83 25.14 0 0 -87.36c0,-12.88 0,-19.02 -0.61,-27z"/>
   </g>
  </g>
 </g>
</svg>
