<svg width="345" height="80" viewBox="0 0 345 80" fill="none" xmlns="http://www.w3.org/2000/svg">
<path d="M129.045 46.9318L129.008 29.2737L120.576 43.8162H117.601L109.206 29.6477V46.9318H103V17.5051H108.475L119.189 35.7852L129.739 17.5051H135.179L135.252 46.9318H129.045Z" fill="black"/>
<path d="M158.928 47.4393C154.84 47.4393 151.65 46.2761 149.365 43.9491C147.087 41.6202 145.951 38.2989 145.951 33.984V17.5051H152.577V33.7385C152.577 39.0073 154.703 41.641 158.964 41.641C161.032 41.641 162.607 41.0025 163.693 39.726C164.787 38.4489 165.336 36.4556 165.336 33.7385V17.5051H171.888V33.984C171.888 38.2989 170.746 41.6202 168.475 43.9491C166.198 46.2761 163.018 47.4393 158.928 47.4393Z" fill="black"/>
<path d="M191.988 47.4393C189.723 47.4393 187.534 47.124 185.417 46.5008C183.307 45.8628 181.621 45.037 180.342 44.0244L182.588 38.9001C183.814 39.8295 185.271 40.5702 186.95 41.1335C188.639 41.6973 190.33 41.9777 192.024 41.9777C193.908 41.9777 195.299 41.6918 196.203 41.1151C197.102 40.5427 197.554 39.7768 197.554 38.8254C197.554 38.1257 197.285 37.5435 196.752 37.0806C196.213 36.619 195.533 36.2499 194.707 35.9719C193.876 35.686 192.754 35.3713 191.331 35.034C189.149 34.5081 187.369 33.9785 185.983 33.4392C184.595 32.9047 183.4 32.0452 182.405 30.8667C181.405 29.6955 180.908 28.1227 180.908 26.1563C180.908 24.4592 181.356 22.9103 182.259 21.5212C183.159 20.1339 184.513 19.0356 186.329 18.2183C188.141 17.4065 190.354 17 192.973 17C194.798 17 196.578 17.2247 198.321 17.6753C200.073 18.1252 201.597 18.7717 202.902 19.6074L200.858 24.788C198.216 23.2385 195.574 22.461 192.937 22.461C191.074 22.461 189.696 22.7738 188.811 23.3989C187.935 24.0135 187.498 24.8253 187.498 25.8379C187.498 26.8426 188.008 27.5931 189.031 28.0903C190.052 28.5788 191.609 29.0625 193.704 29.5357C195.879 30.0616 197.664 30.5961 199.051 31.1305C200.447 31.657 201.644 32.4958 202.629 33.6449C203.622 34.7995 204.125 36.357 204.125 38.3179C204.125 39.9984 203.669 41.5265 202.757 42.9156C201.844 44.3048 200.475 45.408 198.649 46.2204C196.824 47.0303 194.602 47.4393 191.988 47.4393Z" fill="black"/>
<path d="M212.836 17.5051H219.462V46.9318H212.836V17.5051Z" fill="black"/>
<path d="M244.103 47.4393C241.193 47.4393 238.56 46.7922 236.201 45.4882C233.836 44.1878 231.984 42.3812 230.633 40.0627C229.284 37.751 228.608 35.1381 228.608 32.2184C228.608 29.3061 229.284 26.6926 230.633 24.3741C231.984 22.0606 233.836 20.2545 236.201 18.9505C238.56 17.652 241.211 17 244.158 17C246.628 17 248.868 17.4494 250.875 18.3499C252.883 19.2419 254.567 20.527 255.931 22.2155L251.678 26.2518C249.744 23.9523 247.34 22.7977 244.469 22.7977C242.703 22.7977 241.12 23.2011 239.722 23.9994C238.337 24.8014 237.25 25.9132 236.474 27.3397C235.707 28.7661 235.325 30.3934 235.325 32.2184C235.325 34.0483 235.707 35.6725 236.474 37.099C237.25 38.5242 238.337 39.6421 239.722 40.4392C241.12 41.2406 242.703 41.641 244.469 41.641C247.34 41.641 249.744 40.4766 251.678 38.1496L255.931 42.184C254.567 43.9013 252.875 45.2053 250.857 46.1059C248.835 46.993 246.587 47.4393 244.103 47.4393Z" fill="black"/>
<path d="M283.402 40.6266H270.113L267.577 46.9318H260.787L273.545 17.5051H280.079L292.875 46.9318H285.92L283.402 40.6266ZM281.302 35.4478L276.776 24.1868L272.231 35.4478H281.302Z" fill="black"/>
<path d="M300.028 17.5051H306.654V41.3771H321V46.9318H300.028V17.5051Z" fill="black"/>
<path d="M173.392 57.3517H171.877V63.0373H165.233V57.3517H163.736V69.7563H165.233V64.3327H171.877V69.7563H173.392V57.3517Z" fill="black"/>
<path d="M192.398 64.7264C192.398 61.9292 190.975 59.9781 188.42 59.9781C185.882 59.9781 184.021 61.9292 184.021 65.0258C184.021 68.3862 185.809 70 188.236 70C190.135 70 191.905 68.9868 192.271 66.6787H190.701C190.482 68.0477 189.515 68.8166 188.293 68.8166C186.942 68.8166 185.773 67.9723 185.645 65.458H192.362C192.398 65.1213 192.398 64.8574 192.398 64.7264ZM188.383 61.1615C189.917 61.1615 190.738 62.2867 190.866 64.2752H185.664C185.827 62.2494 186.923 61.1615 188.383 61.1615Z" fill="black"/>
<path d="M208.443 69.7563H209.959C209.813 68.6856 209.775 68.0476 209.775 67.3338V63.7505C209.775 63.3373 209.758 62.8689 209.72 62.4924C209.556 60.9349 208.644 59.9781 206.435 59.9781C204.39 59.9781 203.005 61.1413 202.876 63.1683H204.447C204.538 61.8545 205.175 61.1615 206.435 61.1615C207.677 61.1615 208.17 61.7418 208.242 62.624C208.28 62.981 208.28 63.3556 208.28 63.7695V64.0125H207.677C204.044 64.0125 202.457 65.1396 202.457 67.2983C202.457 69.0621 203.771 70 205.45 70C206.344 70 207.147 69.869 207.786 69.4178L208.28 68.3862L208.443 69.7563ZM205.962 68.8166C204.829 68.8166 204.118 68.3115 204.118 67.1654C204.118 65.5333 205.724 64.9694 208.28 65.177V66.1339C208.28 67.8603 207.366 68.8166 205.962 68.8166Z" fill="black"/>
<path d="M224.793 60.016C224.356 60.016 223.881 60.1654 223.498 60.4482L222.659 61.7235V60.2217H221.162V69.7563H222.659V64.3327C222.659 62.1557 223.844 61.1988 225.432 61.3115V60.128C225.25 60.0534 225.05 60.016 224.793 60.016Z" fill="black"/>
<path d="M237.484 61.4798H239.201V60.2964H237.484V58.0839H235.969V60.2964H234.729V61.4798H235.969V67.0344C235.969 67.5793 235.969 67.9723 235.987 68.2362C236.078 69.4178 236.663 69.9063 237.832 69.9063C238.25 69.9063 238.671 69.8874 239.11 69.8127V68.6856C237.923 68.8166 237.556 68.6293 237.502 67.7103C237.484 67.4483 237.484 67.2983 237.484 66.9781V61.4798Z" fill="black"/>
<path d="M257.69 62.7551C257.544 61.0849 256.413 59.9781 254.386 59.9781C253.438 59.9781 252.762 60.128 251.977 60.7666L251.393 61.8545V56.4492H249.896V69.7563H251.393V65.5706C251.393 62.3057 252.615 61.2349 254.077 61.1988C255.499 61.1615 256.102 62.0247 256.193 63.131C256.229 63.6195 256.229 64.0125 256.229 64.5017V69.7563H257.726V64.408C257.726 63.6195 257.726 63.2436 257.69 62.7551Z" fill="black"/>
<path d="M0 50.7919C0 43.612 1.4047 39.138 5.73411 33.6698C12.0011 25.7162 18.2941 22.3096 16.1139 11.2886C24.4798 17.4723 26.1334 30.7741 22.9238 39.7035C34.7113 29.1431 17.6529 7.72369 43.0912 0C35.3551 14.5609 52.4002 24.3375 46.4494 48.1711C57.2125 33.5439 43.952 23.0731 53.6163 16.8061C52.6098 22.1513 57.3598 25.7885 61.6782 34.336C65.4037 41.7208 65.613 50.228 64.1733 57.3998C61.5256 66.0073 57.9053 73.9693 49.1775 77.2456C37.6313 81.5806 27.5508 79.8193 16.2232 76.2521C4.71499 72.3979 0 59.8119 0 50.7919Z" fill="#D6D276"/>
<path d="M58.2819 67.9462L58.2413 68.0758L58.199 68.2052L58.155 68.3348L58.1093 68.4641L58.062 68.5934L58.013 68.7227L57.9623 68.8517L57.9104 68.9807L57.857 69.1096L57.802 69.2379L57.7457 69.3666L57.6881 69.4945L57.6294 69.6225L57.5691 69.7502L57.5078 69.8771H57.5074L57.4451 70.0041H57.4448L57.3811 70.1307L57.3161 70.257L57.2502 70.383L57.1832 70.5083L57.1152 70.6333L57.0462 70.7579H57.0459L56.9762 70.8819L56.9052 71.0056L56.8336 71.1285L56.7609 71.2508L56.6879 71.3728H56.6876L56.6136 71.4941L56.539 71.6148L56.4637 71.7347L56.3877 71.8544L56.311 71.973L56.234 72.091H56.2337L56.1564 72.2083H56.1561L56.0784 72.3249H56.0781L55.9998 72.4406L55.9208 72.5556L55.8418 72.6699H55.8415L55.7621 72.7832H55.7618L55.6822 72.8958L55.6022 73.0075H55.6018L55.5219 73.1181H55.5215L55.4415 73.2277H55.4412L55.3609 73.3367H55.3606L55.2802 73.4447H55.2799L55.1996 73.5517H55.1993L55.1189 73.6573H55.1186L55.0383 73.7623H55.038L54.9603 73.8623C53.3227 75.2533 51.4187 76.4041 49.1775 77.2456C49.0376 77.2982 48.8983 77.3492 48.7586 77.3999L48.7436 77.4052L48.7286 77.4105C48.5577 77.4705 48.3857 77.5285 48.2191 77.5855C47.9051 77.6948 47.5882 77.7921 47.2739 77.8894C46.3298 78.1934 45.3947 78.4483 44.4855 78.6653C44.1716 78.7366 43.8677 78.8116 43.5637 78.8699C43.0169 78.9922 42.46 79.1025 41.9261 79.1988C41.5768 79.2608 41.2239 79.3091 40.8716 79.3574C40.5807 79.4038 40.2888 79.4418 40.0005 79.4778C39.2703 79.5751 38.5578 79.6464 37.8396 79.6947C37.5877 79.7077 37.3317 79.7207 37.0761 79.7327C36.8722 79.7437 36.6655 79.7557 36.4579 79.7557C36.2153 79.7687 35.9864 79.779 35.7554 79.779C35.3522 79.792 34.9536 79.7954 34.5587 79.7924C29.4011 79.6977 24.3065 78.6393 18.9773 77.0879C17.9842 76.789 17.068 76.5014 16.2232 76.2521C6.8982 69.8748 4.40074 54.5384 11.069 43.7704C12.1951 41.9754 15.4697 38.8237 18.9503 36.5552C21.4838 45.2977 18.2488 59.2404 24.1509 57.6407C25.3046 57.3368 25.4509 54.3318 25.5222 50.0373C25.5936 46.0972 27.0133 40.0951 29.9843 36.7748C35.3775 30.7478 38.2055 30.4439 39.416 25.7885C47.7595 35.902 39.9135 49.0699 39.9135 54.1981C39.9135 56.9132 40.5807 60.0419 42.5933 62.2714C46.8477 67.2087 51.6877 49.7724 51.6877 45.7469C55.6872 48.5233 61.4493 57.7131 58.2819 67.9462Z" fill="#E9CF57" stroke="#E9CF57" stroke-width="0.288" stroke-miterlimit="22.9256"/>
<path d="M53.9255 74.6824C52.5328 75.7096 50.9622 76.5757 49.1776 77.2456C49.0376 77.2982 48.8983 77.3492 48.7586 77.3999L48.7436 77.4052L48.7286 77.4105C48.5577 77.4705 48.3857 77.5285 48.2191 77.5855C47.9052 77.6948 47.5882 77.7921 47.274 77.8894C46.3298 78.1934 45.3947 78.4483 44.4856 78.6653C44.1716 78.7366 43.8677 78.8116 43.5637 78.8699C43.0169 78.9922 42.46 79.1025 41.9261 79.1988C41.5768 79.2608 41.2239 79.3091 40.8717 79.3574C40.5807 79.4038 40.2888 79.4418 40.0005 79.4778C39.2703 79.5751 38.5578 79.6464 37.8396 79.6947C37.5877 79.7077 37.3317 79.7207 37.0761 79.7327C36.8722 79.7437 36.6655 79.7557 36.4579 79.7557C36.2153 79.7687 35.9864 79.779 35.7554 79.779C35.3522 79.792 34.9536 79.7953 34.5587 79.7924C29.4011 79.6977 24.3065 78.6393 18.9773 77.0879C17.9842 76.789 17.0681 76.5014 16.2232 76.2521C10.0146 67.0984 8.13429 57.0719 15.9546 49.0569C13.9167 56.259 20.3507 61.5966 23.803 61.2736C27.2552 60.9507 27.6011 56.7119 28.6499 50.5776C29.6837 46.0862 32.0959 44.3422 34.465 42.106C35.7361 40.9063 36.4416 38.5791 38.1566 37.8176C37.0335 45.2537 35.8567 59.9132 41.3636 66.0139C44.3299 71.6457 53.5096 57.7824 53.5096 53.7569C60.6364 61.6192 55.7278 67.3903 53.9255 74.6824Z" fill="#B9C281"/>
<path d="M49.1776 77.2456C48.8633 77.3679 48.5334 77.4782 48.2191 77.5855C47.9052 77.6948 47.5882 77.7921 47.274 77.8894C46.3298 78.1934 45.3947 78.4483 44.4855 78.6653C44.1716 78.7366 43.8677 78.8116 43.5637 78.8699C43.0169 78.9922 42.46 79.1025 41.9261 79.1988C41.5768 79.2608 41.2239 79.3091 40.8717 79.3574C40.5807 79.4038 40.2888 79.4418 40.0005 79.4778C39.2703 79.5751 38.5578 79.6464 37.8396 79.6947C37.5877 79.7077 37.3317 79.7207 37.0761 79.7327C36.8722 79.7437 36.6655 79.7557 36.4579 79.7557C36.2153 79.7687 35.9864 79.779 35.7554 79.779C34.9566 79.805 34.1774 79.792 33.4036 79.7687C33.0153 79.7557 32.6151 79.7327 32.2388 79.7077C31.3427 79.6464 30.4569 79.5621 29.596 79.4647C29.3051 79.4288 29.0132 79.3934 28.7222 79.3451C27.4248 79.1608 26.1884 78.9312 25.0014 78.6779C24.6974 78.6169 24.4065 78.5556 24.1146 78.4843C23.5457 78.349 22.9888 78.2027 22.4419 78.0701C22.164 77.9987 21.8954 77.9247 21.6304 77.8534C21.0965 77.7078 20.5876 77.5625 20.0901 77.4169C19.9084 76.811 19.7501 76.1418 19.7138 75.1483C19.6425 72.9188 19.6918 72.3469 20.4783 70.3474C22.4902 65.1958 30.3726 64.7945 33.9735 58.0783C37.5134 59.7869 35.914 67.8749 37.9979 70.299C41.1886 73.9846 47.6012 72.3239 48.413 67.7776C50.1217 70.0201 50.5229 74.2522 49.1776 77.2456Z" fill="#EADE71"/>
</svg>
