<?xml version="1.0" encoding="UTF-8"?>
<!DOCTYPE svg PUBLIC "-//W3C//DTD SVG 1.1//EN" "http://www.w3.org/Graphics/SVG/1.1/DTD/svg11.dtd">
<!-- Creator: CorelDRAW -->
<svg xmlns="http://www.w3.org/2000/svg" xml:space="preserve" width="36.6122mm" height="8.6571mm" version="1.1" style="shape-rendering:geometricPrecision; text-rendering:geometricPrecision; image-rendering:optimizeQuality; fill-rule:evenodd; clip-rule:evenodd"
viewBox="0 0 3661.22 865.71"
 xmlns:xlink="http://www.w3.org/1999/xlink"
 xmlns:xodm="http://www.corel.com/coreldraw/odm/2003">
 <defs>
  <style type="text/css">
   <![CDATA[
    .fil0 {fill:black;fill-rule:nonzero}
   ]]>
  </style>
 </defs>
 <g id="Camada_x0020_1">
  <metadata id="CorelCorpID_0Corel-Layer"/>
  <g id="_1428247099360">
   <g>
    <polygon class="fil0" points="437.42,488.91 436.8,200.48 295.19,438.02 245.22,438.02 104.22,206.59 104.22,488.91 -0,488.91 -0,8.25 91.95,8.25 271.89,306.84 449.07,8.25 540.44,8.25 541.66,488.91 "/>
    <path class="fil0" d="M939.29 497.2c-68.66,0 -122.24,-19 -160.61,-57.01 -38.26,-38.04 -57.34,-92.29 -57.34,-162.77l0 -269.17 111.28 0 0 265.16c0,86.06 35.71,129.08 107.28,129.08 34.73,0 61.17,-10.43 79.41,-31.28 18.38,-20.86 27.59,-53.42 27.59,-97.8l0 -265.16 110.05 0 0 269.17c0,70.48 -19.18,124.73 -57.33,162.77 -38.24,38.01 -91.65,57.01 -160.33,57.01z"/>
    <path class="fil0" d="M1494.52 497.2c-38.04,0 -74.8,-5.15 -110.36,-15.33 -35.43,-10.42 -63.76,-23.91 -85.23,-40.45l37.71 -83.7c20.6,15.18 45.07,27.28 73.26,36.48 28.37,9.21 56.78,13.79 85.23,13.79 31.64,0 55,-4.67 70.18,-14.09 15.1,-9.35 22.69,-21.86 22.69,-37.4 0,-11.43 -4.53,-20.94 -13.48,-28.5 -9.04,-7.54 -20.47,-13.57 -34.34,-18.11 -13.96,-4.67 -32.79,-9.81 -56.7,-15.32 -36.65,-8.59 -66.54,-17.24 -89.81,-26.05 -23.31,-8.73 -43.38,-22.77 -60.09,-42.02 -16.8,-19.13 -25.14,-44.82 -25.14,-76.94 0,-27.72 7.51,-53.02 22.69,-75.71 15.1,-22.66 37.84,-40.6 68.35,-53.95 30.42,-13.26 67.59,-19.9 111.58,-19.9 30.65,0 60.54,3.67 89.82,11.03 29.42,7.35 55.02,17.91 76.94,31.56l-34.34 84.62c-44.36,-25.31 -88.73,-38.01 -133.03,-38.01 -31.28,0 -54.42,5.11 -69.29,15.32 -14.71,10.04 -22.05,23.3 -22.05,39.84 0,16.41 8.56,28.67 25.75,36.79 17.15,7.98 43.29,15.88 78.47,23.61 36.53,8.59 66.51,17.32 89.81,26.05 23.44,8.6 43.54,22.3 60.09,41.07 16.68,18.86 25.13,44.3 25.13,76.33 0,27.45 -7.67,52.41 -22.99,75.1 -15.32,22.69 -38.32,40.71 -68.99,53.98 -30.64,13.23 -67.96,19.91 -111.86,19.91z"/>
    <polygon class="fil0" points="1844.65,8.25 1955.93,8.25 1955.93,488.91 1844.65,488.91 "/>
    <path class="fil0" d="M2369.77 497.2c-48.88,0 -93.1,-10.57 -132.72,-31.87 -39.71,-21.24 -70.82,-50.75 -93.51,-88.62 -22.66,-37.76 -34.01,-80.44 -34.01,-128.13 0,-47.57 11.35,-90.26 34.01,-128.13 22.69,-37.79 53.8,-67.29 93.51,-88.59 39.62,-21.21 84.14,-31.86 133.64,-31.86 41.48,0 79.1,7.34 112.81,22.05 33.72,14.57 62,35.56 84.92,63.14l-71.44 65.93c-32.48,-37.56 -72.85,-56.42 -121.07,-56.42 -29.66,0 -56.25,6.59 -79.72,19.63 -23.27,13.1 -41.51,31.26 -54.55,54.56 -12.88,23.3 -19.3,49.88 -19.3,79.69 0,29.89 6.42,56.42 19.3,79.72 13.04,23.28 31.28,41.54 54.55,54.56 23.47,13.09 50.06,19.63 79.72,19.63 48.22,0 88.59,-19.02 121.07,-57.03l71.44 65.9c-22.92,28.05 -51.33,49.35 -85.23,64.06 -33.95,14.49 -71.71,21.78 -113.42,21.78z"/>
    <path class="fil0" d="M3029.77 385.92l-223.17 0 -42.6 102.99 -114.03 0 214.27 -480.66 109.73 0 214.91 480.66 -116.81 0 -42.3 -102.99zm-35.26 -84.59l-76.02 -183.94 -76.32 183.94 152.34 0z"/>
    <polygon class="fil0" points="3309,8.25 3420.28,8.25 3420.28,398.18 3661.22,398.18 3661.22,488.91 3309,488.91 "/>
   </g>
   <g>
    <polygon class="fil0" points="1182.2,659.11 1156.76,659.11 1156.76,751.98 1045.17,751.98 1045.17,659.11 1020.04,659.11 1020.04,861.73 1045.17,861.73 1045.17,773.14 1156.76,773.14 1156.76,861.73 1182.2,861.73 "/>
    <path class="fil0" d="M1501.41 779.57c0,-45.69 -23.91,-77.56 -66.81,-77.56 -42.63,0 -73.88,31.87 -73.88,82.45 0,54.89 30.03,81.25 70.79,81.25 31.89,0 61.62,-16.55 67.76,-54.25l-26.36 0c-3.69,22.36 -19.93,34.92 -40.45,34.92 -22.69,0 -42.33,-13.79 -44.47,-54.86l112.81 0c0.61,-5.5 0.61,-9.81 0.61,-11.95zm-67.43 -58.23c25.75,0 39.54,18.38 41.69,50.86l-87.37 0c2.75,-33.09 21.16,-50.86 45.68,-50.86z"/>
    <path class="fil0" d="M1770.88 861.73l25.45 0c-2.45,-17.49 -3.09,-27.91 -3.09,-39.57l0 -58.53c0,-6.75 -0.28,-14.4 -0.92,-20.55 -2.75,-25.44 -18.07,-41.07 -55.17,-41.07 -34.34,0 -57.61,19 -59.78,52.11l26.39 0c1.53,-21.46 12.23,-32.78 33.39,-32.78 20.86,0 29.14,9.48 30.34,23.89 0.64,5.83 0.64,11.95 0.64,18.71l0 3.97 -10.12 0c-61.01,0 -87.67,18.41 -87.67,53.67 0,28.81 22.07,44.13 50.27,44.13 15.01,0 28.5,-2.14 39.23,-9.51l8.29 -16.85 2.75 22.38zm-41.68 -15.35c-19.02,0 -30.97,-8.25 -30.97,-26.97 0,-26.66 26.97,-35.87 69.9,-32.48l0 15.63c0,28.2 -15.35,43.82 -38.93,43.82z"/>
    <path class="fil0" d="M2045.47 702.63c-7.34,0 -15.32,2.44 -21.75,7.06l-14.09 20.83 0 -24.53 -25.14 0 0 155.74 25.14 0 0 -88.59c0,-35.56 19.9,-51.19 46.57,-49.35l0 -19.33c-3.06,-1.22 -6.42,-1.83 -10.73,-1.83z"/>
    <path class="fil0" d="M2258.6 726.54l28.84 0 0 -19.33 -28.84 0 0 -36.14 -25.44 0 0 36.14 -20.83 0 0 19.33 20.83 0 0 90.73c0,8.9 0,15.32 0.3,19.63 1.53,19.3 11.35,27.28 30.98,27.28 7.03,0 14.1,-0.31 21.47,-1.53l0 -18.41c-19.94,2.14 -26.09,-0.92 -27,-15.93 -0.31,-4.28 -0.31,-6.73 -0.31,-11.96l0 -89.81z"/>
    <path class="fil0" d="M2597.95 747.37c-2.45,-27.28 -21.44,-45.36 -55.48,-45.36 -15.93,0 -27.28,2.45 -40.46,12.88l-9.81 17.77 0 -88.29 -25.14 0 0 217.36 25.14 0 0 -68.37c0,-53.33 20.52,-70.82 45.07,-71.41 23.89,-0.61 34.01,13.49 35.54,31.56 0.61,7.98 0.61,14.4 0.61,22.39l0 85.83 25.14 0 0 -87.36c0,-12.88 0,-19.02 -0.61,-27z"/>
   </g>
  </g>
 </g>
</svg>
